<svg width="102" height="86" viewBox="0 0 102 86" fill="none" xmlns="http://www.w3.org/2000/svg">
<path d="M51 11C25.5949 11 5 31.6121 5 57.0383C5 68.0124 8.83647 78.0897 15.2403 86H86.7597C93.1635 78.0897 97 68.0124 97 57.0383C97 31.6121 76.4051 11 51 11Z" fill="#272B4A"/>
<path d="M90.2933 49.6948C90.084 49.9033 89.8354 50.0687 89.5615 50.1816C89.2877 50.2944 88.9941 50.3526 88.6976 50.3526C88.401 50.3526 88.1074 50.2944 87.8336 50.1816C87.5598 50.0687 87.3111 49.9033 87.1019 49.6948L84.6719 47.2841C85.962 46.4678 87.0457 45.368 87.839 44.0698L90.3338 46.5448C90.7459 46.9697 90.9728 47.5385 90.9652 48.1281C90.9576 48.7177 90.7162 49.2806 90.2933 49.6948V49.6948Z" stroke="#4F5794" stroke-width="1.5" stroke-linecap="round" stroke-linejoin="round"/>
<path d="M79.3827 29.1792C77.8559 29.1809 76.3504 29.5344 74.9848 30.2119C73.6192 30.8894 72.431 31.8723 71.5136 33.0831C70.5963 34.2939 69.9751 35.6996 69.6988 37.1893C69.4226 38.679 69.4989 40.2119 69.9218 41.6674C70.3447 43.1228 71.1026 44.4609 72.1357 45.5761C73.1689 46.6913 74.449 47.5533 75.8752 48.0939C77.3015 48.6346 78.8348 48.8392 80.3543 48.6916C81.8738 48.544 83.3381 48.0483 84.6315 47.2435C85.9217 46.4271 87.0053 45.3274 87.7986 44.0292C88.7018 42.5466 89.1922 40.8527 89.2197 39.1205C89.2471 37.3884 88.8107 35.68 87.9549 34.17C87.0991 32.6599 85.8546 31.4023 84.3486 30.5254C82.8426 29.6486 81.1289 29.184 79.3827 29.1792ZM86.1948 42.4703C85.8291 43.161 85.3593 43.7924 84.8016 44.3426C84.2789 44.8638 83.6811 45.3052 83.0277 45.6524C81.4187 46.5161 79.5509 46.7789 77.7633 46.3931C75.9757 46.0073 74.3868 44.9985 73.2849 43.5497C72.183 42.1009 71.6413 40.3082 71.7579 38.497C71.8746 36.6858 72.642 34.9761 73.9208 33.6783C75.1996 32.3804 76.905 31.5804 78.7276 31.4235C80.5502 31.2666 82.3691 31.7631 83.8541 32.823C85.3392 33.8829 86.392 35.4358 86.8215 37.2C87.251 38.9642 87.0286 40.8227 86.1948 42.4381V42.4703Z" stroke="#4F5794" stroke-width="1.5" stroke-linecap="round" stroke-linejoin="round"/>
<path d="M36.9798 56.6913L32.784 47.3618L32.0388 45.7064C31.9051 45.4132 31.8408 45.0935 31.8506 44.7718C31.8604 44.4501 31.9442 44.1349 32.0955 43.8502C32.3085 43.3915 32.6829 43.0258 33.1485 42.8216C33.6793 42.5885 34.2815 42.5735 34.8234 42.7798C35.3653 42.9861 35.8028 43.397 36.0402 43.9225L40.2198 53.268L40.3494 53.5573C40.3464 53.584 40.3464 53.611 40.3494 53.6377L40.398 53.7743L41.7345 56.7234" stroke="#4F5794" stroke-width="1.5" stroke-linecap="round" stroke-linejoin="round"/>
<path d="M59.0689 56.4822C59.2254 56.3723 59.3527 56.2264 59.4402 56.0571C59.5276 55.8879 59.5725 55.7001 59.5711 55.5099V26.3483C59.5711 26.1946 59.5405 26.0424 59.481 25.9006C59.4214 25.7587 59.3342 25.6299 59.2243 25.5216C59.1144 25.4132 58.9839 25.3276 58.8405 25.2695C58.697 25.2114 58.5435 25.1821 58.3885 25.1831H17.2243C17.0701 25.1831 16.9174 25.2133 16.7749 25.2718C16.6324 25.3304 16.5029 25.4162 16.3938 25.5244C16.2848 25.6326 16.1983 25.7611 16.1392 25.9024C16.0802 26.0438 16.0498 26.1953 16.0498 26.3483V55.518C16.0488 55.6716 16.0784 55.824 16.1369 55.9663C16.1954 56.1086 16.2818 56.238 16.391 56.3471C16.5001 56.4561 16.63 56.5427 16.773 56.6017C16.916 56.6608 17.0694 56.6912 17.2243 56.6912H33.9913" stroke="#4F5794" stroke-width="2" stroke-linecap="round" stroke-linejoin="round"/>
<path d="M45.6634 47.3535C44.3253 46.9473 43.1272 46.1806 42.2025 45.1386C41.2778 44.0967 40.6629 42.8205 40.4263 41.4523C40.1896 40.0841 40.3405 38.6776 40.8621 37.3894C41.3838 36.1013 42.2557 34.9821 43.3807 34.1566C44.5057 33.3311 45.8397 32.8317 47.234 32.714C48.6283 32.5963 50.0281 32.865 51.2775 33.49C52.527 34.1151 53.5769 35.0721 54.3105 36.2542C55.044 37.4364 55.4322 38.7975 55.432 40.1857C55.4438 40.3542 55.4438 40.5234 55.432 40.6919C55.3587 41.8473 55.0136 42.9696 54.4242 43.9688C53.8348 44.9679 53.0176 45.8162 52.0381 46.4455" stroke="#4F5794" stroke-width="1.5" stroke-linecap="round" stroke-linejoin="round"/>
<path d="M55.432 40.1856C55.4441 40.3514 55.4441 40.5179 55.432 40.6838H47.8828V32.6963C49.885 32.6963 51.8052 33.4853 53.2209 34.8898C54.6366 36.2944 55.432 38.1993 55.432 40.1856V40.1856Z" stroke="#4F5794" stroke-width="1.5" stroke-linecap="round" stroke-linejoin="round"/>
<path d="M20.7559 28.6865V53.1874" stroke="#4F5794" stroke-width="1.5" stroke-linecap="round" stroke-linejoin="round"/>
<path d="M31.9339 29.9644H20.7559V33.4679H31.9339V29.9644Z" fill="#4F5794" stroke="#4F5794" stroke-width="1.5" stroke-linecap="round" stroke-linejoin="round"/>
<path d="M30.7513 35.7983H20.7559V39.3019H30.7513V35.7983Z" fill="#4F5794" stroke="#4F5794" stroke-width="1.5" stroke-linecap="round" stroke-linejoin="round"/>
<path d="M23.1049 42.1064H20.7559V45.61H23.1049V42.1064Z" fill="#4F5794" stroke="#4F5794" stroke-width="1.5" stroke-linecap="round" stroke-linejoin="round"/>
<path d="M23.1049 47.9399H20.7559V51.4435H23.1049V47.9399Z" fill="#4F5794" stroke="#4F5794" stroke-width="1.5" stroke-linecap="round" stroke-linejoin="round"/>
<path d="M37.7822 58.483C37.2724 58.6561 36.809 58.9422 36.4273 59.3195C36.0455 59.6969 35.7554 60.1555 35.579 60.6607C35.2712 61.7053 35.5142 63.0714 36.3161 64.8312C40.3661 73.8714 45.7445 69.524 48.3122 75.2776L59.7899 70.1428L58.5668 67.4187C57.4409 64.8955 58.4696 63.224 57.2951 59.5437C57.0834 58.8849 56.8346 58.2383 56.5499 57.6071L56.1449 56.691L53.3099 50.4151C53.0498 49.9621 52.6344 49.6167 52.1394 49.4418C51.6443 49.2668 51.1025 49.2738 50.6122 49.4615C50.1219 49.6493 49.7158 50.0053 49.4677 50.4649C49.2195 50.9244 49.1458 51.4571 49.2599 51.966" stroke="#4F5794" stroke-width="1.5" stroke-linecap="round" stroke-linejoin="round"/>
<path d="M49.3329 52.1832C49.2984 52.1129 49.2686 52.0405 49.2438 51.9662L48.8955 51.1627C48.6468 50.6547 48.2089 50.2624 47.6741 50.0687C47.1394 49.8749 46.5498 49.8948 46.0295 50.1242C45.5093 50.3536 45.0993 50.7745 44.886 51.298C44.6726 51.8216 44.6726 52.407 44.886 52.9305L44.4486 51.9421C44.237 51.4029 43.8182 50.9692 43.2842 50.7364C42.7503 50.5036 42.145 50.4907 41.6015 50.7006C41.058 50.9105 40.6208 51.3261 40.3861 51.8558C40.1514 52.3855 40.1384 52.986 40.35 53.5252C40.3471 53.5519 40.3471 53.5788 40.35 53.6055" stroke="#4F5794" stroke-width="1.5" stroke-linecap="round" stroke-linejoin="round"/>
<path d="M36.9805 56.6909L37.7824 58.4909L38.6896 60.4998L39.7912 62.9507" stroke="#4F5794" stroke-width="1.5" stroke-linecap="round" stroke-linejoin="round"/>
<path d="M45.8575 55.1079L44.8936 52.9624" stroke="#4F5794" stroke-width="1.5" stroke-linecap="round" stroke-linejoin="round"/>
<path d="M40.2207 53.2676L40.3503 53.5569C40.3474 53.5836 40.3474 53.6105 40.3503 53.6372" stroke="#4F5794" stroke-width="1.5" stroke-linecap="round" stroke-linejoin="round"/>
<path d="M41.792 56.7156L41.7754 56.6909" stroke="#4F5794" stroke-width="1.5" stroke-linecap="round" stroke-linejoin="round"/>
<path d="M49.8594 53.3401L48.8955 51.1865" stroke="#4F5794" stroke-width="1.5" stroke-linecap="round" stroke-linejoin="round"/>
<path d="M37.7822 58.483C37.2724 58.6561 36.809 58.9422 36.4273 59.3195C36.0455 59.6969 35.7554 60.1555 35.579 60.6607C35.2712 61.7053 35.5142 63.0714 36.3161 64.8312C40.3661 73.8714 45.7445 69.524 48.3122 75.2776L59.7899 70.1428L58.5668 67.4187C57.4409 64.8955 58.4696 63.224 57.2951 59.5437C57.0834 58.8849 56.8346 58.2383 56.5499 57.6071L56.1449 56.691L53.3099 50.4151C53.0498 49.9621 52.6344 49.6167 52.1394 49.4418C51.6443 49.2668 51.1025 49.2738 50.6122 49.4615C50.1219 49.6493 49.7158 50.0053 49.4677 50.4649C49.2195 50.9244 49.1458 51.4571 49.2599 51.966" stroke="#4F5794" stroke-width="1.5" stroke-linecap="round" stroke-linejoin="round"/>
<path d="M49.3329 52.1832C49.2984 52.1129 49.2686 52.0405 49.2438 51.9662L48.8955 51.1627C48.6468 50.6547 48.2089 50.2624 47.6741 50.0687C47.1394 49.8749 46.5498 49.8948 46.0295 50.1242C45.5093 50.3536 45.0993 50.7745 44.886 51.298C44.6726 51.8216 44.6726 52.407 44.886 52.9305L44.4486 51.9421C44.237 51.4029 43.8182 50.9692 43.2842 50.7364C42.7503 50.5036 42.145 50.4907 41.6015 50.7006C41.058 50.9105 40.6208 51.3261 40.3861 51.8558C40.1514 52.3855 40.1384 52.986 40.35 53.5252C40.3471 53.5519 40.3471 53.5788 40.35 53.6055" stroke="#4F5794" stroke-width="1.5" stroke-linecap="round" stroke-linejoin="round"/>
<path d="M36.9805 56.6909L37.7824 58.4909L38.6896 60.4998L39.7912 62.9507" stroke="#4F5794" stroke-width="1.5" stroke-linecap="round" stroke-linejoin="round"/>
<path d="M50.3287 85.0651L48.0931 80.0991C47.976 79.8359 47.9691 79.5373 48.0739 79.2691C48.1787 79.0008 48.3867 78.7849 48.652 78.6687L62.1547 72.6901C62.2859 72.6315 62.4275 72.5994 62.5714 72.5956C62.7152 72.5918 62.8584 72.6164 62.9925 72.668C63.1267 72.7196 63.2492 72.7971 63.3529 72.8961C63.4565 72.9951 63.5393 73.1136 63.5965 73.2446L69.5 85.0651" stroke="#4F5794" stroke-width="1.5" stroke-linecap="round" stroke-linejoin="round"/>
<path d="M62.1551 72.6901L61.2641 70.7053C61.2071 70.5703 61.1231 70.4481 61.0172 70.3461C60.9113 70.2441 60.7857 70.1644 60.648 70.1119C60.5103 70.0593 60.3632 70.0349 60.2157 70.0403C60.0683 70.0456 59.9234 70.0805 59.7899 70.1428L48.2879 75.2294C48.1562 75.2876 48.0375 75.3711 47.9385 75.475C47.8394 75.579 47.7621 75.7013 47.7109 75.835C47.6597 75.9686 47.6357 76.111 47.6402 76.254C47.6447 76.3969 47.6776 76.5375 47.7371 76.6678L48.6281 78.6526L62.1551 72.6901Z" stroke="#4F5794" stroke-width="1.5" stroke-linecap="round" stroke-linejoin="round"/>
<path d="M31.8284 5.54102L29.6738 6.54548" stroke="#4F5794" stroke-width="1.5" stroke-linecap="round" stroke-linejoin="round"/>
<path d="M41.0138 13.1347L32.4278 14.9106C32.1252 14.9701 31.811 14.9091 31.5534 14.7407C31.2957 14.5723 31.1152 14.31 31.0508 14.0106L30.8564 13.0624L37.8062 9.84812C38.0876 9.71587 38.3044 9.47824 38.4092 9.18743C38.514 8.89662 38.4982 8.57644 38.3651 8.29723L36.6074 4.6008L39.1103 4.0383C39.4132 3.9766 39.7284 4.03675 39.9866 4.20551C40.2449 4.37428 40.425 4.63785 40.4873 4.9383L41.9129 11.7606C41.945 11.9094 41.9472 12.063 41.9194 12.2127C41.8915 12.3623 41.8342 12.5051 41.7507 12.6327C41.6672 12.7603 41.5591 12.8704 41.4327 12.9565C41.3062 13.0427 41.1639 13.1032 41.0138 13.1347V13.1347Z" stroke="#4F5794" stroke-width="1.5" stroke-linecap="round" stroke-linejoin="round"/>
<path d="M31.8197 5.54103L29.6651 6.54549L31.8197 5.54103ZM38.3564 8.2571L36.5987 4.56067L35.3594 1.96514C35.295 1.8265 35.2035 1.70198 35.0901 1.59882C34.9767 1.49567 34.8438 1.41596 34.699 1.36434C34.5542 1.31273 34.4005 1.29024 34.2469 1.29819C34.0933 1.30615 33.9428 1.34438 33.8042 1.41067L25.8743 5.11513C25.5993 5.2517 25.3893 5.48978 25.2894 5.77825C25.1894 6.06673 25.2075 6.38258 25.3397 6.65799L28.3448 12.958C28.4091 13.0966 28.5007 13.2211 28.614 13.3243C28.7274 13.4275 28.8604 13.5072 29.0052 13.5588C29.15 13.6104 29.3036 13.6329 29.4573 13.6249C29.6109 13.617 29.7614 13.5787 29.9 13.5125L30.8882 13.0544L37.838 9.84013C37.9786 9.77188 38.1041 9.67643 38.207 9.55939C38.3099 9.44234 38.3881 9.30607 38.4372 9.15859C38.4862 9.0111 38.5051 8.85537 38.4926 8.70056C38.4801 8.54575 38.4366 8.39497 38.3645 8.2571H38.3564Z" stroke="#4F5794" stroke-width="1.5" stroke-linecap="round" stroke-linejoin="round"/>
<path d="M31.8284 5.54102L29.6738 6.54548" stroke="#4F5794" stroke-width="1.5" stroke-linecap="round" stroke-linejoin="round"/>
<path d="M33.9989 4.52856L31.8281 5.54107" stroke="#4F5794" stroke-width="1.5" stroke-linecap="round" stroke-linejoin="round"/>
<path d="M29.673 6.54541L28.1826 7.24452" stroke="#4F5794" stroke-width="1.5" stroke-linecap="round" stroke-linejoin="round"/>
<path d="M29.4307 9.87219L33.1324 8.13647" stroke="#4F5794" stroke-width="1.5" stroke-linecap="round" stroke-linejoin="round"/>
<path d="M5.7982 63.2777L8.46581 62.3837C8.51535 62.3674 8.55836 62.3356 8.58853 62.293C8.61871 62.2503 8.63447 62.1991 8.63349 62.1469C8.63331 62.0949 8.6171 62.0442 8.58709 62.0018C8.55707 61.9594 8.51471 61.9273 8.46581 61.91L6.27075 61.1459C6.12366 61.0963 5.99001 61.0132 5.88026 60.9032C5.77052 60.7932 5.68765 60.6592 5.63815 60.5117L4.87597 58.3112C4.85868 58.2621 4.8267 58.2197 4.7844 58.1896C4.74211 58.1595 4.69156 58.1432 4.6397 58.1431C4.58996 58.1498 4.54351 58.1718 4.50668 58.206C4.46985 58.2401 4.44444 58.2849 4.43391 58.3341L3.67174 60.5346C3.622 60.6832 3.53815 60.818 3.42695 60.9282C3.31575 61.0383 3.1803 61.1208 3.03151 61.1688L0.836453 61.9329C0.795611 61.9538 0.761242 61.9855 0.737062 62.0246C0.712882 62.0636 0.699811 62.1085 0.699262 62.1545C0.698283 62.2068 0.714038 62.258 0.744216 62.3006C0.774394 62.3432 0.817405 62.375 0.86694 62.3914L3.062 63.1555C3.21104 63.2054 3.34645 63.2893 3.45756 63.4007C3.56867 63.5121 3.65243 63.6479 3.70223 63.7973L4.43391 65.9749C4.4502 66.0246 4.48193 66.0677 4.52445 66.098C4.56698 66.1282 4.61805 66.144 4.67019 66.143C4.72205 66.1428 4.77259 66.1266 4.81489 66.0965C4.85719 66.0664 4.88917 66.0239 4.90646 65.9749L5.7982 63.2777Z" stroke="#A6ACDC" stroke-width="1.2" stroke-linecap="round" stroke-linejoin="round"/>
<path d="M96.7028 72.6709L100.704 71.3338C100.777 71.3072 100.839 71.259 100.884 71.1957C100.928 71.1323 100.951 71.0568 100.951 70.9795C100.951 70.9021 100.928 70.8267 100.884 70.7633C100.839 70.6999 100.777 70.6517 100.704 70.6252L97.421 69.4823C97.2002 69.4097 96.9994 69.286 96.8351 69.1212C96.6707 68.9564 96.5473 68.7552 96.4748 68.5338L95.3348 65.2423C95.3058 65.1707 95.2561 65.1094 95.1922 65.0662C95.1282 65.0231 95.0528 65 94.9757 65C94.8986 65 94.8233 65.0231 94.7593 65.0662C94.6953 65.1094 94.6457 65.1707 94.6166 65.2423L93.4766 68.5338C93.4026 68.7543 93.2786 68.9547 93.1145 69.1193C92.9503 69.2838 92.7504 69.4081 92.5304 69.4823L89.2472 70.6252C89.1748 70.6517 89.1122 70.6999 89.0679 70.7633C89.0237 70.8267 89 70.9021 89 70.9795C89 71.0568 89.0237 71.1323 89.0679 71.1957C89.1122 71.259 89.1748 71.3072 89.2472 71.3338L92.5304 72.4766C92.7521 72.5512 92.9532 72.6769 93.1176 72.8437C93.2819 73.0104 93.4049 73.2135 93.4766 73.4366L94.6166 76.728C94.6457 76.7997 94.6953 76.861 94.7593 76.9041C94.8233 76.9473 94.8986 76.9704 94.9757 76.9704C95.0528 76.9704 95.1282 76.9473 95.1922 76.9041C95.2561 76.861 95.3058 76.7997 95.3348 76.728L96.7028 72.6709Z" stroke="#A6ACDC" stroke-width="1.2" stroke-linecap="round" stroke-linejoin="round"/>
</svg>
