<svg width="100" height="100" viewBox="0 0 100 100" fill="none" xmlns="http://www.w3.org/2000/svg">
<mask id="path-1-inside-1_17318_208552" fill="white">
<path d="M100 50C100 77.6142 77.6142 100 50 100C22.3858 100 0 77.6142 0 50C0 22.3858 22.3858 0 50 0C77.6142 0 100 22.3858 100 50ZM4 50C4 75.4051 24.5949 96 50 96C75.4051 96 96 75.4051 96 50C96 24.5949 75.4051 4 50 4C24.5949 4 4 24.5949 4 50Z"/>
</mask>
<path d="M100 50C100 77.6142 77.6142 100 50 100C22.3858 100 0 77.6142 0 50C0 22.3858 22.3858 0 50 0C77.6142 0 100 22.3858 100 50ZM4 50C4 75.4051 24.5949 96 50 96C75.4051 96 96 75.4051 96 50C96 24.5949 75.4051 4 50 4C24.5949 4 4 24.5949 4 50Z" stroke="url(#paint0_linear_17318_208552)" stroke-width="8" stroke-linecap="round" mask="url(#path-1-inside-1_17318_208552)"/>
<mask id="mask0_17318_208552" style="mask-type:alpha" maskUnits="userSpaceOnUse" x="12" y="12" width="76" height="76">
<circle cx="50" cy="50" r="38" fill="#C4C4C4"/>
</mask>
<g mask="url(#mask0_17318_208552)">
<circle cx="50" cy="50" r="38" fill="#FFFCF7"/>
</g>
<path fill-rule="evenodd" clip-rule="evenodd" d="M42.7613 39.304V37.8562C42.7613 36.2639 41.4585 34.9609 39.866 34.9609C38.2736 34.9609 36.9707 36.2639 36.9707 37.8562V39.304C36.9707 40.8963 38.2736 42.1993 39.866 42.1993C41.4585 42.1991 42.7613 40.8963 42.7613 39.304Z" fill="#FFDCD5"/>
<path fill-rule="evenodd" clip-rule="evenodd" d="M42.0201 41.2349C41.4891 41.8259 40.7198 42.1992 39.8675 42.1992C39.0151 42.1992 38.2458 41.8259 37.7149 41.2347C35.9968 42.0478 34.8008 43.8 34.8008 45.8181V47.2657H44.9343V45.8182C44.9341 43.8001 43.7381 42.0478 42.0201 41.2349Z" fill="#4F5794"/>
<path fill-rule="evenodd" clip-rule="evenodd" d="M21.8359 50.0001C21.8359 34.4455 34.4453 21.8359 49.9999 21.8359C57.7772 21.8359 64.8183 24.9882 69.915 30.085C75.0118 35.1817 78.1641 42.2227 78.1641 49.9999C78.1641 65.5545 65.5545 78.1641 49.9999 78.1641C42.2226 78.1641 35.1816 75.0116 30.0848 69.915C24.9882 64.8184 21.8359 57.7774 21.8359 50.0001ZM83.6328 50.0001C83.6328 31.4252 68.5749 16.3672 49.9999 16.3672C31.425 16.3672 16.3672 31.4252 16.3672 50.0001C16.3672 68.5749 31.4251 83.633 49.9999 83.633C68.5748 83.633 83.6328 68.5751 83.6328 50.0001Z" fill="#6A73B5"/>
<path fill-rule="evenodd" clip-rule="evenodd" d="M52.8959 39.304V37.8562C52.8959 36.2639 51.593 34.9609 50.0006 34.9609C48.4083 34.9609 47.1055 36.2639 47.1055 37.8562V39.304C47.1055 40.8963 48.4083 42.1993 50.0008 42.1993C51.593 42.1991 52.8959 40.8963 52.8959 39.304Z" fill="#FFDCD5"/>
<path fill-rule="evenodd" clip-rule="evenodd" d="M52.1529 41.2349C51.6219 41.8259 50.8526 42.1992 50.0003 42.1992C49.148 42.1992 48.3786 41.8259 47.8478 41.2347C46.1296 42.0478 44.9336 43.8 44.9336 45.8181V47.2657H55.0671V45.8182C55.0671 43.8001 53.8709 42.0478 52.1529 41.2349Z" fill="#E3EAEF"/>
<path fill-rule="evenodd" clip-rule="evenodd" d="M63.0289 39.304V37.8562C63.0289 36.2639 61.7261 34.9609 60.1336 34.9609C58.5412 34.9609 57.2383 36.2639 57.2383 37.8562V39.304C57.2383 40.8963 58.5412 42.1993 60.1336 42.1993C61.7261 42.1991 63.0289 40.8963 63.0289 39.304Z" fill="#FFDCD5"/>
<path fill-rule="evenodd" clip-rule="evenodd" d="M62.2857 41.2349C61.7547 41.8259 60.9854 42.1992 60.1331 42.1992C59.2808 42.1992 58.5115 41.8259 57.9806 41.2347C56.2624 42.0478 55.0664 43.8 55.0664 45.8181V47.2657H65.1999V45.8182C65.1997 43.8001 64.0037 42.0478 62.2857 41.2349Z" fill="#4F5794"/>
<path fill-rule="evenodd" clip-rule="evenodd" d="M63.0289 57.0775V55.6298C63.0289 54.0374 61.7261 52.7345 60.1336 52.7345C58.5412 52.7345 57.2383 54.0374 57.2383 55.6298V57.0775C57.2383 58.6699 58.5412 59.9728 60.1336 59.9728C61.7261 59.9728 63.0289 58.6699 63.0289 57.0775Z" fill="#FFDCD5"/>
<path fill-rule="evenodd" clip-rule="evenodd" d="M62.2857 59.0084C61.7547 59.5995 60.9854 59.9727 60.1331 59.9727C59.2808 59.9727 58.5115 59.5995 57.9806 59.0083C56.2624 59.8214 55.0664 61.5736 55.0664 63.5917V65.0391H65.1999V63.5917C65.1997 61.5737 64.0037 59.8214 62.2857 59.0084Z" fill="#E3EAEF"/>
<path fill-rule="evenodd" clip-rule="evenodd" d="M52.8959 57.0775V55.6298C52.8959 54.0374 51.5931 52.7345 50.0006 52.7345C48.4083 52.7345 47.1055 54.0374 47.1055 55.6298V57.0775C47.1055 58.6699 48.4083 59.9728 50.0008 59.9728C51.593 59.9728 52.8959 58.6699 52.8959 57.0775Z" fill="#FFDCD5"/>
<path fill-rule="evenodd" clip-rule="evenodd" d="M52.1529 59.0084C51.6219 59.5995 50.8526 59.9727 50.0003 59.9727C49.148 59.9727 48.3786 59.5995 47.8478 59.0083C46.1296 59.8214 44.9336 61.5736 44.9336 63.5917V65.0391H55.0671V63.5917C55.0671 61.5737 53.8709 59.8214 52.1529 59.0084Z" fill="#4F5794"/>
<path fill-rule="evenodd" clip-rule="evenodd" d="M42.7612 57.0775V55.6298C42.7612 54.0374 41.4584 52.7345 39.8659 52.7345C38.2735 52.7345 36.9707 54.0374 36.9707 55.6298V57.0775C36.9707 58.6699 38.2735 59.9728 39.866 59.9728C41.4584 59.9728 42.7612 58.6699 42.7612 57.0775Z" fill="#FFDCD5"/>
<path fill-rule="evenodd" clip-rule="evenodd" d="M42.0201 59.0084C41.4891 59.5995 40.7198 59.9727 39.8675 59.9727C39.0151 59.9727 38.2458 59.5995 37.7149 59.0083C35.9968 59.8214 34.8008 61.5736 34.8008 63.5917V65.0391H44.9343V63.5917C44.9343 61.5737 43.7382 59.8214 42.0201 59.0084Z" fill="#E3EAEF"/>
<path fill-rule="evenodd" clip-rule="evenodd" d="M36.9714 55.6299C36.9714 54.0375 38.2741 52.7346 39.8665 52.7346C41.459 52.7346 42.7618 54.0375 42.7618 55.6299V57.0776C42.7618 57.1331 42.7602 57.1883 42.757 57.2432L52.7345 47.2656H44.9333H34.7999V45.818C34.7999 43.7998 35.9959 42.0476 37.7137 41.2348C37.2526 40.7215 36.9712 40.044 36.9712 39.3039V37.8562C36.9712 36.2638 38.274 34.9609 39.8665 34.9609C41.4589 34.9609 42.7617 36.2637 42.7617 37.8562V39.3039C42.7617 40.044 42.4802 40.7215 42.019 41.2348C43.733 42.0458 44.9276 43.7918 44.933 45.8041C44.9386 43.7918 46.133 42.0459 47.847 41.2348C47.3859 40.7215 47.1045 40.044 47.1045 39.3038V37.8561C47.1047 36.2638 48.4076 34.9609 49.9999 34.9609C51.5924 34.9609 52.8952 36.2638 52.8952 37.8562V39.3039C52.8952 40.0441 52.6137 40.7215 52.1526 41.2349C53.6337 41.9357 54.7269 43.3346 55.0002 45L55.1626 44.8376C55.4784 43.2437 56.5481 41.9128 57.9808 41.2349C57.5196 40.7217 57.2381 40.0441 57.2381 39.3039V37.8562C57.2381 36.2638 58.5409 34.9609 60.1334 34.9609C61.4567 34.9609 62.5798 35.8605 62.9219 37.0783L69.9152 30.085C64.8183 24.9884 57.7773 21.8359 49.9999 21.8359C34.4453 21.8359 21.8359 34.4455 21.8359 50.0001C21.8359 57.7773 24.9883 64.8185 30.085 69.9152L34.9609 65.0393H34.8V63.5917C34.8 61.5734 35.996 59.8214 37.714 59.0083C37.2529 58.4951 36.9715 57.8175 36.9715 57.0773V55.6299H36.9714Z" fill="white"/>
<path fill-rule="evenodd" clip-rule="evenodd" d="M60.1343 52.7345C61.7268 52.7345 63.0296 54.0375 63.0296 55.6298V57.0775C63.0296 57.8177 62.7481 58.4952 62.287 59.0085C64.005 59.8215 65.2011 61.5738 65.2011 63.5919V65.0395H55.0677H44.9342H34.9619L30.0859 69.9154C35.1827 75.0121 42.2237 78.1644 50.001 78.1644C65.5556 78.1644 78.1652 65.5549 78.1652 50.0003C78.1652 42.2229 75.0129 35.1819 69.9161 30.0853L62.9229 37.0786C62.9924 37.3264 63.0296 37.5873 63.0296 37.8564V39.3041C63.0296 40.0443 62.7481 40.7218 62.287 41.2351C64.005 42.0481 65.2011 43.8004 65.2011 45.8185V47.2655H55.0677H52.7355L42.7581 57.243C42.7195 57.9183 42.4468 58.5336 42.0202 59.0084C43.7382 59.8213 44.9344 61.5737 44.9344 63.5918C44.9344 63.5871 44.9344 63.5823 44.9344 63.5777C44.94 61.5654 46.1344 59.8195 47.8484 59.0084C47.3873 58.4952 47.1059 57.8176 47.1059 57.0774V55.6297C47.1059 54.0373 48.4087 52.7344 50.001 52.7344C51.5935 52.7344 52.8963 54.0373 52.8963 55.6297V57.0774C52.8963 57.8176 52.6148 58.495 52.1537 59.0084C53.8717 59.8213 55.0678 61.5737 55.0678 63.5918C55.0678 63.5871 55.0678 63.5823 55.0678 63.5777C55.0734 61.5654 56.2678 59.8195 57.9818 59.0084C57.5207 58.4952 57.2392 57.8176 57.2392 57.0774V55.6297C57.239 54.0375 58.5418 52.7345 60.1343 52.7345Z" fill="white"/>
<path d="M49.9999 15C30.7009 15 15 30.7009 15 50.0001C15 69.2993 30.7009 85.0001 49.9999 85.0001C69.2991 85.0001 85 69.2993 85 50.0001C85 30.7009 69.2991 15 49.9999 15ZM49.9999 17.7344C58.4048 17.7344 66.0683 20.9658 71.8164 26.2502L26.2502 71.8164C20.9658 66.0685 17.7344 58.405 17.7344 50.0001C17.7344 32.2088 32.2086 17.7344 49.9999 17.7344ZM49.9999 82.2658C41.595 82.2658 33.9315 79.0343 28.1836 73.75L73.75 28.1838C79.0343 33.9318 82.2658 41.5952 82.2658 50.0001C82.2658 67.7914 67.7914 82.2658 49.9999 82.2658Z" fill="#4F5794"/>
<defs>
<linearGradient id="paint0_linear_17318_208552" x1="95" y1="19.5" x2="19" y2="95.5" gradientUnits="userSpaceOnUse">
<stop stop-color="#4C5387"/>
<stop offset="1" stop-color="#B4B7CA"/>
</linearGradient>
</defs>
</svg>
