<svg width="20" height="26" viewBox="0 0 20 26" fill="none" xmlns="http://www.w3.org/2000/svg">
<path d="M2.69897 7.2999V14.6678H17.2996V7.2999C17.2996 3.27496 14.0246 -1.14441e-05 9.99889 -1.14441e-05C5.97313 -1.14441e-05 2.69897 3.27496 2.69897 7.2999ZM3.92709 7.2999C3.92709 3.94633 6.64532 1.22728 9.99889 1.22728C13.3525 1.22728 16.0707 3.94633 16.0707 7.2999V13.4397H3.92709V7.2999Z" fill="#F3F3F3"/>
<path d="M3.92725 7.29986V13.4396H16.0717V7.29986C16.0717 3.94628 13.3534 1.22723 9.99987 1.22723C6.64629 1.22723 3.92725 3.94628 3.92725 7.29986ZM5.15536 7.29986C5.15536 4.62911 7.32831 2.45617 9.99987 2.45617C12.6714 2.45617 14.8444 4.62911 14.8444 7.29986V12.2115H5.15536V7.29986Z" fill="#E5E5E5"/>
<path d="M1.8516 26.0001H18.1487C19.0526 26.0001 19.7862 25.2673 19.7862 24.3626V12.5276C19.7862 11.6237 19.0526 10.8901 18.1487 10.8901H1.8516C0.946886 10.8901 0.214111 11.6237 0.214111 12.5276V24.3626C0.214111 25.2673 0.946886 26.0001 1.8516 26.0001Z" fill="#FFCC5B"/>
<path d="M12.8506 19.4926H13.4703C13.996 19.4926 14.4217 19.0644 14.4185 18.5388V18.4733V18.4594C14.4217 17.9059 13.9714 17.4532 13.4188 17.4532H12.6172C12.0048 17.4532 11.4554 16.9947 11.4235 16.3831C11.3891 15.7305 11.9082 15.191 12.5534 15.191H15.4452C15.9921 15.191 16.3998 14.7317 16.3933 14.1847C16.3933 14.1806 16.3933 14.1757 16.3933 14.1708C16.3933 14.1659 16.3933 14.1618 16.3933 14.1569C16.3998 13.61 15.9921 13.1515 15.4452 13.1515H14.5102C13.8977 13.1515 13.3484 12.693 13.3164 12.0814C13.282 11.4288 13.8011 10.8893 14.4463 10.8893H18.1486C19.0525 10.8893 19.7861 11.6221 19.7861 12.5268V24.3617C19.7861 25.2664 19.0525 25.9992 18.1486 25.9992H13.3533C12.7286 25.9992 12.2218 25.4924 12.2218 24.8677C12.2218 24.243 12.7286 23.7362 13.3533 23.7362H14.8663C15.3895 23.7362 15.8152 23.308 15.8128 22.7848V22.7725C15.8128 22.7496 15.8136 22.7267 15.8152 22.7038C15.8463 22.188 15.437 21.7532 14.9203 21.7532H12.9144C12.302 21.7532 11.7526 21.2947 11.7207 20.6831C11.6871 20.0322 12.2062 19.4926 12.8506 19.4926Z" fill="#FDBC4B"/>
<path d="M7.53931 17.0503C7.53931 15.6911 8.64133 14.5899 9.99962 14.5899C11.3587 14.5899 12.4599 15.692 12.4599 17.0503C12.4599 17.9574 11.963 18.7418 11.2318 19.1683L11.5691 22.3H8.42928L8.7666 19.1683C8.03546 18.7418 7.53931 17.9582 7.53931 17.0503Z" fill="#464646"/>
<path d="M2.69911 16.9684C3.15106 16.9684 3.51785 17.3344 3.51785 17.7871V22.4982C3.51785 22.9509 3.15106 23.3169 2.69911 23.3169C2.24717 23.3169 1.88037 22.9509 1.88037 22.4982V17.7871C1.88037 17.3352 2.24717 16.9684 2.69911 16.9684Z" fill="#FFD769"/>
<path d="M2.69911 13.573C3.15106 13.573 3.51785 13.939 3.51785 14.3918V15.3505C3.51785 15.8033 3.15106 16.1693 2.69911 16.1693C2.24717 16.1693 1.88037 15.8033 1.88037 15.3505V14.3918C1.88037 13.939 2.24717 13.573 2.69911 13.573Z" fill="#FFD769"/>
</svg>
