<svg viewBox="0 0 54 54" fill="none" xmlns="http://www.w3.org/2000/svg">
<g clip-path="url(#clip0)">
<path d="M32.2154 20.25C31.8846 20.25 31.5539 20.1532 31.2659 19.9575L26.9999 17.055L22.7339 19.9575C22.1556 20.3535 21.3906 20.349 20.8169 19.944C20.2431 19.5435 19.9754 18.828 20.1486 18.1462L21.4919 12.852L17.4666 9.41625C16.9424 8.96625 16.7421 8.24625 16.9649 7.59375C17.1854 6.939 17.7794 6.48675 18.4679 6.44625L23.5641 6.15825L25.4181 1.107C25.6589 0.441 26.2934 0 26.9999 0C27.7064 0 28.3409 0.441 28.5839 1.107L30.4379 6.15825L35.5341 6.44625C36.2226 6.48675 36.8166 6.939 37.0371 7.59375C37.2576 8.24625 37.0596 8.96625 36.5354 9.41625L32.5101 12.8542L33.8534 18.1485C34.0266 18.8302 33.7589 19.5435 33.1851 19.9462C32.8926 20.1488 32.5529 20.25 32.2154 20.25Z" fill="#FFA800"/>
<path d="M52.2016 38.25H40.8117V51.6375C40.8117 52.4565 40.6918 53.2755 40.5 54H52.2016C53.1847 54 54 52.929 54 51.6375V40.6125C54 39.321 53.1847 38.25 52.2016 38.25Z" fill="#FFA800"/>
<path d="M13.1883 31.5H1.7984C0.815275 31.5 0 32.5929 0 33.9107V51.5893C0 52.9071 0.815275 54 1.7984 54H13.5C13.3082 53.2607 13.1883 52.425 13.1883 51.5893V31.5Z" fill="#FFA800"/>
<path d="M36.5625 24.75H17.4375C16.506 24.75 15.75 25.506 15.75 26.4375V52.3125C15.75 53.244 16.506 54 17.4375 54H36.5625C37.494 54 38.25 53.244 38.25 52.3125V26.4375C38.25 25.506 37.494 24.75 36.5625 24.75ZM28.6875 43.3125C28.6875 44.244 27.9315 45 27 45C26.0685 45 25.3125 44.244 25.3125 43.3125V36.6952C24.9683 36.387 24.75 35.937 24.75 35.4375C24.75 34.506 25.506 33.75 26.4375 33.75H27C27.9315 33.75 28.6875 34.506 28.6875 35.4375V43.3125Z" fill="#FFA800"/>
</g>
<defs>
<clipPath id="clip0">
<rect width="100%" height="100%" fill="white"/>
</clipPath>
</defs>
</svg>
