<svg width="20" height="20" viewBox="0 0 20 20" fill="none" xmlns="http://www.w3.org/2000/svg">
<path d="M10 4.58398C10.7735 4.58398 11.5154 4.89128 12.0624 5.43826C12.6094 5.98524 12.9167 6.7271 12.9167 7.50065C12.9167 8.2742 12.6094 9.01606 12.0624 9.56305C11.5154 10.11 10.7735 10.4173 10 10.4173C9.22645 10.4173 8.48459 10.11 7.93761 9.56305C7.39062 9.01606 7.08333 8.2742 7.08333 7.50065C7.08333 6.7271 7.39062 5.98524 7.93761 5.43826C8.48459 4.89128 9.22645 4.58398 10 4.58398ZM4.16667 6.66732C4.63333 6.66732 5.06667 6.79232 5.44167 7.01732C5.31667 8.20898 5.66667 9.39232 6.38333 10.3173C5.96667 11.1173 5.13333 11.6673 4.16667 11.6673C3.50363 11.6673 2.86774 11.4039 2.3989 10.9351C1.93006 10.4662 1.66667 9.83036 1.66667 9.16732C1.66667 8.50428 1.93006 7.86839 2.3989 7.39955C2.86774 6.93071 3.50363 6.66732 4.16667 6.66732ZM15.8333 6.66732C16.4964 6.66732 17.1323 6.93071 17.6011 7.39955C18.0699 7.86839 18.3333 8.50428 18.3333 9.16732C18.3333 9.83036 18.0699 10.4662 17.6011 10.9351C17.1323 11.4039 16.4964 11.6673 15.8333 11.6673C14.8667 11.6673 14.0333 11.1173 13.6167 10.3173C14.3333 9.39232 14.6833 8.20898 14.5583 7.01732C14.9333 6.79232 15.3667 6.66732 15.8333 6.66732ZM4.58333 15.209C4.58333 13.484 7.00833 12.084 10 12.084C12.9917 12.084 15.4167 13.484 15.4167 15.209V16.6673H4.58333V15.209ZM0 16.6673V15.4173C0 14.259 1.575 13.284 3.70833 13.0007C3.21667 13.5673 2.91667 14.3506 2.91667 15.209V16.6673H0ZM20 16.6673H17.0833V15.209C17.0833 14.3506 16.7833 13.5673 16.2917 13.0007C18.425 13.284 20 14.259 20 15.4173V16.6673Z" fill="#00BAFF"/>
</svg>
