<svg width="18" height="18" viewBox="0 0 18 18" fill="none" xmlns="http://www.w3.org/2000/svg">
<path d="M2.25 3.74625C2.25 2.91975 2.91975 2.25 3.74625 2.25H14.2537C15.0802 2.25 15.75 2.91975 15.75 3.74625V14.2537C15.75 14.6506 15.5924 15.0312 15.3118 15.3118C15.0312 15.5924 14.6506 15.75 14.2537 15.75H3.74625C3.34942 15.75 2.96884 15.5924 2.68824 15.3118C2.40764 15.0312 2.25 14.6506 2.25 14.2537V3.74625ZM4.76775 13.5H13.3853C12.902 12.8051 12.2576 12.2374 11.5073 11.8456C10.757 11.4538 9.92297 11.2494 9.0765 11.25C8.23003 11.2494 7.39601 11.4538 6.64568 11.8456C5.89536 12.2374 5.25103 12.8051 4.76775 13.5ZM9 9.75C9.34472 9.75 9.68606 9.6821 10.0045 9.55018C10.323 9.41827 10.6124 9.22491 10.8562 8.98116C11.0999 8.7374 11.2933 8.44802 11.4252 8.12954C11.5571 7.81106 11.625 7.46972 11.625 7.125C11.625 6.78028 11.5571 6.43894 11.4252 6.12046C11.2933 5.80198 11.0999 5.5126 10.8562 5.26884C10.6124 5.02509 10.323 4.83173 10.0045 4.69982C9.68606 4.5679 9.34472 4.5 9 4.5C8.30381 4.5 7.63613 4.77656 7.14384 5.26884C6.65156 5.76113 6.375 6.42881 6.375 7.125C6.375 7.82119 6.65156 8.48887 7.14384 8.98116C7.63613 9.47344 8.30381 9.75 9 9.75Z" fill="#12EEB1"/>
</svg>
