<svg width="16" height="16" viewBox="0 0 16 16" fill="none" xmlns="http://www.w3.org/2000/svg">
<path fill-rule="evenodd" clip-rule="evenodd" d="M8 1.25C4.27179 1.25 1.25 4.27179 1.25 8C1.25 11.7282 4.27179 14.75 8 14.75C11.7282 14.75 14.75 11.7282 14.75 8C14.75 4.27179 11.7282 1.25 8 1.25ZM8 4.06995C8.41421 4.06995 8.75 4.40573 8.75 4.81995V7.25H11.15C11.5642 7.25 11.9 7.58579 11.9 8C11.9 8.41421 11.5642 8.75 11.15 8.75H8.75V11.1499C8.75 11.5642 8.41421 11.8999 8 11.8999C7.58579 11.8999 7.25 11.5642 7.25 11.1499V8.75H4.82001C4.40579 8.75 4.07001 8.41421 4.07001 8C4.07001 7.58579 4.40579 7.25 4.82001 7.25H7.25V4.81995C7.25 4.40573 7.58579 4.06995 8 4.06995Z" fill="#0DD39C"/>
</svg>
