<svg width="18" height="22" viewBox="0 0 18 22" fill="none" xmlns="http://www.w3.org/2000/svg">
<path d="M16.2692 19.125C15.3701 20.4683 14.4167 21.7792 12.9651 21.8008C11.5134 21.8333 11.0476 20.945 9.40091 20.945C7.74341 20.945 7.23425 21.7792 5.85841 21.8333C4.43925 21.8875 3.36675 20.4033 2.45675 19.0925C0.604246 16.4167 -0.814921 11.4875 1.09175 8.17249C2.03425 6.52582 3.72425 5.48582 5.55508 5.45332C6.94175 5.43166 8.26341 6.39582 9.11925 6.39582C9.96425 6.39582 11.5676 5.23666 13.2467 5.40999C13.9509 5.44249 15.9226 5.69166 17.1901 7.55499C17.0926 7.61999 14.8392 8.94166 14.8609 11.6825C14.8934 14.9542 17.7317 16.0483 17.7642 16.0592C17.7317 16.135 17.3092 17.6192 16.2692 19.125ZM10.0834 1.79166C10.8742 0.89249 12.1851 0.20999 13.2684 0.166656C13.4092 1.43416 12.9001 2.71249 12.1417 3.62249C11.3942 4.54332 10.1592 5.25832 8.94591 5.16082C8.78341 3.91499 9.39008 2.61499 10.0834 1.79166Z" fill="#7880BB"/>
</svg>
