<svg width="18" height="18" viewBox="0 0 18 18" fill="none" xmlns="http://www.w3.org/2000/svg">
<path d="M5.25 8.625C4.80679 8.625 4.36792 8.5377 3.95844 8.36809C3.54897 8.19848 3.17691 7.94988 2.86351 7.63649C2.55012 7.32309 2.30152 6.95103 2.13191 6.54156C1.9623 6.13208 1.875 5.69321 1.875 5.25C1.875 4.80679 1.9623 4.36792 2.13191 3.95844C2.30152 3.54897 2.55012 3.17691 2.86351 2.86351C3.17691 2.55012 3.54897 2.30152 3.95844 2.13191C4.36792 1.9623 4.80679 1.875 5.25 1.875C6.14511 1.875 7.00355 2.23058 7.63649 2.86351C8.26942 3.49645 8.625 4.35489 8.625 5.25C8.625 6.14511 8.26942 7.00355 7.63649 7.63649C7.00355 8.26942 6.14511 8.625 5.25 8.625ZM5.25 16.125C4.35489 16.125 3.49645 15.7694 2.86351 15.1365C2.23058 14.5035 1.875 13.6451 1.875 12.75C1.875 11.8549 2.23058 10.9965 2.86351 10.3635C3.49645 9.73058 4.35489 9.375 5.25 9.375C6.14511 9.375 7.00355 9.73058 7.63649 10.3635C8.26942 10.9965 8.625 11.8549 8.625 12.75C8.625 13.6451 8.26942 14.5035 7.63649 15.1365C7.00355 15.7694 6.14511 16.125 5.25 16.125ZM12.75 8.625C12.3068 8.625 11.8679 8.5377 11.4584 8.36809C11.049 8.19848 10.6769 7.94988 10.3635 7.63649C10.0501 7.32309 9.80152 6.95103 9.63191 6.54156C9.4623 6.13208 9.375 5.69321 9.375 5.25C9.375 4.80679 9.4623 4.36792 9.63191 3.95844C9.80152 3.54897 10.0501 3.17691 10.3635 2.86351C10.6769 2.55012 11.049 2.30152 11.4584 2.13191C11.8679 1.9623 12.3068 1.875 12.75 1.875C13.6451 1.875 14.5035 2.23058 15.1365 2.86351C15.7694 3.49645 16.125 4.35489 16.125 5.25C16.125 6.14511 15.7694 7.00355 15.1365 7.63649C14.5035 8.26942 13.6451 8.625 12.75 8.625ZM12.75 16.125C11.8549 16.125 10.9965 15.7694 10.3635 15.1365C9.73058 14.5035 9.375 13.6451 9.375 12.75C9.375 11.8549 9.73058 10.9965 10.3635 10.3635C10.9965 9.73058 11.8549 9.375 12.75 9.375C13.6451 9.375 14.5035 9.73058 15.1365 10.3635C15.7694 10.9965 16.125 11.8549 16.125 12.75C16.125 13.6451 15.7694 14.5035 15.1365 15.1365C14.5035 15.7694 13.6451 16.125 12.75 16.125Z" fill="#6A73B5"/>
</svg>
