<svg width="20" height="20" viewBox="0 0 20 20" fill="none" xmlns="http://www.w3.org/2000/svg">
<g filter="url(#filter0_d)">
<path fill-rule="evenodd" clip-rule="evenodd" d="M2.98334 9.9834C2.98334 9.56918 3.31912 9.2334 3.73334 9.2334H16.225C16.6392 9.2334 16.975 9.56918 16.975 9.9834C16.975 10.3976 16.6392 10.7334 16.225 10.7334H3.73334C3.31912 10.7334 2.98334 10.3976 2.98334 9.9834Z" fill="#A6ACDC"/>
<path fill-rule="evenodd" clip-rule="evenodd" d="M10.7044 4.46076C10.9967 4.16726 11.4716 4.16628 11.7651 4.45856L16.7959 9.46856C16.9372 9.6093 17.0167 9.80054 17.0167 9.99999C17.0167 10.1994 16.9372 10.3907 16.7959 10.5314L11.7651 15.5414C11.4716 15.8337 10.9967 15.8327 10.7044 15.5392C10.4121 15.2457 10.4131 14.7708 10.7066 14.4786L15.2038 9.99999L10.7066 5.52142C10.4131 5.22913 10.4121 4.75426 10.7044 4.46076Z" fill="#A6ACDC"/>
</g>
<defs>
<filter id="filter0_d" x="-1.01666" y="4.23999" width="22.0333" height="19.52" filterUnits="userSpaceOnUse" color-interpolation-filters="sRGB">
<feFlood flood-opacity="0" result="BackgroundImageFix"/>
<feColorMatrix in="SourceAlpha" type="matrix" values="0 0 0 0 0 0 0 0 0 0 0 0 0 0 0 0 0 0 127 0"/>
<feOffset dy="4"/>
<feGaussianBlur stdDeviation="2"/>
<feColorMatrix type="matrix" values="0 0 0 0 0 0 0 0 0 0 0 0 0 0 0 0 0 0 0.25 0"/>
<feBlend mode="normal" in2="BackgroundImageFix" result="effect1_dropShadow"/>
<feBlend mode="normal" in="SourceGraphic" in2="effect1_dropShadow" result="shape"/>
</filter>
</defs>
</svg>
