<svg viewBox="0 0 13 10" xmlns="http://www.w3.org/2000/svg">
<path d="M5.2803 1.53033C5.5732 1.23744 5.5732 0.762558 5.2803 0.469668C4.9874 0.176777 4.5126 0.176777 4.21967 0.469668L0.21967 4.4697C0.0732198 4.6161 0 4.8081 0 5C0 5.1017 0.02024 5.1987 0.05691 5.2871C0.09351 5.3755 0.14776 5.4584 0.21967 5.5303L4.21967 9.5303C4.5126 9.8232 4.9874 9.8232 5.2803 9.5303C5.5732 9.2374 5.5732 8.7626 5.2803 8.4697L2.56066 5.75H12.25C12.6642 5.75 13 5.4142 13 5C13 4.5858 12.6642 4.25 12.25 4.25H2.56066L5.2803 1.53033Z"/>
</svg>
