<svg width="24" height="25" viewBox="0 0 24 25" fill="none" xmlns="http://www.w3.org/2000/svg">
<path d="M17 16.2411V23.1131C17 23.2015 16.9766 23.2884 16.932 23.3649C16.8875 23.4413 16.8235 23.5046 16.7465 23.5482C16.6696 23.5918 16.5824 23.6142 16.4939 23.6131C16.4055 23.6121 16.3189 23.5875 16.243 23.5421L12 20.9961L7.757 23.5421C7.68104 23.5876 7.59436 23.6121 7.50581 23.6131C7.41727 23.6142 7.33004 23.5917 7.25304 23.5479C7.17605 23.5042 7.11205 23.4408 7.06759 23.3642C7.02313 23.2876 6.9998 23.2006 7 23.1121V16.2421C5.70615 15.2062 4.76599 13.7939 4.30946 12.2006C3.85293 10.6073 3.90256 8.91146 4.45149 7.34754C5.00043 5.78362 6.02156 4.42882 7.37378 3.47035C8.726 2.51188 10.3425 1.99707 12 1.99707C13.6575 1.99707 15.274 2.51188 16.6262 3.47035C17.9784 4.42882 18.9996 5.78362 19.5485 7.34754C20.0974 8.91146 20.1471 10.6073 19.6905 12.2006C19.234 13.7939 18.2939 15.2062 17 16.2421V16.2411ZM9 17.4141V20.4641L12 18.6641L15 20.4641V17.4141C14.0468 17.7996 13.0282 17.9972 12 17.9961C10.9718 17.9972 9.95316 17.7996 9 17.4141ZM12 15.9961C13.5913 15.9961 15.1174 15.3639 16.2426 14.2387C17.3679 13.1135 18 11.5874 18 9.99607C18 8.40477 17.3679 6.87865 16.2426 5.75343C15.1174 4.62821 13.5913 3.99607 12 3.99607C10.4087 3.99607 8.88258 4.62821 7.75736 5.75343C6.63214 6.87865 6 8.40477 6 9.99607C6 11.5874 6.63214 13.1135 7.75736 14.2387C8.88258 15.3639 10.4087 15.9961 12 15.9961Z" fill="#00BAFF"/>
</svg>
