<svg width="24" height="25" viewBox="0 0 24 25" fill="none" xmlns="http://www.w3.org/2000/svg">
<path d="M17 16.2333V23.1053C17 23.1937 16.9766 23.2806 16.932 23.357C16.8875 23.4335 16.8235 23.4967 16.7465 23.5404C16.6696 23.584 16.5824 23.6064 16.4939 23.6053C16.4055 23.6042 16.3189 23.5797 16.243 23.5343L12 20.9883L7.757 23.5343C7.68104 23.5798 7.59436 23.6043 7.50581 23.6053C7.41727 23.6064 7.33004 23.5839 7.25304 23.5401C7.17605 23.4964 7.11205 23.433 7.06759 23.3564C7.02313 23.2798 6.9998 23.1928 7 23.1043V16.2343C5.70615 15.1983 4.76599 13.7861 4.30946 12.1928C3.85293 10.5995 3.90256 8.90364 4.45149 7.33973C5.00043 5.77581 6.02156 4.421 7.37378 3.46253C8.726 2.50406 10.3425 1.98926 12 1.98926C13.6575 1.98926 15.274 2.50406 16.6262 3.46253C17.9784 4.421 18.9996 5.77581 19.5485 7.33973C20.0974 8.90364 20.1471 10.5995 19.6905 12.1928C19.234 13.7861 18.2939 15.1983 17 16.2343V16.2333ZM12 15.9883C13.5913 15.9883 15.1174 15.3561 16.2426 14.2309C17.3679 13.1057 18 11.5796 18 9.98826C18 8.39696 17.3679 6.87083 16.2426 5.74562C15.1174 4.6204 13.5913 3.98826 12 3.98826C10.4087 3.98826 8.88258 4.6204 7.75736 5.74562C6.63214 6.87083 6 8.39696 6 9.98826C6 11.5796 6.63214 13.1057 7.75736 14.2309C8.88258 15.3561 10.4087 15.9883 12 15.9883ZM12 13.9883C10.9391 13.9883 9.92172 13.5668 9.17157 12.8167C8.42143 12.0665 8 11.0491 8 9.98826C8 8.92739 8.42143 7.90997 9.17157 7.15983C9.92172 6.40968 10.9391 5.98826 12 5.98826C13.0609 5.98826 14.0783 6.40968 14.8284 7.15983C15.5786 7.90997 16 8.92739 16 9.98826C16 11.0491 15.5786 12.0665 14.8284 12.8167C14.0783 13.5668 13.0609 13.9883 12 13.9883Z" fill="#00BAFF"/>
</svg>
