<svg xmlns="http://www.w3.org/2000/svg" width="26" height="26" fill="none" viewBox="0 0 26 26">
    <path fill="#4F5794" d="M20.719 4.063c.672 0 1.218.546 1.218 1.218V20.72c0 .672-.546 1.218-1.218 1.218H5.28c-.672 0-1.218-.546-1.218-1.218V5.28c0-.672.546-1.218 1.218-1.218H20.72zM5.687 8.938h14.625v-3.25H5.688v3.25zm11.64 9.75v-6.53h-1.361l-1.689 1.163v1.27l1.603-1.103h.082v5.2h1.365zm-6.73.167c1.49 0 2.566-.828 2.566-1.973 0-.86-.56-1.458-1.457-1.557v-.08c.73-.15 1.205-.739 1.205-1.494 0-1.027-.965-1.76-2.304-1.76-1.426 0-2.344.777-2.39 2.013H9.48c.036-.565.457-.923 1.09-.923.638 0 1.046.335 1.046.86 0 .534-.421.895-1.04.895h-.798v1.02h.81c.734 0 1.182.352 1.182.922 0 .557-.475.941-1.158.941-.702 0-1.168-.349-1.209-.9H8.096c.058 1.23 1.045 2.036 2.501 2.036z"/>
</svg>
