<svg xmlns="http://www.w3.org/2000/svg" width="20" height="20" fill="none" viewBox="0 0 20 20">
    <path fill="#4F5794" fill-rule="evenodd" d="M.25 4C.25 1.929 1.929.25 4 .25h12c2.071 0 3.75 1.679 3.75 3.75v8c0 2.071-1.679 3.75-3.75 3.75h-4.737L6.47 19.586c-.226.18-.534.215-.794.09S5.25 19.288 5.25 19v-3.25H4C1.929 15.75.25 14.071.25 12V4zM4 1.75C2.757 1.75 1.75 2.757 1.75 4v8c0 1.243 1.007 2.25 2.25 2.25h2c.414 0 .75.336.75.75v2.44l3.781-3.026c.133-.106.299-.164.469-.164h5c1.243 0 2.25-1.007 2.25-2.25V4c0-1.243-1.007-2.25-2.25-2.25H4z" clip-rule="evenodd"/>
</svg>
