<svg width="20" height="20" viewBox="0 0 20 20" fill="none" xmlns="http://www.w3.org/2000/svg">
<path d="M3.40502 4.16663C3.80169 3.82913 5.18002 3.33329 6.66669 3.33329C8.15335 3.33329 9.53169 3.82913 9.92835 4.16663H11.6667C11.6667 2.29746 8.23252 1.66663 6.66669 1.66663C5.10085 1.66663 1.66669 2.29746 1.66669 4.16663V14.1666C1.66669 16.0375 5.10085 16.6666 6.66669 16.6666C6.90585 16.6666 7.19252 16.6491 7.50002 16.6183V14.9441C7.22919 14.9783 6.95169 15 6.66669 15C5.07002 15 3.59835 14.43 3.33335 14.095V13.5175C4.43335 13.98 5.82085 14.1666 6.66669 14.1666C6.90669 14.1666 7.19252 14.1491 7.50002 14.1183V12.4441C7.22919 12.4783 6.95169 12.5 6.66669 12.5C5.05252 12.5 3.57585 11.9191 3.33335 11.585V11.0166C4.43335 11.48 5.82085 11.6666 6.66669 11.6666C6.90669 11.6666 7.19252 11.6491 7.50002 11.6183V9.94413C7.22919 9.97829 6.95169 9.99996 6.66669 9.99996C5.05252 9.99996 3.57585 9.41913 3.33335 9.08496V8.51663C4.43335 8.97996 5.82085 9.16663 6.66669 9.16663C6.90669 9.16663 7.19252 9.14913 7.50002 9.11829V7.44496C7.22919 7.47829 6.95169 7.49996 6.66669 7.49996C5.05252 7.49996 3.57585 6.91913 3.33335 6.58496V6.01746C4.43335 6.47996 5.82085 6.66663 6.66669 6.66663C6.90669 6.66663 7.19252 6.64913 7.50002 6.61829V4.94579C7.22919 4.97829 6.95169 4.99996 6.66669 4.99996C5.18002 4.99996 3.80169 4.50579 3.40502 4.16663Z" fill="#0A9FD6"/>
<path d="M13.3334 5.83325C11.7675 5.83325 8.33337 6.46409 8.33337 8.33325V15.8333C8.33337 17.7041 11.7675 18.3333 13.3334 18.3333C14.8992 18.3333 18.3334 17.7041 18.3334 15.8333V8.33325C18.3334 6.46409 14.8992 5.83325 13.3334 5.83325ZM16.6667 10.7516C16.4242 11.0858 14.9475 11.6666 13.3334 11.6666C11.7192 11.6666 10.2425 11.0858 10 10.7516V10.1833C11.1 10.6466 12.4875 10.8333 13.3334 10.8333C14.1792 10.8333 15.5667 10.6466 16.6667 10.1841V10.7516ZM16.6667 13.2516C16.4242 13.5858 14.9475 14.1666 13.3334 14.1666C11.7192 14.1666 10.2425 13.5858 10 13.2516V12.6833C11.1 13.1466 12.4875 13.3333 13.3334 13.3333C14.1792 13.3333 15.5667 13.1466 16.6667 12.6841V13.2516ZM13.3334 7.49992C14.82 7.49992 16.1984 7.99575 16.595 8.33325C16.1984 8.67242 14.82 9.16659 13.3334 9.16659C11.8467 9.16659 10.4684 8.67242 10.0717 8.33325C10.4684 7.99575 11.8467 7.49992 13.3334 7.49992ZM13.3334 16.6666C11.7367 16.6666 10.265 16.0966 10 15.7616V15.1841C11.1 15.6466 12.4875 15.8333 13.3334 15.8333C14.1792 15.8333 15.5667 15.6466 16.6667 15.1841V15.7616C16.4017 16.0966 14.93 16.6666 13.3334 16.6666Z" fill="#0A9FD6"/>
</svg>
