<svg width="32" height="22" viewBox="0 0 32 22" fill="none" xmlns="http://www.w3.org/2000/svg">
<path fill-rule="evenodd" clip-rule="evenodd" d="M30.2895 13.0705C31.1049 13.8789 32 15.1119 32 16.6481V17.6666C32 19.8758 30.2092 21.6666 28 21.6666H4C1.79087 21.6666 -9.65645e-08 19.8757 0 17.6666L4.45221e-08 16.6481C1.11669e-07 15.1119 0.895025 13.8789 1.71052 13.0705C2.23771 12.5478 2.66667 11.8623 2.66667 10.9999C2.66667 10.1375 2.23771 9.45205 1.71052 8.92938C0.895025 8.121 4.71149e-07 6.88793 5.38296e-07 5.35181L5.82817e-07 4.33328C6.79381e-07 2.12415 1.79085 0.333279 4 0.333279L28 0.333252C30.2092 0.333252 32 2.12411 32 4.33325V5.35181C32 6.88793 31.1049 8.121 30.2895 8.92938C29.7623 9.45205 29.3333 10.1375 29.3333 10.9999C29.3333 11.8623 29.7623 12.5478 30.2895 13.0705ZM29.3333 16.6481C29.3333 16.1641 29.0312 15.5779 28.4121 14.9642C27.5944 14.1537 26.6667 12.8275 26.6667 10.9999C26.6667 9.17232 27.5944 7.84624 28.4121 7.03564C29.0312 6.42185 29.3333 5.83582 29.3333 5.35181V4.33325C29.3333 3.59687 28.7364 2.99992 28 2.99992L4 2.99995C3.26361 2.99995 2.66667 3.59691 2.66667 4.33328V5.35181C2.66667 5.83581 2.96877 6.42184 3.58792 7.03564C4.4056 7.84624 5.33333 9.17232 5.33333 10.9999C5.33333 12.8275 4.4056 14.1537 3.58792 14.9642C2.96877 15.5781 2.66667 16.1641 2.66667 16.6481V17.6666C2.66667 18.403 3.26363 18.9999 4 18.9999H28C28.7364 18.9999 29.3333 18.403 29.3333 17.6666V16.6481Z" fill="#0DD39C"/>
<path d="M19.6095 9.27613L14.2761 14.6095C13.7555 15.1301 12.9112 15.1301 12.3905 14.6095C11.8698 14.0888 11.8698 13.2445 12.3905 12.7239L17.7239 7.39052C18.2445 6.86983 19.0888 6.86983 19.6095 7.39052C20.1301 7.91123 20.1301 8.75547 19.6095 9.27613ZM14.6667 8.33333C14.6667 9.06973 14.0697 9.66667 13.3333 9.66667C12.597 9.66667 12 9.06973 12 8.33333C12 7.59696 12.597 7 13.3333 7C14.0697 7 14.6667 7.59696 14.6667 8.33333ZM17.3333 13.6667C17.3333 14.4031 17.9303 15 18.6667 15C19.4031 15 20 14.4031 20 13.6667C20 12.9303 19.4031 12.3333 18.6667 12.3333C17.9303 12.3333 17.3333 12.9303 17.3333 13.6667Z" fill="#0DD39C"/>
</svg>
