<svg xmlns="http://www.w3.org/2000/svg" width="26" height="26" fill="none" viewBox="0 0 26 26">
  <path fill="#4F5794"
        d="M21.938 13.002c0 .918-1.179 1.448-3.844 2.56-2.449 1.022-3.75 1.502-5.094 1.502-1.344 0-2.646-.48-5.094-1.501-2.665-1.113-3.843-1.643-3.843-2.561 0-.697.69-1.174 2.182-1.847.205-.093.443-.098.651-.01l.697.293c2.55 1.063 3.915 1.564 5.407 1.564s2.857-.5 5.407-1.564l.697-.293c.208-.088.446-.083.651.01 1.491.673 2.183 1.15 2.183 1.847zm0 4.875c0 .918-1.179 1.448-3.844 2.56-2.449 1.022-3.75 1.502-5.094 1.502-1.344 0-2.646-.48-5.094-1.501-2.665-1.113-3.843-1.643-3.843-2.561 0-.697.69-1.174 2.182-1.847.205-.093.443-.098.651-.01l.697.293c2.55 1.063 3.915 1.564 5.407 1.564s2.857-.5 5.407-1.564l.697-.293c.208-.088.446-.083.651.01 1.491.673 2.183 1.15 2.183 1.847zM8.53 7.066c2.331-.972 3.467-1.378 4.469-1.378 1.002 0 2.138.406 4.469 1.378.702.292 1.737.723 2.39 1.06-.653.338-1.688.77-2.39 1.062-2.244.936-3.418 1.376-4.469 1.376-1.051 0-2.225-.44-4.469-1.376-.702-.293-1.737-.724-2.39-1.061.653-.338 1.688-.769 2.39-1.062zm-.625 3.622c2.449 1.02 3.75 1.501 5.094 1.501 1.345 0 2.646-.48 5.095-1.501C21 9.476 21.938 9.01 21.938 8.127c0-.884-.939-1.35-3.844-2.561-2.542-1.06-3.812-1.503-5.094-1.503-1.282 0-2.552.442-5.095 1.503C5 6.777 4.062 7.243 4.062 8.126c0 .884.939 1.35 3.844 2.562z"/>
</svg>
