<svg width="28" height="23" viewBox="0 0 28 23" fill="none" xmlns="http://www.w3.org/2000/svg">
<path d="M5.68512 0.5H22.3148C22.4989 0.499974 22.6804 0.543511 22.8444 0.627052C23.0084 0.710593 23.1504 0.831766 23.2586 0.980667L27.7188 7.11267C27.7981 7.22177 27.8371 7.35499 27.8292 7.48963C27.8214 7.62428 27.7671 7.75204 27.6756 7.85117L14.4281 22.2023C14.3232 22.3158 14.1775 22.3829 14.023 22.3891C13.8686 22.3952 13.7181 22.3398 13.6045 22.235C13.5963 22.228 9.17112 17.4342 0.324291 7.85117C0.232829 7.75204 0.178543 7.62428 0.170672 7.48963C0.162802 7.35499 0.201834 7.22177 0.281124 7.11267L4.74129 0.980667C4.84953 0.831766 4.99148 0.710593 5.15552 0.627052C5.31956 0.543511 5.50104 0.499974 5.68512 0.5ZM6.28012 2.83333L3.01346 7.325L14 19.225L24.9865 7.325L21.7198 2.83333H6.28012Z" fill="#FFDE00"/>
</svg>
