<svg width="24" height="24" viewBox="0 0 24 24" fill="none" xmlns="http://www.w3.org/2000/svg">
<path d="M16.5 9C15.6727 9 15 8.32725 15 7.5C15 6.67275 15.6727 6 16.5 6C17.3273 6 18 6.67275 18 7.5C18 8.32725 17.3273 9 16.5 9ZM16.5 18C15.6727 18 15 17.3273 15 16.5C15 15.6727 15.6727 15 16.5 15C17.3273 15 18 15.6727 18 16.5C18 17.3273 17.3273 18 16.5 18ZM12 13.5C11.1727 13.5 10.5 12.8273 10.5 12C10.5 11.1727 11.1727 10.5 12 10.5C12.8273 10.5 13.5 11.1727 13.5 12C13.5 12.8273 12.8273 13.5 12 13.5ZM7.5 9C6.67275 9 6 8.32725 6 7.5C6 6.67275 6.67275 6 7.5 6C8.32725 6 9 6.67275 9 7.5C9 8.32725 8.32725 9 7.5 9ZM7.5 18C6.67275 18 6 17.3273 6 16.5C6 15.6727 6.67275 15 7.5 15C8.32725 15 9 15.6727 9 16.5C9 17.3273 8.32725 18 7.5 18ZM18.375 3.75H5.625C5.12784 3.7504 4.65116 3.94807 4.29961 4.29961C3.94807 4.65116 3.7504 5.12784 3.75 5.625V18.375C3.75 19.4093 4.59075 20.25 5.625 20.25H18.375C19.4093 20.25 20.25 19.4093 20.25 18.375V5.625C20.25 4.59075 19.4093 3.75 18.375 3.75Z" fill="#4F5794"/>
</svg>
