<svg width="21" height="20" viewBox="0 0 21 20" fill="none" xmlns="http://www.w3.org/2000/svg">
<path d="M15.8917 6.99944V3.22732C16.5418 2.95432 17.125 2.91932 17.5951 3.13719C18.2579 3.44432 18.6042 4.18282 18.6042 4.75244C18.6042 5.81382 17.7705 6.26794 15.8917 7.00119V6.99944ZM2.32917 4.75244C2.32917 4.18369 2.67547 3.44432 3.33822 3.13719C3.80658 2.91932 4.39067 2.95432 5.04167 3.22732V7.00032C3.16281 6.26794 2.32917 5.81382 2.32917 4.75244ZM18.3763 1.55957C17.8691 1.32419 17.0165 1.09669 15.8917 1.38194V0.814941C15.8917 0.698909 15.844 0.587629 15.7593 0.505582C15.6745 0.423535 15.5595 0.377441 15.4396 0.377441H5.49375C5.37385 0.377441 5.25886 0.423535 5.17408 0.505582C5.0893 0.587629 5.04167 0.698909 5.04167 0.814941V1.38107C3.91689 1.09669 3.06426 1.32507 2.55702 1.55957C1.15014 2.20969 0.520836 3.63244 0.520836 4.75244C0.520836 7.13682 2.72519 7.98994 4.49646 8.67419C4.76771 8.77919 5.04167 8.88594 5.3084 8.99619C5.5672 9.76138 6.00382 10.459 6.5847 11.0354C7.16558 11.6118 7.87527 12.0517 8.65924 12.3212C9.19993 12.5058 9.5625 12.9993 9.5625 13.5549V16.3112C9.5625 16.6796 9.48746 16.8161 9.36087 16.8974L7.18183 18.3027C7.04858 18.3888 6.94747 18.514 6.89342 18.66C6.83937 18.8059 6.83525 18.9648 6.88167 19.1132C6.92808 19.2616 7.02258 19.3916 7.15119 19.4841C7.27981 19.5765 7.43573 19.6265 7.59594 19.6266H13.3365C13.4967 19.6265 13.6526 19.5765 13.7812 19.4841C13.9099 19.3916 14.0044 19.2616 14.0508 19.1132C14.0972 18.9648 14.0931 18.8059 14.039 18.66C13.985 18.514 13.8838 18.3888 13.7506 18.3027L11.5716 16.8974C11.5097 16.8575 11.459 16.8033 11.424 16.7398C11.3889 16.6763 11.3707 16.6054 11.3708 16.5334V13.5549C11.3708 12.9993 11.7325 12.5058 12.2741 12.3212C13.0581 12.0517 13.7678 11.6118 14.3486 11.0354C14.9295 10.459 15.3661 9.76138 15.6249 8.99619C15.8917 8.88594 16.1656 8.77919 16.4369 8.67419C18.2081 7.98907 20.4125 7.13682 20.4125 4.75157C20.4125 3.63157 19.7832 2.20969 18.3763 1.55869" fill="#4F5794"/>
</svg>
