<svg viewBox="0 0 54 54" fill="none" xmlns="http://www.w3.org/2000/svg">
<path d="M0.84375 27C0.84375 12.5508 12.5508 0.84375 27 0.84375C41.4492 0.84375 53.1562 12.5508 53.1562 27C53.1562 41.4492 41.4492 53.1562 27 53.1562C12.5508 53.1562 0.84375 41.4492 0.84375 27ZM15.9891 30.048L23.625 22.0852V41.3438C23.625 42.7465 24.7535 43.875 26.1562 43.875H27.8438C29.2465 43.875 30.375 42.7465 30.375 41.3438V22.0852L38.0109 30.048C38.9918 31.0711 40.6266 31.0922 41.6285 30.0902L42.7781 28.9301C43.7695 27.9387 43.7695 26.3355 42.7781 25.3547L28.793 11.359C27.8016 10.3676 26.1984 10.3676 25.2176 11.359L11.2113 25.3547C10.2199 26.3461 10.2199 27.9492 11.2113 28.9301L12.3609 30.0902C13.3734 31.0922 15.0082 31.0711 15.9891 30.048Z" fill="#0DD39C"/>
</svg>
