<svg width="28" height="28" viewBox="0 0 28 28" fill="none" xmlns="http://www.w3.org/2000/svg">
<path d="M21.875 14.875C21.6429 14.875 21.4204 14.7828 21.2563 14.6187C21.0922 14.4546 21 14.2321 21 14C21 13.7679 21.0922 13.5454 21.2563 13.3813C21.4204 13.2172 21.6429 13.125 21.875 13.125C22.1071 13.125 22.3296 13.2172 22.4937 13.3813C22.6578 13.5454 22.75 13.7679 22.75 14C22.75 14.2321 22.6578 14.4546 22.4937 14.6187C22.3296 14.7828 22.1071 14.875 21.875 14.875ZM19.25 12.25C19.0179 12.25 18.7954 12.1578 18.6313 11.9937C18.4672 11.8296 18.375 11.6071 18.375 11.375C18.375 11.1429 18.4672 10.9204 18.6313 10.7563C18.7954 10.5922 19.0179 10.5 19.25 10.5C19.4821 10.5 19.7046 10.5922 19.8687 10.7563C20.0328 10.9204 20.125 11.1429 20.125 11.375C20.125 11.6071 20.0328 11.8296 19.8687 11.9937C19.7046 12.1578 19.4821 12.25 19.25 12.25ZM19.2841 17.4991C19.0522 17.5081 18.8262 17.4245 18.6558 17.2668C18.4855 17.1091 18.3848 16.8902 18.3759 16.6582C18.3669 16.4263 18.4505 16.2003 18.6082 16.03C18.7659 15.8596 18.9848 15.7589 19.2167 15.75C19.4487 15.7411 19.6747 15.8246 19.845 15.9823C20.0154 16.14 20.1161 16.3589 20.125 16.5909C20.1339 16.8228 20.0504 17.0488 19.8927 17.2192C19.735 17.3895 19.5161 17.4902 19.2841 17.4991ZM16.625 14.875C16.3929 14.875 16.1704 14.7828 16.0063 14.6187C15.8422 14.4546 15.75 14.2321 15.75 14C15.75 13.7679 15.8422 13.5454 16.0063 13.3813C16.1704 13.2172 16.3929 13.125 16.625 13.125C16.8571 13.125 17.0796 13.2172 17.2437 13.3813C17.4078 13.5454 17.5 13.7679 17.5 14C17.5 14.2321 17.4078 14.4546 17.2437 14.6187C17.0796 14.7828 16.8571 14.875 16.625 14.875ZM10.5 14.875H9.625V15.75C9.625 15.9821 9.53281 16.2046 9.36872 16.3687C9.20462 16.5328 8.98206 16.625 8.75 16.625C8.51794 16.625 8.29538 16.5328 8.13128 16.3687C7.96719 16.2046 7.875 15.9821 7.875 15.75V14.875H7C6.76794 14.875 6.54538 14.7828 6.38128 14.6187C6.21719 14.4546 6.125 14.2321 6.125 14C6.125 13.7679 6.21719 13.5454 6.38128 13.3813C6.54538 13.2172 6.76794 13.125 7 13.125H7.875V12.25C7.875 12.0179 7.96719 11.7954 8.13128 11.6313C8.29538 11.4672 8.51794 11.375 8.75 11.375C8.98206 11.375 9.20462 11.4672 9.36872 11.6313C9.53281 11.7954 9.625 12.0179 9.625 12.25V13.125H10.5C10.7321 13.125 10.9546 13.2172 11.1187 13.3813C11.2828 13.5454 11.375 13.7679 11.375 14C11.375 14.2321 11.2828 14.4546 11.1187 14.6187C10.9546 14.7828 10.7321 14.875 10.5 14.875ZM19.25 7.875H8.75C5.3725 7.875 2.625 10.6225 2.625 14C2.625 17.3775 5.3725 20.125 8.75 20.125C10.486 20.125 11.137 19.3436 11.711 18.655C12.2281 18.0355 12.6735 17.5 14 17.5C15.3265 17.5 15.7719 18.0355 16.289 18.655C16.863 19.3436 17.514 20.125 19.25 20.125C22.6275 20.125 25.375 17.3775 25.375 14C25.375 10.6225 22.6275 7.875 19.25 7.875Z" fill="#4F5794"/>
</svg>
