<svg xmlns="http://www.w3.org/2000/svg" width="26" height="26" fill="none" viewBox="0 0 26 26">
    <path fill="#4F5794" d="M19.77 5.688h-1.805c-.12 0-.234.042-.319.118-.085.077-.132.18-.132.288v4.875c0 .08-.027.159-.076.226-.05.066-.12.118-.203.15-.055.02-.113.03-.172.03-.06 0-.119-.01-.173-.03-.055-.021-.105-.05-.147-.089l-1.486-1.338-1.486 1.338c-.063.056-.144.095-.231.111-.088.016-.178.008-.261-.023-.083-.03-.153-.083-.203-.15-.05-.066-.076-.145-.076-.225V6.094c0-.108-.048-.211-.132-.288-.085-.076-.2-.119-.32-.119H7.133c-.12 0-.235-.042-.32-.118-.084-.077-.131-.18-.131-.288 0-.107.047-.21.132-.287.084-.076.2-.119.319-.119h11.736c.12 0 .235-.043.32-.119.084-.076.131-.18.131-.287 0-.323-.142-.633-.396-.862-.254-.229-.599-.357-.958-.357H7.132c-.599 0-1.173.214-1.596.595-.423.38-.661.898-.661 1.436v16.25c0 .324.143.634.397.862.254.229.598.357.957.357h13.542c.359 0 .703-.128.957-.357.254-.229.397-.538.397-.862V6.906c0-.323-.143-.633-.397-.862-.254-.228-.598-.356-.957-.356zM12.55 19.5H8.938c-.12 0-.235-.043-.32-.119-.084-.076-.132-.18-.132-.287 0-.108.048-.211.132-.288.085-.076.2-.119.32-.119h3.61c.12 0 .235.043.32.12.084.076.132.179.132.287 0 .107-.048.21-.132.287-.085.076-.2.119-.32.119zm1.805-1.625H8.938c-.12 0-.235-.043-.32-.119-.084-.076-.132-.18-.132-.287 0-.108.048-.211.132-.288.085-.076.2-.119.32-.119h5.416c.12 0 .235.043.32.12.084.076.132.179.132.287 0 .107-.048.21-.133.287-.084.076-.2.119-.319.119z"/>
</svg>
