<svg width="18" height="18" viewBox="0 0 18 18" fill="none" xmlns="http://www.w3.org/2000/svg">
<path d="M8.0925 9C7.46 8.205 6.8275 7.5 6.25 7.5C5.2325 7.5 4.875 8.31 4.875 9C4.875 9.69 5.2325 10.5 6.25 10.5C6.8275 10.5 7.46 9.795 8.0925 9Z" fill="#6A73B5"/>
<path d="M13.125 9C13.125 8.31 12.7675 7.5 11.75 7.5C11.1587 7.5 10.54 8.205 9.9075 9C10.5262 9.795 11.1587 10.5 11.75 10.5C12.7675 10.5 13.125 9.69 13.125 9Z" fill="#6A73B5"/>
<path fill-rule="evenodd" clip-rule="evenodd" d="M9 16.5C13.1421 16.5 16.5 13.1421 16.5 9C16.5 4.85786 13.1421 1.5 9 1.5C4.85786 1.5 1.5 4.85786 1.5 9C1.5 13.1421 4.85786 16.5 9 16.5ZM3.5 9C3.5 7.515 4.44875 6 6.25 6C7.33625 6 8.2025 6.84 9 7.83C9.7975 6.84 10.6362 6 11.75 6C13.5512 6 14.5 7.515 14.5 9C14.5 10.485 13.5512 12 11.75 12C10.6362 12 9.7975 11.16 9 10.17C8.2025 11.16 7.33625 12 6.25 12C4.44875 12 3.5 10.485 3.5 9Z" fill="#6A73B5"/>
</svg>
