<svg xmlns="http://www.w3.org/2000/svg" width="9" height="9" fill="none" viewBox="0 0 4 9">
    <g clip-path="url(#prefix__clip0)">
        <path fill="#A6ACDC" d="M4 7.773v.818c0 .11-.04.207-.119.288-.079.08-.173.121-.281.121H.4c-.108 0-.202-.04-.281-.121C.039 8.798 0 8.702 0 8.59v-.818c0-.111.04-.207.119-.288.079-.08.173-.121.281-.121h.4V4.909H.4c-.108 0-.202-.04-.281-.121C.039 4.707 0 4.61 0 4.5v-.818c0-.111.04-.207.119-.288.079-.08.173-.121.281-.121h2.4c.108 0 .202.04.281.121.08.081.119.177.119.288v3.682h.4c.108 0 .202.04.281.121.08.081.119.177.119.288zM3.2.409v1.227c0 .111-.04.207-.119.288-.079.081-.173.121-.281.121H1.2c-.108 0-.202-.04-.281-.121C.839 1.843.8 1.747.8 1.636V.41C.8.3.84.202.919.121.998.041 1.092 0 1.2 0h1.6c.108 0 .202.04.281.121.08.081.119.177.119.288z"/>
    </g>
    <defs>
        <clipPath id="prefix__clip0">
            <path fill="#fff" d="M0 0H4V9H0z"/>
        </clipPath>
    </defs>
</svg>
