<svg width="24" height="24" viewBox="0 0 24 24" fill="none" xmlns="http://www.w3.org/2000/svg">
<path d="M11.9999 0.333374C15.1698 0.333374 15.5653 0.345041 16.8089 0.403374C18.0514 0.461707 18.8973 0.656541 19.6416 0.945874C20.4116 1.24221 21.0603 1.64354 21.7089 2.29104C22.3022 2.87425 22.7612 3.57973 23.0541 4.35837C23.3423 5.10154 23.5383 5.94854 23.5966 7.19104C23.6514 8.43471 23.6666 8.83021 23.6666 12C23.6666 15.1699 23.6549 15.5654 23.5966 16.809C23.5383 18.0515 23.3423 18.8974 23.0541 19.6417C22.762 20.4208 22.3029 21.1264 21.7089 21.709C21.1255 22.3021 20.4201 22.7611 19.6416 23.0542C18.8984 23.3424 18.0514 23.5384 16.8089 23.5967C15.5653 23.6515 15.1698 23.6667 11.9999 23.6667C8.83009 23.6667 8.43459 23.655 7.19092 23.5967C5.94842 23.5384 5.10259 23.3424 4.35825 23.0542C3.5793 22.7619 2.8737 22.3028 2.29092 21.709C1.69756 21.1259 1.23851 20.4204 0.945752 19.6417C0.656419 18.8985 0.461585 18.0515 0.403252 16.809C0.348419 15.5654 0.333252 15.1699 0.333252 12C0.333252 8.83021 0.344919 8.43471 0.403252 7.19104C0.461585 5.94737 0.656419 5.10271 0.945752 4.35837C1.23769 3.57925 1.69686 2.87358 2.29092 2.29104C2.87387 1.69748 3.57942 1.23839 4.35825 0.945874C5.10259 0.656541 5.94725 0.461707 7.19092 0.403374C8.43459 0.348541 8.83009 0.333374 11.9999 0.333374ZM11.9999 6.16671C10.4528 6.16671 8.96909 6.78129 7.87513 7.87525C6.78117 8.96921 6.16659 10.4529 6.16659 12C6.16659 13.5471 6.78117 15.0309 7.87513 16.1248C8.96909 17.2188 10.4528 17.8334 11.9999 17.8334C13.547 17.8334 15.0307 17.2188 16.1247 16.1248C17.2187 15.0309 17.8333 13.5471 17.8333 12C17.8333 10.4529 17.2187 8.96921 16.1247 7.87525C15.0307 6.78129 13.547 6.16671 11.9999 6.16671V6.16671ZM19.5833 5.87504C19.5833 5.48827 19.4296 5.11733 19.1561 4.84384C18.8826 4.57035 18.5117 4.41671 18.1249 4.41671C17.7381 4.41671 17.3672 4.57035 17.0937 4.84384C16.8202 5.11733 16.6666 5.48827 16.6666 5.87504C16.6666 6.26182 16.8202 6.63275 17.0937 6.90624C17.3672 7.17973 17.7381 7.33337 18.1249 7.33337C18.5117 7.33337 18.8826 7.17973 19.1561 6.90624C19.4296 6.63275 19.5833 6.26182 19.5833 5.87504ZM11.9999 8.50004C12.9282 8.50004 13.8184 8.86879 14.4748 9.52517C15.1312 10.1815 15.4999 11.0718 15.4999 12C15.4999 12.9283 15.1312 13.8185 14.4748 14.4749C13.8184 15.1313 12.9282 15.5 11.9999 15.5C11.0717 15.5 10.1814 15.1313 9.52505 14.4749C8.86867 13.8185 8.49992 12.9283 8.49992 12C8.49992 11.0718 8.86867 10.1815 9.52505 9.52517C10.1814 8.86879 11.0717 8.50004 11.9999 8.50004V8.50004Z" fill="#111327"/>
</svg>
