<svg xmlns="http://www.w3.org/2000/svg" width="26" height="26" fill="none" viewBox="0 0 26 26">
    <path fill="#4F5794" d="M7.313 13c.106 0 .212-.02.31-.062.1-.04.189-.1.264-.176l3.268-3.266 2.337 1c.15.065.315.082.474.052.16-.031.306-.109.42-.224l3.573-3.571.44.44c.054.053.12.09.193.108.073.017.149.015.22-.008.07-.023.134-.065.183-.121.049-.057.08-.126.093-.2l.406-2.437c.01-.063.006-.129-.014-.19-.02-.062-.053-.118-.1-.163-.045-.046-.1-.08-.162-.1-.062-.02-.127-.024-.19-.014l-2.438.406c-.074.013-.143.045-.2.094-.056.048-.098.112-.121.183-.023.071-.026.147-.008.22.018.072.055.139.108.192l.44.44-3.183 3.183-2.337-1.001c-.15-.065-.314-.083-.474-.052-.16.03-.306.109-.42.224l-3.657 3.656c-.114.114-.192.258-.223.416-.032.158-.016.321.046.47.061.149.166.275.3.365.133.089.29.136.452.136zm13.406-2.438H18.28c-.672 0-1.218.547-1.218 1.22v8.937c0 .672.546 1.218 1.218 1.218h2.438c.672 0 1.218-.546 1.218-1.218V11.78c0-.672-.546-1.219-1.218-1.219zm-6.5 3.25H11.78c-.672 0-1.219.547-1.219 1.22v5.687c0 .672.547 1.218 1.22 1.218h2.437c.672 0 1.219-.546 1.219-1.218V15.03c0-.672-.547-1.219-1.22-1.219zm-5.281 4.47v2.437c0 .672-.547 1.218-1.22 1.218H5.282c-.672 0-1.218-.546-1.218-1.218V18.28c0-.672.546-1.218 1.218-1.218H7.72c.672 0 1.218.546 1.218 1.218z"/>
</svg>
