<svg width="55" height="55" viewBox="0 0 61 90" fill="none" xmlns="http://www.w3.org/2000/svg">
<path fill-rule="evenodd" clip-rule="evenodd" d="M39.6628 61.7068C35.1332 56.7691 30.32 51.5222 31.1951 43.7627C31.3328 42.5419 31.6113 41.2588 32.0539 39.905L30.7699 38.3716L36.1255 33.8869L33.9549 40.5265C32.2719 45.6746 33.2322 49.5674 35.263 53.0147C36.799 55.6221 38.8507 57.8584 40.9989 60.1999L40.9989 60.1999C41.8663 61.1453 42.7494 62.1079 43.6206 63.1189C46.49 66.4488 49.1891 70.3097 48.923 75.192C48.761 78.1649 47.5166 81.2724 44.9687 84.666C49.4071 82.0582 53.0816 78.424 55.4474 74.1754C59.13 67.5621 59.704 59.3691 54.9086 50.9213C49.8411 41.9941 48.3767 35.5907 48.3319 31.2098C48.3096 31.2519 48.2876 31.2941 48.2657 31.3365C47.2678 33.2757 46.8471 35.4042 47.0094 37.1598C47.1002 38.1396 46.9851 39.0605 46.5761 39.8567C46.153 40.6804 45.507 41.1913 44.8672 41.4773C44.261 41.7482 43.6828 41.8106 43.3 41.8192C43.1003 41.8237 42.9297 41.8141 42.8016 41.8022C42.737 41.7961 42.6815 41.7894 42.6367 41.7832L42.5958 41.7773L42.5772 41.7744L42.5534 41.7705L42.543 41.7687L42.5383 41.7679L42.536 41.7675C42.5348 41.7673 42.5337 41.7671 42.8839 39.798C42.8839 39.798 45.2849 40.225 45.0179 37.344C44.7138 34.0557 46.0534 30.0193 48.7231 27.2964C49.5915 26.4106 50.6007 25.6638 51.7399 25.127C51.7399 25.127 50.9555 26.0979 50.5572 28.3065C49.9116 31.8861 50.2805 38.7168 56.6479 49.934C66.0335 66.4682 56.3575 82.5611 41.6008 88.5509C40.1694 89.132 38.6902 89.6179 37.1759 90C38.4024 88.9082 39.4944 87.8601 40.4621 86.8519C51.8482 74.9901 46.0363 68.6545 39.6628 61.7068ZM41.0169 32.809C41.0169 32.809 39.5229 38.677 42.8839 39.798L42.5337 41.7671C42.4379 41.7501 42.3434 41.726 42.2511 41.6953C39.25 40.6943 38.7405 37.6499 38.6909 35.9411C38.6629 34.9769 38.7605 34.0798 38.8594 33.4385C38.9095 33.1136 38.9616 32.8437 39.0023 32.6508C39.017 32.5811 39.0303 32.5211 39.0415 32.4718C40.3759 19.7468 35.8928 11.4188 31.9122 6.68012C31.9836 7.27697 32.0326 7.87837 32.0614 8.48047C32.2296 11.9959 31.7213 15.711 30.8101 19.0751C29.9019 22.4281 28.5616 25.5495 26.9821 27.8424C26.1939 28.9865 25.2928 30.0025 24.2844 30.7234C23.2729 31.4464 22.0233 31.9591 20.6369 31.8106L20.6369 31.8106C19.5927 31.6988 18.6501 31.3605 17.8689 30.7606C17.0873 30.1603 16.5804 29.3849 16.2713 28.5771C15.9005 27.6076 15.7985 26.5521 15.8313 25.5462C13.8798 28.9132 13.26 32.9962 13.0378 37.0798C12.9632 38.4518 12.9346 39.783 12.907 41.0699V41.07L12.907 41.071C12.9027 41.2689 12.8985 41.4658 12.8941 41.6616C12.8619 43.106 12.8218 44.5163 12.6965 45.7604C12.5739 46.9788 12.3548 48.2235 11.8712 49.2652C11.3568 50.3732 10.469 51.3886 9.0314 51.7633C7.23603 52.2313 5.62026 51.9938 4.34225 51.0512C4.00975 50.8059 3.72226 50.5289 3.47337 50.2338C1.73542 56.3262 1.66539 61.4142 2.58732 65.6508C3.79041 71.1796 6.72505 75.4527 10.2243 78.7371C13.2029 81.5328 16.5588 83.582 19.5159 85.035C14.4148 78.4153 13.0034 72.1424 13.161 67.0509C13.2636 63.7361 14.0286 61.003 14.7715 59.0917C15.1434 58.1347 15.5118 57.3783 15.7938 56.8511C15.9349 56.5873 16.0548 56.3802 16.1431 56.2334C16.1873 56.1599 16.2237 56.1015 16.2509 56.0585C16.2576 56.048 16.2637 56.0383 16.2693 56.0297C16.2751 56.0206 16.2803 56.0126 16.2848 56.0056L16.2866 56.0028C16.2825 55.9986 16.2806 55.9959 16.2811 55.9948C16.4597 55.6844 16.6575 55.3205 16.8712 54.927C17.8421 53.1398 19.1441 50.7433 20.4925 49.9973C20.5448 51.6126 20.3168 53.5903 20.1382 55.1393C20.0242 56.1284 19.9303 56.9428 19.9424 57.3764C19.9425 57.3802 19.9426 57.384 19.9426 57.3877L19.9463 57.3892C19.9448 57.3994 19.9432 57.4096 19.9416 57.4198C19.9402 57.4408 19.9372 57.4602 19.9328 57.4782C19.3872 61.1294 20.2268 63.7659 21.272 65.2709C21.8077 66.0423 22.3569 66.4639 22.7496 66.6423C22.826 66.677 22.8903 66.7005 22.9437 66.7163C22.9617 66.5997 22.9751 66.4536 22.9792 66.279C22.9864 65.9725 22.9634 65.6661 22.9359 65.4277C22.9225 65.3115 22.9089 65.2184 22.8993 65.158L22.8919 65.1127C20.9684 56.7113 22.8958 50.0343 25.3269 45.467C26.5393 43.1894 27.8742 41.4391 28.9129 40.2513C29.4331 39.6565 29.8816 39.1998 30.2074 38.8857C30.3704 38.7286 30.5029 38.6068 30.5987 38.521C30.6466 38.4781 30.6853 38.4442 30.7141 38.4193L30.7497 38.3886L30.7618 38.3784L30.7663 38.3746L30.7682 38.373C30.7691 38.3723 30.7699 38.3716 32.0539 39.905C32.0539 39.905 30.7954 40.9589 29.2801 42.9716C26.3503 46.8632 22.4607 54.339 24.8519 64.712C24.8519 64.712 25.4389 67.753 24.1049 68.5C22.1947 69.5694 18.8133 67.1108 17.9609 62.1285C17.7093 60.6579 17.678 58.9675 17.9699 57.083L17.6138 56.8464C17.6137 56.8463 17.6136 56.8463 17.6135 56.8462C17.7229 56.9189 17.8415 56.9976 17.9699 57.083C17.9699 57.083 16.7532 58.9141 15.9181 62.0051C14.4524 67.4298 14.1617 76.735 23.6839 86.8346C24.665 87.8751 25.7501 88.924 26.9489 89.978C26.5527 89.8795 24.8811 89.443 22.5494 88.543C13.2498 84.9535 -6.55137 73.9908 2.16559 47.6908C2.60319 46.3705 3.11265 45.0116 3.69892 43.613C3.69892 43.613 3.55428 45.8612 4.27764 47.6893C4.88433 49.2225 6.10161 50.4602 8.52692 49.828C10.7311 49.2534 10.8078 45.6757 10.9074 41.0305C11.0408 34.8058 11.2153 26.6643 16.6053 21.2642C17.4631 20.4048 18.453 19.6148 19.5959 18.913L19.5942 18.9167C19.5531 19.0076 18.8833 20.4883 18.3801 22.3324C17.5476 25.3829 17.171 29.4279 20.8499 29.822C26.0644 30.3804 32.2526 14.1643 29.3511 3.99665C28.9274 2.51173 28.3098 1.15582 27.4669 0C27.5029 0.0210712 29.0576 0.948963 31.112 2.9108C35.6874 7.2801 42.7415 16.778 41.0169 32.809ZM23.1617 66.7411C23.1618 66.7416 23.1578 66.7432 23.1492 66.7445C23.1572 66.7414 23.1615 66.7407 23.1617 66.7411ZM22.8742 66.9918C22.8742 66.9917 22.875 66.99 22.8766 66.9869C22.8751 66.9903 22.8743 66.9919 22.8742 66.9918Z" fill="#FFAE00"/>
</svg>
