<svg width="55" height="55" viewBox="0 0 61 90" fill="#FFAE00" xmlns="http://www.w3.org/2000/svg">
<path d="M37.1759 90C64.7009 65.497 24.5039 63 32.0539 39.905C32.0539 39.905 21.2239 48.974 24.8519 64.712C24.8519 64.712 25.4389 67.753 24.1049 68.5C21.6309 69.885 16.6889 65.352 17.9699 57.083C17.9699 57.083 7.48392 72.864 26.9489 89.978C24.8929 89.467 -11.4941 79.857 3.69892 43.613C3.69892 43.613 3.20991 51.214 8.52691 49.828C14.1549 48.361 5.91292 27.315 19.5959 18.913C19.5519 19.011 14.9039 29.185 20.8499 29.822C26.8259 30.462 34.0809 9.07 27.4669 0C27.5829 0.068 43.5159 9.58 41.0169 32.809C41.0169 32.809 39.5229 38.677 42.8839 39.798C42.8839 39.798 45.2849 40.225 45.0179 37.344C44.6149 32.986 47.0989 27.314 51.7399 25.127C51.7399 25.127 46.3519 31.796 56.6479 49.934C66.9439 68.072 54.3009 85.679 37.1759 90Z" fill="#FFAE00"/>
</svg>
