<svg width="16" height="16" viewBox="0 0 16 16" fill="none" xmlns="http://www.w3.org/2000/svg">
<path d="M7.99996 4.66676C9.41445 4.66676 10.771 5.22867 11.7712 6.22886C12.7714 7.22905 13.3333 8.58561 13.3333 10.0001C13.3333 11.4146 12.7714 12.7711 11.7712 13.7713C10.771 14.7715 9.41445 15.3334 7.99996 15.3334C6.58547 15.3334 5.22892 14.7715 4.22872 13.7713C3.22853 12.7711 2.66663 11.4146 2.66663 10.0001C2.66663 8.58561 3.22853 7.22905 4.22872 6.22886C5.22892 5.22867 6.58547 4.66676 7.99996 4.66676ZM7.99996 7.0001L7.11796 8.78676L5.14663 9.07343L6.57329 10.4634L6.23663 12.4274L7.99996 11.5001L9.76329 12.4268L9.42663 10.4634L10.8533 9.07276L8.88196 8.7861L7.99996 7.0001ZM8.66663 1.33276L12 1.33343V3.33343L11.0913 4.0921C10.3373 3.69649 9.514 3.44999 8.66663 3.3661V1.33343V1.33276ZM7.33329 1.33276V3.3661C6.48619 3.44986 5.66318 3.69613 4.90929 4.09143L3.99996 3.33343V1.33343L7.33329 1.33276Z" fill="#00BAFF"/>
</svg>
