<svg width="18" height="18" viewBox="0 0 18 18" fill="none" xmlns="http://www.w3.org/2000/svg">
<path d="M1.5 6.74551C1.4996 6.15466 1.61576 5.56954 1.84182 5.02365C2.06789 4.47775 2.39941 3.98182 2.81741 3.56423C3.23541 3.14665 3.73168 2.81562 4.2778 2.59011C4.82391 2.36459 5.40915 2.24902 6 2.25001H12C14.4847 2.25001 16.5 4.27126 16.5 6.74551V15.75H6C3.51525 15.75 1.5 13.7288 1.5 11.2545V6.74551ZM15 14.25V6.74551C14.998 5.95088 14.6812 5.18943 14.1189 4.62797C13.5565 4.0665 12.7946 3.7508 12 3.75001H6C5.60614 3.74902 5.21595 3.82579 4.85182 3.97593C4.48769 4.12606 4.15678 4.3466 3.87807 4.62489C3.59936 4.90319 3.37832 5.23377 3.22764 5.59767C3.07696 5.96157 2.9996 6.35164 3 6.74551V11.2545C3.00198 12.0491 3.31883 12.8106 3.88114 13.372C4.44345 13.9335 5.20537 14.2492 6 14.25H15ZM10.5 8.25001H12V9.75001H10.5V8.25001ZM6 8.25001H7.5V9.75001H6V8.25001Z" fill="#12EEB1"/>
</svg>
