<svg width="16" height="16" viewBox="0 0 16 16" fill="none" xmlns="http://www.w3.org/2000/svg">
<path d="M7.99992 14.6666C4.31792 14.6666 1.33325 11.682 1.33325 7.99998C1.33325 4.31798 4.31792 1.33331 7.99992 1.33331C11.6819 1.33331 14.6666 4.31798 14.6666 7.99998C14.6666 11.682 11.6819 14.6666 7.99992 14.6666ZM5.66659 9.33331V10.6666H7.33325V12H8.66659V10.6666H9.33325C9.77528 10.6666 10.1992 10.4911 10.5118 10.1785C10.8243 9.86593 10.9999 9.44201 10.9999 8.99998C10.9999 8.55795 10.8243 8.13403 10.5118 7.82147C10.1992 7.50891 9.77528 7.33331 9.33325 7.33331H6.66659C6.57818 7.33331 6.49339 7.29819 6.43088 7.23568C6.36837 7.17317 6.33325 7.08839 6.33325 6.99998C6.33325 6.91157 6.36837 6.82679 6.43088 6.76428C6.49339 6.70177 6.57818 6.66665 6.66659 6.66665H10.3333V5.33331H8.66659V3.99998H7.33325V5.33331H6.66659C6.22456 5.33331 5.80063 5.50891 5.48807 5.82147C5.17551 6.13403 4.99992 6.55795 4.99992 6.99998C4.99992 7.44201 5.17551 7.86593 5.48807 8.17849C5.80063 8.49105 6.22456 8.66665 6.66659 8.66665H9.33325C9.42166 8.66665 9.50644 8.70177 9.56895 8.76428C9.63147 8.82679 9.66659 8.91157 9.66659 8.99998C9.66659 9.08839 9.63147 9.17317 9.56895 9.23568C9.50644 9.29819 9.42166 9.33331 9.33325 9.33331H5.66659Z" fill="#6A73B5"/>
</svg>
