<svg xmlns="http://www.w3.org/2000/svg" width="26" height="26" fill="none" viewBox="0 0 26 26">
    <path fill="#4F5794" d="M19.75 12.594c0 .107-.04.21-.11.287-.07.076-.166.119-.265.119h-3c-.1 0-.195-.043-.265-.119s-.11-.18-.11-.287V7.719c0-.108.04-.211.11-.288.07-.076.166-.119.265-.119h3c.1 0 .195.043.265.12.07.076.11.179.11.287v4.875zm-.375 2.844h-10.5c-.1 0-.195-.043-.265-.12-.07-.076-.11-.179-.11-.287 0-.107.04-.21.11-.287.07-.076.166-.119.265-.119h10.5c.1 0 .195.043.265.119s.11.18.11.287c0 .108-.04.211-.11.287-.07.077-.166.12-.265.12zm-1.5 2.437h-9c-.1 0-.195-.043-.265-.119s-.11-.18-.11-.287c0-.108.04-.211.11-.288.07-.076.166-.119.265-.119h9c.1 0 .195.043.265.12.07.076.11.179.11.287 0 .107-.04.21-.11.287-.07.076-.166.119-.265.119zm-9-5.688h5.25c.1 0 .195.043.265.12.07.076.11.179.11.287 0 .107-.04.21-.11.287-.07.076-.165.119-.265.119h-5.25c-.1 0-.195-.043-.265-.119s-.11-.18-.11-.287c0-.108.04-.211.11-.287.07-.077.166-.12.265-.12zm0-2.437h5.25c.1 0 .195.043.265.119s.11.18.11.287c0 .108-.04.211-.11.287-.07.077-.165.12-.265.12h-5.25c-.1 0-.195-.043-.265-.12-.07-.076-.11-.179-.11-.287 0-.107.04-.21.11-.287.07-.076.166-.119.265-.119zm0-2.438h5.25c.1 0 .195.043.265.12.07.076.11.179.11.287 0 .107-.04.21-.11.287-.07.076-.165.119-.265.119h-5.25c-.1 0-.195-.043-.265-.119s-.11-.18-.11-.287c0-.108.04-.211.11-.288.07-.076.166-.119.265-.119zm12-2.437h-13.5c-.298 0-.585.128-.795.357-.211.229-.33.539-.33.862v13c0 .107-.04.21-.11.287-.07.076-.166.119-.265.119-.1 0-.195-.043-.265-.119s-.11-.18-.11-.287V6.906c0-.107-.04-.21-.11-.287-.07-.076-.166-.119-.265-.119-.298 0-.585.128-.795.357-.211.229-.33.539-.33.862v11.375c0 .538.198 1.055.55 1.436.35.381.828.595 1.325.595h15c.298 0 .584-.128.796-.357.21-.229.329-.538.329-.862V6.094c0-.323-.119-.633-.33-.862-.21-.229-.497-.357-.795-.357z"/>
</svg>
