<svg width="24" height="24" viewBox="0 0 24 24" fill="none" xmlns="http://www.w3.org/2000/svg">
<path fill-rule="evenodd" clip-rule="evenodd" d="M18.54 9.33393V5.49994H14.7226L12.008 2.80968L9.33399 5.49994H5.5V9.33393L2.80974 12.0079L5.5 14.7226V18.5399H9.33399L12.008 21.2302L14.7226 18.5399H18.54V14.7226L21.2303 12.0079L18.54 9.33393ZM23.35 11.9999L20.04 15.3399V20.0399H15.34L12 23.3499L8.71 20.0399H4V15.3399L0.690002 11.9999L4 8.70994V3.99994H8.71L12 0.689941L15.34 3.99994H20.04V8.70994L23.35 11.9999Z" fill="#00BAFF"/>
<path d="M8.82994 7.05C9.80994 7.05 10.5999 7.84 10.5999 8.83C10.5999 9.29943 10.4135 9.74964 10.0815 10.0816C9.74958 10.4135 9.29937 10.6 8.82994 10.6C7.83994 10.6 7.04994 9.81 7.04994 8.83C7.04994 7.84 7.83994 7.05 8.82994 7.05ZM15.2199 17C14.2399 17 13.4499 16.2 13.4499 15.22C13.4499 14.7506 13.6364 14.3004 13.9684 13.9684C14.3003 13.6365 14.7505 13.45 15.2199 13.45C16.1999 13.45 16.9999 14.24 16.9999 15.22C16.9999 15.6921 16.8124 16.1448 16.4786 16.4786C16.1448 16.8125 15.692 17 15.2199 17ZM8.49994 17.03L6.99994 15.53L15.5299 7L17.0299 8.5L8.49994 17.03Z" fill="#00BAFF"/>
<path d="M8.82994 7.05C9.80994 7.05 10.5999 7.84 10.5999 8.83C10.5999 9.29943 10.4135 9.74964 10.0815 10.0816C9.74958 10.4135 9.29937 10.6 8.82994 10.6C7.83994 10.6 7.04994 9.81 7.04994 8.83C7.04994 7.84 7.83994 7.05 8.82994 7.05Z" fill="#00BAFF"/>
<path d="M8.49994 17.03L6.99994 15.53L15.5299 7L17.0299 8.5L8.49994 17.03Z" fill="#00BAFF"/>
<path d="M15.2199 17C14.2399 17 13.4499 16.2 13.4499 15.22C13.4499 14.7506 13.6364 14.3004 13.9684 13.9684C14.3003 13.6365 14.7505 13.45 15.2199 13.45C16.1999 13.45 16.9999 14.24 16.9999 15.22C16.9999 15.6921 16.8124 16.1448 16.4786 16.4786C16.1448 16.8125 15.692 17 15.2199 17Z" fill="#00BAFF"/>
</svg>
