<svg width="24" height="24" viewBox="0 0 24 24" fill="none" xmlns="http://www.w3.org/2000/svg">
<path d="M20.04 8.70994V3.99994H15.34L12 0.689941L8.71 3.99994H4V8.70994L0.690002 11.9999L4 15.3399V20.0399H8.71L12 23.3499L15.34 20.0399H20.04V15.3399L23.35 11.9999L20.04 8.70994ZM8.83 7.04994C9.81 7.04994 10.6 7.83994 10.6 8.82994C10.6 9.29937 10.4135 9.74958 10.0816 10.0815C9.74964 10.4135 9.29944 10.5999 8.83 10.5999C7.84 10.5999 7.05 9.80994 7.05 8.82994C7.05 7.83994 7.84 7.04994 8.83 7.04994ZM15.22 16.9999C14.24 16.9999 13.45 16.1999 13.45 15.2199C13.45 14.7505 13.6365 14.3003 13.9684 13.9684C14.3004 13.6364 14.7506 13.4499 15.22 13.4499C16.2 13.4499 17 14.2399 17 15.2199C17 15.692 16.8125 16.1448 16.4787 16.4786C16.1448 16.8124 15.6921 16.9999 15.22 16.9999ZM8.5 17.0299L7 15.5299L15.53 6.99994L17.03 8.49994L8.5 17.0299Z" fill="#00BAFF"/>
</svg>
