<svg width="20" height="20" viewBox="0 0 20 20" fill="none" xmlns="http://www.w3.org/2000/svg">
<path d="M14.1667 16.6666H5.83337V18.3333H14.1667V16.6666Z" fill="#A914FF"/>
<path d="M17.5 2.49996H14.7684C14.4792 2.00413 13.9475 1.66663 13.3334 1.66663H6.66669C6.05252 1.66663 5.52085 2.00413 5.23169 2.49996H2.50002C2.04002 2.49996 1.66669 2.87329 1.66669 3.33329V6.66663C1.66669 6.91996 1.78169 7.15913 1.97919 7.31746L6.08585 10.6025C6.83835 11.5491 7.92502 12.2158 9.16669 12.425V13.3333H7.50002C7.04002 13.3333 6.66669 13.7066 6.66669 14.1666V15.8333H13.3334V14.1666C13.3334 13.7066 12.96 13.3333 12.5 13.3333H10.8334V12.425C12.075 12.2158 13.1617 11.55 13.9134 10.6033L18.02 7.31829C18.2184 7.15913 18.3334 6.91996 18.3334 6.66663V3.33329C18.3334 2.87329 17.96 2.49996 17.5 2.49996ZM3.33335 6.26663V4.16663H5.00002V7.49996C5.00002 7.53496 5.00419 7.56913 5.00502 7.60413L3.33335 6.26663ZM16.6667 6.26663L14.995 7.60413C14.9959 7.56913 15 7.53496 15 7.49996V4.16663H16.6667V6.26663Z" fill="#A914FF"/>
</svg>
