<svg width="24" height="24" viewBox="0 0 24 24" fill="none" xmlns="http://www.w3.org/2000/svg">
<path d="M17 20H7.00005V22H17V20Z" fill="#12EEB1"/>
<path d="M21 3H17.722C17.375 2.405 16.737 2 16 2H8.00003C7.26303 2 6.62503 2.405 6.27803 3H3.00003C2.44802 3 2.00002 3.448 2.00002 4V8C2.00002 8.304 2.13802 8.591 2.37502 8.781L7.30303 12.723C8.20603 13.859 9.51003 14.659 11 14.91V16H9.00003C8.44803 16 8.00003 16.448 8.00003 17V19H16V17C16 16.448 15.552 16 15 16H13V14.91C14.49 14.659 15.794 13.86 16.696 12.724L21.624 8.782C21.862 8.591 22 8.304 22 8V4C22 3.448 21.552 3 21 3ZM4.00003 7.52V5H6.00003V9C6.00003 9.042 6.00503 9.083 6.00603 9.125L4.00003 7.52ZM20 7.52L17.994 9.125C17.995 9.083 18 9.042 18 9V5H20V7.52Z" fill="#12EEB1"/>
</svg>
