<svg xmlns="http://www.w3.org/2000/svg" width="16" height="16" fill="none" viewBox="0 0 16 16">
    <path fill="#4F5794" fill-rule="evenodd" d="M11.184 3.369c-2.159-2.159-5.657-2.159-7.815 0-2.159 2.158-2.159 5.656 0 7.815 2.138 2.138 5.592 2.157 7.754.059.018-.022.036-.043.057-.063.02-.02.041-.04.063-.057 2.098-2.162 2.079-5.616-.06-7.754zm1.563 8.317c2.23-2.76 2.062-6.813-.503-9.378-2.744-2.744-7.192-2.744-9.936 0-2.744 2.744-2.744 7.192 0 9.936 2.565 2.565 6.619 2.732 9.378.502l2.784 2.784c.293.293.767.293 1.06 0 .293-.293.293-.767 0-1.06l-2.784-2.784z" clip-rule="evenodd"/>
</svg>
