<svg width="20" height="20" viewBox="0 0 20 20" fill="none" xmlns="http://www.w3.org/2000/svg">
<path fill-rule="evenodd" clip-rule="evenodd" d="M4.75139 2.75461C3.26382 2.06473 1.73886 3.53156 2.27702 5.03803L4.00988 9.89127C4.0034 9.92677 4 9.96307 4 10C4 10.0359 4.00321 10.0712 4.00933 10.1057L2.27716 14.9624C1.7383 16.4689 3.26471 17.9349 4.75167 17.2453L16.7758 11.6628C18.1864 11.0082 18.1864 8.99006 16.7756 8.33548L4.75139 2.75461ZM5.37208 10.75L3.68976 15.467C3.58362 15.7637 3.88227 15.995 4.1203 15.8847L15.1798 10.75H5.37208ZM15.183 9.25L4.1201 4.1153C3.88276 4.00544 3.58299 4.23508 3.68961 4.53346L5.37366 9.25H15.183Z" fill="white"/>
</svg>
