<svg width="24" height="25" viewBox="0 0 24 25" fill="none" xmlns="http://www.w3.org/2000/svg">
<path d="M3.783 3.29866L12 1.47266L20.217 3.29866C20.4391 3.34802 20.6377 3.47162 20.78 3.64906C20.9224 3.8265 21 4.04717 21 4.27466V14.2617C20.9999 15.2494 20.756 16.2218 20.2899 17.0927C19.8238 17.9635 19.1499 18.7058 18.328 19.2537L12 23.4727L5.672 19.2537C4.85027 18.7059 4.17646 17.9638 3.71035 17.0931C3.24424 16.2225 3.00024 15.2502 3 14.2627V4.27466C3.00004 4.04717 3.07764 3.8265 3.21999 3.64906C3.36234 3.47162 3.56094 3.34802 3.783 3.29866ZM13 10.4727V5.47266L8 12.4727H11V17.4727L16 10.4727H13Z" fill="#12EEB1"/>
</svg>
