<svg xmlns="http://www.w3.org/2000/svg" width="24" height="24" fill="none" viewBox="0 0 24 24">
    <path fill="#4F5794" d="M10.94 13.06c.138.144.303.258.486.337.183.078.38.12.58.121.199.002.396-.036.58-.111.185-.076.352-.187.493-.328.14-.14.252-.308.328-.493.075-.184.113-.381.111-.58-.001-.2-.043-.397-.121-.58-.079-.183-.193-.348-.337-.486-.83-.832-3.909-2.608-5.275-3.41-.167-.098-.354.088-.256.255.803 1.367 2.58 4.444 3.41 5.275zM21 12c0 4.963-4.037 9-9 9s-9-4.037-9-9c0-2.406.936-4.667 2.635-6.365.07-.07.152-.125.243-.163.091-.037.189-.057.287-.057.098 0 .196.02.287.057.091.038.174.093.243.163.07.07.125.152.163.243.037.091.057.189.057.287 0 .098-.02.196-.057.287-.038.091-.093.174-.163.243-.698.695-1.252 1.522-1.629 2.433-.377.91-.569 1.887-.566 2.872 0 4.136 3.364 7.5 7.5 7.5s7.5-3.364 7.5-7.5c0-3.882-2.965-7.085-6.75-7.462v2.963c0 .199-.079.39-.22.53-.14.14-.331.22-.53.22s-.39-.08-.53-.22c-.141-.14-.22-.331-.22-.53V3.75c0-.199.079-.39.22-.53.14-.141.331-.22.53-.22 4.963 0 9 4.037 9 9z"/>
</svg>
