<svg width="20" height="20" viewBox="0 0 20 20" fill="none" xmlns="http://www.w3.org/2000/svg">
<g clip-path="url(#clip0_21889_167643)">
<path d="M11.9317 7.5C11.8092 7.5 11.6867 7.46417 11.58 7.39167L10 6.31667L8.42003 7.39167C8.20586 7.53833 7.92253 7.53667 7.71003 7.38667C7.49753 7.23833 7.39836 6.97333 7.46253 6.72083L7.96003 4.76L6.4692 3.4875C6.27503 3.32083 6.20086 3.05417 6.28336 2.8125C6.36503 2.57 6.58503 2.4025 6.84003 2.3875L8.72753 2.28083L9.4142 0.41C9.50336 0.163333 9.73836 0 10 0C10.2617 0 10.4967 0.163333 10.5867 0.41L11.2734 2.28083L13.1609 2.3875C13.4159 2.4025 13.6359 2.57 13.7175 2.8125C13.7992 3.05417 13.7259 3.32083 13.5317 3.4875L12.0409 4.76083L12.5384 6.72167C12.6025 6.97417 12.5034 7.23833 12.2909 7.3875C12.1825 7.4625 12.0567 7.5 11.9317 7.5Z" fill="#4F5794"/>
<path d="M19.3339 14.1665H15.1155V19.1248C15.1155 19.4282 15.071 19.7315 15 19.9998H19.3339C19.698 19.9998 20 19.6032 20 19.1248V15.0415C20 14.5632 19.698 14.1665 19.3339 14.1665Z" fill="#4F5794"/>
<path d="M4.88455 11.6665H0.666075C0.301954 11.6665 0 12.0713 0 12.5594V19.107C0 19.5951 0.301954 19.9998 0.666075 19.9998H5C4.92895 19.726 4.88455 19.4165 4.88455 19.107V11.6665Z" fill="#4F5794"/>
<path d="M13.5417 9.1665H6.45834C6.11334 9.1665 5.83334 9.4465 5.83334 9.7915V19.3748C5.83334 19.7198 6.11334 19.9998 6.45834 19.9998H13.5417C13.8867 19.9998 14.1667 19.7198 14.1667 19.3748V9.7915C14.1667 9.4465 13.8867 9.1665 13.5417 9.1665ZM10.625 16.0415C10.625 16.3865 10.345 16.6665 10 16.6665C9.65501 16.6665 9.37501 16.3865 9.37501 16.0415V13.5907C9.24751 13.4765 9.16668 13.3098 9.16668 13.1248C9.16668 12.7798 9.44668 12.4998 9.79168 12.4998H10C10.345 12.4998 10.625 12.7798 10.625 13.1248V16.0415Z" fill="#4F5794"/>
</g>
<defs>
<clipPath id="clip0_21889_167643">
<rect width="20" height="20" fill="white"/>
</clipPath>
</defs>
</svg>
