<svg xmlns="http://www.w3.org/2000/svg" width="20" height="16" fill="none" viewBox="0 0 20 16">
    <path fill="#4F5794" fill-rule="evenodd" d="M8.875 2.526c-1.036-1.035-2.714-1.035-3.75 0-1.035 1.036-1.035 2.714 0 3.75 1.036 1.035 2.714 1.035 3.75 0 1.035-1.036 1.035-2.714 0-3.75zm-4.81-1.06c1.62-1.621 4.25-1.621 5.87 0 1.621 1.62 1.621 4.25 0 5.87-1.62 1.621-4.25 1.621-5.87 0-1.621-1.62-1.621-4.25 0-5.87zm9.185.185c0-.414.336-.75.75-.75 1.795 0 3.25 1.455 3.25 3.25s-1.455 3.25-3.25 3.25c-.414 0-.75-.336-.75-.75s.336-.75.75-.75c.967 0 1.75-.783 1.75-1.75s-.783-1.75-1.75-1.75c-.414 0-.75-.336-.75-.75zm1 8.349c0-.414.336-.75.75-.75 2.623 0 4.75 2.127 4.75 4.75 0 .414-.336.75-.75.75s-.75-.336-.75-.75c0-1.795-1.455-3.25-3.25-3.25-.414 0-.75-.336-.75-.75zM5 11.75c-1.795 0-3.25 1.455-3.25 3.25 0 .414-.336.75-.75.75S.25 15.414.25 15c0-2.623 2.127-4.75 4.75-4.75h4c2.623 0 4.75 2.127 4.75 4.75 0 .414-.336.75-.75.75s-.75-.336-.75-.75c0-1.795-1.455-3.25-3.25-3.25H5z" clip-rule="evenodd"/>
</svg>
