<svg xmlns="http://www.w3.org/2000/svg" width="18" height="18" fill="none" viewBox="0 0 18 18">
    <path fill="#4F5794" d="M15.572 8.485c.24.304.24.728 0 1.031L14.26 11.18l-.247 2.104c-.021.186-.105.36-.238.492-.132.132-.305.216-.491.237l-2.104.247-1.663 1.313c-.146.117-.328.18-.515.18s-.369-.063-.516-.18L6.823 14.26l-2.104-.247c-.186-.022-.36-.106-.492-.238s-.215-.306-.237-.492l-.247-2.103L2.43 9.516c-.116-.146-.18-.328-.18-.515s.064-.37.18-.516l1.313-1.662.247-2.104c.022-.186.105-.36.238-.492.132-.132.305-.216.491-.237l2.104-.248L8.485 2.43c.147-.116.329-.179.516-.179s.369.063.515.18l1.663 1.312 2.104.248c.384.045.684.345.729.73l.247 2.103 1.313 1.662zm-3.844-1.437c.071-.126.091-.275.056-.416-.036-.14-.125-.261-.248-.338-.123-.077-.27-.103-.412-.074-.143.03-.268.112-.35.232l-2.438 3.9L7.15 9.165c-.107-.1-.248-.154-.394-.152-.146.002-.286.061-.389.165-.103.103-.162.242-.165.388-.002.146.053.288.152.394l1.688 1.688c.06.06.132.105.212.133.08.028.165.038.25.028.17-.02.322-.115.413-.26l2.812-4.5z"/>
</svg>
