<svg width="24" height="25" viewBox="0 0 24 25" fill="none" xmlns="http://www.w3.org/2000/svg">
<path d="M4 2.03516H20C20.2652 2.03516 20.5196 2.14051 20.7071 2.32805C20.8946 2.51559 21 2.76994 21 3.03516V22.3112C21.0001 22.3946 20.9793 22.4767 20.9395 22.5501C20.8997 22.6234 20.8422 22.6856 20.7722 22.7311C20.7023 22.7765 20.622 22.8037 20.5388 22.8102C20.4557 22.8166 20.3722 22.8022 20.296 22.7682L12 19.0652L3.704 22.7672C3.6279 22.8012 3.54451 22.8156 3.46141 22.8092C3.37831 22.8027 3.29813 22.7756 3.22818 22.7303C3.15822 22.685 3.1007 22.6229 3.06085 22.5497C3.021 22.4765 3.00008 22.3945 3 22.3112V3.03516C3 2.76994 3.10536 2.51559 3.29289 2.32805C3.48043 2.14051 3.73478 2.03516 4 2.03516ZM12 13.5352L14.939 15.0802L14.378 11.8082L16.755 9.49016L13.469 9.01216L12 6.03516L10.53 9.01216L7.245 9.49016L9.622 11.8082L9.062 15.0802L12 13.5352Z" fill="#00BAFF"/>
</svg>
