<svg width="24" height="25" viewBox="0 0 24 25" fill="none" xmlns="http://www.w3.org/2000/svg">
<path d="M4 2.00391H20C20.2652 2.00391 20.5196 2.10926 20.7071 2.2968C20.8946 2.48434 21 2.73869 21 3.00391V22.2799C21.0001 22.3633 20.9793 22.4455 20.9395 22.5188C20.8997 22.5922 20.8422 22.6544 20.7722 22.6998C20.7023 22.7452 20.622 22.7724 20.5388 22.7789C20.4557 22.7854 20.3722 22.7709 20.296 22.7369L12 19.0339L3.704 22.7359C3.6279 22.7699 3.54451 22.7844 3.46141 22.7779C3.37831 22.7715 3.29813 22.7444 3.22818 22.6991C3.15822 22.6538 3.1007 22.5917 3.06085 22.5185C3.021 22.4453 3.00008 22.3633 3 22.2799V3.00391C3 2.73869 3.10536 2.48434 3.29289 2.2968C3.48043 2.10926 3.73478 2.00391 4 2.00391ZM19 19.9689V4.00391H5V19.9689L12 16.8449L19 19.9689ZM12 13.5039L9.061 15.0489L9.622 11.7769L7.245 9.45891L10.531 8.98091L12 6.00391L13.47 8.98091L16.755 9.45891L14.378 11.7769L14.938 15.0489L12 13.5039Z" fill="#00BAFF"/>
</svg>
