<svg width="14" height="10" viewBox="0 0 14 10" fill="none" xmlns="http://www.w3.org/2000/svg">
<path fill-rule="evenodd" clip-rule="evenodd" d="M3.65925 0.260368C5.88307 0.0863878 8.117 0.0863878 10.3408 0.260368L11.8346 0.377235C12.6667 0.442328 13.3473 1.06593 13.4849 1.88911C13.829 3.94876 13.829 6.05129 13.4849 8.11096C13.3473 8.93409 12.6667 9.55769 11.8346 9.62282L10.3408 9.73969C8.117 9.91362 5.88307 9.91362 3.65925 9.73969L2.16545 9.62282C1.33341 9.55769 0.652725 8.93409 0.515185 8.11096C0.171045 6.05129 0.171045 3.94876 0.515185 1.88911C0.652725 1.06593 1.33341 0.442328 2.16545 0.377235L3.65925 0.260368ZM5.66667 6.64676V3.35326C5.66667 3.1978 5.83627 3.10177 5.96953 3.18176L8.7142 4.82855C8.84367 4.90622 8.84367 5.09382 8.7142 5.17149L5.96953 6.81829C5.83627 6.89829 5.66667 6.80222 5.66667 6.64676Z" fill="white"/>
</svg>
