<svg xmlns="http://www.w3.org/2000/svg" width="24" height="24" fill="none" viewBox="0 0 24 24">
    <path fill="#111327" d="M14.36 18.36v-2.454c0-.52-.152-.781-.454-.781-.177 0-.349.083-.515.25v3.5c.166.167.338.25.515.25.302 0 .453-.255.453-.766zm2.874-1.907h1.032v-.531c0-.531-.172-.797-.516-.797-.344 0-.516.266-.516.797v.531zm-8.922-4.156v1.094h-1.25V20H5.907v-6.61H4.688v-1.093h3.625zm3.141 1.969V20h-1.047v-.625c-.406.469-.802.703-1.187.703-.344 0-.563-.146-.656-.437-.063-.177-.094-.459-.094-.844v-4.531H9.5v4.218c0 .25.005.386.016.407.01.156.088.234.234.234.208 0 .427-.162.656-.484v-4.375h1.047zM15.391 16v2.281c0 .542-.037.922-.11 1.14-.125.438-.4.657-.828.657-.364 0-.719-.213-1.062-.64V20h-1.047v-7.703h1.047v2.515c.333-.416.687-.624 1.062-.624.427 0 .703.218.828.656.073.219.11.604.11 1.156zm3.921 2.016v.14c0 .302-.01.526-.03.672-.032.23-.11.438-.235.625-.281.417-.698.625-1.25.625-.542 0-.964-.198-1.266-.594-.218-.28-.328-.729-.328-1.343v-2.016c0-.615.104-1.063.313-1.344.302-.396.718-.594 1.25-.594.53 0 .937.198 1.218.594.22.302.328.75.328 1.344v1.188h-2.078v1.015c0 .531.177.797.532.797.25 0 .406-.135.468-.406l.008-.11c.005-.062.008-.148.008-.257v-.336h1.063zM12.267 5.14v2.437c0 .531-.167.797-.5.797-.334 0-.5-.266-.5-.797V5.141c0-.542.166-.813.5-.813.333 0 .5.271.5.813zm8.328 11.14c0-1.843-.1-3.198-.297-4.062-.104-.459-.328-.841-.672-1.149-.344-.307-.74-.487-1.188-.539-1.416-.156-3.562-.234-6.437-.234-2.865 0-5.005.078-6.422.234-.458.052-.857.232-1.195.54-.339.307-.56.69-.664 1.148-.209.906-.313 2.26-.313 4.062 0 1.834.104 3.188.313 4.063.104.448.325.828.664 1.14.338.313.732.495 1.18.547 1.427.157 3.572.235 6.437.235s5.01-.078 6.438-.235c.447-.052.84-.234 1.18-.547.338-.312.56-.692.663-1.14.209-.875.313-2.23.313-4.063zM8.797 6.11l1.406-4.625H9.031l-.797 3.047-.828-3.047H6.188c.072.24.192.6.359 1.079l.375 1.078c.364 1.073.604 1.895.719 2.468V9.25h1.156V6.11zm4.515 1.266V5.344c0-.604-.109-1.058-.328-1.36-.302-.395-.708-.593-1.218-.593-.532 0-.938.198-1.22.593-.218.302-.327.756-.327 1.36v2.031c0 .604.11 1.057.328 1.36.281.395.687.593 1.219.593.51 0 .916-.198 1.218-.594.22-.28.329-.734.329-1.359zm2.829 1.875h1.047V3.469H16.14V7.89c-.23.323-.448.484-.657.484-.156 0-.24-.083-.25-.25-.01-.02-.015-.156-.015-.406v-4.25h-1.047v4.578c0 .385.031.672.094.86.114.28.338.421.671.421.376 0 .777-.234 1.204-.703v.625zM24 4.5v15c0 1.24-.44 2.3-1.32 3.18-.88.88-1.94 1.32-3.18 1.32h-15c-1.24 0-2.3-.44-3.18-1.32C.44 21.8 0 20.74 0 19.5v-15c0-1.24.44-2.3 1.32-3.18C2.2.44 3.26 0 4.5 0h15c1.24 0 2.3.44 3.18 1.32C23.56 2.2 24 3.26 24 4.5z"/>
</svg>
