<svg width="31" height="23" viewBox="0 0 31 23" fill="none" xmlns="http://www.w3.org/2000/svg">
<path d="M2.22602 4.62303C2.96179 3.8203 3.73279 3.09797 4.58172 2.42735C4.68156 2.34852 4.8253 2.44292 4.79187 2.56564C4.31604 4.31454 3.48467 6.04291 2.20307 7.32778C2.14549 6.42829 2.14465 5.5213 2.22602 4.62303Z" fill="#FF901D"/>
<path d="M2.20415 7.32843C1.46421 6.43549 0.828342 5.51227 0.255447 4.51555C0.189936 4.4016 0.0156818 4.44222 0.0090216 4.57355C-0.0943319 6.61525 0.685754 9.00419 2.58632 9.96773C2.39693 9.09949 2.26046 8.21593 2.20415 7.32843Z" fill="#FF901D"/>
<path d="M2.58594 9.96711C3.0516 9.00895 3.57285 8.11752 4.18383 7.25345C4.2563 7.15094 4.41887 7.19793 4.42414 7.32338C4.49855 9.08706 4.19594 10.9514 3.35089 12.4996C3.03762 11.6756 2.77339 10.8291 2.58594 9.96711Z" fill="#FF901D"/>
<path d="M3.35272 12.5002C2.3919 11.8826 1.51421 11.2075 0.67231 10.4491C0.575192 10.3616 0.422856 10.453 0.455733 10.5794C0.962935 12.5296 2.4134 14.5308 4.47841 14.8843C4.04913 14.1178 3.6646 13.3222 3.35272 12.5002Z" fill="#FF901D"/>
<path d="M4.47656 14.8838C4.64488 13.8385 4.88562 12.8414 5.22074 11.8445C5.26058 11.7259 5.42897 11.7236 5.47074 11.8415C6.05684 13.4962 6.29424 15.3629 5.94065 17.0784C5.40311 16.3827 4.90584 15.6516 4.47656 14.8838Z" fill="#FF901D"/>
<path d="M5.93926 17.079C4.84402 16.7687 3.80928 16.3806 2.78452 15.905C2.66615 15.85 2.54748 15.9817 2.61572 16.093C3.66935 17.8112 5.64197 19.2989 7.71964 19.0425C7.08184 18.4315 6.47915 17.7787 5.93926 17.079Z" fill="#FF901D"/>
<path d="M7.72182 19.0421C7.57239 17.9889 7.50888 16.9617 7.53824 15.9059C7.54169 15.7807 7.70226 15.7294 7.77661 15.8302C8.82601 17.2529 9.60888 18.9812 9.79622 20.7333C9.0665 20.2205 8.36586 19.66 7.72182 19.0421Z" fill="#FF901D"/>
<path d="M28.7739 4.62303C28.0382 3.8203 27.2672 3.09797 26.4182 2.42735C26.3184 2.34852 26.1746 2.44292 26.2081 2.56564C26.6839 4.31454 27.5153 6.04291 28.7969 7.32778C28.8545 6.42829 28.8553 5.5213 28.7739 4.62303Z" fill="#FF901D"/>
<path d="M28.7962 7.32843C29.5362 6.43549 30.1721 5.51227 30.745 4.51555C30.8105 4.4016 30.9847 4.44222 30.9914 4.57355C31.0947 6.61525 30.3146 9.00419 28.4141 9.96773C28.6035 9.09949 28.7399 8.21593 28.7962 7.32843Z" fill="#FF901D"/>
<path d="M28.4135 9.96711C27.9478 9.00895 27.4266 8.11752 26.8156 7.25345C26.7431 7.15094 26.5806 7.19793 26.5753 7.32338C26.5009 9.08706 26.8035 10.9514 27.6486 12.4996C27.9618 11.6756 28.2261 10.8291 28.4135 9.96711Z" fill="#FF901D"/>
<path d="M27.6491 12.5002C28.6099 11.8826 29.4876 11.2075 30.3295 10.4491C30.4266 10.3616 30.579 10.453 30.5461 10.5794C30.0389 12.5296 28.5884 14.5308 26.5234 14.8843C26.9527 14.1178 27.3372 13.3222 27.6491 12.5002Z" fill="#FF901D"/>
<path d="M26.5245 14.8838C26.3561 13.8385 26.1154 12.8414 25.7803 11.8445C25.7404 11.7259 25.5721 11.7236 25.5303 11.8415C24.9442 13.4962 24.7068 15.3629 25.0604 17.0784C25.5979 16.3827 26.0952 15.6516 26.5245 14.8838Z" fill="#FF901D"/>
<path d="M25.0597 17.079C26.1549 16.7687 27.1897 16.3806 28.2144 15.905C28.3328 15.85 28.4515 15.9817 28.3832 16.093C27.3296 17.8112 25.357 19.2989 23.2793 19.0425C23.9171 18.4315 24.5198 17.7787 25.0597 17.079Z" fill="#FF901D"/>
<path d="M23.2775 19.0421C23.4269 17.9889 23.4905 16.9617 23.4611 15.9059C23.4576 15.7807 23.2971 15.7294 23.2227 15.8302C22.1733 17.2529 21.3905 18.9812 21.2031 20.7333C21.9328 20.2205 22.6335 19.66 23.2775 19.0421Z" fill="#FF901D"/>
<path d="M12.3588 21.6943C11.5203 21.2809 10.7538 20.831 10.0806 20.3574C10.0804 20.3573 10.0803 20.3572 10.0801 20.3571C10.08 20.357 10.0799 20.3569 10.0798 20.3569C9.32847 19.8289 8.65107 19.2768 8.06619 18.7157C8.06607 18.7156 8.06594 18.7154 8.06582 18.7152C7.40931 18.0864 6.82758 17.445 6.33667 16.8087C6.33654 16.8085 6.33636 16.8083 6.33624 16.8081C6.33618 16.8081 6.33618 16.808 6.33612 16.808C5.78236 16.0912 5.30386 15.3742 4.91393 14.6765C4.91375 14.6762 4.91351 14.6759 4.91333 14.6755C4.4711 13.8855 4.10339 13.107 3.82052 12.3613C3.8204 12.361 3.82028 12.3607 3.82016 12.3605V12.3604C3.49708 11.5103 3.24708 10.6829 3.077 9.90108C3.077 9.90096 3.07694 9.9009 3.07694 9.90084C2.88168 9.00565 2.75677 8.14364 2.70573 7.33892C2.70573 7.33849 2.70561 7.33813 2.70561 7.33777C2.64627 6.41097 2.65366 5.5276 2.72759 4.71221C2.7285 4.70234 2.7285 4.69253 2.72874 4.68272C2.82634 3.42184 3.05975 2.15792 3.42363 0.925367C3.49677 0.677549 3.35516 0.417379 3.10734 0.344239C2.85964 0.271037 2.59935 0.412596 2.52621 0.660535C2.13986 1.96926 1.89289 3.31213 1.7922 4.65185C1.79153 4.66099 1.79171 4.66995 1.79153 4.67897C1.71754 5.52796 1.71058 6.4421 1.77179 7.39771C1.77179 7.39789 1.77179 7.39801 1.77179 7.39819C1.8258 8.24918 1.95713 9.15738 2.1622 10.0977C2.16238 10.0985 2.16244 10.0992 2.16256 10.1C2.34245 10.927 2.60583 11.7995 2.94543 12.6928C2.9455 12.693 2.9455 12.6931 2.94556 12.6932C3.24484 13.482 3.63222 14.3028 4.09698 15.1329C4.09704 15.133 4.0971 15.1331 4.09716 15.1332C4.09734 15.1335 4.09746 15.1338 4.09764 15.134C4.09764 15.134 4.09764 15.134 4.0977 15.1341C4.51009 15.8715 5.01402 16.6272 5.59563 17.38C5.59587 17.3803 5.59612 17.3805 5.5963 17.3808C6.11525 18.0533 6.72792 18.7292 7.41737 19.3897C7.41755 19.3899 7.41767 19.3901 7.41785 19.3903C8.03694 19.9843 8.75158 20.5671 9.54196 21.1225C9.54208 21.1225 9.54214 21.1226 9.54226 21.1227C10.2548 21.624 11.0632 22.0987 11.9449 22.5336C12.0115 22.5664 12.0821 22.582 12.1515 22.582C12.324 22.582 12.49 22.4861 12.5715 22.3209C12.6857 22.0892 12.5905 21.8086 12.3588 21.6943Z" fill="#F7BC14"/>
<path d="M29.2112 4.67898C29.211 4.66996 29.2112 4.66106 29.2105 4.65198C29.1099 3.31202 28.8629 1.96909 28.4765 0.660609C28.4034 0.412851 28.1433 0.271535 27.8953 0.344373C27.6475 0.417514 27.506 0.677744 27.5791 0.925562C27.9429 2.15781 28.1763 3.42167 28.274 4.68268C28.2743 4.69255 28.2743 4.70242 28.2752 4.71235C28.3491 5.52743 28.3565 6.41087 28.2972 7.33802C28.2972 7.3382 28.2972 7.33839 28.2972 7.33851C28.2972 7.33869 28.2971 7.33881 28.2971 7.33899C28.2461 8.14336 28.1212 9.0053 27.9259 9.90091C27.9259 9.90097 27.9258 9.90109 27.9258 9.90115C27.7558 10.6829 27.5058 11.5104 27.1826 12.3604C27.1826 12.3606 27.1826 12.3606 27.1825 12.3607C27.1825 12.361 27.1823 12.3612 27.1822 12.3614C26.8994 13.107 26.5316 13.8858 26.089 14.6764C26.0889 14.6764 26.0889 14.6765 26.0888 14.6766C25.6989 15.374 25.2204 16.0911 24.6666 16.808C24.6664 16.8082 24.6663 16.8084 24.6662 16.8086C24.6661 16.8086 24.6661 16.8086 24.6661 16.8087C24.1753 17.4447 23.5935 18.0862 22.9369 18.7153C22.9368 18.7154 22.9367 18.7156 22.9365 18.7157C22.3519 19.2766 21.6744 19.8288 20.9229 20.3569C20.9227 20.357 20.9225 20.3572 20.9223 20.3574C20.9222 20.3574 20.9221 20.3574 20.9221 20.3574C20.2489 20.8311 19.4824 21.2809 18.6439 21.6944C18.4121 21.8086 18.3169 22.0891 18.4312 22.3208C18.5126 22.4861 18.6786 22.5819 18.8511 22.5819C18.9206 22.5819 18.9911 22.5663 19.0577 22.5335C19.9393 22.0988 20.7476 21.6242 21.4601 21.1229C21.4603 21.1227 21.4606 21.1226 21.4608 21.1224C22.2513 20.5668 22.966 19.9841 23.5849 19.3902C23.5851 19.3901 23.5852 19.3899 23.5854 19.3897C24.2751 18.7288 24.888 18.0527 25.4068 17.3803C25.4069 17.3803 25.4069 17.3802 25.4069 17.3801C25.407 17.3801 25.407 17.38 25.4071 17.38C25.989 16.6266 26.4933 15.8707 26.9056 15.1332C26.9059 15.1327 26.9061 15.1322 26.9063 15.1317C27.3709 14.3018 27.7581 13.4813 28.0571 12.6932C28.0571 12.6932 28.0571 12.6932 28.0571 12.693C28.0571 12.693 28.0572 12.693 28.0572 12.6928C28.3966 11.8 28.6598 10.9281 28.8397 10.1014C28.8398 10.1012 28.8398 10.1011 28.8399 10.1009C29.0453 9.15897 29.1769 8.24968 29.2309 7.39815C29.2309 7.39748 29.2309 7.39687 29.2309 7.39627C29.2921 6.44084 29.2851 5.52719 29.2112 4.67898Z" fill="#F7BC14"/>
<path d="M12.8416 13.9226C11.4929 13.9227 10.1783 13.4448 9.13224 12.5546C7.84175 11.4564 7.10156 9.85494 7.10156 8.1609V6.57893C7.10156 6.39608 7.17289 6.22413 7.30234 6.09498C7.43136 5.96632 7.60271 5.89548 7.78483 5.89548C7.78544 5.89548 7.78604 5.89548 7.78665 5.89548L11.9285 5.90456C12.1869 5.9051 12.3959 6.11502 12.3954 6.37343C12.3947 6.63142 12.1854 6.84025 11.9276 6.84025C11.9272 6.84025 11.9268 6.84025 11.9265 6.84025L8.03725 6.83171L8.03719 8.16084C8.03719 9.58006 8.65731 10.9218 9.73856 11.8419C10.8115 12.755 12.2221 13.1499 13.6078 12.9251C13.6559 12.9173 13.7043 12.9091 13.7531 12.9006C14.0079 12.8564 14.2501 13.0262 14.2946 13.2807C14.3392 13.5352 14.169 13.7777 13.9145 13.8222C13.8618 13.8314 13.8094 13.8403 13.7575 13.8487C13.4524 13.8983 13.1461 13.9226 12.8416 13.9226Z" fill="#FFB125"/>
<path d="M18.1594 13.9239C17.8548 13.9239 17.5487 13.8995 17.2434 13.85C17.1915 13.8416 17.1392 13.8327 17.0864 13.8235C16.8319 13.779 16.6617 13.5365 16.7063 13.282C16.7509 13.0275 16.9936 12.8576 17.2478 12.9019C17.2966 12.9105 17.3451 12.9187 17.3932 12.9264C18.7792 13.151 20.1894 12.7563 21.2624 11.8432C22.3436 10.9231 22.9638 9.58143 22.9638 8.16215V6.83303L19.0745 6.84156C19.0742 6.84156 19.0738 6.84156 19.0735 6.84156C18.8156 6.84156 18.6062 6.6328 18.6057 6.37475C18.6051 6.11633 18.8141 5.90642 19.0725 5.90587L23.2146 5.89679C23.2152 5.89679 23.2158 5.89679 23.2164 5.89679C23.3984 5.89679 23.5697 5.96757 23.6987 6.09629C23.8282 6.2255 23.8995 6.39733 23.8995 6.58024V8.16221C23.8995 9.85625 23.1594 11.4577 21.8688 12.5559C20.8228 13.446 19.5081 13.9239 18.1594 13.9239Z" fill="#FFB125"/>
<path d="M12.4238 20.7027H18.5759C16.0276 17.4711 16.2935 12.8137 16.2935 12.8137H15.4999H14.7063C14.7063 12.8138 14.9722 17.4711 12.4238 20.7027Z" fill="#FED130"/>
<path d="M16.2946 12.8138H15.501H14.7075C14.7075 12.8138 14.7486 13.5369 14.6427 14.6108C14.4409 16.658 14.9487 18.7231 16.1468 20.3952C16.2211 20.499 16.2981 20.6016 16.3779 20.7027H18.5771C16.0287 17.4711 16.2946 12.8138 16.2946 12.8138Z" fill="#F7BC14"/>
<path d="M10.8594 4.55484V8.63636C10.8594 11.0511 12.007 13.3221 13.9511 14.7544C14.8723 15.433 16.1279 15.433 17.0491 14.7544C18.9932 13.3221 20.1408 11.0511 20.1408 8.63636V4.55484H10.8594Z" fill="#FED130"/>
<path d="M17.9305 4.55484V8.63637C17.9305 11.0511 16.7828 13.3221 14.8387 14.7544C14.6977 14.8583 14.5488 14.9461 14.3945 15.0181C15.2481 15.417 16.2682 15.3292 17.0483 14.7544C18.9924 13.3222 20.1401 11.0511 20.1401 8.63637V4.55484H17.9305Z" fill="#F7BC14"/>
<path d="M20.4737 5.19241H10.5273C10.3774 5.19241 10.2559 5.0709 10.2559 4.92098V3.79615C10.2559 3.64624 10.3774 3.52472 10.5273 3.52472H20.4737C20.6236 3.52472 20.7451 3.64624 20.7451 3.79615V4.92098C20.7451 5.0709 20.6235 5.19241 20.4737 5.19241Z" fill="#FFB125"/>
<path d="M20.4714 3.52475H18.5332V5.19239H20.4714C20.6213 5.19239 20.7428 5.07088 20.7428 4.92096V3.79612C20.7428 3.64627 20.6213 3.52475 20.4714 3.52475Z" fill="#FF901D"/>
<path d="M20.7774 22.6751H10.264C10.1117 22.6751 10.0059 22.5233 10.0587 22.3803L10.8394 20.2648C10.8712 20.1788 10.9531 20.1217 11.0448 20.1217H19.9967C20.0883 20.1217 20.1703 20.1788 20.202 20.2648L20.9828 22.3803C21.0356 22.5233 20.9298 22.6751 20.7774 22.6751Z" fill="#FFB125"/>
<path d="M20.9828 22.3803L20.202 20.2648C20.1702 20.1788 20.0883 20.1217 19.9966 20.1217H17.8613L18.8037 22.6751H20.7773C20.9297 22.6751 21.0355 22.5233 20.9828 22.3803Z" fill="#FF901D"/>
</svg>
