<svg width="90" height="90" viewBox="0 0 90 90" fill="none" xmlns="http://www.w3.org/2000/svg">
<path d="M27.4076 47.7383L21.0566 74.8824L34.2402 65.1143L44.2492 78.2979L45.0191 59.6299C43.576 59.6299 42.1328 57.8018 38.7156 54.0963C29.1408 57.1285 30.0584 57.6559 27.8893 47.835L27.4076 47.7383ZM45.499 59.5262L47.285 81.5147L56.4256 69.1502L68.9834 77.9059L62.3916 47.7857L62.1508 47.8332C59.9377 57.5522 60.8025 57.0705 51.277 54.0875C48.2412 57.3606 46.798 59.1904 45.499 59.5262Z" fill="url(#paint0_linear_14073:105522)"/>
<path fill-rule="evenodd" clip-rule="evenodd" d="M51.273 7.41797C60.8004 4.42969 59.9338 3.95332 62.1469 13.6723C71.9133 15.8854 71.3842 14.9713 68.4012 24.4986C75.7137 31.2346 75.7137 30.3205 68.4012 37.009C71.3894 46.5363 71.8658 45.6697 62.1469 47.8354C59.9338 57.5543 60.7986 57.0727 51.273 54.0896C44.4879 61.4514 45.5004 61.4514 38.7152 54.0896C29.1404 57.1289 30.058 57.6562 27.8889 47.8354C18.1207 45.6697 18.6023 46.5838 21.6346 37.009C14.2729 30.3293 14.2729 31.2346 21.6346 24.4986C18.6041 15.0205 18.1189 15.8379 27.8889 13.6723C30.058 3.90586 29.1404 4.43496 38.7152 7.41797C45.4512 0.105469 44.5371 0.105469 51.273 7.41797Z" fill="url(#paint1_linear_14073:105522)"/>
<path fill-rule="evenodd" clip-rule="evenodd" d="M50.9761 9.15054C60.0693 6.31167 59.2519 5.87925 61.3209 15.0199C70.1258 16.9921 70.2699 15.7898 67.5752 24.3539C69.2117 16.2679 68.7793 17.6742 60.6476 15.8865C58.6261 6.93745 59.5929 7.46655 50.7353 10.2087C44.3843 3.42534 45.6377 3.42534 39.2849 10.2087C30.4308 7.51401 31.3466 6.93745 29.3252 15.8865C21.1935 17.6671 20.7611 16.224 22.3959 24.3539C19.7011 15.7898 19.8945 16.9921 28.6994 15.0199C30.7683 5.83003 29.9017 6.31167 39.0441 9.15054C45.5463 2.17378 44.4881 2.17378 50.9761 9.15054Z" fill="#D9FFF4"/>
<path fill-rule="evenodd" clip-rule="evenodd" d="M25.1465 30.8014C25.1465 41.7227 34.048 50.6242 45.0098 50.6242C50.2671 50.6242 55.3091 48.5357 59.0266 44.8182C62.7441 41.1007 64.8326 36.0587 64.8326 30.8014C64.8326 25.544 62.7441 20.502 59.0266 16.7845C55.3091 13.067 50.2671 10.9785 45.0098 10.9785C34.0463 10.9785 25.1465 19.8801 25.1465 30.8014Z" fill="#D9FFF4"/>
<path fill-rule="evenodd" clip-rule="evenodd" d="M54.4473 14.492C63.3963 19.6881 66.5234 31.2352 61.3273 40.186C58.8325 44.5191 54.7185 47.6836 49.8904 48.9834C45.0622 50.2833 39.9155 49.6119 35.5824 47.117C31.2493 44.6222 28.0848 40.5081 26.7849 35.68C25.4851 30.8519 26.1565 25.7052 28.6514 21.3721C33.8545 12.3756 45.4508 9.29592 54.4473 14.492Z" fill="#00C28D"/>
<path d="M41.2843 28.0447C41.3376 26.9781 41.711 26.1567 42.4043 25.5807C43.1083 24.9941 44.031 24.7007 45.1723 24.7007C45.951 24.7007 46.6176 24.8394 47.1723 25.1167C47.727 25.3834 48.143 25.7514 48.4203 26.2207C48.7083 26.6794 48.8523 27.2021 48.8523 27.7887C48.8523 28.4607 48.6763 29.0314 48.3243 29.5007C47.983 29.9594 47.5723 30.2687 47.0923 30.4287V30.4927C47.711 30.6847 48.191 31.0261 48.5323 31.5167C48.8843 32.0074 49.0603 32.6367 49.0603 33.4047C49.0603 34.0447 48.911 34.6154 48.6123 35.1167C48.3243 35.6181 47.8923 36.0127 47.3163 36.3007C46.751 36.5781 46.0683 36.7167 45.2683 36.7167C44.063 36.7167 43.0816 36.4127 42.3243 35.8047C41.567 35.1967 41.167 34.3007 41.1243 33.1167H43.3003C43.3216 33.6394 43.4976 34.0607 43.8283 34.3807C44.1696 34.6901 44.6336 34.8447 45.2203 34.8447C45.7643 34.8447 46.1803 34.6954 46.4683 34.3967C46.767 34.0874 46.9163 33.6927 46.9163 33.2127C46.9163 32.5727 46.7136 32.1141 46.3083 31.8367C45.903 31.5594 45.2736 31.4207 44.4203 31.4207H43.9563V29.5807H44.4203C45.935 29.5807 46.6923 29.0741 46.6923 28.0607C46.6923 27.6021 46.5536 27.2447 46.2763 26.9887C46.0096 26.7327 45.6203 26.6047 45.1083 26.6047C44.607 26.6047 44.2176 26.7434 43.9403 27.0207C43.6736 27.2874 43.519 27.6287 43.4763 28.0447H41.2843Z" fill="white"/>
<defs>
<linearGradient id="paint0_linear_14073:105522" x1="45.0174" y1="81.3231" x2="45.0174" y2="47.5449" gradientUnits="userSpaceOnUse">
<stop stop-color="#49D8B0"/>
<stop offset="1" stop-color="#D0FFF2"/>
</linearGradient>
<linearGradient id="paint1_linear_14073:105522" x1="44.9994" y1="60.6059" x2="44.9994" y2="0.339256" gradientUnits="userSpaceOnUse">
<stop stop-color="#04B484"/>
<stop offset="0.52" stop-color="#1FE6AE"/>
<stop offset="1" stop-color="#33BD98"/>
</linearGradient>
</defs>
</svg>
