<svg width="90" height="90" viewBox="0 0 90 90" fill="none" xmlns="http://www.w3.org/2000/svg">
<path d="M27.4076 47.7383L21.0566 74.8824L34.2402 65.1143L44.2492 78.2979L45.0191 59.6299C43.576 59.6299 42.1328 57.8018 38.7156 54.0963C29.1408 57.1285 30.0584 57.6559 27.8893 47.835L27.4076 47.7383ZM45.499 59.5262L47.285 81.5147L56.4256 69.1502L68.9834 77.9059L62.3916 47.7857L62.1508 47.8332C59.9377 57.5522 60.8025 57.0705 51.277 54.0875C48.2412 57.3606 46.798 59.1904 45.499 59.5262Z" fill="url(#paint0_linear_14073:105547)"/>
<path fill-rule="evenodd" clip-rule="evenodd" d="M51.274 7.41797C60.8014 4.42969 59.9348 3.95332 62.1478 13.6723C71.9142 15.8854 71.3851 14.9713 68.4021 24.4986C75.7146 31.2346 75.7146 30.3205 68.4021 37.009C71.3904 46.5363 71.8668 45.6697 62.1478 47.8354C59.9348 57.5543 60.7996 57.0727 51.274 54.0896C44.4889 61.4514 45.5014 61.4514 38.7162 54.0896C29.1414 57.1289 30.059 57.6563 27.8898 47.8354C18.1217 45.6697 18.6033 46.5838 21.6355 37.009C14.2738 30.3293 14.2738 31.2346 21.6355 24.4986C18.6051 15.0205 18.1199 15.8379 27.8898 13.6723C30.059 3.90586 29.1414 4.43496 38.7162 7.41797C45.4521 0.105469 44.5381 0.105469 51.274 7.41797Z" fill="url(#paint1_linear_14073:105547)"/>
<path fill-rule="evenodd" clip-rule="evenodd" d="M50.9771 9.15054C60.0703 6.31167 59.2529 5.87925 61.3218 15.0199C70.1267 16.9921 70.2709 15.7898 67.5761 24.3539C69.2127 16.2679 68.7802 17.6742 60.6486 15.8865C58.6271 6.93745 59.5939 7.46655 50.7363 10.2087C44.3853 3.42534 45.6386 3.42534 39.2859 10.2087C30.4318 7.51401 31.3476 6.93745 29.3261 15.8865C21.1945 17.6671 20.7621 16.224 22.3968 24.3539C19.7021 15.7898 19.8955 16.9921 28.7004 15.0199C30.7693 5.83003 29.9027 6.31167 39.0451 9.15054C45.5472 2.17378 44.489 2.17378 50.9771 9.15054Z" fill="#E8F9FF"/>
<path fill-rule="evenodd" clip-rule="evenodd" d="M25.1475 30.8014C25.1475 41.7227 34.049 50.6242 45.0107 50.6242C50.2681 50.6242 55.3101 48.5357 59.0276 44.8182C62.7451 41.1007 64.8336 36.0587 64.8336 30.8014C64.8336 25.544 62.7451 20.502 59.0276 16.7845C55.3101 13.067 50.2681 10.9785 45.0107 10.9785C34.0473 10.9785 25.1475 19.8801 25.1475 30.8014Z" fill="#AEE9FF"/>
<path fill-rule="evenodd" clip-rule="evenodd" d="M54.4482 14.492C63.3973 19.6881 66.5244 31.2352 61.3283 40.186C58.8334 44.5191 54.7194 47.6836 49.8913 48.9834C45.0632 50.2833 39.9165 49.6119 35.5834 47.117C31.2503 44.6221 28.0858 40.5081 26.7859 35.68C25.4861 30.8519 26.1575 25.7052 28.6523 21.3721C33.8555 12.3756 45.4518 9.29592 54.4482 14.492Z" fill="#08A2F9"/>
<path d="M41.4351 33.8685C42.4591 33.0152 43.2751 32.3058 43.8831 31.7405C44.4911 31.1645 44.9978 30.5672 45.4031 29.9485C45.8085 29.3298 46.0111 28.7218 46.0111 28.1245C46.0111 27.5805 45.8831 27.1538 45.6271 26.8445C45.3711 26.5352 44.9765 26.3805 44.4431 26.3805C43.9098 26.3805 43.4991 26.5618 43.2111 26.9245C42.9231 27.2765 42.7738 27.7618 42.7631 28.3805H40.5871C40.6298 27.1005 41.0085 26.1298 41.7231 25.4685C42.4485 24.8072 43.3658 24.4765 44.4751 24.4765C45.6911 24.4765 46.6245 24.8018 47.2751 25.4525C47.9258 26.0925 48.2511 26.9405 48.2511 27.9965C48.2511 28.8285 48.0271 29.6232 47.5791 30.3805C47.1311 31.1378 46.6191 31.7992 46.0431 32.3645C45.4671 32.9192 44.7151 33.5912 43.7871 34.3805H48.5071V36.2365H40.6031V34.5725L41.4351 33.8685Z" fill="white"/>
<defs>
<linearGradient id="paint0_linear_14073:105547" x1="45.0174" y1="81.3231" x2="45.0174" y2="47.5449" gradientUnits="userSpaceOnUse">
<stop stop-color="#00BAFF"/>
<stop offset="1" stop-color="#D3E8EF"/>
</linearGradient>
<linearGradient id="paint1_linear_14073:105547" x1="45.0004" y1="60.6059" x2="45.0004" y2="0.339256" gradientUnits="userSpaceOnUse">
<stop stop-color="#0FAAE3"/>
<stop offset="0.52" stop-color="#4CCAF9"/>
<stop offset="1" stop-color="#25AFE1"/>
</linearGradient>
</defs>
</svg>
