<svg width="110" height="110" viewBox="0 0 110 110" fill="none" xmlns="http://www.w3.org/2000/svg">
<path d="M33.4986 58.3477L25.7363 91.5238L41.8496 79.585L54.0828 95.6983L55.0238 72.8818C53.26 72.8818 51.4961 70.6475 47.3195 66.1186C35.617 69.8246 36.7385 70.4691 34.0873 58.4658L33.4986 58.3477ZM55.6103 72.7551L57.7932 99.6299L68.965 84.5178L84.3135 95.2192L76.2568 58.4057L75.9625 58.4637C73.2576 70.3424 74.3146 69.7537 62.6723 66.1078C58.9619 70.1082 57.198 72.3447 55.6103 72.7551Z" fill="url(#paint0_linear_14073:105573)"/>
<path fill-rule="evenodd" clip-rule="evenodd" d="M62.6684 9.06641C74.3129 5.41406 73.2537 4.83184 75.9586 16.7105C87.8953 19.4154 87.2486 18.2982 83.6027 29.9428C92.5402 38.1756 92.5402 37.0584 83.6027 45.2332C87.2551 56.8777 87.8373 55.8186 75.9586 58.4654C73.2537 70.3441 74.3107 69.7555 62.6684 66.1096C54.3754 75.1072 55.6129 75.1072 47.3199 66.1096C35.6174 69.8242 36.7389 70.4688 34.0877 58.4654C22.1488 55.8186 22.7375 56.9357 26.4436 45.2332C17.4459 37.0691 17.4459 38.1756 26.4436 29.9428C22.7396 18.3584 22.1467 19.3574 34.0877 16.7105C36.7389 4.77383 35.6174 5.42051 47.3199 9.06641C55.5527 0.128906 54.4355 0.128906 62.6684 9.06641Z" fill="url(#paint1_linear_14073:105573)"/>
<path fill-rule="evenodd" clip-rule="evenodd" d="M62.3054 11.1844C73.4192 7.7147 72.4202 7.18618 74.9489 18.3581C85.7104 20.7686 85.8866 19.2991 82.5931 29.7663C84.5933 19.8834 84.0647 21.6022 74.1261 19.4172C71.6554 8.47954 72.837 9.12622 62.011 12.4778C54.2487 4.18696 55.7806 4.18696 48.0161 12.4778C37.1944 9.18423 38.3138 8.47954 35.8431 19.4172C25.9044 21.5936 25.3759 19.8297 27.3739 29.7663C24.0804 19.2991 24.3167 20.7686 35.0782 18.3581C37.6069 7.12602 36.5477 7.7147 47.7218 11.1844C55.6688 2.65728 54.3755 2.65728 62.3054 11.1844Z" fill="#FFE432"/>
<path fill-rule="evenodd" clip-rule="evenodd" d="M30.7354 37.6479C30.7354 50.9961 41.615 61.8758 55.0127 61.8758C61.4383 61.8758 67.6008 59.3232 72.1444 54.7796C76.688 50.236 79.2406 44.0735 79.2406 37.6479C79.2406 31.2222 76.688 25.0597 72.1444 20.5161C67.6008 15.9725 61.4383 13.4199 55.0127 13.4199C41.6129 13.4199 30.7354 24.2996 30.7354 37.6479Z" fill="#FFCF00"/>
<path fill-rule="evenodd" clip-rule="evenodd" d="M66.5471 17.7114C77.4848 24.0622 81.3069 38.1752 74.9561 49.1151C71.9068 54.4111 66.8785 58.2789 60.9775 59.8676C55.0765 61.4562 48.7861 60.6357 43.4901 57.5864C38.194 54.5371 34.3263 49.5089 32.7376 43.6078C31.1489 37.7068 31.9695 31.4164 35.0188 26.1204C41.3781 15.1247 55.5514 11.3606 66.5471 17.7114Z" fill="#FFA800"/>
<path d="M52.0379 33.4234V31.3594H55.8939V43.0234H53.5899V33.4234H52.0379Z" fill="white"/>
<defs>
<linearGradient id="paint0_linear_14073:105573" x1="55.0217" y1="99.3957" x2="55.0217" y2="58.1113" gradientUnits="userSpaceOnUse">
<stop stop-color="#E47525"/>
<stop offset="1" stop-color="#F3BF17"/>
</linearGradient>
<linearGradient id="paint1_linear_14073:105573" x1="55.0006" y1="74.0738" x2="55.0006" y2="0.414646" gradientUnits="userSpaceOnUse">
<stop stop-color="#FF7B00"/>
<stop offset="0.52" stop-color="#FE9A3D"/>
<stop offset="1" stop-color="#FF8D22"/>
</linearGradient>
</defs>
</svg>
