<svg width="26" height="26" viewBox="0 0 26 26" fill="none" xmlns="http://www.w3.org/2000/svg">
<path d="M14.8549 25C22.1515 18.4659 11.4957 17.8 13.4971 11.6413C13.4971 11.6413 10.6262 14.0597 11.588 18.2565C11.588 18.2565 11.7436 19.0675 11.3899 19.2667C10.7341 19.636 9.42404 18.4272 9.76361 16.2221C9.76361 16.2221 6.9839 20.4304 12.1438 24.9941C11.5988 24.8579 1.95305 22.2952 5.98054 12.6301C5.98054 12.6301 5.85091 14.6571 7.26038 14.2875C8.7523 13.8963 6.56744 8.284 10.1946 6.04347C10.183 6.0696 8.95085 8.78267 10.5271 8.95253C12.1112 9.1232 14.0344 3.41867 12.2812 1C12.3119 1.01813 16.5356 3.55467 15.8731 9.74907C15.8731 9.74907 15.4771 11.3139 16.368 11.6128C16.368 11.6128 17.0045 11.7267 16.9337 10.9584C16.8269 9.79627 17.4854 8.28373 18.7156 7.70053C18.7156 7.70053 17.2873 9.47893 20.0167 14.3157C22.746 19.1525 19.3945 23.8477 14.8549 25Z" fill="url(#paint0_linear_14261_102021)"/>
<defs>
<linearGradient id="paint0_linear_14261_102021" x1="5.53018" y1="3.8" x2="19.3026" y2="26.9283" gradientUnits="userSpaceOnUse">
<stop offset="0.093512" stop-color="#FFA800"/>
<stop offset="0.872532" stop-color="#FFCF00"/>
</linearGradient>
</defs>
</svg>
