<svg width="18" height="18" viewBox="0 0 18 18" fill="none" xmlns="http://www.w3.org/2000/svg">
<path d="M9.00005 0.794922C10.0881 0.794922 11.1316 1.22715 11.901 1.99653C12.6704 2.76592 13.1026 3.80942 13.1026 4.89749C13.1026 5.98555 12.6704 7.02906 11.901 7.79844C11.1316 8.56782 10.0881 9.00005 9.00005 9.00005C7.91198 9.00005 6.86848 8.56782 6.0991 7.79844C5.32972 7.02906 4.89749 5.98555 4.89749 4.89749C4.89749 3.80942 5.32972 2.76592 6.0991 1.99653C6.86848 1.22715 7.91198 0.794922 9.00005 0.794922ZM9.00005 11.0513C13.5334 11.0513 17.2052 12.8872 17.2052 15.1539V17.2052H0.794922V15.1539C0.794922 12.8872 4.46672 11.0513 9.00005 11.0513Z" fill="#343961"/>
</svg>
