<svg width="200" height="46" viewBox="0 0 200 46" fill="none" xmlns="http://www.w3.org/2000/svg">
<rect x="0.5" y="0.5" width="199" height="45" rx="5.5" fill="black" stroke="#A6A6A6"/>
<path d="M59.769 23.3003C59.7797 22.4657 60.0014 21.6473 60.4135 20.9213C60.8255 20.1954 61.4145 19.5854 62.1256 19.1483C61.6738 18.5031 61.0779 17.9722 60.385 17.5976C59.6922 17.2231 58.9216 17.0152 58.1344 16.9906C56.4552 16.8143 54.8272 17.9954 53.9715 17.9954C53.0992 17.9954 51.7817 17.0081 50.363 17.0373C49.4453 17.0669 48.551 17.3338 47.7671 17.8118C46.9832 18.2899 46.3365 18.9629 45.8901 19.7651C43.9561 23.1136 45.3987 28.0346 47.2513 30.7412C48.1782 32.0666 49.2615 33.547 50.6789 33.4945C52.066 33.437 52.584 32.61 54.2583 32.61C55.9171 32.61 56.4031 33.4945 57.8493 33.4611C59.3377 33.437 60.2754 32.1299 61.1698 30.792C61.8358 29.8476 62.3483 28.8039 62.6882 27.6995C61.8235 27.3338 61.0856 26.7216 60.5665 25.9393C60.0474 25.157 59.77 24.2392 59.769 23.3003Z" fill="white"/>
<path d="M57.0376 15.2103C57.8491 14.2361 58.2489 12.984 58.1521 11.7197C56.9123 11.8499 55.767 12.4425 54.9445 13.3793C54.5424 13.837 54.2344 14.3694 54.0381 14.9462C53.8419 15.523 53.7612 16.1328 53.8008 16.7407C54.4209 16.7471 55.0344 16.6127 55.5951 16.3476C56.1558 16.0825 56.649 15.6937 57.0376 15.2103Z" fill="white"/>
<path d="M77.3022 30.1387H72.5688L71.4321 33.4951H69.4272L73.9106 21.0771H75.9936L80.477 33.4951H78.438L77.3022 30.1387ZM73.0591 28.5899H76.8111L74.9615 23.1426H74.9097L73.0591 28.5899Z" fill="white"/>
<path d="M90.1597 28.9685C90.1597 31.782 88.6538 33.5896 86.3814 33.5896C85.8057 33.6197 85.2332 33.4871 84.7294 33.2069C84.2256 32.9268 83.8109 32.5105 83.5327 32.0056H83.4897V36.4899H81.6313V24.4411H83.4302V25.947H83.4644C83.7553 25.4445 84.1771 25.0303 84.6847 24.7485C85.1923 24.4666 85.7669 24.3277 86.3472 24.3464C88.645 24.3464 90.1597 26.1628 90.1597 28.9685ZM88.2495 28.9685C88.2495 27.1355 87.3023 25.9304 85.857 25.9304C84.437 25.9304 83.482 27.1609 83.482 28.9685C83.482 30.7927 84.437 32.0144 85.857 32.0144C87.3023 32.0144 88.2495 30.8181 88.2495 28.9685Z" fill="white"/>
<path d="M100.125 28.9685C100.125 31.7819 98.6187 33.5896 96.3462 33.5896C95.7706 33.6197 95.1981 33.4871 94.6943 33.2069C94.1905 32.9268 93.7758 32.5104 93.4976 32.0056H93.4546V36.4899H91.5962V24.4411H93.395V25.947H93.4292C93.7201 25.4445 94.1419 25.0303 94.6495 24.7485C95.1571 24.4666 95.7317 24.3277 96.312 24.3464C98.6099 24.3464 100.125 26.1628 100.125 28.9685ZM98.2144 28.9685C98.2144 27.1355 97.2671 25.9304 95.8218 25.9304C94.4019 25.9304 93.4468 27.1608 93.4468 28.9685C93.4468 30.7927 94.4019 32.0144 95.8218 32.0144C97.2671 32.0144 98.2144 30.8181 98.2144 28.9685H98.2144Z" fill="white"/>
<path d="M106.71 30.0352C106.848 31.2667 108.044 32.0752 109.679 32.0752C111.246 32.0752 112.373 31.2666 112.373 30.1563C112.373 29.1924 111.693 28.6153 110.084 28.2197L108.474 27.832C106.194 27.2813 105.135 26.2148 105.135 24.4844C105.135 22.3418 107.002 20.8701 109.654 20.8701C112.278 20.8701 114.077 22.3418 114.137 24.4844H112.261C112.149 23.2451 111.125 22.4971 109.627 22.4971C108.13 22.4971 107.106 23.2539 107.106 24.3555C107.106 25.2334 107.76 25.75 109.361 26.1455L110.729 26.4814C113.277 27.084 114.335 28.1074 114.335 29.9238C114.335 32.247 112.485 33.7021 109.542 33.7021C106.788 33.7021 104.928 32.2812 104.808 30.0351L106.71 30.0352Z" fill="white"/>
<path d="M118.346 22.2988V24.4414H120.068V25.9131H118.346V30.9043C118.346 31.6797 118.691 32.041 119.448 32.041C119.652 32.0375 119.856 32.0231 120.059 31.998V33.4609C119.719 33.5245 119.373 33.5533 119.027 33.5468C117.194 33.5468 116.479 32.8584 116.479 31.1025V25.9131H115.163V24.4414H116.479V22.2988H118.346Z" fill="white"/>
<path d="M121.065 28.9687C121.065 26.1201 122.743 24.3301 125.359 24.3301C127.984 24.3301 129.654 26.1201 129.654 28.9687C129.654 31.8252 127.993 33.6074 125.359 33.6074C122.726 33.6074 121.065 31.8252 121.065 28.9687ZM127.76 28.9687C127.76 27.0146 126.865 25.8613 125.359 25.8613C123.853 25.8613 122.958 27.0234 122.958 28.9687C122.958 30.9307 123.853 32.0752 125.359 32.0752C126.865 32.0752 127.76 30.9307 127.76 28.9687H127.76Z" fill="white"/>
<path d="M131.186 24.441H132.959V25.982H133.002C133.121 25.5008 133.403 25.0754 133.8 24.7775C134.197 24.4797 134.684 24.3274 135.179 24.3463C135.393 24.3456 135.607 24.3688 135.816 24.4156V26.1539C135.546 26.0713 135.264 26.0334 134.981 26.0416C134.711 26.0307 134.442 26.0783 134.192 26.1812C133.942 26.284 133.718 26.4398 133.534 26.6377C133.35 26.8356 133.211 27.0709 133.126 27.3276C133.042 27.5843 133.014 27.8562 133.044 28.1246V33.4947H131.186L131.186 24.441Z" fill="white"/>
<path d="M144.384 30.8359C144.134 32.4795 142.534 33.6074 140.486 33.6074C137.852 33.6074 136.217 31.8428 136.217 29.0117C136.217 26.1719 137.861 24.3301 140.408 24.3301C142.913 24.3301 144.488 26.0508 144.488 28.7959V29.4326H138.093V29.5449C138.064 29.8781 138.105 30.2138 138.216 30.5296C138.326 30.8455 138.502 31.1342 138.732 31.3768C138.963 31.6193 139.242 31.8101 139.552 31.9364C139.861 32.0627 140.195 32.1217 140.529 32.1094C140.968 32.1505 141.409 32.0488 141.785 31.8194C142.162 31.5899 142.455 31.245 142.62 30.8359L144.384 30.8359ZM138.102 28.1338H142.628C142.645 27.8342 142.6 27.5344 142.495 27.2532C142.39 26.972 142.229 26.7154 142.02 26.4997C141.812 26.2839 141.561 26.1136 141.283 25.9993C141.006 25.8851 140.708 25.8295 140.408 25.8359C140.105 25.8341 139.805 25.8923 139.525 26.007C139.245 26.1218 138.99 26.2908 138.776 26.5045C138.562 26.7181 138.392 26.9721 138.276 27.2517C138.16 27.5314 138.101 27.8312 138.102 28.1338V28.1338Z" fill="white"/>
<path d="M72.8262 11.7304C73.2158 11.7024 73.6067 11.7613 73.9709 11.9027C74.335 12.0442 74.6632 12.2647 74.9317 12.5483C75.2003 12.8319 75.4026 13.1716 75.524 13.5429C75.6454 13.9141 75.6829 14.3077 75.6338 14.6952C75.6338 16.6015 74.6035 17.6972 72.8262 17.6972H70.6709V11.7304H72.8262ZM71.5976 16.8534H72.7226C73.0011 16.87 73.2797 16.8244 73.5382 16.7198C73.7967 16.6152 74.0287 16.4542 74.2172 16.2487C74.4057 16.0431 74.546 15.7981 74.6278 15.5315C74.7097 15.2648 74.7311 14.9833 74.6904 14.7074C74.7281 14.4326 74.7046 14.1528 74.6215 13.8881C74.5383 13.6235 74.3977 13.3805 74.2096 13.1765C74.0216 12.9726 73.7907 12.8128 73.5337 12.7086C73.2766 12.6043 72.9996 12.5582 72.7226 12.5736H71.5976V16.8534Z" fill="white"/>
<path d="M76.6805 15.4438C76.6521 15.1479 76.686 14.8493 76.7798 14.5672C76.8737 14.2852 77.0254 14.0258 77.2254 13.8059C77.4253 13.5859 77.669 13.4101 77.9409 13.2898C78.2127 13.1696 78.5067 13.1074 78.804 13.1074C79.1013 13.1074 79.3952 13.1696 79.6671 13.2898C79.939 13.4101 80.1827 13.5859 80.3826 13.8059C80.5825 14.0258 80.7343 14.2852 80.8281 14.5672C80.922 14.8493 80.9558 15.1479 80.9275 15.4438C80.9564 15.74 80.9229 16.039 80.8293 16.3215C80.7357 16.6041 80.5841 16.8639 80.3841 17.0843C80.1841 17.3047 79.9402 17.4808 79.6681 17.6014C79.3959 17.7219 79.1016 17.7842 78.804 17.7842C78.5064 17.7842 78.212 17.7219 77.9399 17.6014C77.6678 17.4808 77.4239 17.3047 77.2239 17.0843C77.0239 16.8639 76.8722 16.6041 76.7786 16.3215C76.6851 16.039 76.6516 15.74 76.6805 15.4438ZM80.0135 15.4438C80.0135 14.4677 79.575 13.8969 78.8055 13.8969C78.033 13.8969 77.5985 14.4677 77.5985 15.4438C77.5985 16.4277 78.033 16.9941 78.8055 16.9941C79.575 16.9941 80.0135 16.4238 80.0135 15.4438H80.0135Z" fill="white"/>
<path d="M86.5732 17.6973H85.6514L84.7207 14.3809H84.6504L83.7236 17.6973H82.8105L81.5693 13.1943H82.4707L83.2773 16.6303H83.3438L84.2695 13.1943H85.1221L86.0479 16.6303H86.1182L86.9209 13.1943H87.8096L86.5732 17.6973Z" fill="white"/>
<path d="M88.8535 13.1939H89.709V13.9092H89.7754C89.888 13.6523 90.0781 13.4369 90.3189 13.2931C90.5598 13.1493 90.8395 13.0842 91.1191 13.107C91.3382 13.0905 91.5582 13.1235 91.7628 13.2036C91.9674 13.2837 92.1514 13.4088 92.3011 13.5697C92.4508 13.7305 92.5623 13.923 92.6275 14.1328C92.6927 14.3426 92.7099 14.5644 92.6777 14.7818V17.6968H91.7891V15.0049C91.7891 14.2813 91.4746 13.9214 90.8174 13.9214C90.6686 13.9145 90.5201 13.9398 90.3821 13.9957C90.244 14.0515 90.1197 14.1365 90.0175 14.2449C89.9154 14.3533 89.8379 14.4825 89.7904 14.6236C89.7429 14.7647 89.7264 14.9145 89.7422 15.0625V17.6968H88.8535L88.8535 13.1939Z" fill="white"/>
<path d="M94.0938 11.4365H94.9824V17.6973H94.0938V11.4365Z" fill="white"/>
<path d="M96.2175 15.4439C96.1893 15.1479 96.2231 14.8494 96.317 14.5673C96.4109 14.2852 96.5626 14.0259 96.7626 13.8059C96.9626 13.5859 97.2063 13.4101 97.4782 13.2898C97.75 13.1696 98.044 13.1074 98.3413 13.1074C98.6386 13.1074 98.9326 13.1696 99.2045 13.2898C99.4764 13.4101 99.7201 13.5859 99.92 13.8059C100.12 14.0259 100.272 14.2852 100.366 14.5673C100.46 14.8494 100.493 15.1479 100.465 15.4439C100.494 15.7401 100.46 16.0391 100.367 16.3216C100.273 16.6042 100.121 16.864 99.9215 17.0844C99.7215 17.3048 99.4776 17.4809 99.2054 17.6014C98.9333 17.722 98.639 17.7842 98.3413 17.7842C98.0437 17.7842 97.7493 17.722 97.4772 17.6014C97.2051 17.4809 96.9612 17.3048 96.7612 17.0844C96.5611 16.864 96.4095 16.6042 96.3158 16.3216C96.2222 16.0391 96.1887 15.7401 96.2175 15.4439ZM99.5505 15.4439C99.5505 14.4678 99.1121 13.897 98.3425 13.897C97.5701 13.897 97.1355 14.4678 97.1355 15.4439C97.1355 16.4278 97.5701 16.9942 98.3425 16.9942C99.1121 16.9942 99.5505 16.4239 99.5505 15.4439H99.5505Z" fill="white"/>
<path d="M101.401 16.4238C101.401 15.6133 102.004 15.146 103.076 15.0796L104.295 15.0093V14.6206C104.295 14.145 103.981 13.8765 103.374 13.8765C102.877 13.8765 102.534 14.0586 102.435 14.377H101.575C101.666 13.6035 102.393 13.1074 103.415 13.1074C104.543 13.1074 105.18 13.6694 105.18 14.6206V17.6973H104.325V17.0645H104.254C104.112 17.2914 103.911 17.4765 103.674 17.6007C103.436 17.7249 103.17 17.7838 102.902 17.7715C102.713 17.7911 102.522 17.7709 102.341 17.7122C102.16 17.6536 101.994 17.5576 101.852 17.4307C101.711 17.3037 101.598 17.1485 101.52 16.9751C101.442 16.8017 101.402 16.6139 101.401 16.4238ZM104.295 16.0391V15.6626L103.196 15.7329C102.576 15.7744 102.294 15.9853 102.294 16.3823C102.294 16.7876 102.646 17.0234 103.129 17.0234C103.271 17.0378 103.414 17.0235 103.55 16.9814C103.686 16.9393 103.812 16.8703 103.921 16.7784C104.03 16.6866 104.119 16.5738 104.183 16.4468C104.248 16.3198 104.286 16.1811 104.295 16.0391Z" fill="white"/>
<path d="M106.348 15.4439C106.348 14.021 107.08 13.1196 108.217 13.1196C108.499 13.1067 108.778 13.1741 109.023 13.314C109.267 13.4539 109.467 13.6605 109.598 13.9096H109.665V11.4365H110.553V17.6973H109.702V16.9858H109.631C109.49 17.2333 109.283 17.4374 109.034 17.5758C108.785 17.7143 108.502 17.782 108.217 17.7715C107.072 17.7715 106.348 16.8701 106.348 15.4439ZM107.266 15.4439C107.266 16.3989 107.716 16.9737 108.469 16.9737C109.218 16.9737 109.681 16.3907 109.681 15.4478C109.681 14.5093 109.213 13.918 108.469 13.918C107.721 13.918 107.266 14.4966 107.266 15.4439H107.266Z" fill="white"/>
<path d="M114.23 15.4438C114.201 15.1479 114.235 14.8493 114.329 14.5672C114.423 14.2852 114.575 14.0258 114.775 13.8059C114.975 13.5859 115.218 13.4101 115.49 13.2898C115.762 13.1696 116.056 13.1074 116.353 13.1074C116.651 13.1074 116.945 13.1696 117.216 13.2898C117.488 13.4101 117.732 13.5859 117.932 13.8059C118.132 14.0258 118.284 14.2852 118.377 14.5672C118.471 14.8493 118.505 15.1479 118.477 15.4438C118.506 15.74 118.472 16.039 118.379 16.3215C118.285 16.6041 118.133 16.8639 117.933 17.0843C117.733 17.3047 117.49 17.4808 117.217 17.6014C116.945 17.7219 116.651 17.7842 116.353 17.7842C116.056 17.7842 115.761 17.7219 115.489 17.6014C115.217 17.4808 114.973 17.3047 114.773 17.0843C114.573 16.8639 114.422 16.6041 114.328 16.3215C114.234 16.039 114.201 15.74 114.23 15.4438ZM117.563 15.4438C117.563 14.4677 117.124 13.8969 116.355 13.8969C115.582 13.8969 115.148 14.4677 115.148 15.4438C115.148 16.4277 115.582 16.9941 116.355 16.9941C117.124 16.9941 117.563 16.4238 117.563 15.4438Z" fill="white"/>
<path d="M119.669 13.1939H120.525V13.9092H120.591C120.704 13.6523 120.894 13.4369 121.135 13.2931C121.376 13.1493 121.655 13.0842 121.935 13.107C122.154 13.0905 122.374 13.1235 122.579 13.2036C122.783 13.2837 122.967 13.4088 123.117 13.5697C123.267 13.7305 123.378 13.923 123.443 14.1328C123.509 14.3426 123.526 14.5644 123.494 14.7818V17.6968H122.605V15.0049C122.605 14.2813 122.291 13.9214 121.633 13.9214C121.485 13.9145 121.336 13.9398 121.198 13.9957C121.06 14.0515 120.936 14.1365 120.833 14.2449C120.731 14.3533 120.654 14.4825 120.606 14.6236C120.559 14.7647 120.542 14.9145 120.558 15.0625V17.6968H119.669V13.1939Z" fill="white"/>
<path d="M128.515 12.0732V13.2148H129.491V13.9634H128.515V16.2788C128.515 16.7505 128.709 16.957 129.152 16.957C129.265 16.9567 129.378 16.9498 129.491 16.9365V17.6768C129.331 17.7053 129.169 17.7205 129.007 17.7222C128.019 17.7222 127.625 17.3745 127.625 16.5063V13.9633H126.911V13.2148H127.625V12.0732H128.515Z" fill="white"/>
<path d="M130.705 11.4365H131.585V13.918H131.656C131.774 13.6587 131.969 13.4421 132.215 13.2977C132.461 13.1534 132.745 13.0883 133.029 13.1113C133.247 13.0995 133.465 13.1359 133.667 13.2179C133.869 13.2999 134.051 13.4256 134.199 13.586C134.347 13.7463 134.458 13.9373 134.524 14.1455C134.59 14.3536 134.609 14.5737 134.58 14.79V17.6973H133.69V15.0093C133.69 14.29 133.355 13.9258 132.727 13.9258C132.574 13.9132 132.421 13.9342 132.277 13.9873C132.133 14.0404 132.003 14.1242 131.895 14.2329C131.787 14.3417 131.704 14.4727 131.652 14.6168C131.6 14.761 131.58 14.9147 131.593 15.0674V17.6973H130.705L130.705 11.4365Z" fill="white"/>
<path d="M139.761 16.4815C139.641 16.8931 139.379 17.249 139.022 17.4872C138.666 17.7253 138.237 17.8305 137.81 17.7842C137.514 17.7921 137.219 17.7353 136.946 17.6177C136.674 17.5002 136.43 17.3248 136.232 17.1036C136.034 16.8825 135.887 16.6209 135.8 16.3371C135.713 16.0533 135.69 15.754 135.73 15.46C135.691 15.1652 135.715 14.8652 135.801 14.5805C135.888 14.2959 136.035 14.0331 136.231 13.81C136.428 13.587 136.671 13.4088 136.943 13.2876C137.214 13.1664 137.509 13.105 137.806 13.1075C139.059 13.1075 139.815 13.9635 139.815 15.3775V15.6876H136.635V15.7374C136.621 15.9026 136.642 16.069 136.696 16.2257C136.751 16.3825 136.837 16.5262 136.95 16.6476C137.063 16.7691 137.2 16.8656 137.352 16.931C137.504 16.9964 137.669 17.0292 137.835 17.0274C138.047 17.0529 138.263 17.0146 138.453 16.9174C138.644 16.8202 138.802 16.6685 138.906 16.4815L139.761 16.4815ZM136.635 15.0303H138.91C138.921 14.8792 138.9 14.7274 138.85 14.5847C138.799 14.442 138.718 14.3115 138.614 14.2016C138.51 14.0918 138.383 14.005 138.243 13.9468C138.103 13.8886 137.953 13.8604 137.801 13.8638C137.648 13.8619 137.495 13.8908 137.353 13.9487C137.21 14.0067 137.081 14.0925 136.972 14.2012C136.864 14.3099 136.778 14.4393 136.72 14.5817C136.662 14.7241 136.633 14.8766 136.635 15.0303H136.635Z" fill="white"/>
</svg>
