<svg width="14" height="12" viewBox="0 0 14 12" fill="none" xmlns="http://www.w3.org/2000/svg">
<path d="M5.78301 8.58335C6.03856 8.83891 6.40801 8.95835 6.89134 8.94168C7.37467 8.92502 7.72745 8.74446 7.94967 8.40002L11.5497 2.75002L5.96634 6.40002C5.63301 6.62224 5.45523 6.97779 5.43301 7.46668C5.41079 7.95557 5.52745 8.32779 5.78301 8.58335ZM2.19967 11.3334C2.01079 11.3334 1.82467 11.2861 1.64134 11.1917C1.45801 11.0972 1.3219 10.9611 1.23301 10.7833C0.944119 10.25 0.721897 9.70835 0.566341 9.15835C0.410786 8.60835 0.333008 8.02224 0.333008 7.40002C0.333008 6.47779 0.508008 5.60835 0.858008 4.79168C1.20801 3.97502 1.68301 3.26391 2.28301 2.65835C2.88301 2.05279 3.58579 1.57224 4.39134 1.21668C5.1969 0.861127 6.05523 0.68335 6.96634 0.68335C7.59967 0.68335 8.26079 0.786127 8.94967 0.991683C9.63856 1.19724 10.2997 1.55002 10.933 2.05002L10.0663 2.66668C9.56634 2.33335 9.03023 2.08613 8.45801 1.92502C7.88579 1.76391 7.38856 1.68335 6.96634 1.68335C5.41079 1.68335 4.08301 2.2389 2.98301 3.35002C1.88301 4.46113 1.33301 5.81113 1.33301 7.40002C1.33301 7.90002 1.40245 8.40557 1.54134 8.91668C1.68023 9.42779 1.87745 9.90002 2.13301 10.3334H11.783C12.0275 9.93335 12.2219 9.46668 12.3663 8.93335C12.5108 8.40002 12.583 7.87779 12.583 7.36668C12.583 6.90002 12.5136 6.39724 12.3747 5.85835C12.2358 5.31946 11.9886 4.82224 11.633 4.36668L12.283 3.50002C12.7052 4.12224 13.0219 4.74724 13.233 5.37502C13.4441 6.00279 13.5608 6.63335 13.583 7.26668C13.6052 7.93335 13.5386 8.56113 13.383 9.15002C13.2275 9.73891 12.9997 10.2833 12.6997 10.7833C12.5663 11.0389 12.4247 11.1945 12.2747 11.25C12.1247 11.3056 11.9386 11.3334 11.7163 11.3334H2.19967Z" fill="#12EEB1"/>
</svg>
