<svg xmlns="http://www.w3.org/2000/svg" width="18" height="18" fill="none" viewBox="0 0 18 18">
    <path stroke="#6A73B5" stroke-linecap="round" stroke-linejoin="round" stroke-width="1.2" d="M12.895 13.167l-.237-.595c-.12-.3-.306-.571-.543-.791-.402-.373-.932-.58-1.48-.58h-3.27c-.55 0-1.078.207-1.48.58-.238.22-.423.49-.543.791l-.237.595M5.323 1.5H3.167c-.921 0-1.667.746-1.667 1.667v2.156M12.677 16.5h2.156c.921 0 1.667-.746 1.667-1.667v-2.156m-15 0v2.156c0 .921.746 1.667 1.667 1.667h2.156M16.5 5.323V3.167c0-.921-.746-1.667-1.667-1.667h-2.156M10.62 5.505c.895.894.895 2.346 0 3.24-.895.895-2.346.895-3.24 0-.895-.894-.895-2.345 0-3.24.894-.895 2.345-.895 3.24 0z"/>
</svg>
