<svg width="146" height="98" viewBox="0 0 146 98" fill="none" xmlns="http://www.w3.org/2000/svg">
<g clip-path="url(#clip0)">
<path d="M74.8569 0C41.7198 0 14.8569 26.8629 14.8569 60C14.8569 74.3021 19.861 87.4355 28.2139 97.7447H121.5C129.853 87.4355 134.857 74.3021 134.857 60C134.857 26.8629 107.994 0 74.8569 0Z" fill="#272B4A"/>
<rect x="35" y="96.4287" width="98" height="2" rx="1" fill="#4F5794"/>
<rect y="96.4287" width="32" height="2" rx="1" fill="#4F5794"/>
<rect x="137" y="96.4287" width="8" height="2" rx="1" fill="#4F5794"/>
<path d="M18.0005 57.9285V56.4285" stroke="#A6ACDC" stroke-width="2" stroke-linecap="round" stroke-linejoin="round"/>
<path d="M21.1826 59.2456L22.2436 58.1846" stroke="#A6ACDC" stroke-width="2" stroke-linecap="round" stroke-linejoin="round"/>
<path d="M22.5005 62.4285H24.0005" stroke="#A6ACDC" stroke-width="2" stroke-linecap="round" stroke-linejoin="round"/>
<path d="M21.1826 65.6116L22.2436 66.6725" stroke="#A6ACDC" stroke-width="2" stroke-linecap="round" stroke-linejoin="round"/>
<path d="M18.0005 66.9285V68.4285" stroke="#A6ACDC" stroke-width="2" stroke-linecap="round" stroke-linejoin="round"/>
<path d="M14.8168 65.6116L13.7559 66.6725" stroke="#A6ACDC" stroke-width="2" stroke-linecap="round" stroke-linejoin="round"/>
<path d="M13.5 62.4285H12" stroke="#A6ACDC" stroke-width="2" stroke-linecap="round" stroke-linejoin="round"/>
<path d="M14.8168 59.2456L13.7559 58.1846" stroke="#A6ACDC" stroke-width="2" stroke-linecap="round" stroke-linejoin="round"/>
<path d="M139.015 40.4285V28.4285" stroke="#A6ACDC" stroke-width="2" stroke-linecap="round" stroke-linejoin="round"/>
<path d="M133 34.4421H145" stroke="#A6ACDC" stroke-width="2" stroke-linecap="round" stroke-linejoin="round"/>
<path d="M118.509 75.4285V68.4285" stroke="#A6ACDC" stroke-width="2" stroke-linecap="round" stroke-linejoin="round"/>
<path d="M115 71.9365H122" stroke="#A6ACDC" stroke-width="2" stroke-linecap="round" stroke-linejoin="round"/>
<g clip-path="url(#clip1)">
<path d="M110.458 53.2618C110.15 53.2618 109.842 53.2618 109.533 52.9535L101.825 47.7118C101.208 47.4035 100.283 47.0951 99.3583 47.0951H79.625C77.1583 47.0951 75 44.9368 75 42.4701V27.0535C75 24.5868 77.1583 22.4285 79.625 22.4285H107.375C109.842 22.4285 112 24.5868 112 27.0535V51.7201C112 52.3368 111.692 52.9535 111.075 52.9535C111.075 53.2618 110.767 53.2618 110.458 53.2618V53.2618ZM79.625 25.5118C78.7 25.5118 78.0833 26.1285 78.0833 27.0535V42.4701C78.0833 43.3951 78.7 44.0118 79.625 44.0118H99.3583C100.9 44.0118 102.442 44.3201 103.675 45.2451L108.917 48.9451V27.0535C108.917 26.1285 108.3 25.5118 107.375 25.5118H79.625Z" fill="#4F5794"/>
<path d="M39.5417 59.4285C39.2333 59.4285 38.925 59.4285 38.925 59.1202C38.3083 59.1202 38 58.5035 38 57.8869V33.2202C38 30.7535 40.1583 28.5952 42.625 28.5952H67.2917C68.2167 28.5952 68.8333 29.2119 68.8333 30.1369C68.8333 31.0619 68.2167 31.6785 67.2917 31.6785H42.625C41.7 31.6785 41.0833 32.2952 41.0833 33.2202V55.1119L46.325 51.7202C47.5583 50.7952 49.1 50.1785 50.6417 50.1785H76.5417C77.4667 50.1785 78.0833 50.7952 78.0833 51.7202C78.0833 52.6452 77.4667 53.2619 76.5417 53.2619H50.6417C49.7167 53.2619 48.7917 53.5702 48.175 54.1869L40.4667 59.4285C40.1583 59.4285 39.85 59.4285 39.5417 59.4285V59.4285Z" fill="#4F5794"/>
<path d="M54.958 77.9285C49.7163 77.9285 45.708 73.9201 45.708 68.6785C45.708 63.4368 49.7163 59.4285 54.958 59.4285C60.1997 59.4285 64.208 63.4368 64.208 68.6785C64.208 73.9201 60.1997 77.9285 54.958 77.9285ZM54.958 62.5118C51.5663 62.5118 48.7913 65.2868 48.7913 68.6785C48.7913 72.0701 51.5663 74.8451 54.958 74.8451C58.3497 74.8451 61.1247 72.0701 61.1247 68.6785C61.1247 65.2868 58.3497 62.5118 54.958 62.5118Z" fill="#4F5794"/>
<path d="M70.375 96.4284C69.45 96.4284 71 96.4285 68.8333 96.4285V88.72C68.8333 86.2534 66.675 84.095 64.2083 84.095H45.7083C43.2417 84.095 41.0833 86.2534 41.0833 88.72V96.4284C40 96.4284 40.4667 96.4284 39.5417 96.4284C38.6167 96.4284 39.5 96.4284 38 96.4284V88.72C38 84.4034 41.3917 81.0117 45.7083 81.0117H64.2083C68.525 81.0117 71.9167 84.4034 71.9167 88.72V96.4285C70.5 96.4285 71.3 96.4284 70.375 96.4284Z" fill="#4F5794"/>
<path d="M95.042 77.9285C89.8003 77.9285 85.792 73.9201 85.792 68.6785C85.792 63.4368 89.8003 59.4285 95.042 59.4285C100.284 59.4285 104.292 63.4368 104.292 68.6785C104.292 73.9201 100.284 77.9285 95.042 77.9285ZM95.042 62.5118C91.6503 62.5118 88.8753 65.2868 88.8753 68.6785C88.8753 72.0701 91.6503 74.8451 95.042 74.8451C98.4337 74.8451 101.209 72.0701 101.209 68.6785C101.209 65.2868 98.4337 62.5118 95.042 62.5118Z" fill="#4F5794"/>
<path d="M110.375 96.4284C109.45 96.4284 111 96.4285 108.833 96.4285V88.72C108.833 86.2534 106.675 84.095 104.208 84.095H85.7083C83.2417 84.095 81.0833 86.2534 81.0833 88.72V96.4284C80 96.4284 80.4667 96.4284 79.5417 96.4284C78.6167 96.4284 79.5 96.4284 78 96.4284V88.72C78 84.4034 81.3917 81.0117 85.7083 81.0117H104.208C108.525 81.0117 111.917 84.4034 111.917 88.72V96.4285C110.5 96.4285 111.3 96.4284 110.375 96.4284Z" fill="#4F5794"/>
</g>
</g>
<defs>
<clipPath id="clip0">
<rect width="146" height="98" fill="white"/>
</clipPath>
<clipPath id="clip1">
<rect width="74" height="74" fill="white" transform="translate(38 22.4285)"/>
</clipPath>
</defs>
</svg>
