<svg xmlns="http://www.w3.org/2000/svg" width="146" height="98" fill="none" viewBox="0 0 146 98">
    <g clip-path="url(#prefix__clip0)">
        <path fill="#272B4A" d="M74.857 0c-33.137 0-60 26.863-60 60 0 14.302 5.004 27.436 13.357 37.745H121.5c8.353-10.31 13.357-23.443 13.357-37.745 0-33.137-26.863-60-60-60z"/>
        <rect width="100" height="2" x="33" y="96" fill="#4F5794" rx="1"/>
        <rect width="30" height="2" y="96" fill="#4F5794" rx="1"/>
        <rect width="8" height="2" x="137" y="96.429" fill="#4F5794" rx="1"/>
        <path stroke="#A6ACDC" stroke-linecap="round" stroke-linejoin="round" stroke-width="2" d="M125 17.5V16M128.183 18.817l1.061-1.061M129.5 22h1.5M128.183 25.183l1.061 1.061M125 26.5V28M121.817 25.183l-1.061 1.061M120.5 22H119M121.817 18.817l-1.061-1.061M27.015 57V45M21 51.014h12M118.509 75.429v-7M115 71.936h7"/>
        <g clip-path="url(#prefix__clip1)">
            <path fill="#4F5794" d="M58.801 66.466c.374.178.822.02 1-.353.179-.374.02-.822-.353-1l-.647 1.353zm-3.593-3.38c-.374-.179-.822-.02-1 .353-.179.374-.02.821.353 1l.647-1.353zm3.048 17.884c-.255-.326-.727-.382-1.053-.126-.325.256-.382.727-.126 1.053l1.18-.927zm4.16-.817c.015-.414-.31-.761-.723-.776-.414-.014-.762.31-.776.724l1.5.052zm-1.675-4.499c-.08-.406-.474-.671-.88-.592-.407.079-.672.473-.593.88l1.473-.287zm-.194 2.926l-.736.144v.005l.736-.149zm4.39-.889l-.735.144v.005l.736-.149zm.48-1.467c-.08-.407-.474-.672-.88-.593-.407.079-.672.472-.593.88l1.472-.287zm-2.684-1.955v-.75h-1.722l1.173 1.261.55-.51zm2.738 2.942l-.549.511.007.007.006.007.536-.525zm3.96-3.403c-.254-.326-.725-.385-1.052-.13-.327.254-.385.725-.13 1.052l1.183-.922zm-12.999-4.06c.37.186.821.037 1.007-.333.186-.37.037-.821-.333-1.007l-.674 1.34zm-1.006-2.185c-.37-.186-.821-.036-1.007.334-.186.37-.037.82.333 1.007l.674-1.34zm6.347-13.7c-.395.123-.617.544-.494.94.123.395.543.616.939.494l-.445-1.433zm1.37.362l.221.716.004-.001-.226-.715zm2.808 1.457l.718-.218-.003-.009-.715.227zm-.795 1.32c-.175.375-.013.82.363.996.375.175.821.012.996-.363L65.155 57zM50.803 94.787c.4.109.812-.127.92-.527.11-.4-.127-.811-.526-.92l-.394 1.447zM39.757 90.23c-.4-.109-.812.127-.92.527-.11.4.127.811.526.92l.394-1.447zM52.67 67.585l.698.274.006-.015-.704-.26zm3.325 2.969l-.629-.41-.011.018.64.391zm3.475-5.334l-.608-.439-.02.03.628.41zm3.769 2.41l-.654-.369c-.013.024-.025.048-.035.072l.689.296zm-7.796 16.586l.517.543h.001l-.518-.543zm4.39-23.233c.38-.167.553-.61.386-.989-.166-.379-.609-.551-.988-.385l.603 1.373zm26.908 14.036c.414 0 .75-.336.75-.75s-.336-.75-.75-.75v1.5zm4.735-11.639c0 .414.335.75.75.75.414 0 .75-.336.75-.75h-1.5zm.75-3.555h-.75.75zm-2.543-2.534v.75h.003l-.003-.75zm-30.9 4.791c0 .415.335.75.75.75.413 0 .75-.335.75-.75h-1.5zm27.617 2.72c0 .415.336.75.75.75s.75-.335.75-.75h-1.5zm1.5-.009c0-.414-.336-.75-.75-.75s-.75.336-.75.75h1.5zM65.35 70.865c0-.415-.336-.75-.75-.75s-.75.335-.75.75h1.5zm-1.5-7.85c0 .415.336.75.75.75s.75-.335.75-.75h-1.5zm.75-5.724v-.75c-.414 0-.75.336-.75.75h.75zm22.551 0h.75c0-.414-.336-.75-.75-.75v.75zm-.75 4.676c0 .414.336.75.75.75s.75-.336.75-.75h-1.5zm-35.404 39.091c-.11.399.126.812.525.921.4.109.812-.126.921-.525l-1.446-.396zm2.199-5.198l.723.198.001-.005-.724-.193zm-.792-1.369l-.197.724h.002l.195-.724zm-14.56-3.964l-.2.723h.003l.197-.723zm-1.377.782l-.723-.2-.001.003.724.197zm-2.19 5.199c-.11.4.127.812.526.92.4.109.812-.127.92-.527l-1.447-.393zm4.154-8.15l.724.196v-.001l-.724-.195zm1.369-.782l-.2.723h.004l.196-.723zm12.444 3.369l.205-.722-.009-.002-.196.724zm.783 1.377l.724.197v-.003l-.724-.194zm-.587 2.16l-.196.724c.4.109.811-.127.92-.527l-.724-.197zm.228-22.44c-.365-.194-.82-.056-1.014.31-.195.366-.057.82.309 1.015l.705-1.324zm25.479-46.656c-.415 0-.75.335-.75.75 0 .414.335.75.75.75v-1.5zm19.075.75v.75-.75zm1.524.63l.53-.532-.53.531zm.636 1.52h.75v-.002l-.75.003zm0 16.694l.75.003v-.003h-.75zm-.636 1.522l.53.531-.53-.531zm-1.524.63v-.75.75zm-10.746 0v-.75c-.2 0-.392.08-.533.221l.533.528zm-5.334 5.377h-.75c0 .304.184.578.465.694.28.115.604.05.818-.166l-.533-.528zm0-5.378h.75c0-.414-.336-.75-.75-.75v.75zm-7.573 0l-.01.75h.01v-.75zm-2.125-2.15h.75-.75zm.75-8.4c0-.415-.335-.75-.75-.75-.414 0-.75.335-.75.75h1.5zm13.037-7.663v-.75.75zm-2.445 4.622v.75-.75zm.81.809h.75-.75zm4.053-.809l.008-.75h-.008v.75zm.81.809h.75l-.001-.008-.75.008zm-5.832 3.627v-.75c-.207 0-.404.085-.546.235-.142.15-.215.352-.203.559l.749-.044zm5.182 0l.749.044c.012-.207-.062-.409-.203-.559-.142-.15-.34-.235-.546-.235v.75zM74.049 18.57v-.75.75zm1.591 13.92h.75-.75zm-7.164 1.591v-.75c-.415 0-.75.336-.75.75h.75zm0 3.974l-.53.53c.214.215.536.279.817.163.28-.116.463-.39.463-.693h-.75zm-3.974-3.974l.53-.53c-.14-.14-.33-.22-.53-.22v.75zm-25.495 53.45c-.024.413.291.768.705.793.413.024.768-.292.792-.706l-1.497-.087zM62.2 55.27c.395-.124.616-.544.493-.94-.124-.395-.544-.616-.94-.492l.447 1.431zM51.17 90.663c-.116.397.112.814.51.93.398.116.814-.113.93-.51l-1.44-.42zm44.27-26.216c.374-.18.532-.628.353-1.001-.18-.373-.627-.531-1-.352l.648 1.353zm-2.612-.41c-.374.178-.531.626-.352 1 .179.373.627.53 1 .352l-.648-1.353zm-3.744 16.06c-.016-.415-.365-.737-.78-.72-.413.016-.735.364-.72.778l1.5-.059zM92.91 81.9c.258-.324.204-.796-.12-1.053-.324-.258-.795-.205-1.053.12l1.173.933zm-6.855-5.337c.08-.406-.186-.8-.593-.879-.406-.08-.8.186-.88.593l1.473.287zm-.994 1.182l.735.148.001-.005-.736-.143zm4.391.888l.735.15.002-.007-.737-.142zm1.279-2.648c.079-.406-.187-.8-.593-.879-.407-.079-.8.187-.88.593l1.473.286zm-6.203 1.226l-.548-.511-.008.008-.008.01.564.493zm2.922-2.03c.282-.303.266-.778-.037-1.06-.303-.283-.777-.266-1.06.036l1.097 1.024zm7.797-6.277c.37-.186.52-.637.333-1.007-.186-.37-.637-.52-1.007-.334l.674 1.34zm-2.354-.496c-.37.186-.519.637-.333 1.007.186.37.637.52 1.007.333l-.674-1.34zM84.05 55.656l-.715-.227-.003.009.718.218zm2.809-1.458l-.226.715.004.001.222-.716zm.924 1.072c.396.122.816-.099.939-.494.123-.396-.099-.816-.494-.939l-.445 1.433zm22.821 36.389c.399-.11.634-.522.525-.922-.11-.4-.523-.634-.922-.524l.397 1.446zm-11.801 1.682c-.4.11-.635.523-.525.922.11.4.522.634.921.525l-.396-1.447zm-4.246-9.125l-.518.542v.001l.518-.543zM86.76 67.665l.689-.297c-.013-.03-.028-.06-.045-.088l-.644.385zm3.769-2.418l.628-.41-.01-.015-.618.425zm3.475 5.333l.636-.397-.007-.012-.629.41zm3.325-2.969l-.705.256.006.017.699-.273zm-4.594-6.855c-.35-.222-.813-.118-1.035.231-.222.35-.118.813.232 1.035l.803-1.266zM114.276 96.9c.109.4.521.636.921.527.399-.108.635-.52.527-.92l-1.448.393zm-.743-5.592l.724-.197-.001-.002-.723.2zm-1.377-.782l.197.724.002-.001-.199-.723zm-14.56 3.964l.195.725h.001l-.196-.725zm-.792 1.37l-.725.192.002.005.723-.198zm.753 5.593c.109.399.521.634.92.525.4-.109.636-.522.526-.921l-1.446.396zm-.548-9.123l-.725.194.001.003.724-.197zm.782-1.377l-.196-.724-.009.002.205.722zm12.445-3.37l.196.725.003-.001-.199-.723zm1.368.783l-.724.195.001.001.723-.196zm.587 2.16l.197.724c.399-.109.635-.521.527-.92l-.724.196zM98.041 73.39c.365-.198.5-.653.303-1.017-.198-.364-.653-.5-1.017-.302l.715 1.319zm-9.813-19.527c-.396-.123-.816.098-.94.493-.123.395.098.816.493.94l.447-1.433zm21.25 33.781c.023.414.378.73.791.706.414-.023.73-.378.706-.791l-1.497.085zm-12.087 3.438c.116.398.532.627.93.51.398-.115.626-.532.51-.93l-1.44.42zm-37.943-25.97l-4.24-2.027-.647 1.353 4.24 2.027.647-1.354zm-2.371 16.784c.379.482.896.836 1.483 1.014l.435-1.436c-.292-.088-.55-.265-.739-.505l-1.18.927zm1.483 1.014c.587.178 1.214.171 1.796-.02l-.465-1.425c-.29.095-.603.098-.895.01l-.436 1.435zm1.796-.02c.583-.19 1.093-.554 1.462-1.044l-1.2-.902c-.183.244-.437.426-.727.52l.465 1.427zm1.462-1.044c.368-.49.577-1.082.598-1.694l-1.499-.052c-.01.305-.114.6-.298.844l1.199.902zm-2.55-5.906l.542 2.783 1.473-.287-.542-2.782-1.473.286zm.544 2.788c.078.385.23.75.45 1.076l1.244-.837c-.11-.163-.185-.345-.224-.537l-1.47.298zm.45 1.076c.219.326.5.605.827.822l.83-1.25c-.163-.108-.304-.247-.413-.41l-1.244.838zm.827.822c.328.218.694.368 1.08.443l.288-1.472c-.193-.037-.375-.112-.538-.22l-.83 1.25zm1.08.443c.385.076.782.074 1.167-.004l-.298-1.47c-.192.039-.39.04-.581.002l-.288 1.472zm1.167-.004c.384-.078.75-.23 1.076-.45l-.838-1.244c-.162.11-.344.185-.536.224l.298 1.47zm1.076-.45c.326-.219.605-.5.822-.828l-1.25-.829c-.108.163-.247.304-.41.413l.838 1.244zm.822-.828c.217-.327.368-.694.443-1.079l-1.472-.288c-.038.192-.113.375-.221.538l1.25.83zm.443-1.079c.075-.385.074-.782-.004-1.166l-1.47.297c.038.192.04.39.002.581l1.472.288zm-.003-1.161l-.258-1.324-1.472.286.258 1.325 1.472-.287zm-3.49-2.768l2.738 2.942L66.02 76.7l-2.738-2.942-1.098 1.022zm2.751 2.956c.534.546 1.257.867 2.02.896l.059-1.499c-.38-.014-.74-.174-1.007-.446l-1.072 1.049zm2.02.896c.763.03 1.509-.233 2.084-.735l-.987-1.13c-.286.25-.658.381-1.038.367l-.059 1.498zm2.084-.735c.575-.503.936-1.206 1.01-1.966l-1.494-.144c-.036.38-.216.73-.503.98l.987 1.13zm1.01-1.966c.072-.76-.148-1.52-.617-2.123l-1.184.922c.234.3.344.678.307 1.057l1.493.144zm-12.943-7.523l-1.68-.845-.674 1.34 1.68.845.674-1.34zm5.112-13.111l1.146-.356-.444-1.433-1.147.356.445 1.433zm1.15-.357c.376-.119.784-.084 1.135.098l.69-1.331c-.702-.365-1.521-.436-2.276-.198l.45 1.43zm1.135.098c.35.182.614.495.733.872l1.43-.455c-.24-.755-.77-1.383-1.472-1.748l-.691 1.331zm.73.863c.111.363.083.755-.077 1.1l1.36.634c.316-.68.37-1.453.153-2.17l-1.435.435zM51.198 93.34l-11.44-3.111-.394 1.447 11.44 3.111.394-1.447zm.776-26.03c-.742 1.89-1.047 3.29-.982 4.284.033.505.166.968.448 1.33.295.378.7.575 1.124.628.78.099 1.614-.278 2.275-.733.69-.476 1.35-1.146 1.797-1.875l-1.279-.783c-.327.533-.835 1.054-1.37 1.422-.564.39-1.012.51-1.235.481-.078-.01-.105-.032-.13-.064-.037-.047-.113-.185-.133-.504-.043-.655.161-1.804.881-3.638l-1.396-.548zm4.65 3.652L60.1 65.63l-1.257-.82-3.476 5.334 1.257.819zm3.456-5.304c.223-.309.556-.52.93-.592l-.282-1.473c-.75.143-1.417.568-1.864 1.187l1.216.878zm.93-.592c.373-.071.76.003 1.081.208l.808-1.264c-.644-.411-1.42-.56-2.17-.417l.28 1.473zm1.081.208c.321.205.551.525.643.894l1.456-.363c-.185-.741-.647-1.383-1.29-1.795l-.809 1.264zm.643.894c.093.37.04.76-.147 1.092l1.308.736c.374-.666.48-1.45.295-2.191l-1.455.363zm-.182 1.164c-2.355 5.484-3.461 8.865-4.37 11.182-.904 2.304-1.627 3.606-3.254 5.158l1.035 1.085c1.84-1.754 2.664-3.27 3.615-5.695.947-2.412 2.005-5.671 4.352-11.138l-1.378-.592zm-3.319-7.724c-1.667.732-3.17 1.792-4.419 3.118l1.093 1.028c1.11-1.179 2.446-2.122 3.929-2.773l-.603-1.373zm-4.419 3.118c-1.248 1.326-2.216 2.89-2.846 4.598l1.408.519c.56-1.52 1.42-2.91 2.53-4.089l-1.092-1.028zm31.93 10.792h-5.574v1.5h5.573v-1.5zm6.234-10.139v-3.555h-1.5v3.555h1.5zm0-3.555c0-.433-.086-.86-.251-1.26l-1.386.576c.09.217.137.449.137.684h1.5zm-.251-1.26c-.166-.399-.409-.761-.715-1.066l-1.059 1.062c.166.166.298.363.388.58l1.386-.575zM92.01 57.5c-.306-.305-.67-.547-1.07-.711l-.57 1.387c.218.09.415.22.581.386l1.059-1.062zm-1.07-.711c-.399-.164-.827-.248-1.26-.247l.006 1.5c.235 0 .467.045.684.134l.57-1.387zm-1.257-.247H62.067v1.5h27.617v-1.5zm-27.617 0c-.871 0-1.706.346-2.322.962l1.06 1.06c.335-.334.789-.522 1.262-.522v-1.5zm-2.322.962c-.616.616-.962 1.45-.962 2.322h1.5c0-.473.188-.927.523-1.261l-1.061-1.061zm-.962 2.322v2.257h1.5v-2.257h-1.5zm29.118 4.977v-.009h-1.5v.01h1.5zM65.35 74.27v-3.404h-1.5v3.404h1.5zm0-11.253V57.29h-1.5v5.725h1.5zm18.814-4.975h2.987v-1.5h-2.987v1.5zm2.237-.75v4.676h1.5V57.29h-1.5zm-33.958 44.163l1.476-5.396-1.447-.396-1.475 5.396 1.446.396zm1.477-5.401c.127-.478.06-.988-.188-1.416l-1.299.75c.05.085.063.186.038.28l1.45.386zm-.188-1.416c-.247-.428-.655-.741-1.132-.87l-.39 1.449c.094.025.174.087.223.172l1.3-.751zm-1.13-.87l-14.56-3.964-.395 1.448 14.56 3.964.395-1.447zm-14.558-3.963c-.237-.066-.484-.084-.728-.053l.185 1.488c.048-.006.097-.002.144.01l.399-1.445zm-.728-.053c-.244.03-.48.108-.693.23l.74 1.304c.043-.024.09-.04.138-.046l-.185-1.488zm-.693.23c-.213.12-.401.283-.552.477l1.184.921c.03-.038.066-.07.109-.094l-.74-1.305zm-.552.477c-.15.193-.262.415-.327.652l1.446.398c.013-.047.035-.09.065-.129l-1.184-.921zm-.328.654l-1.467 5.396 1.448.393 1.466-5.395-1.447-.394zm2.825-.39l.587-2.168-1.448-.392-.587 2.169 1.448.392zm.587-2.17c.013-.045.034-.088.063-.126l-1.187-.916c-.15.194-.26.416-.324.653l1.448.39zm.063-.126c.03-.038.065-.07.107-.093l-.744-1.302c-.213.122-.4.284-.55.479l1.187.916zm.107-.093c.041-.023.087-.039.134-.045l-.187-1.488c-.243.03-.478.109-.691.23l.744 1.303zm.134-.045c.047-.005.095-.002.141.01l.4-1.445c-.237-.066-.484-.084-.728-.053l.187 1.488zm.145.012l12.444 3.369.392-1.448-12.444-3.37-.392 1.449zm12.436 3.366c.095.027.177.091.226.178l1.304-.741c-.243-.43-.646-.745-1.12-.88l-.41 1.443zm.226.178c.049.086.062.188.036.285l1.45.387c.127-.476.062-.984-.182-1.413l-1.304.74zm.037.282l-.587 2.16 1.448.393.586-2.16-1.447-.393zm.333 1.632l-14.595-3.955-.393 1.448 14.596 3.955.392-1.448zm-.673-20.391c.444.236.933.238 1.36.15.43-.09.86-.282 1.257-.524.79-.483 1.56-1.231 2.057-2.05l-1.283-.778c-.365.602-.959 1.183-1.556 1.547-.297.182-.565.291-.78.336-.218.045-.318.012-.35-.005l-.705 1.324zm26.184-46.481h19.075v-1.5H78.147v1.5zm19.075 0c.373 0 .73.148.995.41l1.059-1.062c-.546-.543-1.284-.848-2.054-.848v1.5zm.995.41c.264.264.414.621.415.994l1.5-.006c-.003-.77-.31-1.507-.856-2.05l-1.059 1.063zm.415.99V44.98h1.5V28.287h-1.5zm0 16.691c-.001.373-.15.73-.415.993l1.059 1.063c.545-.543.853-1.28.856-2.05l-1.5-.006zm-.415.993c-.264.264-.622.411-.995.411v1.5c.77 0 1.508-.305 2.054-.848l-1.059-1.063zm-.995.411H86.476v1.5h10.746v-1.5zm-11.279.222l-5.333 5.378 1.065 1.056 5.333-5.378-1.065-1.056zm-4.05 5.906v-5.378h-1.5v5.378h1.5zm-.75-6.128h-7.574v1.5h7.573v-1.5zm-7.565 0c-.368-.004-.72-.154-.98-.416l-1.067 1.054c.537.543 1.265.853 2.029.862l.018-1.5zm-.98-.416c-.258-.262-.404-.616-.404-.985h-1.5c0 .763.301 1.496.837 2.039l1.068-1.054zm-.404-.985v-8.4h-1.5v8.4h1.5zm19.398-8.95c0 1.257-.373 2.487-1.072 3.533l1.247.834c.864-1.293 1.325-2.813 1.325-4.368h-1.5zm-1.072 3.533c-.699 1.046-1.692 1.862-2.855 2.343l.574 1.386c1.437-.595 2.664-1.603 3.528-2.895l-1.247-.834zm-2.855 2.343c-1.162.482-2.441.608-3.675.362l-.293 1.471c1.525.304 3.106.148 4.542-.447l-.574-1.386zm-3.675.362c-1.234-.245-2.367-.851-3.257-1.74l-1.06 1.06c1.099 1.1 2.5 1.848 4.024 2.151l.293-1.47zm-3.257-1.74c-.89-.89-1.496-2.024-1.741-3.258l-1.471.293c.303 1.525 1.052 2.925 2.151 4.025l1.06-1.06zm-1.741-3.258c-.245-1.234-.12-2.513.362-3.675l-1.386-.574c-.595 1.436-.75 3.017-.447 4.542l1.471-.293zm.362-3.675c.481-1.162 1.297-2.156 2.343-2.855l-.834-1.247c-1.292.864-2.3 2.091-2.895 3.528l1.386.574zm2.343-2.855c1.046-.699 2.276-1.072 3.534-1.072v-1.5c-1.555 0-3.075.461-4.367 1.325l.833 1.247zm3.534-1.072c1.687 0 3.305.67 4.498 1.863l1.06-1.06c-1.474-1.475-3.473-2.303-5.558-2.303v1.5zm4.498 1.863c1.193 1.193 1.863 2.811 1.863 4.498h1.5c0-2.085-.828-4.084-2.302-5.559l-1.061 1.061zm-6.943 1.259c-.308 0-.61.092-.866.263l.834 1.247c.01-.006.02-.01.032-.01v-1.5zm-.866.263c-.256.171-.456.415-.574.7l1.386.573c.004-.01.012-.02.022-.026l-.834-1.247zm-.574.7c-.118.284-.149.598-.089.9l1.472-.293c-.003-.011-.001-.023.003-.034l-1.386-.574zm-.089.9c.06.302.209.58.427.798l1.06-1.06c-.008-.009-.013-.02-.015-.03l-1.472.292zm.427.798c.218.218.496.367.798.427l.293-1.471c-.012-.003-.022-.008-.03-.016l-1.061 1.06zm.798.427c.303.06.616.03.9-.089l-.573-1.386c-.01.005-.023.006-.034.004l-.293 1.47zm.9-.089c.286-.118.53-.318.7-.574l-1.247-.833c-.006.01-.015.017-.026.021l.574 1.386zm.7-.574c.172-.256.263-.558.263-.866h-1.5c0 .012-.003.023-.01.033l1.248.833zm.263-.866c0-.413-.164-.81-.456-1.102l-1.061 1.06c.011.011.017.026.017.042h1.5zm-.456-1.102c-.293-.293-.69-.457-1.103-.457v1.5c.016 0 .03.006.042.017l1.06-1.06zm3.76-.457c-.308 0-.61.092-.866.263l.834 1.247c.01-.006.02-.01.032-.01v-1.5zm-.866.263c-.256.171-.456.415-.574.7l1.386.573c.004-.01.012-.02.022-.026l-.834-1.247zm-.574.7c-.118.284-.149.598-.089.9l1.471-.293c-.002-.011 0-.023.004-.034l-1.386-.574zm-.089.9c.06.302.209.58.427.798l1.06-1.06c-.008-.009-.013-.02-.016-.03l-1.47.292zm.427.798c.218.218.496.367.798.427l.293-1.471c-.012-.003-.022-.008-.03-.016l-1.061 1.06zm.798.427c.302.06.616.03.9-.089l-.573-1.386c-.011.005-.023.006-.034.004l-.293 1.47zm.9-.089c.286-.118.529-.318.7-.574l-1.247-.833c-.006.01-.015.017-.026.021l.574 1.386zm.7-.574c.172-.256.263-.558.263-.866h-1.5c0 .012-.003.023-.01.033l1.247.833zm.263-.874c-.004-.41-.17-.802-.46-1.092l-1.06 1.06c.013.013.02.03.02.048l1.5-.016zm-.46-1.092c-.289-.29-.68-.455-1.09-.459l-.017 1.5c.018 0 .035.007.047.02l1.06-1.06zm-6.87 4.77c.05.853.424 1.653 1.044 2.239l1.03-1.091c-.343-.323-.549-.765-.576-1.235l-1.498.088zm1.044 2.239c.621.585 1.442.911 2.296.911v-1.5c-.47 0-.924-.18-1.266-.502l-1.03 1.09zm2.296.911c.853 0 1.674-.326 2.295-.911l-1.029-1.091c-.342.323-.795.502-1.266.502v1.5zm2.295-.911c.621-.586.995-1.386 1.045-2.238l-1.498-.088c-.027.47-.233.912-.576 1.235l1.03 1.09zm.296-3.032h-5.182v1.5h5.182v-1.5zM55.706 20.162c0-.223.088-.437.246-.594l-1.06-1.061c-.44.439-.686 1.034-.686 1.655h1.5zm.246-.594c.158-.158.372-.247.595-.247v-1.5c-.621 0-1.217.247-1.656.686l1.06 1.06zm.595-.247h17.502v-1.5H56.547v1.5zm17.502 0c.223 0 .437.089.595.247l1.06-1.061c-.439-.44-1.034-.686-1.655-.686v1.5zm.595.247c.157.157.246.371.246.594h1.5c0-.62-.247-1.216-.686-1.655l-1.06 1.06zm.246.594v12.33h1.5v-12.33h-1.5zm0 12.33c0 .222-.089.436-.246.594l1.06 1.06c.44-.438.686-1.034.686-1.655h-1.5zm-.246.594c-.158.158-.372.246-.595.246v1.5c.62 0 1.216-.246 1.655-.685l-1.06-1.061zm-.595.246h-5.573v1.5h5.573v-1.5zm-6.323.75v3.974h1.5v-3.974h-1.5zm1.28 3.443l-3.973-3.973-1.061 1.06 3.973 3.974 1.06-1.06zm-4.504-4.193h-7.955v1.5h7.955v-1.5zm-7.955 0c-.223 0-.437-.088-.595-.246l-1.06 1.06c.438.44 1.034.686 1.655.686v-1.5zm-.595-.246c-.158-.158-.246-.372-.246-.595h-1.5c0 .621.246 1.217.685 1.656l1.06-1.061zm-.246-.595V20.162h-1.5v12.33h1.5zM40.504 87.62c.395-6.754 1.3-13.421 4.353-19.107 3.034-5.65 8.225-10.399 17.344-13.244l-.447-1.431c-9.459 2.95-14.982 7.939-18.218 13.965-3.216 5.99-4.132 12.935-4.53 19.729l1.498.088zm14.424-3.948c-2.13 2.024-2.86 3.905-3.76 6.992l1.44.42c.879-3.012 1.518-4.58 3.353-6.325l-1.033-1.087zM94.79 63.095l-1.964.942.648 1.353 1.965-.942-.649-1.353zm-7.207 17.061c.024.61.234 1.198.602 1.685l1.197-.904c-.184-.243-.288-.536-.3-.84l-1.5.06zm.602 1.685c.367.487.875.85 1.455 1.04l.467-1.426c-.289-.095-.542-.275-.725-.518l-1.197.904zm1.455 1.04c.58.19 1.204.197 1.789.022L91 81.466c-.292.087-.603.084-.892-.011l-.467 1.425zm1.789.022c.584-.175 1.101-.525 1.481-1.003l-1.173-.934c-.19.239-.447.413-.739.5l.43 1.437zm-6.846-6.626l-.258 1.324 1.472.287.258-1.325-1.472-.286zm-.257 1.319c-.157.777 0 1.585.439 2.246l1.25-.83c-.218-.329-.297-.731-.219-1.119l-1.47-.297zm.439 2.246c.438.66 1.121 1.12 1.898 1.278l.298-1.47c-.387-.079-.728-.308-.946-.637l-1.25.829zm1.898 1.278c.778.157 1.586 0 2.247-.44l-.83-1.25c-.329.22-.731.298-1.119.22l-.297 1.47zm2.247-.44c.66-.438 1.12-1.12 1.277-1.898l-1.47-.297c-.078.387-.307.727-.637.946l.83 1.25zm1.279-1.904l.542-2.79-1.473-.287-.542 2.791 1.473.287zm-9.585-5.001c-.522.595-.785 1.373-.733 2.162l1.497-.099c-.026-.392.105-.779.364-1.075l-1.128-.988zm-.733 2.162c.053.79.416 1.526 1.012 2.047l.988-1.128c-.296-.26-.477-.625-.503-1.018l-1.497.1zm1.012 2.047c.595.522 1.373.785 2.162.733l-.099-1.497c-.392.026-.78-.105-1.075-.364l-.988 1.128zm2.162.733c.79-.053 1.526-.416 2.047-1.012l-1.128-.988c-.26.296-.626.477-1.018.503l.1 1.497zm2.031-.994l2.374-2.542-1.097-1.024-2.373 2.543 1.096 1.023zm9.497-10.16l-1.68.845.674 1.34 1.68-.844-.674-1.34zm-9.73-10.589c-.16-.344-.188-.736-.078-1.1l-1.435-.436c-.218.717-.163 1.49.154 2.17l1.36-.633zm-.08-1.091c.12-.376.383-.69.733-.871l-.69-1.332c-.704.365-1.233.994-1.473 1.749l1.43.454zm.733-.871c.35-.182.759-.218 1.135-.099l.451-1.43c-.755-.239-1.574-.168-2.277.197l.691 1.332zm1.139-.098l1.146.356.445-1.433-1.147-.355-.444 1.432zm23.57 35.299L98.802 93.34l.396 1.447 11.405-3.129-.397-1.447zm-15.133-6.54c-1.627-1.552-2.35-2.854-3.254-5.154-.91-2.313-2.015-5.684-4.37-11.151l-1.378.593c2.347 5.449 3.406 8.7 4.352 11.107.952 2.42 1.776 3.936 3.615 5.69l1.035-1.085zm-7.67-16.393c-.198-.332-.26-.729-.17-1.105l-1.46-.344c-.178.756-.055 1.552.343 2.218l1.288-.77zm-.17-1.105c.088-.377.32-.705.645-.913l-.81-1.263c-.653.42-1.118 1.076-1.296 1.832l1.46.344zm.645-.913c.326-.21.72-.284 1.1-.207l.296-1.47c-.76-.154-1.552-.005-2.206.414l.81 1.262zm1.1-.207c.379.077.714.298.933.617l1.236-.85c-.44-.64-1.111-1.084-1.873-1.237l-.296 1.47zm.922.601l3.476 5.334 1.257-.82-3.476-5.333-1.257.82zm3.463 5.313c.442.73 1.1 1.399 1.788 1.873.66.453 1.493.826 2.273.724.423-.055.826-.253 1.12-.63.282-.36.417-.822.451-1.327.068-.993-.232-2.39-.968-4.27l-1.397.545c.714 1.826.913 2.969.869 3.622-.022.318-.098.457-.136.506-.026.033-.056.057-.134.067-.222.029-.667-.088-1.228-.473-.53-.365-1.033-.882-1.355-1.414l-1.283.777zm4.671-3.613c-.987-2.726-2.85-5.047-5.299-6.6l-.803 1.266c2.167 1.375 3.818 3.43 4.692 5.845l1.41-.511zm17.69 29.152l-1.467-5.396-1.447.394 1.466 5.395 1.448-.393zm-1.468-5.398c-.065-.237-.176-.459-.327-.652l-1.184.921c.03.038.052.082.065.13l1.446-.4zm-.327-.652c-.151-.194-.339-.356-.552-.478l-.741 1.305c.042.024.08.056.109.094l1.184-.921zm-.552-.478c-.214-.121-.449-.199-.693-.23l-.185 1.49c.048.005.095.02.137.045l.741-1.305zm-.693-.23c-.244-.03-.491-.011-.728.054l.399 1.446c.047-.013.096-.017.144-.01l.185-1.49zm-.725.053l-14.56 3.965.394 1.447 14.56-3.965-.394-1.447zM97.4 93.767c-.477.129-.885.442-1.132.87l1.299.75c.049-.084.13-.146.224-.171l-.39-1.449zm-1.132.87c-.248.428-.315.938-.188 1.416l1.45-.385c-.026-.095-.012-.196.037-.28l-1.3-.751zm-.187 1.421l1.476 5.396 1.446-.396-1.475-5.396-1.447.396zm2.238-1.763l-.586-2.16-1.448.393.587 2.16 1.447-.393zm-.586-2.158c-.025-.096-.012-.198.037-.285l-1.304-.74c-.244.429-.31.937-.182 1.413l1.45-.388zm.037-.285c.049-.086.13-.15.226-.177l-.41-1.443c-.474.135-.877.45-1.12.88l1.304.74zm.217-.175l12.445-3.368-.392-1.448-12.445 3.369.392 1.447zm12.448-3.37c.046-.012.094-.016.141-.01l.187-1.488c-.243-.03-.491-.013-.727.053l.399 1.446zm.141-.01c.048.006.093.021.135.045l.744-1.302c-.213-.122-.448-.2-.692-.231l-.187 1.488zm.135.045c.041.024.077.055.106.093l1.188-.916c-.15-.195-.337-.358-.55-.48l-.744 1.303zm.106.093c.029.038.051.08.063.127l1.449-.39c-.064-.237-.174-.46-.324-.653l-1.188.916zm.064.128l.586 2.16 1.448-.393-.587-2.16-1.447.393zm1.114 1.24l-14.596 3.965.393 1.447 14.596-3.964-.393-1.448zM93.368 70.978c.508.811 1.274 1.56 2.06 2.043.395.243.823.437 1.253.526.427.089.917.084 1.36-.156l-.714-1.32c-.031.018-.129.051-.341.007-.211-.043-.476-.153-.772-.334-.594-.366-1.192-.95-1.574-1.561l-1.272.795zm-5.587-15.682c9.128 2.845 14.324 7.594 17.357 13.243 3.053 5.686 3.954 12.353 4.34 19.106l1.497-.085c-.387-6.794-1.299-13.74-4.515-19.73-3.236-6.027-8.765-11.015-18.232-13.966l-.447 1.432zm11.05 35.368c-.9-3.087-1.63-4.968-3.759-6.992L94.04 84.76c1.835 1.745 2.474 3.313 3.352 6.324l1.44-.42zM81.17 73.519H64.6v1.5h16.569v-1.5zm-16.569 0h-1.867v1.5H64.6v-1.5zm0-15.478h19.564v-1.5H64.6v1.5z"/>
        </g>
    </g>
    <defs>
        <clipPath id="prefix__clip0">
            <path fill="#fff" d="M0 0H146V98H0z"/>
        </clipPath>
        <clipPath id="prefix__clip1">
            <path fill="#fff" d="M0 0H85V81H0z" transform="translate(32 16)"/>
        </clipPath>
    </defs>
</svg>
