<svg width="146" height="98" viewBox="0 0 146 98" fill="none" xmlns="http://www.w3.org/2000/svg">
<g clip-path="url(#clip0)">
<path d="M74.8555 0C41.7185 0 14.8555 26.863 14.8555 60C14.8555 74.302 19.8595 87.436 28.2125 97.745H121.498C129.851 87.435 134.855 74.302 134.855 60C134.855 26.863 107.992 0 74.8555 0V0Z" fill="white"/>
<path d="M132 96H34C33.4477 96 33 96.4477 33 97C33 97.5523 33.4477 98 34 98H132C132.552 98 133 97.5523 133 97C133 96.4477 132.552 96 132 96Z" fill="#343961"/>
<path d="M29 96H1C0.447715 96 0 96.4477 0 97C0 97.5523 0.447715 98 1 98H29C29.5523 98 30 97.5523 30 97C30 96.4477 29.5523 96 29 96Z" fill="#343961"/>
<path d="M144 96.429H138C137.448 96.429 137 96.8767 137 97.429C137 97.9812 137.448 98.429 138 98.429H144C144.552 98.429 145 97.9812 145 97.429C145 96.8767 144.552 96.429 144 96.429Z" fill="#343961"/>
<path d="M115 71.936H122M125 17.5V16V17.5ZM128.183 18.817L129.244 17.756L128.183 18.817ZM129.5 22H131H129.5ZM128.183 25.183L129.244 26.244L128.183 25.183ZM125 26.5V28V26.5ZM121.817 25.183L120.756 26.244L121.817 25.183ZM120.5 22H119H120.5ZM121.817 18.817L120.756 17.756L121.817 18.817ZM27.015 57V45V57ZM21 51.014H33H21ZM118.509 75.429V68.429V75.429Z" stroke="#6A73B5" stroke-width="2" stroke-linecap="round" stroke-linejoin="round"/>
<path d="M58.8009 66.466C59.1749 66.644 59.6229 66.4859 59.8009 66.1129C59.9799 65.7389 59.8209 65.2909 59.4479 65.1129L58.8009 66.466ZM55.2079 63.0859C54.8339 62.9069 54.3859 63.0659 54.2079 63.4389C54.0289 63.8129 54.1879 64.2599 54.5609 64.4389L55.2079 63.0859ZM58.2559 80.9699C58.0009 80.6439 57.5289 80.5879 57.2029 80.8439C56.8779 81.0999 56.8209 81.5709 57.0769 81.8969L58.2569 80.9699H58.2559ZM62.4159 80.1529C62.4309 79.7389 62.1059 79.3919 61.6929 79.3769C61.2789 79.3629 60.9309 79.6869 60.9169 80.1009L62.4169 80.1529H62.4159ZM60.7409 75.6539C60.6609 75.2479 60.2669 74.9829 59.8609 75.0619C59.4539 75.1409 59.1889 75.5349 59.2679 75.9419L60.7409 75.6549V75.6539ZM60.5469 78.5799L59.8109 78.7239V78.7289L60.5469 78.5799ZM64.9369 77.6909L64.2019 77.8349V77.8399L64.9379 77.6909H64.9369ZM65.4169 76.2239C65.3369 75.8169 64.9429 75.5519 64.5369 75.6309C64.1299 75.7099 63.8649 76.1029 63.9439 76.5109L65.4159 76.2239H65.4169ZM62.7329 74.2689V73.5189H61.0109L62.1839 74.7799L62.7339 74.2699L62.7329 74.2689ZM65.4709 77.2109L64.9219 77.7219L64.9289 77.7289L64.9349 77.7359L65.4709 77.2109ZM69.4309 73.8079C69.1769 73.4819 68.7059 73.4229 68.3789 73.6779C68.0519 73.9319 67.9939 74.4029 68.2489 74.7299L69.4319 73.8079H69.4309ZM56.4319 69.7479C56.8019 69.9339 57.2529 69.7849 57.4389 69.4149C57.6249 69.0449 57.4759 68.5939 57.1059 68.4079L56.4319 69.7479ZM55.4259 67.563C55.0559 67.377 54.6049 67.5269 54.4189 67.8969C54.2329 68.2669 54.3819 68.7169 54.7519 68.9039L55.4259 67.5639V67.563ZM61.7729 53.8629C61.3779 53.9859 61.1559 54.4069 61.2789 54.8029C61.4019 55.1979 61.8219 55.4189 62.2179 55.2969L61.7729 53.8639V53.8629ZM63.1429 54.2249L63.3639 54.9409L63.3679 54.9399L63.1419 54.2249H63.1429ZM65.9509 55.6819L66.6689 55.4639L66.6659 55.4549L65.9509 55.6819V55.6819ZM65.1559 57.0019C64.9809 57.3769 65.1429 57.8219 65.5189 57.9979C65.8939 58.1729 66.3399 58.0099 66.5149 57.6349L65.1549 56.9999L65.1559 57.0019ZM50.8029 94.7869C51.2029 94.8959 51.6149 94.6599 51.7229 94.2599C51.8329 93.8599 51.5959 93.4489 51.1969 93.3399L50.8029 94.7869ZM39.7569 90.2299C39.3569 90.1209 38.9449 90.357 38.8369 90.757C38.7269 91.157 38.9639 91.5679 39.3629 91.6769L39.7569 90.2299ZM52.6699 67.5849L53.3679 67.8589L53.3739 67.8439L52.6699 67.5839V67.5849ZM55.9949 70.5539L55.3659 70.1439L55.3549 70.1619L55.9949 70.5529V70.5539ZM59.4699 65.2199L58.8619 64.7809L58.8419 64.8109L59.4699 65.2209V65.2199ZM63.2389 67.6299L62.5849 67.2609C62.5719 67.2849 62.5599 67.3089 62.5499 67.3329L63.2389 67.6289V67.6299ZM55.4429 84.216L55.9599 84.7589H55.9609L55.4429 84.216ZM59.8329 60.9829C60.2129 60.8159 60.3859 60.3729 60.2189 59.9939C60.0529 59.6149 59.6099 59.4429 59.2309 59.6089L59.8339 60.9819L59.8329 60.9829ZM86.7409 75.0189C87.1549 75.0189 87.4909 74.6829 87.4909 74.2689C87.4909 73.8549 87.1549 73.5189 86.7409 73.5189V75.0189ZM91.4759 63.3799C91.4759 63.7939 91.8109 64.1299 92.2259 64.1299C92.6399 64.1299 92.9759 63.7939 92.9759 63.3799H91.4759ZM92.2259 59.8249H91.4759H92.2259ZM89.6829 57.2909V58.0409H89.6859L89.6829 57.2909ZM58.7829 62.0819C58.7829 62.4969 59.1179 62.8319 59.5329 62.8319C59.9459 62.8319 60.2829 62.4969 60.2829 62.0819H58.7829ZM86.3999 64.8019C86.3999 65.2169 86.7359 65.5519 87.1499 65.5519C87.5639 65.5519 87.8999 65.2169 87.8999 64.8019H86.3999ZM87.8999 64.7929C87.8999 64.3789 87.5639 64.0429 87.1499 64.0429C86.7359 64.0429 86.3999 64.3789 86.3999 64.7929H87.8999ZM65.3499 70.8649C65.3499 70.4499 65.0139 70.1149 64.5999 70.1149C64.1859 70.1149 63.8499 70.4499 63.8499 70.8649H65.3499ZM63.8499 63.0149C63.8499 63.4299 64.1859 63.7649 64.5999 63.7649C65.0139 63.7649 65.3499 63.4299 65.3499 63.0149H63.8499ZM64.5999 57.2909V56.5409C64.1859 56.5409 63.8499 56.8769 63.8499 57.2909H64.5999ZM87.1509 57.2909H87.9009C87.9009 56.8769 87.5649 56.5409 87.1509 56.5409V57.2909ZM86.4009 61.9669C86.4009 62.3809 86.7369 62.7169 87.1509 62.7169C87.5649 62.7169 87.9009 62.3809 87.9009 61.9669H86.4009ZM50.9969 101.058C50.8869 101.457 51.1229 101.87 51.5219 101.979C51.9219 102.088 52.3339 101.853 52.4429 101.454L50.9969 101.058ZM53.1959 95.8599L53.9189 96.0579L53.9199 96.0529L53.1959 95.8599ZM52.4039 94.4909L52.2069 95.2149H52.2089L52.4039 94.4909ZM37.8439 90.5269L37.6439 91.2499H37.6469L37.8439 90.5269ZM36.4669 91.3089L35.7439 91.1089L35.7429 91.1119L36.4669 91.3089ZM34.2769 96.5079C34.1669 96.9079 34.4039 97.3199 34.8029 97.4279C35.2029 97.5369 35.6149 97.3009 35.7229 96.9009L34.2759 96.5079H34.2769ZM38.4309 88.3579L39.1549 88.5539V88.5529L38.4309 88.3579ZM39.7999 87.5759L39.5999 88.299H39.6039L39.7999 87.5759V87.5759ZM52.2439 90.9449L52.4489 90.2229L52.4399 90.2209L52.2439 90.9449V90.9449ZM53.0269 92.3219L53.7509 92.5189V92.5159L53.0269 92.3219ZM52.4399 94.4819L52.2439 95.2059C52.6439 95.3149 53.0549 95.0789 53.1639 94.6789L52.4399 94.4819V94.4819ZM52.6679 72.0419C52.3029 71.8479 51.8479 71.9859 51.6539 72.3519C51.4589 72.7179 51.5969 73.1719 51.9629 73.3669L52.6679 72.0429V72.0419ZM78.1469 25.3859C77.7319 25.3859 77.3969 25.7209 77.3969 26.1359C77.3969 26.5499 77.7319 26.8859 78.1469 26.8859V25.3859ZM97.2219 26.1359V26.8859V26.1359ZM98.7459 26.7659L99.2759 26.2339L98.7459 26.7649V26.7659ZM99.3819 28.2859H100.132V28.2839L99.3819 28.2869V28.2859ZM99.3819 44.9799L100.132 44.9829V44.9799H99.3819ZM98.7459 46.5019L99.2759 47.0329L98.7459 46.5019ZM97.2219 47.1319V46.3819V47.1319ZM86.4759 47.1319V46.3819C86.2759 46.3819 86.0839 46.4619 85.9429 46.6029L86.4759 47.1309V47.1319ZM81.1419 52.5089H80.3919C80.3919 52.8129 80.5759 53.0869 80.8569 53.2029C81.1369 53.3179 81.4609 53.2529 81.6749 53.0369L81.1419 52.5089V52.5089ZM81.1419 47.1309H81.8919C81.8919 46.7169 81.5559 46.3809 81.1419 46.3809V47.1309ZM73.5689 47.1309L73.5589 47.8809H73.5689V47.1309ZM71.4439 44.9809H72.1939H71.4439ZM72.1939 36.5809C72.1939 36.1659 71.8589 35.8309 71.4439 35.8309C71.0299 35.8309 70.6939 36.1659 70.6939 36.5809H72.1939ZM85.2309 28.9179V28.1679V28.9179ZM82.7859 33.5399V34.2899V33.5399ZM83.5959 34.3489H84.3459H83.5959ZM87.6489 33.5399L87.6569 32.7899H87.6489V33.5399ZM88.4589 34.3489H89.2089L89.2079 34.3409L88.4579 34.3489H88.4589ZM82.6269 37.9759V37.2259C82.4199 37.2259 82.2229 37.3109 82.0809 37.4609C81.9389 37.6109 81.8659 37.8129 81.8779 38.0199L82.6269 37.9759V37.9759ZM87.8089 37.9759L88.5579 38.0199C88.5699 37.8129 88.4959 37.6109 88.3549 37.4609C88.2129 37.3109 88.0149 37.2259 87.8089 37.2259V37.9759V37.9759ZM74.0489 18.5699V17.8199V18.5699ZM75.6399 32.4899H76.3899H75.6399ZM68.4759 34.0809V33.3309C68.0609 33.3309 67.7259 33.6669 67.7259 34.0809H68.4759ZM68.4759 38.0549L67.9459 38.5849C68.1599 38.7999 68.4819 38.8639 68.7629 38.7479C69.0429 38.6319 69.2259 38.3579 69.2259 38.0549H68.4759V38.0549ZM64.5019 34.0809L65.0319 33.5509C64.8919 33.4109 64.7019 33.3309 64.5019 33.3309V34.0809ZM39.0069 87.5309C38.9829 87.9439 39.2979 88.2989 39.7119 88.3239C40.1249 88.3479 40.4799 88.0319 40.5039 87.6179L39.0069 87.5309ZM62.1999 55.2699C62.5949 55.1459 62.8159 54.7259 62.6929 54.3299C62.5689 53.9349 62.1489 53.7139 61.7529 53.8379L62.1999 55.2689V55.2699ZM51.1699 90.6629C51.0539 91.0599 51.2819 91.4769 51.6799 91.5929C52.0779 91.7089 52.4939 91.4799 52.6099 91.0829L51.1699 90.6629ZM95.4399 64.4469C95.8139 64.2669 95.9719 63.8189 95.7929 63.4459C95.6129 63.0729 95.1659 62.9149 94.7929 63.0939L95.4409 64.4469H95.4399ZM92.8279 64.0369C92.4539 64.2149 92.2969 64.6629 92.4759 65.0369C92.6549 65.4099 93.1029 65.5669 93.4759 65.3889L92.8279 64.0359V64.0369ZM89.0839 80.0969C89.0679 79.6819 88.7189 79.3599 88.3039 79.3769C87.8909 79.3929 87.5689 79.7409 87.5839 80.1549L89.0839 80.0959V80.0969ZM92.9099 81.8999C93.1679 81.5759 93.1139 81.1039 92.7899 80.8469C92.4659 80.5889 91.9949 80.6419 91.7369 80.9669L92.9099 81.8999V81.8999ZM86.0549 76.563C86.1349 76.157 85.8689 75.7629 85.4619 75.6839C85.0559 75.6039 84.6619 75.8699 84.5819 76.2769L86.0549 76.5639V76.563ZM85.0609 77.7449L85.7959 77.8929L85.7969 77.8879L85.0609 77.7449ZM89.4519 78.6329L90.1869 78.7829L90.1889 78.7759L89.4519 78.6339V78.6329ZM90.7309 75.9849C90.8099 75.5789 90.5439 75.1849 90.1379 75.1059C89.7309 75.0269 89.3379 75.2929 89.2579 75.6989L90.7309 75.9849ZM84.5279 77.2109L83.9799 76.6999L83.9719 76.7079L83.9639 76.7179L84.5279 77.2109ZM87.4499 75.1809C87.7319 74.8779 87.7159 74.4029 87.4129 74.1209C87.1099 73.8379 86.6359 73.8549 86.3529 74.1569L87.4499 75.1809V75.1809ZM95.2469 68.9039C95.6169 68.7179 95.7669 68.2669 95.5799 67.8969C95.3939 67.5269 94.9429 67.377 94.5729 67.563L95.2469 68.9029V68.9039ZM92.8929 68.4079C92.5229 68.5939 92.3739 69.0449 92.5599 69.4149C92.7459 69.7849 93.1969 69.9349 93.5669 69.7479L92.8929 68.4079ZM84.0499 55.6559L83.3349 55.4289L83.3319 55.4379L84.0499 55.6559V55.6559ZM86.8589 54.1979L86.6329 54.9129L86.6369 54.9139L86.8589 54.1979ZM87.7829 55.2699C88.1789 55.3919 88.5989 55.1709 88.7219 54.7759C88.8449 54.3799 88.6229 53.9599 88.2279 53.8369L87.7829 55.2699ZM110.604 91.6589C111.003 91.5489 111.238 91.1369 111.129 90.7369C111.019 90.3369 110.606 90.1029 110.207 90.2129L110.604 91.6589V91.6589ZM98.8029 93.341C98.4029 93.451 98.1679 93.8639 98.2779 94.2629C98.3879 94.6629 98.7999 94.8969 99.1989 94.7879L98.8029 93.341ZM94.5569 84.216L94.0389 84.7579V84.7589L94.5569 84.216ZM86.7599 67.6649L87.4489 67.3679C87.4359 67.3379 87.4209 67.3079 87.4039 67.2799L86.7599 67.6649V67.6649ZM90.5289 65.2469L91.1569 64.8369L91.1469 64.8219L90.5289 65.2469ZM94.0039 70.5799L94.6399 70.1829L94.6329 70.1709L94.0039 70.5809V70.5799ZM97.3289 67.6109L96.6239 67.8669L96.6299 67.8839L97.3289 67.6109ZM92.7349 60.7559C92.3849 60.5339 91.9219 60.6379 91.6999 60.9869C91.4779 61.3369 91.5819 61.7999 91.9319 62.0219L92.7349 60.7559ZM114.276 96.8999C114.385 97.2999 114.797 97.5359 115.197 97.4269C115.596 97.3189 115.832 96.907 115.724 96.507L114.276 96.8999V96.8999ZM113.533 91.3079L114.257 91.1109L114.256 91.1089L113.533 91.3089V91.3079ZM112.156 90.5259L112.353 91.2499L112.355 91.2489L112.156 90.5259ZM97.5959 94.4899L97.7909 95.2149H97.7919L97.5959 94.4899ZM96.8039 95.8599L96.0789 96.0519L96.0809 96.0569L96.8039 95.8589V95.8599ZM97.5569 101.453C97.6659 101.852 98.0779 102.087 98.4769 101.978C98.8769 101.869 99.1129 101.456 99.0029 101.057L97.5569 101.453ZM97.0089 92.3299L96.2839 92.5239L96.2849 92.5269L97.0089 92.3299V92.3299ZM97.7909 90.9529L97.5949 90.2289L97.5859 90.2309L97.7909 90.9529V90.9529ZM110.236 87.5829L110.432 88.3079L110.435 88.3069L110.236 87.5839V87.5829ZM111.604 88.3659L110.88 88.5609L110.881 88.5619L111.604 88.3659ZM112.191 90.5259L112.388 91.2499C112.787 91.1409 113.023 90.7289 112.915 90.3299L112.191 90.5259ZM98.0409 73.3899C98.4059 73.1919 98.5409 72.7369 98.3439 72.3729C98.1459 72.0089 97.6909 71.8729 97.3269 72.0709L98.0419 73.3899H98.0409ZM88.2279 53.8629C87.8319 53.7399 87.4119 53.9609 87.2879 54.3559C87.1649 54.7509 87.3859 55.1719 87.7809 55.2959L88.2279 53.8629ZM109.478 87.6439C109.501 88.0579 109.856 88.3739 110.269 88.3499C110.683 88.3269 110.999 87.9719 110.975 87.5589L109.478 87.6439ZM97.3909 91.0819C97.5069 91.4799 97.9229 91.7089 98.3209 91.5919C98.7189 91.4769 98.9469 91.0599 98.8309 90.6619L97.3909 91.0819V91.0819ZM59.4479 65.1119L55.2079 63.0849L54.5609 64.438L58.8009 66.4649L59.4479 65.1109V65.1119ZM57.0769 81.896C57.4559 82.378 57.9729 82.732 58.5599 82.91L58.9949 81.4739C58.7029 81.3859 58.4449 81.2089 58.2559 80.9689L57.0759 81.896H57.0769ZM58.5599 82.91C59.1469 83.088 59.7739 83.0809 60.3559 82.8899L59.8909 81.4649C59.6009 81.5599 59.2879 81.5629 58.9959 81.4749L58.5599 82.91V82.91ZM60.3559 82.8899C60.9389 82.6999 61.4489 82.3359 61.8179 81.8459L60.6179 80.9439C60.4349 81.1879 60.1809 81.3699 59.8909 81.4639L60.3559 82.8909V82.8899ZM61.8179 81.8459C62.1859 81.3559 62.3949 80.7639 62.4159 80.1519L60.9169 80.0999C60.9069 80.4049 60.8029 80.6999 60.6189 80.9439L61.8179 81.8459V81.8459ZM59.2679 75.9399L59.8099 78.7229L61.2829 78.4359L60.7409 75.6539L59.2679 75.9399ZM59.8119 78.7279C59.8899 79.1129 60.0419 79.4779 60.2619 79.8039L61.5059 78.9669C61.3959 78.8039 61.3209 78.6219 61.2819 78.4299L59.8119 78.7279V78.7279ZM60.2619 79.8039C60.4809 80.1299 60.7619 80.4089 61.0889 80.6259L61.9189 79.3759C61.7559 79.2679 61.6149 79.129 61.5059 78.966L60.2619 79.8039ZM61.0889 80.6259C61.4169 80.8439 61.7829 80.9939 62.1689 81.0689L62.4569 79.5969C62.2639 79.5599 62.0819 79.4849 61.9189 79.3769L61.0889 80.6269V80.6259ZM62.1689 81.0689C62.5539 81.1449 62.9509 81.1429 63.3359 81.0649L63.0379 79.5949C62.8459 79.6339 62.6479 79.6349 62.4569 79.5969L62.1689 81.0689V81.0689ZM63.3359 81.0649C63.7199 80.9869 64.0859 80.8349 64.4119 80.6149L63.5739 79.3709C63.4119 79.4809 63.2299 79.5559 63.0379 79.5949L63.3359 81.0649ZM64.4119 80.6149C64.7379 80.3959 65.0169 80.1149 65.2339 79.7869L63.9839 78.9579C63.8759 79.1209 63.7369 79.2619 63.5739 79.3709L64.4119 80.6149ZM65.2339 79.7869C65.4509 79.4599 65.6019 79.0929 65.6769 78.7079L64.2049 78.4199C64.1669 78.6119 64.0919 78.7949 63.9839 78.9579L65.2339 79.7879V79.7869ZM65.6769 78.7079C65.7519 78.3229 65.7509 77.9259 65.6729 77.5419L64.2029 77.8389C64.2409 78.0309 64.2429 78.2289 64.2049 78.4199L65.6769 78.7079V78.7079ZM65.6739 77.5469L65.4159 76.2229L63.9439 76.5089L64.2019 77.8339L65.6739 77.5469ZM62.1839 74.7789L64.9219 77.7209L66.0199 76.6999L63.2819 73.7579L62.1839 74.7799V74.7789ZM64.9349 77.7349C65.4689 78.2809 66.1919 78.6019 66.9549 78.6309L67.0139 77.132C66.6339 77.118 66.2739 76.9579 66.0069 76.6859L64.9349 77.7349V77.7349ZM66.9549 78.6309C67.7179 78.6609 68.4639 78.398 69.0389 77.896L68.0519 76.7659C67.7659 77.0159 67.3939 77.1469 67.0139 77.1329L66.9549 78.6309V78.6309ZM69.0389 77.896C69.6139 77.393 69.9749 76.6899 70.0489 75.9299L68.5549 75.7859C68.5189 76.1659 68.3389 76.5159 68.0519 76.7659L69.0389 77.896ZM70.0489 75.9299C70.1209 75.1699 69.9009 74.4099 69.4319 73.8069L68.2479 74.7289C68.4819 75.0289 68.5919 75.4069 68.5549 75.7859L70.0479 75.9299H70.0489ZM57.1059 68.4069L55.4259 67.5619L54.7519 68.9019L56.4319 69.7469L57.1059 68.4069ZM62.2179 55.2959L63.3639 54.9399L62.9199 53.5069L61.7729 53.8629L62.2179 55.2959ZM63.3679 54.9389C63.7439 54.8199 64.1519 54.8549 64.5029 55.0369L65.1929 53.7059C64.4909 53.3409 63.6719 53.2699 62.9169 53.5079L63.3669 54.9379L63.3679 54.9389ZM64.5029 55.0369C64.8529 55.2189 65.1169 55.5319 65.2359 55.9089L66.6659 55.4539C66.4259 54.6989 65.8959 54.0709 65.1939 53.7059L64.5029 55.0369V55.0369ZM65.2329 55.8999C65.3439 56.2629 65.3159 56.6549 65.1559 56.9999L66.5159 57.6339C66.8319 56.9539 66.8859 56.1809 66.6689 55.4639L65.2339 55.8989L65.2329 55.8999ZM51.1979 93.3399L39.7579 90.2289L39.3639 91.6759L50.8039 94.7869L51.1979 93.3399ZM51.9739 67.3099C51.2319 69.1999 50.9269 70.5999 50.9919 71.5939C51.0249 72.0989 51.1579 72.562 51.4399 72.924C51.7349 73.302 52.1399 73.4989 52.5639 73.5519C53.3439 73.6509 54.1779 73.2739 54.8389 72.8189C55.5289 72.3429 56.1889 71.6729 56.6359 70.9439L55.3569 70.1609C55.0299 70.6939 54.5219 71.2149 53.9869 71.5829C53.4229 71.9729 52.9749 72.0929 52.7519 72.0639C52.6739 72.0539 52.6469 72.0319 52.6219 71.9999C52.5849 71.9529 52.5089 71.8149 52.4889 71.4959C52.4459 70.8409 52.6499 69.6919 53.3699 67.8579L51.9739 67.3099V67.3099ZM56.6239 70.9619L60.0999 65.6299L58.8429 64.8099L55.3669 70.1439L56.6239 70.9629V70.9619ZM60.0799 65.6579C60.3029 65.3489 60.6359 65.1379 61.0099 65.0659L60.7279 63.5929C59.9779 63.7359 59.3109 64.1609 58.8639 64.7799L60.0799 65.6579V65.6579ZM61.0099 65.0659C61.3829 64.9949 61.7699 65.0689 62.0909 65.2739L62.8989 64.0099C62.2549 63.5989 61.4789 63.4499 60.7289 63.5929L61.0089 65.0659H61.0099ZM62.0909 65.2739C62.4119 65.4789 62.6419 65.7989 62.7339 66.1679L64.1899 65.8049C64.0049 65.0639 63.5429 64.4219 62.8999 64.0099L62.0909 65.2739V65.2739ZM62.7339 66.1679C62.8269 66.5379 62.7739 66.9279 62.5869 67.2599L63.8949 67.9959C64.2689 67.3299 64.3749 66.5459 64.1899 65.8049L62.7349 66.1679H62.7339ZM62.5519 67.3319C60.1969 72.8159 59.0909 76.1969 58.1819 78.5139C57.2779 80.8179 56.5549 82.1199 54.9279 83.6719L55.9629 84.757C57.8029 83.003 58.6269 81.4869 59.5779 79.0619C60.5249 76.6499 61.5829 73.391 63.9299 67.924L62.5519 67.3319ZM59.2329 59.6079C57.5659 60.3399 56.0629 61.3999 54.8139 62.7259L55.9069 63.7539C57.0169 62.5749 58.3529 61.6319 59.8359 60.9809L59.2329 59.6079V59.6079ZM54.8139 62.7259C53.5659 64.0519 52.5979 65.6159 51.9679 67.3239L53.3759 67.8429C53.9359 66.3229 54.7959 64.9329 55.9059 63.7539L54.8139 62.7259V62.7259ZM86.7439 73.5179H81.1699V75.0179H86.7429V73.5179H86.7439ZM92.9779 63.3789V59.8239H91.4779V63.3789H92.9779ZM92.9779 59.8239C92.9779 59.3909 92.8919 58.9639 92.7269 58.5639L91.3409 59.1399C91.4309 59.3569 91.4779 59.5889 91.4779 59.8239H92.9779ZM92.7269 58.5639C92.5609 58.1649 92.3179 57.8029 92.0119 57.4979L90.9529 58.5599C91.1189 58.7259 91.2509 58.9229 91.3409 59.1399L92.7269 58.5649V58.5639ZM92.0099 57.4999C91.7039 57.1949 91.3399 56.9529 90.9399 56.7889L90.3699 58.1759C90.5879 58.2659 90.7849 58.3959 90.9509 58.5619L92.0099 57.4999V57.4999ZM90.9399 56.7889C90.5409 56.6249 90.1129 56.5409 89.6799 56.5419L89.6859 58.0419C89.9209 58.0419 90.1529 58.0869 90.3699 58.1759L90.9399 56.7889V56.7889ZM89.6829 56.5419H62.0669V58.0419H89.6839V56.5419H89.6829ZM62.0659 56.5419C61.1949 56.5419 60.3599 56.8879 59.7439 57.5039L60.8039 58.5639C61.1389 58.2299 61.5929 58.0419 62.0659 58.0419V56.5419V56.5419ZM59.7439 57.5039C59.1279 58.1199 58.7819 58.9539 58.7819 59.8259H60.2819C60.2819 59.3529 60.4699 58.8989 60.8049 58.5649L59.7439 57.5039ZM58.7819 59.8259V62.0829H60.2819V59.8259H58.7819ZM87.8999 64.8029V64.7939H86.3999V64.8039H87.8999V64.8029ZM65.3499 74.2699V70.8659H63.8499V74.2699H65.3499ZM65.3499 63.0169V57.2899H63.8499V63.0149H65.3499V63.0169ZM84.1639 58.0419H87.1509V56.5419H84.1639V58.0419ZM86.4009 57.2919V61.9679H87.9009V57.2899H86.4009V57.2919ZM52.4429 101.455L53.9189 96.0589L52.4719 95.6629L50.9969 101.059L52.4429 101.455V101.455ZM53.9199 96.0539C54.0469 95.5759 53.9799 95.0659 53.7319 94.6379L52.4329 95.3879C52.4829 95.4729 52.4959 95.5739 52.4709 95.6679L53.9209 96.0539H53.9199ZM53.7319 94.6379C53.4849 94.2099 53.0769 93.8969 52.5999 93.7679L52.2099 95.2169C52.3039 95.2419 52.3839 95.3039 52.4329 95.3889L53.7329 94.6379H53.7319ZM52.6019 93.7679L38.0419 89.8039L37.6469 91.2519L52.2069 95.216L52.6019 93.7689V93.7679ZM38.0439 89.8049C37.8069 89.7389 37.5599 89.7209 37.3159 89.7519L37.5009 91.2399C37.5489 91.2339 37.5979 91.2379 37.6449 91.2499L38.0439 89.8049V89.8049ZM37.3159 89.7519C37.0719 89.7819 36.8359 89.8599 36.6229 89.9819L37.3629 91.2859C37.4059 91.2619 37.4529 91.2459 37.5009 91.2399L37.3159 89.7519ZM36.6229 89.9819C36.4099 90.1019 36.2219 90.2649 36.0709 90.4589L37.2549 91.3799C37.2849 91.3419 37.3209 91.3099 37.3639 91.2859L36.6239 89.9809L36.6229 89.9819ZM36.0709 90.4589C35.9209 90.6519 35.8089 90.8739 35.7439 91.1109L37.1899 91.5089C37.2029 91.4619 37.2249 91.4189 37.2549 91.3799L36.0709 90.4589V90.4589ZM35.7429 91.1129L34.2759 96.5089L35.7239 96.9019L37.1899 91.507L35.7429 91.1129ZM38.5679 90.7229L39.1549 88.5549L37.7069 88.1629L37.1199 90.3319L38.5679 90.7239V90.7229ZM39.1549 88.5529C39.1679 88.5079 39.1889 88.4649 39.2179 88.4269L38.0309 87.5109C37.8809 87.7049 37.7709 87.9269 37.7069 88.1639L39.1549 88.5539V88.5529ZM39.2179 88.4269C39.2479 88.3889 39.2829 88.3569 39.3249 88.3339L38.5809 87.0319C38.3679 87.1539 38.1809 87.3159 38.0309 87.5109L39.2179 88.4269V88.4269ZM39.3249 88.3339C39.3659 88.3109 39.4119 88.2949 39.4589 88.2889L39.2719 86.8009C39.0289 86.8309 38.7939 86.9099 38.5809 87.0309L39.3249 88.3339ZM39.4589 88.2889C39.5059 88.2839 39.5539 88.287 39.5999 88.299L39.9999 86.8539C39.7629 86.7879 39.5159 86.7699 39.2719 86.8009L39.4589 88.2889V88.2889ZM39.6039 88.3009L52.0479 91.6699L52.4399 90.2219L39.9959 86.8519L39.6039 88.3009ZM52.0399 91.6669C52.1349 91.6939 52.2169 91.7579 52.2659 91.8449L53.5699 91.1039C53.3269 90.6739 52.9239 90.3589 52.4499 90.2239L52.0399 91.6669V91.6669ZM52.2659 91.8449C52.3149 91.9309 52.3279 92.0329 52.3019 92.1299L53.7519 92.5169C53.8789 92.0409 53.8139 91.5329 53.5699 91.1039L52.2659 91.8439V91.8449ZM52.3029 92.1269L51.7159 94.2869L53.1639 94.6799L53.7499 92.5199L52.3029 92.1269V92.1269ZM52.6359 93.7589L38.0409 89.8039L37.6479 91.2519L52.2439 95.2069L52.6359 93.7589V93.7589ZM51.9629 73.3679C52.4069 73.6039 52.8959 73.6059 53.3229 73.5179C53.7529 73.4279 54.1829 73.2359 54.5799 72.9939C55.3699 72.5109 56.1399 71.7629 56.6369 70.9439L55.3539 70.1659C54.9889 70.7679 54.3949 71.3489 53.7979 71.7129C53.5009 71.8949 53.2329 72.004 53.0179 72.049C52.7999 72.094 52.6999 72.0609 52.6679 72.0439L51.9629 73.3679ZM78.1469 26.8869H97.2219V25.3869H78.1469V26.8869V26.8869ZM97.2219 26.8869C97.5949 26.8869 97.9519 27.0349 98.2169 27.2969L99.2759 26.2349C98.7299 25.6919 97.9919 25.3869 97.2219 25.3869V26.8869ZM98.2169 27.2969C98.4809 27.5609 98.6309 27.9179 98.6319 28.2909L100.132 28.2849C100.129 27.5149 99.8219 26.7779 99.2759 26.2349L98.2169 27.2979V27.2969ZM98.6319 28.2869V44.9799H100.132V28.2869H98.6319V28.2869ZM98.6319 44.9779C98.6309 45.3509 98.4819 45.7079 98.2169 45.9709L99.2759 47.0339C99.8209 46.4909 100.129 45.7539 100.132 44.9839L98.6319 44.9779V44.9779ZM98.2169 45.9709C97.9529 46.2349 97.5949 46.3819 97.2219 46.3819V47.8819C97.9919 47.8819 98.7299 47.5769 99.2759 47.0339L98.2169 45.9709ZM97.2219 46.3819H86.4759V47.8819H97.2219V46.3819V46.3819ZM85.9429 46.6039L80.6099 51.9819L81.6749 53.0379L87.0079 47.6599L85.9429 46.6039ZM81.8929 52.5099V47.1319H80.3929V52.5099H81.8929ZM81.1429 46.3819H73.5689V47.8819H81.1419V46.3819H81.1429ZM73.5779 46.3819C73.2099 46.3779 72.8579 46.2279 72.5979 45.9659L71.5309 47.0199C72.0679 47.5629 72.7959 47.8729 73.5599 47.8819L73.5779 46.3819V46.3819ZM72.5979 45.9659C72.3399 45.7039 72.1939 45.3499 72.1939 44.9809H70.6939C70.6939 45.7439 70.9949 46.4769 71.5309 47.0199L72.5989 45.9659H72.5979ZM72.1939 44.9809V36.5809H70.6939V44.9809H72.1939ZM91.5919 36.0309C91.5919 37.2879 91.2189 38.5179 90.5199 39.5639L91.7669 40.3979C92.6309 39.1049 93.0919 37.5849 93.0919 36.0299H91.5919V36.0309ZM90.5199 39.5639C89.8209 40.6099 88.8279 41.4259 87.6649 41.9069L88.2389 43.2929C89.6759 42.6979 90.9029 41.6899 91.7669 40.3979L90.5199 39.5639ZM87.6649 41.9069C86.5029 42.3889 85.2239 42.5149 83.9899 42.2689L83.6969 43.7399C85.2219 44.0439 86.8029 43.8879 88.2389 43.2929L87.6649 41.9069V41.9069ZM83.9899 42.2689C82.7559 42.0239 81.6229 41.4179 80.7329 40.5289L79.6729 41.5889C80.7719 42.6889 82.1729 43.4369 83.6969 43.7399L83.9899 42.2699V42.2689ZM80.7329 40.5289C79.8429 39.6389 79.2369 38.5049 78.9919 37.2709L77.5209 37.5639C77.8239 39.0889 78.5729 40.4889 79.6719 41.5889L80.7319 40.5289H80.7329ZM78.9919 37.2709C78.7469 36.0369 78.8719 34.7579 79.3539 33.5959L77.9679 33.0219C77.3729 34.4579 77.2179 36.0389 77.5209 37.5639L78.9919 37.2709V37.2709ZM79.3539 33.5959C79.8349 32.4339 80.6509 31.4399 81.6969 30.7409L80.8629 29.4939C79.5709 30.3579 78.5629 31.5849 77.9679 33.0219L79.3539 33.5959ZM81.6969 30.7409C82.7429 30.0419 83.9729 29.6689 85.2309 29.6689V28.1689C83.6759 28.1689 82.1559 28.6299 80.8639 29.4939L81.6969 30.7409ZM85.2309 29.6689C86.9179 29.6689 88.5359 30.3389 89.7289 31.5319L90.7889 30.4719C89.3149 28.9969 87.3159 28.1689 85.2309 28.1689V29.6689V29.6689ZM89.7289 31.5319C90.9219 32.7249 91.5919 34.3429 91.5919 36.0299H93.0919C93.0919 33.9449 92.2639 31.9459 90.7899 30.4709L89.7289 31.5319V31.5319ZM82.7859 32.7909C82.4779 32.7909 82.1759 32.8829 81.9199 33.0539L82.7539 34.3009C82.7639 34.2949 82.7739 34.2909 82.7859 34.2909V32.7909ZM81.9199 33.0539C81.6639 33.2249 81.4639 33.4689 81.3459 33.7539L82.7319 34.3269C82.7359 34.3169 82.7439 34.3069 82.7539 34.3009L81.9199 33.0539ZM81.3459 33.7539C81.2279 34.0379 81.1969 34.3519 81.2569 34.6539L82.7289 34.3609C82.7259 34.3499 82.7279 34.3379 82.7319 34.3269L81.3459 33.7529V33.7539ZM81.2569 34.6539C81.3169 34.9559 81.4659 35.2339 81.6839 35.4519L82.7439 34.3919C82.7359 34.3829 82.7309 34.3719 82.7289 34.3619L81.2569 34.6539V34.6539ZM81.6839 35.4519C81.9019 35.6699 82.1799 35.8189 82.4819 35.8789L82.7749 34.4079C82.7629 34.4049 82.7529 34.3999 82.7449 34.3919L81.6839 35.4519V35.4519ZM82.4819 35.8789C82.7849 35.9389 83.0979 35.9089 83.3819 35.7899L82.8089 34.4039C82.7989 34.4089 82.7859 34.4099 82.7749 34.4079L82.4819 35.8779V35.8789ZM83.3819 35.7899C83.6679 35.6719 83.9119 35.4719 84.0819 35.2159L82.8349 34.3829C82.8289 34.3929 82.8199 34.3999 82.8089 34.4039L83.3829 35.7899H83.3819ZM84.0819 35.2159C84.2539 34.9599 84.3449 34.6579 84.3449 34.3499H82.8449C82.8449 34.3619 82.8419 34.3729 82.8349 34.3829L84.0829 35.2159H84.0819ZM84.3449 34.3499C84.3449 33.9369 84.1809 33.5399 83.8889 33.2479L82.8279 34.3079C82.8389 34.3189 82.8449 34.3339 82.8449 34.3499H84.3449V34.3499ZM83.8889 33.2479C83.5959 32.9549 83.1989 32.7909 82.7859 32.7909V34.2909C82.8019 34.2909 82.8159 34.2969 82.8279 34.3079L83.8879 33.2479H83.8889ZM87.6489 32.7909C87.3409 32.7909 87.0389 32.8829 86.7829 33.0539L87.6169 34.3009C87.6269 34.2949 87.6369 34.2909 87.6489 34.2909V32.7909ZM86.7829 33.0539C86.5269 33.2249 86.3269 33.4689 86.2089 33.7539L87.5949 34.3269C87.5989 34.3169 87.6069 34.3069 87.6169 34.3009L86.7829 33.0539ZM86.2089 33.7539C86.0909 34.0379 86.0599 34.3519 86.1199 34.6539L87.5909 34.3609C87.5889 34.3499 87.5909 34.3379 87.5949 34.3269L86.2089 33.7529V33.7539ZM86.1199 34.6539C86.1799 34.9559 86.3289 35.2339 86.5469 35.4519L87.6069 34.3919C87.5989 34.3829 87.5939 34.3719 87.5909 34.3619L86.1209 34.6539H86.1199ZM86.5469 35.4519C86.7649 35.6699 87.0429 35.8189 87.3449 35.8789L87.6379 34.4079C87.6259 34.4049 87.6159 34.3999 87.6079 34.3919L86.5469 35.4519ZM87.3449 35.8789C87.6469 35.9389 87.9609 35.9089 88.2449 35.7899L87.6719 34.4039C87.6609 34.4089 87.6489 34.4099 87.6379 34.4079L87.3449 35.8779V35.8789ZM88.2449 35.7899C88.5309 35.6719 88.7739 35.4719 88.9449 35.2159L87.6979 34.3829C87.6919 34.3929 87.6829 34.3999 87.6719 34.4039L88.2459 35.7899H88.2449ZM88.9449 35.2159C89.1169 34.9599 89.2079 34.6579 89.2079 34.3499H87.7079C87.7079 34.3619 87.7049 34.3729 87.6979 34.3829L88.9449 35.2159ZM89.2079 34.3419C89.2039 33.9319 89.0379 33.5399 88.7479 33.2499L87.6879 34.3099C87.7009 34.3229 87.7079 34.3399 87.7079 34.3579L89.2079 34.3419V34.3419ZM88.7479 33.2499C88.4589 32.9599 88.0679 32.7949 87.6579 32.7909L87.6409 34.2909C87.6589 34.2909 87.6759 34.2979 87.6879 34.3109L88.7479 33.2509V33.2499ZM81.8779 38.0199C81.9279 38.8729 82.3019 39.6729 82.9219 40.2589L83.9519 39.1679C83.6089 38.8449 83.4029 38.4029 83.3759 37.9329L81.8779 38.0209V38.0199ZM82.9219 40.2589C83.5429 40.8439 84.3639 41.1699 85.2179 41.1699V39.6699C84.7479 39.6699 84.2939 39.4899 83.9519 39.1679L82.9219 40.2579V40.2589ZM85.2179 41.1699C86.0709 41.1699 86.8919 40.8439 87.5129 40.2589L86.4839 39.1679C86.1419 39.4909 85.6889 39.6699 85.2179 39.6699V41.1699ZM87.5129 40.2589C88.1339 39.6729 88.5079 38.8729 88.5579 38.0209L87.0599 37.9329C87.0329 38.4029 86.8269 38.8449 86.4839 39.1679L87.5139 40.2579L87.5129 40.2589ZM87.8089 37.2269H82.6269V38.7269H87.8089V37.2269ZM55.7059 20.1619C55.7059 19.9389 55.7939 19.7249 55.9519 19.5679L54.8919 18.5069C54.4519 18.9459 54.2059 19.5409 54.2059 20.1619H55.7059ZM55.9519 19.5679C56.1099 19.4099 56.3239 19.3209 56.5469 19.3209V17.8209C55.9259 17.8209 55.3299 18.0679 54.8909 18.5069L55.9509 19.5669L55.9519 19.5679ZM56.5469 19.3209H74.0489V17.8209H56.5469V19.3209V19.3209ZM74.0489 19.3209C74.2719 19.3209 74.4859 19.4099 74.6439 19.5679L75.7039 18.5069C75.2649 18.0669 74.6699 17.8209 74.0489 17.8209V19.3209ZM74.6439 19.5679C74.8009 19.7249 74.8899 19.9389 74.8899 20.1619H76.3899C76.3899 19.5419 76.1429 18.9459 75.7039 18.5069L74.6439 19.5669V19.5679ZM74.8899 20.1619V32.4919H76.3899V20.1619H74.8899ZM74.8899 32.4919C74.8899 32.7139 74.8009 32.9279 74.6439 33.0859L75.7039 34.1459C76.1439 33.7079 76.3899 33.1119 76.3899 32.4909H74.8899V32.4919ZM74.6439 33.0859C74.4859 33.2439 74.2719 33.3319 74.0489 33.3319V34.8319C74.6689 34.8319 75.2649 34.5859 75.7039 34.1469L74.6439 33.0859ZM74.0489 33.3319H68.4759V34.8319H74.0489V33.3319ZM67.7259 34.0819V38.0559H69.2259V34.0819H67.7259V34.0819ZM69.0059 37.5249L65.0329 33.5519L63.9719 34.6119L67.9449 38.5859L69.0049 37.5259L69.0059 37.5249ZM64.5019 33.3319H56.5469V34.8319H64.5019V33.3319ZM56.5469 33.3319C56.3239 33.3319 56.1099 33.2439 55.9519 33.0859L54.8919 34.1459C55.3299 34.5859 55.9259 34.8319 56.5469 34.8319V33.3319ZM55.9519 33.0859C55.7939 32.9279 55.7059 32.7139 55.7059 32.4909H54.2059C54.2059 33.1119 54.4519 33.7079 54.8909 34.1469L55.9509 33.0859H55.9519ZM55.7059 32.4909V20.1619H54.2059V32.4919H55.7059V32.4909ZM40.5039 87.6199C40.8989 80.8659 41.8039 74.1989 44.8569 68.5129C47.8909 62.8629 53.0819 58.1139 62.2009 55.2689L61.7539 53.8379C52.2949 56.7879 46.7719 61.7769 43.5359 67.8029C40.3199 73.7929 39.4039 80.7379 39.0059 87.5319L40.5039 87.6199ZM54.9279 83.6719C52.7979 85.6959 52.0679 87.5769 51.1679 90.6639L52.6079 91.0839C53.4869 88.0719 54.1259 86.5039 55.9609 84.7589L54.9279 83.6719ZM94.7899 63.0949L92.8259 64.0369L93.4739 65.3899L95.4389 64.4479L94.7899 63.0949V63.0949ZM87.5829 80.1559C87.6069 80.7659 87.8169 81.354 88.1849 81.841L89.3819 80.9369C89.1979 80.6939 89.0939 80.4009 89.0819 80.0969L87.5819 80.1569L87.5829 80.1559ZM88.1849 81.841C88.5519 82.328 89.0599 82.6909 89.6399 82.8809L90.1069 81.4549C89.8179 81.3599 89.5649 81.1799 89.3819 80.9369L88.1849 81.841ZM89.6399 82.8809C90.2199 83.0709 90.8439 83.0779 91.4289 82.9029L90.9999 81.466C90.7079 81.553 90.3969 81.5499 90.1079 81.4549L89.6409 82.8799L89.6399 82.8809ZM91.4289 82.9029C92.0129 82.7279 92.5299 82.3779 92.9099 81.8999L91.7369 80.966C91.5469 81.205 91.2899 81.379 90.9979 81.466L91.4279 82.9029H91.4289ZM84.5829 76.2769L84.3249 77.6009L85.7969 77.8879L86.0549 76.563L84.5829 76.2769ZM84.3259 77.5959C84.1689 78.3729 84.3259 79.1809 84.7649 79.8419L86.0149 79.0119C85.7969 78.6829 85.7179 78.2809 85.7959 77.8929L84.3259 77.5959ZM84.7649 79.8419C85.2029 80.5019 85.8859 80.9619 86.6629 81.1199L86.9609 79.6499C86.5739 79.5709 86.2329 79.3419 86.0149 79.0129L84.7649 79.8419ZM86.6629 81.1199C87.4409 81.2769 88.2489 81.1199 88.9099 80.6799L88.0799 79.4299C87.7509 79.6499 87.3489 79.7279 86.9609 79.6499L86.6639 81.1199H86.6629ZM88.9099 80.6799C89.5699 80.2419 90.0299 79.5599 90.1869 78.7819L88.7169 78.4849C88.6389 78.8719 88.4099 79.2119 88.0799 79.4309L88.9099 80.6809V80.6799ZM90.1889 78.7759L90.7309 75.9859L89.2579 75.6989L88.7159 78.4899L90.1889 78.7769V78.7759ZM80.6039 73.7749C80.0819 74.3699 79.8189 75.1479 79.8709 75.9369L81.3679 75.8379C81.3419 75.4459 81.4729 75.0589 81.7319 74.7629L80.6039 73.7749ZM79.8709 75.9369C79.9239 76.7269 80.2869 77.4629 80.8829 77.9839L81.8709 76.8559C81.5749 76.5959 81.3939 76.2309 81.3679 75.8379L79.8709 75.938V75.9369ZM80.8829 77.9839C81.4779 78.5059 82.2559 78.7689 83.0449 78.7169L82.9459 77.2199C82.5539 77.2459 82.1659 77.1149 81.8709 76.8559L80.8829 77.9839ZM83.0449 78.7169C83.8349 78.6639 84.5709 78.3009 85.0919 77.7049L83.9639 76.7169C83.7039 77.0129 83.3379 77.1939 82.9459 77.2199L83.0459 78.7169H83.0449ZM85.0759 77.7229L87.4499 75.1809L86.3529 74.1569L83.9799 76.6999L85.0759 77.7229ZM94.5729 67.563L92.8929 68.4079L93.5669 69.7479L95.2469 68.9039L94.5729 67.5639V67.563ZM84.8429 56.9739C84.6829 56.6299 84.6549 56.2379 84.7649 55.8739L83.3299 55.4379C83.1119 56.1549 83.1669 56.9279 83.4839 57.6079L84.8439 56.9749L84.8429 56.9739ZM84.7629 55.8829C84.8829 55.5069 85.1459 55.1929 85.4959 55.0119L84.8059 53.6799C84.1019 54.0449 83.5729 54.6739 83.3329 55.4289L84.7629 55.8829V55.8829ZM85.4959 55.0119C85.8459 54.8299 86.2549 54.7939 86.6309 54.9129L87.0819 53.4829C86.3269 53.2439 85.5079 53.3149 84.8049 53.6799L85.4959 55.0119V55.0119ZM86.6349 54.9139L87.7809 55.2699L88.2259 53.8369L87.0789 53.4819L86.6349 54.9139V54.9139ZM110.205 90.2129L98.8019 93.3399L99.1979 94.7869L110.603 91.6579L110.206 90.2109L110.205 90.2129ZM95.0719 83.6729C93.4449 82.1209 92.7219 80.8189 91.8179 78.5189C90.9079 76.2059 89.8029 72.8349 87.4479 67.3679L86.0699 67.9609C88.4169 73.4099 89.4759 76.6609 90.4219 79.0679C91.3739 81.4879 92.1979 83.0039 94.0369 84.7579L95.0719 83.6729V83.6729ZM87.4019 67.2799C87.2039 66.9479 87.1419 66.5509 87.2319 66.1749L85.7719 65.8309C85.5939 66.5869 85.7169 67.383 86.1149 68.049L87.4029 67.2789L87.4019 67.2799ZM87.2319 66.1749C87.3199 65.7979 87.5519 65.4699 87.8769 65.2619L87.0669 63.9989C86.4139 64.4189 85.9489 65.0749 85.7709 65.8309L87.2309 66.1749H87.2319ZM87.8769 65.2619C88.2029 65.0519 88.5969 64.9779 88.9769 65.0549L89.2729 63.5849C88.5129 63.4309 87.7209 63.5799 87.0669 63.9989L87.8769 65.2609V65.2619ZM88.9769 65.0549C89.3559 65.1319 89.6909 65.3529 89.9099 65.6719L91.1459 64.8219C90.7059 64.1819 90.0349 63.7379 89.2729 63.5849L88.9769 65.0549V65.0549ZM89.8989 65.6559L93.3749 70.9899L94.6319 70.1699L91.1559 64.8369L89.8989 65.6569V65.6559ZM93.3619 70.9689C93.8039 71.6989 94.4619 72.3679 95.1499 72.8419C95.8099 73.2949 96.6429 73.6679 97.4229 73.5659C97.8459 73.5109 98.2489 73.3129 98.5429 72.9359C98.8249 72.5759 98.9599 72.1139 98.9939 71.6089C99.0619 70.6159 98.7619 69.2189 98.0259 67.3389L96.6289 67.8839C97.3429 69.7099 97.5419 70.8529 97.4979 71.5059C97.4759 71.8239 97.3999 71.9629 97.3619 72.0119C97.3359 72.0449 97.3059 72.0689 97.2279 72.0789C97.0059 72.1079 96.5609 71.9909 95.9999 71.6059C95.4699 71.2409 94.9669 70.7239 94.6449 70.1919L93.3619 70.9689V70.9689ZM98.0329 67.3559C97.0459 64.6299 95.1829 62.3089 92.7339 60.7559L91.9309 62.0219C94.0979 63.3969 95.7489 65.4519 96.6229 67.8669L98.0329 67.3559V67.3559ZM115.723 96.5079L114.256 91.1119L112.809 91.5059L114.275 96.9009L115.723 96.5079V96.5079ZM114.255 91.1099C114.19 90.8729 114.079 90.6509 113.928 90.4579L112.744 91.3789C112.774 91.4169 112.796 91.4609 112.809 91.5089L114.255 91.1089V91.1099ZM113.928 90.4579C113.777 90.2639 113.589 90.1019 113.376 89.9799L112.635 91.285C112.677 91.309 112.715 91.3409 112.744 91.3789L113.928 90.4579V90.4579ZM113.376 89.9799C113.162 89.8589 112.927 89.7809 112.683 89.7499L112.498 91.2399C112.546 91.2449 112.593 91.26 112.635 91.285L113.376 89.9799V89.9799ZM112.683 89.7499C112.439 89.7199 112.192 89.7389 111.955 89.8039L112.354 91.2499C112.401 91.2369 112.45 91.2329 112.498 91.2399L112.683 89.7499V89.7499ZM111.958 89.8029L97.3979 93.7679L97.7919 95.2149L112.352 91.2499L111.958 89.8029ZM97.3999 93.7669C96.9229 93.8959 96.5149 94.2089 96.2679 94.6369L97.5669 95.3869C97.6159 95.3029 97.6969 95.241 97.7909 95.216L97.4009 93.7669H97.3999ZM96.2679 94.6369C96.0199 95.0649 95.9529 95.5749 96.0799 96.0529L97.5299 95.6679C97.5039 95.5729 97.5179 95.4719 97.5669 95.3879L96.2669 94.6369H96.2679ZM96.0809 96.0579L97.5569 101.454L99.0029 101.058L97.5279 95.6619L96.0809 96.0579ZM98.3189 94.2949L97.7329 92.1349L96.2849 92.5279L96.8719 94.688L98.3189 94.2949V94.2949ZM97.7329 92.1369C97.7079 92.0409 97.7209 91.9389 97.7699 91.8519L96.4659 91.1119C96.2219 91.5409 96.1559 92.0489 96.2839 92.5249L97.7339 92.1369H97.7329ZM97.7699 91.8519C97.8189 91.7659 97.8999 91.7019 97.9959 91.6749L97.5859 90.2319C97.1119 90.3669 96.7089 90.6819 96.4659 91.1119L97.7699 91.8519V91.8519ZM97.9869 91.6769L110.432 88.3089L110.04 86.8609L97.5949 90.2299L97.9869 91.6769V91.6769ZM110.435 88.3069C110.481 88.2949 110.529 88.2909 110.576 88.2969L110.763 86.8089C110.52 86.7789 110.272 86.7959 110.036 86.8619L110.435 88.3079V88.3069ZM110.576 88.2969C110.624 88.3029 110.669 88.3179 110.711 88.3419L111.455 87.0399C111.242 86.9179 111.007 86.8399 110.763 86.8089L110.576 88.2969V88.2969ZM110.711 88.3419C110.752 88.3659 110.788 88.3969 110.817 88.4349L112.005 87.5189C111.855 87.3239 111.668 87.1609 111.455 87.0389L110.711 88.3419ZM110.817 88.4349C110.846 88.4729 110.868 88.5149 110.88 88.5619L112.329 88.1719C112.265 87.9349 112.155 87.7119 112.005 87.5189L110.817 88.4349V88.4349ZM110.881 88.563L111.467 90.7229L112.915 90.3299L112.328 88.1699L110.881 88.563V88.563ZM111.995 89.8029L97.3989 93.7679L97.7919 95.2149L112.388 91.2509L111.995 89.8029V89.8029ZM93.3679 70.9779C93.8759 71.7889 94.6419 72.538 95.4279 73.021C95.8229 73.264 96.2509 73.4579 96.6809 73.5469C97.1079 73.6359 97.5979 73.6309 98.0409 73.3909L97.3269 72.0709C97.2959 72.0889 97.1979 72.1219 96.9859 72.0779C96.7749 72.0349 96.5099 71.9249 96.2139 71.7439C95.6199 71.3779 95.0219 70.7939 94.6399 70.1829L93.3679 70.9779ZM87.7809 55.2959C96.9089 58.1409 102.105 62.8899 105.138 68.5389C108.191 74.2249 109.092 80.8919 109.478 87.6449L110.975 87.5599C110.588 80.7659 109.676 73.8199 106.46 67.8299C103.224 61.8029 97.6949 56.8149 88.2279 53.8639L87.7809 55.2959V55.2959ZM98.8309 90.6639C97.9309 87.5769 97.2009 85.6959 95.0719 83.6719L94.0399 84.7599C95.8749 86.5049 96.5139 88.0729 97.3919 91.0839L98.8319 90.6639H98.8309ZM81.1699 73.5189H64.5999V75.0189H81.1689V73.5189H81.1699ZM64.6009 73.5189H62.7339V75.0189H64.5999V73.5189H64.6009ZM64.6009 58.0409H84.1649V56.5409H64.5999V58.0409H64.6009Z" fill="#343961"/>
</g>
<defs>
<clipPath id="clip0">
<rect width="146" height="98" fill="white"/>
</clipPath>
</defs>
</svg>
