<svg width="146" height="98" viewBox="0 0 146 98" fill="none" xmlns="http://www.w3.org/2000/svg">
<g clip-path="url(#clip0)">
<path d="M74.8574 0C41.7203 0 14.8574 26.8629 14.8574 60C14.8574 74.3021 19.8615 87.4355 28.2143 97.7447H121.5C129.853 87.4355 134.857 74.3021 134.857 60C134.857 26.8629 107.994 0 74.8574 0Z" fill="#E2E4F5"/>
<rect x="35" y="96.4287" width="98" height="2" rx="1" fill="#6A73B5"/>
<rect y="96.4287" width="32" height="2" rx="1" fill="#6A73B5"/>
<rect x="137" y="96.4287" width="8" height="2" rx="1" fill="#6A73B5"/>
<path d="M18 57.9287V56.4287" stroke="#A6ACDC" stroke-width="2" stroke-linecap="round" stroke-linejoin="round"/>
<path d="M21.1826 59.2456L22.2436 58.1846" stroke="#A6ACDC" stroke-width="2" stroke-linecap="round" stroke-linejoin="round"/>
<path d="M22.5 62.4287H24" stroke="#A6ACDC" stroke-width="2" stroke-linecap="round" stroke-linejoin="round"/>
<path d="M21.1826 65.6118L22.2436 66.6728" stroke="#A6ACDC" stroke-width="2" stroke-linecap="round" stroke-linejoin="round"/>
<path d="M18 66.9287V68.4287" stroke="#A6ACDC" stroke-width="2" stroke-linecap="round" stroke-linejoin="round"/>
<path d="M14.8168 65.6118L13.7559 66.6728" stroke="#A6ACDC" stroke-width="2" stroke-linecap="round" stroke-linejoin="round"/>
<path d="M13.5 62.4287H12" stroke="#A6ACDC" stroke-width="2" stroke-linecap="round" stroke-linejoin="round"/>
<path d="M14.8168 59.2456L13.7559 58.1846" stroke="#A6ACDC" stroke-width="2" stroke-linecap="round" stroke-linejoin="round"/>
<path d="M139.015 40.4287V28.4287" stroke="#A6ACDC" stroke-width="2" stroke-linecap="round" stroke-linejoin="round"/>
<path d="M133 34.4424H145" stroke="#A6ACDC" stroke-width="2" stroke-linecap="round" stroke-linejoin="round"/>
<path d="M118.509 75.4287V68.4287" stroke="#A6ACDC" stroke-width="2" stroke-linecap="round" stroke-linejoin="round"/>
<path d="M115 71.9365H122" stroke="#A6ACDC" stroke-width="2" stroke-linecap="round" stroke-linejoin="round"/>
<g clip-path="url(#clip1)">
<path d="M110.458 53.262C110.15 53.262 109.842 53.262 109.533 52.9537L101.825 47.712C101.208 47.4037 100.283 47.0954 99.3583 47.0954H79.625C77.1583 47.0954 75 44.937 75 42.4704V27.0537C75 24.587 77.1583 22.4287 79.625 22.4287H107.375C109.842 22.4287 112 24.587 112 27.0537V51.7204C112 52.337 111.692 52.9537 111.075 52.9537C111.075 53.262 110.767 53.262 110.458 53.262ZM79.625 25.512C78.7 25.512 78.0833 26.1287 78.0833 27.0537V42.4704C78.0833 43.3954 78.7 44.012 79.625 44.012H99.3583C100.9 44.012 102.442 44.3204 103.675 45.2454L108.917 48.9454V27.0537C108.917 26.1287 108.3 25.512 107.375 25.512H79.625Z" fill="#6A73B5"/>
<path d="M39.5417 59.4286C39.2333 59.4286 38.925 59.4285 38.925 59.1202C38.3083 59.1202 38 58.5035 38 57.8869V33.2202C38 30.7535 40.1583 28.5952 42.625 28.5952H67.2917C68.2167 28.5952 68.8333 29.2119 68.8333 30.1369C68.8333 31.0619 68.2167 31.6785 67.2917 31.6785H42.625C41.7 31.6785 41.0833 32.2952 41.0833 33.2202V55.1119L46.325 51.7202C47.5583 50.7952 49.1 50.1785 50.6417 50.1785H76.5417C77.4667 50.1785 78.0833 50.7952 78.0833 51.7202C78.0833 52.6452 77.4667 53.2619 76.5417 53.2619H50.6417C49.7167 53.2619 48.7917 53.5702 48.175 54.1869L40.4667 59.4286C40.1583 59.4286 39.85 59.4286 39.5417 59.4286Z" fill="#6A73B5"/>
<path d="M54.958 77.9287C49.7163 77.9287 45.708 73.9204 45.708 68.6787C45.708 63.437 49.7163 59.4287 54.958 59.4287C60.1997 59.4287 64.208 63.437 64.208 68.6787C64.208 73.9204 60.1997 77.9287 54.958 77.9287ZM54.958 62.512C51.5663 62.512 48.7913 65.287 48.7913 68.6787C48.7913 72.0704 51.5663 74.8454 54.958 74.8454C58.3497 74.8454 61.1247 72.0704 61.1247 68.6787C61.1247 65.287 58.3497 62.512 54.958 62.512Z" fill="#6A73B5"/>
<path d="M70.375 96.4289C69.45 96.4289 71 96.429 68.8333 96.429V88.7205C68.8333 86.2539 66.675 84.0955 64.2083 84.0955H45.7083C43.2417 84.0955 41.0833 86.2539 41.0833 88.7205V96.4289C40 96.4289 40.4667 96.4289 39.5417 96.4289C38.6167 96.4289 39.5 96.4289 38 96.4289V88.7205C38 84.4039 41.3917 81.0122 45.7083 81.0122H64.2083C68.525 81.0122 71.9167 84.4039 71.9167 88.7205V96.429C70.5 96.429 71.3 96.4289 70.375 96.4289Z" fill="#6A73B5"/>
<path d="M95.042 77.9287C89.8003 77.9287 85.792 73.9204 85.792 68.6787C85.792 63.437 89.8003 59.4287 95.042 59.4287C100.284 59.4287 104.292 63.437 104.292 68.6787C104.292 73.9204 100.284 77.9287 95.042 77.9287ZM95.042 62.512C91.6503 62.512 88.8753 65.287 88.8753 68.6787C88.8753 72.0704 91.6503 74.8454 95.042 74.8454C98.4337 74.8454 101.209 72.0704 101.209 68.6787C101.209 65.287 98.4337 62.512 95.042 62.512Z" fill="#6A73B5"/>
<path d="M110.375 96.4289C109.45 96.4289 111 96.429 108.833 96.429V88.7205C108.833 86.2539 106.675 84.0955 104.208 84.0955H85.7083C83.2417 84.0955 81.0833 86.2539 81.0833 88.7205V96.4289C80 96.4289 80.4667 96.4289 79.5417 96.4289C78.6167 96.4289 79.5 96.4289 78 96.4289V88.7205C78 84.4039 81.3917 81.0122 85.7083 81.0122H104.208C108.525 81.0122 111.917 84.4039 111.917 88.7205V96.429C110.5 96.429 111.3 96.4289 110.375 96.4289Z" fill="#6A73B5"/>
</g>
</g>
<defs>
<clipPath id="clip0">
<rect width="146" height="98" fill="white"/>
</clipPath>
<clipPath id="clip1">
<rect width="74" height="74" fill="white" transform="translate(38 22.4287)"/>
</clipPath>
</defs>
</svg>
