<svg width="10" height="7" viewBox="0 0 10 7" fill="none" xmlns="http://www.w3.org/2000/svg">
<path d="M3.9905 6.65343C3.90299 6.6536 3.8163 6.6365 3.73542 6.60309C3.65453 6.56969 3.58104 6.52064 3.51916 6.45876L0.691162 3.63009C0.627447 3.56864 0.576608 3.49511 0.541613 3.4138C0.506617 3.33249 0.488165 3.24502 0.487334 3.15651C0.486503 3.06799 0.503309 2.98019 0.536772 2.89824C0.570234 2.81628 0.619683 2.74181 0.682234 2.67917C0.744784 2.61654 0.819183 2.56698 0.901089 2.5334C0.982995 2.49982 1.07077 2.48289 1.15929 2.4836C1.24781 2.48431 1.3353 2.50263 1.41666 2.53752C1.49802 2.5724 1.57162 2.62313 1.63316 2.68676L3.98983 5.04343L8.23316 0.801425C8.35817 0.676332 8.52775 0.60602 8.70459 0.605957C8.88144 0.605895 9.05107 0.676087 9.17616 0.801092C9.30126 0.926097 9.37157 1.09568 9.37163 1.27252C9.37169 1.44937 9.3015 1.619 9.1765 1.74409L4.46183 6.45876C4.39995 6.52064 4.32646 6.56969 4.24557 6.60309C4.16469 6.6365 4.07801 6.6536 3.9905 6.65343Z" fill="#0DD39C"/>
</svg>
