<svg width="26" height="26" viewBox="0 0 22 21" fill="none" xmlns="http://www.w3.org/2000/svg">
<path fill-rule="evenodd" clip-rule="evenodd" d="M3.71708 0.768555C3.57398 0.768509 3.43384 0.807061 3.31309 0.87969C3.19233 0.95232 3.09597 1.05602 3.0353 1.17862L0.777767 5.74768C0.722405 5.86013 0.699058 5.9843 0.710041 6.10791H0.707031V7.45343C0.707031 8.19951 1.04717 8.91428 1.6552 9.44109C2.26021 9.96791 3.08346 10.2641 3.94132 10.2641H4.39283C5.23716 10.2691 6.05304 9.97564 6.68046 9.44109C6.92729 9.22752 7.12896 8.98262 7.28247 8.71779C7.47361 8.47574 7.78365 8.47574 7.96274 8.69785C8.11776 8.97123 8.32395 9.22182 8.57529 9.44109C9.18181 9.96791 10.0051 10.2641 10.8629 10.2641H11.6711C12.5154 10.2691 13.3313 9.97564 13.9588 9.44109C14.1935 9.23606 14.3892 9.00398 14.5397 8.75196C14.7368 8.46007 15.0815 8.46719 15.2621 8.73772C15.4141 8.99543 15.6128 9.23321 15.8521 9.44109C16.4586 9.96791 17.2818 10.2641 18.1397 10.2641H18.5431C19.3874 10.2691 20.2033 9.97564 20.8307 9.44109C21.4372 8.91428 21.7773 8.19951 21.7773 7.45343V6.10791H21.7743C21.7853 5.9843 21.762 5.86013 21.7066 5.74768L19.4491 1.17862C19.3884 1.05602 19.292 0.95232 19.1713 0.87969C19.0505 0.807061 18.9104 0.768509 18.7673 0.768555H3.71708ZM2.21205 19.2783V11.7733C4.00002 12.3315 6.13264 12.0823 7.59702 11.0101C9.55054 12.4397 12.9383 12.4397 14.8904 11.0101C16.3623 12.0866 18.4904 12.3315 20.2723 11.7591V19.2783C20.2723 19.6559 20.1138 20.0181 19.8315 20.2851C19.5493 20.5521 19.1665 20.7021 18.7673 20.7021H16.8785V15.3058C16.8782 15.2641 16.8686 15.223 16.8505 15.185C16.8323 15.1469 16.806 15.1129 16.7731 15.0851C16.703 15.0255 16.6116 14.993 16.5173 14.994H13.5193C13.4249 14.993 13.3336 15.0255 13.2634 15.0851C13.2306 15.1129 13.2042 15.1469 13.1861 15.185C13.1679 15.223 13.1584 15.2641 13.1581 15.3058V20.7021H3.71708C3.31792 20.7021 2.93511 20.5521 2.65286 20.2851C2.37062 20.0181 2.21205 19.6559 2.21205 19.2783ZM4.4726 16.0889V14.2949C4.4726 14.1061 4.55188 13.925 4.693 13.7915C4.83413 13.658 5.02553 13.583 5.22511 13.583H9.76124C9.96082 13.583 10.1522 13.658 10.2934 13.7915C10.4345 13.925 10.5138 14.1061 10.5138 14.2949V16.0889C10.5138 16.2778 10.4345 16.4588 10.2934 16.5923C10.1522 16.7259 9.96082 16.8009 9.76124 16.8009H5.22511C5.02553 16.8009 4.83413 16.7259 4.693 16.5923C4.55188 16.4588 4.4726 16.2778 4.4726 16.0889Z" fill="currentColor"/>
</svg>
