<svg width="55" height="59" viewBox="0 0 55 59" fill="none" xmlns="http://www.w3.org/2000/svg">
<path d="M53.8812 24.3388C53.4186 24.5469 53.1805 24.4725 52.6052 24.2925C51.888 24.0684 50.8044 23.7296 49.3981 24.3618C47.9918 24.994 47.526 26.0294 47.2177 26.7146C46.9703 27.2642 46.8679 27.4917 46.4054 27.6997C45.9428 27.9077 45.7046 27.8331 45.1297 27.6533C44.4124 27.4291 43.3287 27.0904 41.9228 27.7225L43.0405 30.2086C43.5031 30.0007 43.7411 30.0752 44.3161 30.255C44.7264 30.3833 45.2566 30.5491 45.8986 30.5491C46.3787 30.5491 46.9214 30.4563 47.523 30.1859C48.9294 29.5537 49.3951 28.5183 49.7035 27.8331C49.9509 27.2835 50.0533 27.056 50.5158 26.848C50.9785 26.64 51.2167 26.7145 51.7918 26.8943C52.509 27.1184 53.5926 27.4572 54.9988 26.825L53.8812 24.3388Z" fill="#00CB76"/>
<path d="M31.1116 0.241455C30.8457 0.791621 30.561 0.922462 29.9937 1.18305C29.2585 1.52078 28.2515 1.98336 27.5593 3.41552C26.8673 4.84768 27.1304 5.92402 27.3227 6.70997C27.4709 7.31638 27.5454 7.62077 27.2794 8.17103C27.0136 8.72101 26.7289 8.85176 26.1617 9.11226C25.4265 9.4499 24.4195 9.91239 23.7274 11.3445L26.1817 12.5307C26.4475 11.9807 26.7322 11.8499 27.2994 11.5894C28.0346 11.2518 29.0417 10.7893 29.7338 9.35713C30.4258 7.92497 30.1627 6.84863 29.9704 6.06268C29.8222 5.45627 29.7477 5.15188 30.0137 4.60172C30.2796 4.05155 30.5643 3.92071 31.1316 3.66012C31.8668 3.32239 32.8737 2.85981 33.5659 1.42765L31.1116 0.241455Z" fill="#8BBBFF"/>
<g filter="url(#filter0_d)">
<path d="M32.3863 22.9593C29.5578 20.0308 26.5175 17.3068 23.281 14.8045L23.183 14.7287C22.1254 13.9108 20.5786 14.3409 20.095 15.5873L19.5492 16.9939C19.4191 17.3292 19.3932 17.6959 19.4751 18.0461L19.5578 18.4002C19.7024 19.0186 19.3926 19.6535 18.8161 19.9202C18.5014 20.0658 18.2554 20.3278 18.13 20.6511L17.5301 22.1971C17.4003 22.5315 17.3751 22.8973 17.4577 23.2463L17.4879 23.3735C17.6475 24.0478 17.3529 24.7479 16.7592 25.1053C16.4567 25.2873 16.2233 25.5647 16.0956 25.8938L15.4547 27.5455C15.3625 27.7829 15.3166 28.0357 15.3193 28.2903L15.3281 29.1139C15.3335 29.6186 15.0806 30.0911 14.6577 30.3665C14.3986 30.5353 14.199 30.7811 14.0872 31.0694L13.4443 32.7259C13.3402 32.9942 13.2952 33.2817 13.3124 33.5689L13.3338 33.9263C13.3713 34.5527 13.1054 35.159 12.6191 35.5557C12.3574 35.7694 12.1555 36.0473 12.0332 36.3622L8.00001 46.7586L18.5174 43.1866C18.8137 43.086 19.0416 42.8462 19.1271 42.5452C19.2568 42.0887 19.7027 41.7974 20.1728 41.8621L21.3018 42.0175C21.6097 42.0599 21.9233 42.0299 22.2176 41.9299L23.686 41.4312C24.0014 41.3241 24.2839 41.1378 24.5066 40.8902C24.9253 40.4245 25.5428 40.189 26.1653 40.2576L26.4611 40.2902C26.7519 40.3222 27.0462 40.2901 27.3233 40.196L29.0335 39.6152C29.3427 39.5102 29.6034 39.2965 29.767 39.0138C30.0482 38.5279 30.601 38.2671 31.1549 38.359L31.7193 38.4527C32.0445 38.5066 32.3779 38.4794 32.69 38.3734L34.4112 37.7888C34.7223 37.6832 34.9648 37.4361 35.0646 37.123C35.2271 36.6135 35.751 36.3115 36.2734 36.4264L37.0565 36.5987C37.3976 36.6737 37.7528 36.654 38.0835 36.5417L40.4675 35.7321C41.3241 35.4412 41.6648 34.4117 41.1508 33.6672C38.5186 29.8538 35.5892 26.2757 32.3863 22.9593Z" fill="url(#paint0_linear)"/>
</g>
<path d="M33.6564 6.75684H36.3823V9.48268H33.6564V6.75684Z" fill="#1F7099"/>
<path d="M40.4706 0.396484H43.1964V3.12233H40.4706V0.396484Z" fill="#1F7099"/>
<path d="M44.5598 18.1145H47.2856V20.8098H44.5598V18.1145Z" fill="#284866"/>
<path d="M51.3745 14.0259H54.1004V16.7212H51.3745V14.0259Z" fill="#284866"/>
<path d="M18.6641 7.21118H21.39V9.86688H18.6641V7.21118Z" fill="#1F7099"/>
<path d="M21.3898 0.396484H24.1156V3.05218H21.3898V0.396484Z" fill="#1F7099"/>
<path d="M45.9225 34.5398H48.6484V37.1955H45.9225V34.5398Z" fill="#284866"/>
<path d="M51.3745 30.3809H54.1004V33.0365H51.3745V30.3809Z" fill="#284866"/>
<path d="M29.1325 26.1349L27.1817 28.0385C24.4568 25.1836 21.4992 22.5486 18.3254 20.1472L19.3494 17.5085C22.8694 20.1163 26.1359 22.9975 29.1325 26.1349Z" fill="#FFDD55"/>
<path d="M25.1737 29.9982L23.2229 31.9017C21.0486 29.5966 18.7344 27.4214 16.2929 25.3861L17.3305 22.7102C20.1055 24.9708 22.7241 27.405 25.1737 29.9982Z" fill="#FFDD55"/>
<path d="M21.3024 33.7753L19.3525 35.6789C17.7197 33.9298 16.0206 32.2425 14.2588 30.6261L15.3146 27.9048C17.3944 29.7711 19.3934 31.7319 21.3024 33.7753Z" fill="#FFDD55"/>
<path d="M17.5785 37.4099L15.6277 39.3144C14.5174 38.1441 13.3798 36.9983 12.2195 35.8816L13.2862 33.1331C14.7527 34.516 16.1856 35.9425 17.5785 37.4099Z" fill="#FFDD55"/>
<path d="M37.5783 36.7138L34.9061 37.6206C32.5918 34.2014 30.0114 31.0022 27.1819 28.0383L29.1327 26.1348C32.2466 29.3931 35.0678 32.9257 37.5783 36.7138Z" fill="#FFDD55"/>
<path d="M32.2142 38.5347L29.5129 39.4524C27.5712 36.8047 25.4705 34.2833 23.2226 31.9018L25.1734 29.9983C27.7057 32.6787 30.0581 35.5299 32.2142 38.5347Z" fill="#FFDD55"/>
<path d="M26.9029 40.3392L24.1671 41.2678C22.6379 39.3425 21.0315 37.4771 19.3533 35.6789L21.3032 33.7754C23.2685 35.8779 25.1375 38.0695 26.9029 40.3392Z" fill="#FFDD55"/>
<path d="M21.77 42.0818L18.9906 43.0258C17.9012 41.7647 16.779 40.5262 15.6278 39.3141L17.5786 37.4097C19.0215 38.928 20.4207 40.4881 21.77 42.0818Z" fill="#FFDD55"/>
<path d="M54.1584 2.38549C53.774 2.75984 53.7513 3.03333 53.7013 3.63211C53.6341 4.42896 53.5423 5.52021 52.4274 6.60509C51.3126 7.68907 50.2195 7.75086 49.4208 7.79538C48.8202 7.829 48.5468 7.84444 48.1615 8.21879C47.7772 8.59223 47.7544 8.86573 47.7045 9.46541C47.6372 10.2623 47.5455 11.3535 46.4306 12.4375C45.3157 13.5215 44.2227 13.5833 43.424 13.6278C42.8243 13.6614 42.5499 13.6768 42.1655 14.0512C41.7812 14.4246 41.7585 14.6981 41.7076 15.2978C41.6413 16.0947 41.5495 17.1859 40.4346 18.2699C39.3198 19.3539 38.2267 19.4156 37.428 19.4602C36.8283 19.4938 36.5539 19.5092 36.1696 19.8836L35.8616 19.5674L45.391 9.86684L53.8222 2.03931L54.1584 2.38549Z" fill="#E69768"/>
<path d="M53.8219 2.03947L35.8613 19.5676L34.2685 17.9293C35.3834 16.8453 36.4764 16.7836 37.2751 16.739C37.8757 16.7054 38.1492 16.69 38.5335 16.3156C38.9179 15.9422 38.9415 15.6687 38.9915 15.0699C39.0587 14.2731 39.1505 13.1818 40.2644 12.0969C41.3793 11.0129 42.4733 10.9512 43.271 10.9066C43.8716 10.873 44.146 10.8576 44.5295 10.4832C44.9147 10.1098 44.9374 9.83629 44.9874 9.23751C45.0547 8.44066 45.1464 7.34941 46.2613 6.26453C47.3762 5.18055 48.4692 5.11876 49.2679 5.07424C49.8676 5.04062 50.142 5.02518 50.5263 4.65083C50.9107 4.27739 50.9343 4.00389 50.9843 3.40421C51.0515 2.60735 51.1433 1.51611 52.2581 0.432129L53.8219 2.03947Z" fill="#E69768"/>
<defs>
<filter id="filter0_d" x="1.52588e-05" y="10.3101" width="49.3927" height="48.4485" filterUnits="userSpaceOnUse" color-interpolation-filters="sRGB">
<feFlood flood-opacity="0" result="BackgroundImageFix"/>
<feColorMatrix in="SourceAlpha" type="matrix" values="0 0 0 0 0 0 0 0 0 0 0 0 0 0 0 0 0 0 127 0" result="hardAlpha"/>
<feOffset dy="4"/>
<feGaussianBlur stdDeviation="4"/>
<feColorMatrix type="matrix" values="0 0 0 0 0.991667 0 0 0 0 0.676005 0 0 0 0 0.0619792 0 0 0 0.6 0"/>
<feBlend mode="normal" in2="BackgroundImageFix" result="effect1_dropShadow"/>
<feBlend mode="normal" in="SourceGraphic" in2="effect1_dropShadow" result="shape"/>
</filter>
<linearGradient id="paint0_linear" x1="24.6958" y1="14.3101" x2="24.6958" y2="46.7586" gradientUnits="userSpaceOnUse">
<stop stop-color="#FFC960"/>
<stop offset="1" stop-color="#FFA800"/>
</linearGradient>
</defs>
</svg>
