<svg width="8" height="10" viewBox="0 0 8 10" fill="none" xmlns="http://www.w3.org/2000/svg">
<path d="M5.346 2.32446H2.6416L4.00009 4.23853L5.346 2.32446Z" fill="#E2E4F5"/>
<path d="M7.16981 1.60156V0.78125H8V0H0V0.78125H0.830189V1.60156C0.830189 1.67867 0.852245 1.75408 0.893566 1.81824L2.94149 4.99814L0.857491 8.17918C0.815113 8.24389 0.792453 8.32025 0.792453 8.39844V9.21875H0V10H8V9.21875H7.16981V8.39844C7.16981 8.32133 7.14775 8.24592 7.10643 8.18176L5.0573 5L7.10643 1.81824C7.14775 1.75408 7.16981 1.67867 7.16981 1.60156ZM6.41509 1.48328L4.28979 4.78332C4.20528 4.91453 4.20528 5.08547 4.28979 5.21668L6.41509 8.51672V9.21875H6.19513L4 5.78125L1.78617 9.21875H1.54717V8.5184L3.70855 5.21926C3.79464 5.08781 3.79532 4.91547 3.71021 4.78334L1.58491 1.48328V0.78125H6.41509V1.48328Z" fill="#E2E4F5"/>
</svg>
