<svg width="110" height="110" viewBox="0 0 110 110" fill="none" xmlns="http://www.w3.org/2000/svg">
<path d="M100 55C100 30.1472 79.8528 10 55 10C30.1472 10 10 30.1472 10 55C10 79.8528 30.1472 100 55 100C79.8528 100 100 79.8528 100 55Z" fill="#E6ECF5"/>
<path d="M76.811 32.7954C76.5593 32.3062 76.057 32 75.5078 32H63.7891C63.3155 32 62.8721 32.2289 62.5975 32.6137L55.0018 43.4434L47.4025 32.6137C47.1279 32.2289 46.6845 32 46.2109 32H34.4922C33.9429 32 33.4407 32.3062 33.189 32.7954C32.9387 33.2832 32.9815 33.8697 33.3006 34.3175L47.0406 53.7317C47.3238 54.128 47.773 54.344 48.2337 54.344C48.4626 54.344 48.6943 54.2896 48.9103 54.1781C51.8609 52.6377 55.5154 52.3156 58.6995 53.217C58.7296 53.2279 58.7512 53.2522 58.7823 53.2611C59.5419 53.48 60.3044 53.7847 61.1112 54.1895C61.3215 54.2939 61.5461 54.344 61.7664 54.344C62.227 54.344 62.6762 54.1266 62.9595 53.7317L76.6994 34.3174C77.0184 33.8697 77.0613 33.2832 76.811 32.7954Z" fill="url(#paint0_linear)"/>
<path d="M55 82C46.1151 82 38.8867 74.7716 38.8867 65.8868C38.8867 59.8686 42.2069 54.3868 47.5514 51.5817C51.1906 49.682 55.6738 49.2843 59.5977 50.4172C59.8936 50.5042 61.2619 50.9885 62.4243 51.5688C67.7931 54.3868 71.1133 59.8686 71.1133 65.8868C71.1133 74.7716 63.8849 82 55 82Z" fill="url(#paint1_linear)"/>
<path d="M59.3586 74.2911L54.9355 71.905L50.4622 74.1952C49.9701 74.4541 49.3679 74.4026 48.9201 74.0679C48.4724 73.7346 48.2535 73.1767 48.3536 72.6288L49.2563 67.685L45.6957 64.1401C45.2994 63.7468 45.1621 63.1631 45.3409 62.6338C45.5183 62.106 45.9804 61.724 46.534 61.6496L51.515 60.9802L53.7867 56.4983C54.0385 56.0005 54.5334 55.7158 55.1085 55.6958C55.6664 55.7016 56.1714 56.0233 56.4131 56.527L58.5889 61.056L63.5542 61.8313C64.105 61.9171 64.5599 62.3091 64.7258 62.8412C64.8932 63.3733 64.743 63.9541 64.3396 64.339L60.7032 67.8079L61.5 72.7703C61.5887 73.3211 61.3569 73.8733 60.9021 74.1965C60.4441 74.5201 59.8488 74.5556 59.3586 74.2911Z" fill="url(#paint2_linear)"/>
<path d="M53.1029 15.6793C53.2489 15.0598 53.564 14.4932 54.013 14.0431C54.462 13.593 55.0271 13.2771 55.6451 13.1307L60.7523 11.9879C60.8425 11.9617 60.9217 11.9068 60.9781 11.8316C61.0345 11.7564 61.065 11.6648 61.065 11.5707C61.065 11.4766 61.0345 11.385 60.9781 11.3098C60.9217 11.2346 60.8425 11.1798 60.7523 11.1536L55.6451 10.0107C55.0271 9.86438 54.462 9.54846 54.013 9.09834C53.564 8.64821 53.2489 8.08167 53.1029 7.46214L51.9629 2.35357C51.9465 2.25479 51.8957 2.16503 51.8195 2.10029C51.7433 2.03554 51.6467 2 51.5468 2C51.4469 2 51.3503 2.03554 51.2741 2.10029C51.1979 2.16503 51.1471 2.25479 51.1307 2.35357L49.9907 7.46214C49.8447 8.08167 49.5296 8.64821 49.0806 9.09834C48.6316 9.54846 48.0665 9.86438 47.4485 10.0107L42.3527 11.1536C42.2542 11.17 42.1646 11.2209 42.1 11.2973C42.0354 11.3737 42 11.4706 42 11.5707C42 11.6709 42.0354 11.7677 42.1 11.8441C42.1646 11.9205 42.2542 11.9715 42.3527 11.9879L47.4485 13.1307C48.0665 13.2771 48.6316 13.593 49.0806 14.0431C49.5296 14.4932 49.8447 15.0598 49.9907 15.6793L51.1307 20.7879C51.1471 20.8866 51.1979 20.9764 51.2741 21.0411C51.3503 21.1059 51.4469 21.1414 51.5468 21.1414C51.6467 21.1414 51.7433 21.1059 51.8195 21.0411C51.8957 20.9764 51.9465 20.8866 51.9629 20.7879L53.1029 15.6793Z" fill="#A6ACDC"/>
<path d="M14.6267 54.68L18.6167 53.3429C18.6908 53.3184 18.7551 53.2709 18.8002 53.2071C18.8454 53.1433 18.8689 53.0667 18.8675 52.9886C18.8672 52.9108 18.843 52.835 18.7981 52.7716C18.7532 52.7082 18.6898 52.6602 18.6167 52.6343L15.3335 51.4914C15.1135 51.4172 14.9136 51.2929 14.7494 51.1284C14.5853 50.9638 14.4613 50.7634 14.3873 50.5429L13.2473 47.2514C13.2214 47.1781 13.1736 47.1146 13.1103 47.0696C13.047 47.0246 12.9714 47.0003 12.8939 47C12.8195 47.0101 12.75 47.0429 12.6949 47.0941C12.6398 47.1452 12.6018 47.2121 12.5861 47.2857L11.4461 50.5771C11.3717 50.7994 11.2463 51.001 11.0799 51.1657C10.9136 51.3305 10.711 51.4538 10.4885 51.5257L7.20526 52.6686C7.14418 52.6998 7.09277 52.7472 7.0566 52.8056C7.02044 52.864 7.00089 52.9313 7.00006 53C6.9986 53.0782 7.02217 53.1548 7.0673 53.2185C7.11244 53.2823 7.17677 53.3299 7.25086 53.3543L10.5341 54.4971C10.757 54.5718 10.9595 54.6974 11.1257 54.864C11.2919 55.0306 11.4172 55.2337 11.4917 55.4571L12.5861 58.7143C12.6104 58.7886 12.6579 58.8531 12.7215 58.8983C12.7851 58.9436 12.8615 58.9672 12.9395 58.9657C13.017 58.9654 13.0926 58.9411 13.1559 58.8961C13.2192 58.8511 13.267 58.7876 13.2929 58.7143L14.6267 54.68Z" fill="#A6ACDC"/>
<path d="M96.7028 80.6709L100.704 79.3338C100.777 79.3072 100.839 79.259 100.884 79.1957C100.928 79.1323 100.951 79.0568 100.951 78.9795C100.951 78.9021 100.928 78.8267 100.884 78.7633C100.839 78.6999 100.777 78.6517 100.704 78.6252L97.421 77.4823C97.2002 77.4097 96.9994 77.286 96.8351 77.1212C96.6707 76.9564 96.5473 76.7552 96.4748 76.5338L95.3348 73.2423C95.3058 73.1707 95.2561 73.1094 95.1922 73.0662C95.1282 73.0231 95.0528 73 94.9757 73C94.8986 73 94.8233 73.0231 94.7593 73.0662C94.6953 73.1094 94.6457 73.1707 94.6166 73.2423L93.4766 76.5338C93.4026 76.7543 93.2786 76.9547 93.1145 77.1193C92.9503 77.2838 92.7504 77.4081 92.5304 77.4823L89.2472 78.6252C89.1748 78.6517 89.1122 78.6999 89.0679 78.7633C89.0237 78.8267 89 78.9021 89 78.9795C89 79.0568 89.0237 79.1323 89.0679 79.1957C89.1122 79.259 89.1748 79.3072 89.2472 79.3338L92.5304 80.4766C92.7521 80.5512 92.9532 80.6769 93.1176 80.8437C93.2819 81.0104 93.4049 81.2135 93.4766 81.4366L94.6166 84.728C94.6457 84.7997 94.6953 84.861 94.7593 84.9041C94.8233 84.9473 94.8986 84.9704 94.9757 84.9704C95.0528 84.9704 95.1282 84.9473 95.1922 84.9041C95.2561 84.861 95.3058 84.7997 95.3348 84.728L96.7028 80.6709Z" fill="#A6ACDC"/>
<defs>
<linearGradient id="paint0_linear" x1="55" y1="54.3439" x2="55" y2="32" gradientUnits="userSpaceOnUse">
<stop stop-color="#FFEDAD"/>
<stop offset="1" stop-color="#FFFFE5"/>
</linearGradient>
<linearGradient id="paint1_linear" x1="55" y1="82" x2="55" y2="49.7867" gradientUnits="userSpaceOnUse">
<stop stop-color="#FD5900"/>
<stop offset="1" stop-color="#FFDE00"/>
</linearGradient>
<linearGradient id="paint2_linear" x1="55.0285" y1="74.467" x2="55.0285" y2="55.6959" gradientUnits="userSpaceOnUse">
<stop stop-color="#FFEDAD"/>
<stop offset="1" stop-color="#FFFFE5"/>
</linearGradient>
</defs>
</svg>
