<svg width="30" height="30" viewBox="0 0 30 30" fill="none" xmlns="http://www.w3.org/2000/svg">
<path d="M15 30C23.2843 30 30 23.2843 30 15C30 6.71573 23.2843 0 15 0C6.71573 0 0 6.71573 0 15C0 23.2843 6.71573 30 15 30Z" fill="white"/>
<path d="M18.375 13.0712V10.6463C18.7794 10.4708 19.1423 10.4483 19.4348 10.5883C19.8471 10.7858 20.0625 11.2605 20.0625 11.6267C20.0625 12.309 19.5439 12.601 18.375 13.0723V13.0712ZM9.9375 11.6267C9.9375 11.2611 10.1529 10.7858 10.5653 10.5883C10.8566 10.4483 11.22 10.4708 11.625 10.6463V13.0718C10.4561 12.601 9.9375 12.309 9.9375 11.6267ZM19.9207 9.57415C19.6052 9.42283 19.0747 9.27658 18.375 9.45996V9.09546C18.375 9.02087 18.3454 8.94933 18.2926 8.89659C18.2399 8.84384 18.1683 8.81421 18.0938 8.81421H11.9062C11.8317 8.81421 11.7601 8.84384 11.7074 8.89659C11.6546 8.94933 11.625 9.02087 11.625 9.09546V9.4594C10.9253 9.27658 10.3948 9.4234 10.0792 9.57415C9.204 9.99208 8.8125 10.9067 8.8125 11.6267C8.8125 13.1595 10.1839 13.708 11.2858 14.1478C11.4546 14.2153 11.625 14.284 11.7909 14.3548C11.9519 14.8467 12.2236 15.2952 12.5849 15.6657C12.9463 16.0363 13.3878 16.3191 13.8756 16.4923C14.2119 16.611 14.4375 16.9283 14.4375 17.2855V19.0573C14.4375 19.2941 14.3908 19.3819 14.3121 19.4342L12.9564 20.3376C12.8735 20.3929 12.8106 20.4734 12.777 20.5673C12.7434 20.6611 12.7408 20.7632 12.7697 20.8586C12.7986 20.954 12.8574 21.0376 12.9374 21.097C13.0174 21.1565 13.1144 21.1886 13.2141 21.1886H16.7854C16.885 21.1886 16.982 21.1565 17.0621 21.097C17.1421 21.0376 17.2009 20.954 17.2297 20.8586C17.2586 20.7632 17.2561 20.6611 17.2224 20.5673C17.1888 20.4734 17.1259 20.3929 17.043 20.3376L15.6874 19.4342C15.6489 19.4085 15.6173 19.3737 15.5956 19.3329C15.5738 19.2921 15.5624 19.2465 15.5625 19.2002V17.2855C15.5625 16.9283 15.7875 16.611 16.1244 16.4923C16.6122 16.3191 17.0537 16.0363 17.4151 15.6657C17.7764 15.2952 18.0481 14.8467 18.2091 14.3548C18.375 14.284 18.5454 14.2153 18.7142 14.1478C19.8161 13.7074 21.1875 13.1595 21.1875 11.6261C21.1875 10.9061 20.796 9.99208 19.9207 9.57358" fill="#4F5794"/>
</svg>
