<svg width="18" height="18" viewBox="0 0 18 18" fill="none" xmlns="http://www.w3.org/2000/svg">
<path d="M4.83337 4.83334H13.1667" stroke="#00BAFF" stroke-width="1.5" stroke-linecap="round" stroke-linejoin="round"/>
<path d="M8.99996 12.4692L10.2533 13.1275C10.4975 13.2558 10.7825 13.0483 10.7358 12.7767L10.4966 11.3808L11.5108 10.3933C11.7083 10.2008 11.5991 9.86584 11.3266 9.82584L9.92496 9.6225L9.29829 8.35167C9.17663 8.10417 8.82329 8.10417 8.70163 8.35167L8.07496 9.6225L6.67329 9.82667C6.40079 9.86584 6.29163 10.2017 6.48913 10.3942L7.50329 11.3817L7.26413 12.7775C7.21746 13.0492 7.50246 13.2567 7.74663 13.1283L8.99996 12.4692" stroke="#00BAFF" stroke-width="1.5" stroke-linecap="round" stroke-linejoin="round"/>
<path d="M14.8333 1.63H3.16667C2.24583 1.63 1.5 2.37584 1.5 3.29667V14.8333C1.5 15.7542 2.24583 16.5 3.16667 16.5H14.8333C15.7542 16.5 16.5 15.7542 16.5 14.8333V3.29667C16.5 2.37584 15.7542 1.63 14.8333 1.63V1.63Z" stroke="#00BAFF" stroke-width="1.5" stroke-linecap="round" stroke-linejoin="round"/>
</svg>
