<svg width="20" height="20" viewBox="0 0 20 20" fill="none" xmlns="http://www.w3.org/2000/svg">
<path d="M16.1108 15H6.38917C5.62167 15 5 14.3783 5 13.6108V3.88917C5 3.12167 5.62167 2.5 6.38917 2.5H16.1117C16.8783 2.5 17.5 3.12167 17.5 3.88917V13.6117C17.5 14.3783 16.8783 15 16.1108 15V15Z" stroke="#6A73B5" stroke-linecap="round" stroke-linejoin="round"/>
<path d="M12.7235 5.97164C13.5368 6.78497 13.5368 8.10414 12.7235 8.91831C11.9101 9.73164 10.591 9.73164 9.77682 8.91831C8.96265 8.10497 8.96348 6.78581 9.77682 5.97164C10.5901 5.15747 11.9093 5.15831 12.7235 5.97164Z" stroke="#6A73B5" stroke-linecap="round" stroke-linejoin="round"/>
<path d="M15 12.8616C14.8908 12.5874 14.7217 12.3407 14.505 12.1399C14.1392 11.7999 13.66 11.6116 13.16 11.6116C12.3267 11.6116 10.1733 11.6116 9.34 11.6116C8.84 11.6116 8.36167 11.8007 7.995 12.1399C7.77833 12.3407 7.60917 12.5874 7.5 12.8616" stroke="#6A73B5" stroke-linecap="round" stroke-linejoin="round"/>
<path d="M15 15V16.1108C15 16.8783 14.3783 17.5 13.6108 17.5H3.88917C3.12167 17.5 2.5 16.8783 2.5 16.1108V6.38917C2.5 5.62167 3.12167 5 3.88917 5H5" stroke="#6A73B5" stroke-linecap="round" stroke-linejoin="round"/>
</svg>
