<svg width="30" height="30" viewBox="0 0 30 30" fill="none" xmlns="http://www.w3.org/2000/svg">
<circle cx="15" cy="15" r="15" fill="#4F5794"/>
<path d="M15 8.58334C15.7735 8.58334 16.5154 8.89063 17.0624 9.43762C17.6094 9.9846 17.9167 10.7265 17.9167 11.5C17.9167 12.2736 17.6094 13.0154 17.0624 13.5624C16.5154 14.1094 15.7735 14.4167 15 14.4167C14.2265 14.4167 13.4846 14.1094 12.9376 13.5624C12.3906 13.0154 12.0833 12.2736 12.0833 11.5C12.0833 10.7265 12.3906 9.9846 12.9376 9.43762C13.4846 8.89063 14.2265 8.58334 15 8.58334ZM9.16667 10.6667C9.63333 10.6667 10.0667 10.7917 10.4417 11.0167C10.3167 12.2083 10.6667 13.3917 11.3833 14.3167C10.9667 15.1167 10.1333 15.6667 9.16667 15.6667C8.50363 15.6667 7.86774 15.4033 7.3989 14.9344C6.93006 14.4656 6.66667 13.8297 6.66667 13.1667C6.66667 12.5036 6.93006 11.8678 7.3989 11.3989C7.86774 10.9301 8.50363 10.6667 9.16667 10.6667ZM20.8333 10.6667C21.4964 10.6667 22.1323 10.9301 22.6011 11.3989C23.0699 11.8678 23.3333 12.5036 23.3333 13.1667C23.3333 13.8297 23.0699 14.4656 22.6011 14.9344C22.1323 15.4033 21.4964 15.6667 20.8333 15.6667C19.8667 15.6667 19.0333 15.1167 18.6167 14.3167C19.3333 13.3917 19.6833 12.2083 19.5583 11.0167C19.9333 10.7917 20.3667 10.6667 20.8333 10.6667ZM9.58333 19.2083C9.58333 17.4833 12.0083 16.0833 15 16.0833C17.9917 16.0833 20.4167 17.4833 20.4167 19.2083V20.6667H9.58333V19.2083ZM5 20.6667V19.4167C5 18.2583 6.575 17.2833 8.70833 17C8.21667 17.5667 7.91667 18.35 7.91667 19.2083V20.6667H5ZM25 20.6667H22.0833V19.2083C22.0833 18.35 21.7833 17.5667 21.2917 17C23.425 17.2833 25 18.2583 25 19.4167V20.6667Z" fill="#A6ACDC"/>
</svg>
