<svg width="22" height="22" viewBox="0 0 22 22" fill="none" xmlns="http://www.w3.org/2000/svg">
<path d="M11 0C8.01466 0 5.58594 2.42872 5.58594 5.41406C5.58594 8.3994 8.01466 10.8281 11 10.8281C13.9853 10.8281 16.4141 8.3994 16.4141 5.41406C16.4141 2.42872 13.9853 0 11 0ZM9.17696 4.50257L10.5442 5.86979L12.823 3.59107L13.7345 4.50257L10.5442 7.69278L8.26547 5.41406L9.17696 4.50257Z" fill="#4F5794"/>
<path d="M3.23697 17.8145C2.69182 17.8145 2.17607 17.687 1.71716 17.4609L0 18.0987V22.0002H6.47397V18.0987L4.75677 17.461C4.29786 17.687 3.78215 17.8145 3.23697 17.8145Z" fill="#4F5794"/>
<path d="M11.0001 17.8145C10.455 17.8145 9.93925 17.687 9.48034 17.4609L7.76318 18.0987V22.0002H14.2371V18.0987L12.52 17.461C12.061 17.687 11.5453 17.8145 11.0001 17.8145Z" fill="#4F5794"/>
<path d="M20.2827 17.4609C19.8238 17.687 19.3081 17.8145 18.7629 17.8145C18.2177 17.8145 17.702 17.687 17.2431 17.4609L15.5259 18.0987V22.0002H21.9999V18.0987L20.2827 17.4609Z" fill="#4F5794"/>
<path d="M4.07008 16.3618C5.17375 15.9043 5.6976 14.6387 5.24013 13.5351C4.78265 12.4314 3.51709 11.9076 2.41342 12.365C1.30974 12.8225 0.785895 14.0881 1.24337 15.1917C1.70085 16.2954 2.96641 16.8193 4.07008 16.3618Z" fill="#4F5794"/>
<path d="M12.1455 16.2055C13.162 15.5772 13.4767 14.2439 12.8484 13.2274C12.2201 12.2109 10.8868 11.8962 9.87028 12.5245C8.8538 13.1528 8.53911 14.4861 9.16739 15.5026C9.79567 16.5191 11.129 16.8338 12.1455 16.2055Z" fill="#4F5794"/>
<path d="M20.2884 15.8923C21.1328 15.0479 21.1328 13.6787 20.2884 12.8342C19.4439 11.9897 18.0747 11.9897 17.2302 12.8342C16.3858 13.6787 16.3858 15.0479 17.2302 15.8923C18.0747 16.7368 19.4439 16.7368 20.2884 15.8923Z" fill="#4F5794"/>
</svg>
