<svg width="56" height="12" viewBox="0 0 56 12" fill="none" xmlns="http://www.w3.org/2000/svg">
<rect width="55.25" height="12" rx="2" fill="#0DD39C"/>
<path d="M6.03912 8.08586L6.03913 8.08586C6.22464 8.27136 6.52536 8.27136 6.71086 8.08586L10.2109 4.58588C10.3964 4.40038 10.3964 4.09962 10.2109 3.91412C10.0254 3.72863 9.72464 3.72863 9.53914 3.91412L9.60977 3.98476L9.53914 3.91412L6.375 7.07823L4.71088 5.41414C4.71088 5.41414 4.71087 5.41414 4.71087 5.41414C4.52538 5.22864 4.22462 5.22864 4.03912 5.41414C3.85363 5.59964 3.85363 5.90036 4.03912 6.08586L4.03912 6.08586L6.03912 8.08586Z" fill="white" stroke="white" stroke-width="0.2"/>
<path d="M18.402 3.384V4.48H16.114V5.664H17.826V6.728H16.114V9H14.746V3.384H18.402ZM20.489 3.384V9H19.121V3.384H20.489ZM26.5044 9H25.1364L22.8484 5.536V9H21.4804V3.384H22.8484L25.1364 6.864V3.384H26.5044V9ZM28.864 3.384V9H27.496V3.384H28.864ZM31.8874 9.056C31.4767 9.056 31.1087 8.98933 30.7834 8.856C30.458 8.72267 30.1967 8.52533 29.9994 8.264C29.8074 8.00267 29.706 7.688 29.6954 7.32H31.1514C31.1727 7.528 31.2447 7.688 31.3674 7.8C31.49 7.90667 31.65 7.96 31.8474 7.96C32.05 7.96 32.21 7.91467 32.3274 7.824C32.4447 7.728 32.5034 7.59733 32.5034 7.432C32.5034 7.29333 32.4554 7.17867 32.3594 7.088C32.2687 6.99733 32.154 6.92267 32.0154 6.864C31.882 6.80533 31.69 6.73867 31.4394 6.664C31.0767 6.552 30.7807 6.44 30.5514 6.328C30.322 6.216 30.1247 6.05067 29.9594 5.832C29.794 5.61333 29.7114 5.328 29.7114 4.976C29.7114 4.45333 29.9007 4.04533 30.2794 3.752C30.658 3.45333 31.1514 3.304 31.7594 3.304C32.378 3.304 32.8767 3.45333 33.2554 3.752C33.634 4.04533 33.8367 4.456 33.8634 4.984H32.3834C32.3727 4.80267 32.306 4.66133 32.1834 4.56C32.0607 4.45333 31.9034 4.4 31.7114 4.4C31.546 4.4 31.4127 4.44533 31.3114 4.536C31.21 4.62133 31.1594 4.74667 31.1594 4.912C31.1594 5.09333 31.2447 5.23467 31.4154 5.336C31.586 5.43733 31.8527 5.54667 32.2154 5.664C32.578 5.78667 32.8714 5.904 33.0954 6.016C33.3247 6.128 33.522 6.29067 33.6874 6.504C33.8527 6.71733 33.9354 6.992 33.9354 7.328C33.9354 7.648 33.8527 7.93867 33.6874 8.2C33.5274 8.46133 33.2927 8.66933 32.9834 8.824C32.674 8.97867 32.3087 9.056 31.8874 9.056ZM39.6413 3.384V9H38.2733V6.688H36.1453V9H34.7773V3.384H36.1453V5.584H38.2733V3.384H39.6413ZM41.9968 4.48V5.616H43.8288V6.672H41.9968V7.904H44.0688V9H40.6288V3.384H44.0688V4.48H41.9968ZM47.0609 3.384C47.6529 3.384 48.1703 3.50133 48.6129 3.736C49.0556 3.97067 49.3969 4.30133 49.6369 4.728C49.8823 5.14933 50.0049 5.63733 50.0049 6.192C50.0049 6.74133 49.8823 7.22933 49.6369 7.656C49.3969 8.08267 49.0529 8.41333 48.6049 8.648C48.1623 8.88267 47.6476 9 47.0609 9H44.9569V3.384H47.0609ZM46.9729 7.816C47.4903 7.816 47.8929 7.67467 48.1809 7.392C48.4689 7.10933 48.6129 6.70933 48.6129 6.192C48.6129 5.67467 48.4689 5.272 48.1809 4.984C47.8929 4.696 47.4903 4.552 46.9729 4.552H46.3249V7.816H46.9729Z" fill="white"/>
</svg>
