<svg width="20" height="20" viewBox="0 0 20 20" fill="none" xmlns="http://www.w3.org/2000/svg">
<path d="M18.3333 20.0002H1.66666C1.16666 20.0002 0.833328 19.6668 0.833328 19.1668V9.16683C0.833328 8.66683 1.16666 8.3335 1.66666 8.3335H18.3333C18.8333 8.3335 19.1667 8.66683 19.1667 9.16683V19.1668C19.1667 19.6668 18.8333 20.0002 18.3333 20.0002ZM2.49999 18.3335H17.5V10.0002H2.49999V18.3335Z" fill="white"/>
<path d="M19.1667 10H0.833333C0.333333 10 0 9.66667 0 9.16667V5.83333C0 5.33333 0.333333 5 0.833333 5H19.1667C19.6667 5 20 5.33333 20 5.83333V9.16667C20 9.66667 19.6667 10 19.1667 10ZM1.66667 8.33333H18.3333V6.66667H1.66667V8.33333Z" fill="white"/>
<path d="M10 20C9.50001 20 9.16667 19.6667 9.16667 19.1667V5.83333C9.16667 5.33333 9.50001 5 10 5C10.5 5 10.8333 5.33333 10.8333 5.83333V19.1667C10.8333 19.6667 10.5 20 10 20Z" fill="white"/>
<path d="M12.5 6.66667C12 6.66667 11.6667 6.33333 11.6667 5.83333C11.6667 5.33333 12 5 12.5 5C13.4167 5 14.1667 4.25 14.1667 3.33333C14.1667 2.41667 13.4167 1.66667 12.5 1.66667C11.5833 1.66667 10.8333 2.41667 10.8333 3.33333C10.8333 3.83333 10.5 4.16667 10 4.16667C9.5 4.16667 9.16667 3.83333 9.16667 3.33333C9.16667 1.5 10.6667 0 12.5 0C14.3333 0 15.8333 1.5 15.8333 3.33333C15.8333 5.16667 14.3333 6.66667 12.5 6.66667Z" fill="white"/>
<path d="M7.50001 6.66667C5.66667 6.66667 4.16667 5.16667 4.16667 3.33333C4.16667 1.5 5.66667 0 7.50001 0C9.33334 0 10.8333 1.5 10.8333 3.33333C10.8333 3.83333 10.5 4.16667 10 4.16667C9.50001 4.16667 9.16667 3.83333 9.16667 3.33333C9.16667 2.41667 8.41667 1.66667 7.50001 1.66667C6.58334 1.66667 5.83334 2.41667 5.83334 3.33333C5.83334 4.25 6.58334 5 7.50001 5C8.00001 5 8.33334 5.33333 8.33334 5.83333C8.33334 6.33333 8.00001 6.66667 7.50001 6.66667Z" fill="white"/>
<path d="M10 8.33333C9.50001 8.33333 9.16667 8 9.16667 7.5V3.33333C9.16667 2.83333 9.50001 2.5 10 2.5C10.5 2.5 10.8333 2.83333 10.8333 3.33333V7.5C10.8333 8 10.5 8.33333 10 8.33333Z" fill="white"/>
</svg>
