<svg width="496" height="512" viewBox="0 0 496 512" fill="none" xmlns="http://www.w3.org/2000/svg">
<path d="M490.187 283.583C492.471 289.58 493.966 295.714 494.711 301.861C494.711 301.861 495.256 346.122 460.147 367.039C444.229 377.434 432.689 393.318 427.721 411.669C418.202 446.839 385.464 470.624 349.074 468.81C330.086 467.863 311.413 473.93 296.608 485.857C268.234 508.715 227.768 508.715 199.394 485.857C184.589 473.93 165.916 467.863 146.928 468.81C110.538 470.625 77.8 446.839 68.281 411.669C63.314 393.318 51.773 377.434 35.855 367.039C0.729988 337.094 1.28999 301.86 1.28999 301.86C2.03498 295.714 3.52898 289.579 5.81398 283.583C12.582 265.817 12.582 246.183 5.81398 228.417C-7.15701 194.369 5.34798 155.883 35.855 135.961C51.773 125.566 63.313 109.682 68.281 91.331C77.8 56.161 110.538 32.376 146.928 34.19C165.916 35.137 184.589 29.07 199.394 17.143C227.768 -5.71498 268.234 -5.71498 296.608 17.143C311.413 29.07 330.086 35.137 349.074 34.19C385.464 32.375 418.202 56.161 427.721 91.331C432.688 109.682 444.229 125.566 460.147 135.961C490.654 155.883 503.159 194.368 490.188 228.417C483.418 246.183 483.418 265.817 490.187 283.583Z" fill="#FFE27A"/>
<path d="M460.146 357.458C444.228 367.853 432.687 383.737 427.72 402.088C418.201 437.258 385.463 461.043 349.072 459.229C330.084 458.282 311.411 464.35 296.606 476.276C268.232 499.134 227.766 499.134 199.392 476.276C184.587 464.349 165.914 458.282 146.926 459.229C110.536 461.044 77.7979 437.258 68.2789 402.088C63.3119 383.737 51.7709 367.853 35.8529 357.458C16.1619 344.599 3.98594 324.004 1.30494 301.862C-2.17906 330.613 10.7189 359.626 35.8529 376.038C51.7709 386.433 63.3109 402.317 68.2789 420.668C77.7979 455.838 110.536 479.623 146.926 477.809C165.914 476.862 184.587 482.93 199.392 494.856C227.766 517.714 268.232 517.714 296.606 494.856C311.411 482.929 330.084 476.862 349.072 477.809C385.462 479.624 418.2 455.838 427.72 420.668C432.687 402.317 444.228 386.433 460.145 376.038C485.278 359.625 498.176 330.613 494.693 301.862C492.013 324.004 479.837 344.599 460.146 357.458Z" fill="#F9CF58"/>
<path d="M413.615 256C413.615 240.033 422.252 226.086 435.107 218.569C437.035 217.442 437.952 215.16 437.46 212.982C421.014 140.245 363.755 82.9863 291.019 66.5403C288.841 66.0473 286.559 66.9642 285.432 68.8932C277.914 81.7482 263.967 90.3853 248 90.3853C232.033 90.3853 218.086 81.7482 210.569 68.8922C209.442 66.9642 207.16 66.0473 204.982 66.5393C132.245 82.9863 74.9859 140.245 58.5399 212.981C58.0469 215.159 58.9639 217.441 60.8929 218.568C73.7479 226.085 82.3859 240.032 82.3859 255.999C82.3859 271.586 74.1549 285.249 61.8029 292.883L61.4289 300.453C81.4679 367.47 132.992 421.778 208.878 437.297C215.849 422.7 230.746 412.613 248 412.613C265.255 412.613 280.151 422.7 287.122 437.297C363.008 421.778 414.908 371.02 435.113 299.645L434.197 292.882C421.846 285.25 413.615 271.587 413.615 256Z" fill="#FF9838"/>
<path d="M296.413 427.718C289.442 413.121 265.255 403.034 248 403.034C230.745 403.034 206.558 413.12 199.587 427.718C129.238 413.332 82.0349 360.912 61.8009 292.882C61.5139 293.059 61.2249 293.233 60.9339 293.404C58.9919 294.544 58.0419 296.817 58.5379 299.013C74.9819 371.752 132.242 429.013 204.981 445.459C207.159 445.952 209.441 445.035 210.568 443.107C218.085 430.251 232.032 421.615 247.999 421.615C263.966 421.615 277.913 430.252 285.43 443.107C286.557 445.035 288.839 445.952 291.017 445.459C363.756 429.013 421.015 371.752 437.459 299.013C437.955 296.817 437.005 294.543 435.063 293.404C434.772 293.233 434.483 293.059 434.196 292.882C413.965 360.912 366.762 413.332 296.413 427.718Z" fill="#FF8709"/>
</svg>
