<svg width="32" height="32" viewBox="0 0 32 32" fill="none" xmlns="http://www.w3.org/2000/svg">
<rect width="32" height="32" rx="4" fill="#DB4BFF"/>
<path d="M16 12.75C14.2051 12.75 12.75 14.2051 12.75 16C12.75 17.7949 14.2051 19.25 16 19.25C17.7949 19.25 19.25 17.7949 19.25 16C19.25 14.2051 17.7949 12.75 16 12.75Z" fill="white"/>
<path fill-rule="evenodd" clip-rule="evenodd" d="M10.7695 7.08152C14.2177 6.69614 17.7824 6.69614 21.2305 7.08152C23.1289 7.29369 24.6601 8.78947 24.8829 10.6945C25.2952 14.2195 25.2952 17.7805 24.8829 21.3055C24.6601 23.2106 23.1289 24.7064 21.2305 24.9185C17.7824 25.3039 14.2177 25.3039 10.7695 24.9185C8.87114 24.7064 7.33995 23.2106 7.11713 21.3055C6.70485 17.7805 6.70485 14.2195 7.11713 10.6945C7.33995 8.78947 8.87114 7.29369 10.7695 7.08152ZM21 10C20.4477 10 20 10.4478 20 11C20 11.5523 20.4477 12 21 12C21.5523 12 22 11.5523 22 11C22 10.4478 21.5523 10 21 10ZM11.25 16C11.25 13.3767 13.3767 11.25 16 11.25C18.6234 11.25 20.75 13.3767 20.75 16C20.75 18.6234 18.6234 20.75 16 20.75C13.3767 20.75 11.25 18.6234 11.25 16Z" fill="white"/>
</svg>
