<svg width="30" height="30" viewBox="0 0 30 30" fill="none" xmlns="http://www.w3.org/2000/svg">
<circle cx="15" cy="15" r="15" fill="#4F5794"/>
<path d="M19.6734 14.7188C19.6734 14.7933 19.646 14.8649 19.5973 14.9176C19.5487 14.9704 19.4826 15 19.4138 15H17.3368C17.268 15 17.202 14.9704 17.1533 14.9176C17.1046 14.8649 17.0772 14.7933 17.0772 14.7188V11.3438C17.0772 11.2692 17.1046 11.1976 17.1533 11.1449C17.202 11.0921 17.268 11.0625 17.3368 11.0625H19.4138C19.4826 11.0625 19.5487 11.0921 19.5973 11.1449C19.646 11.1976 19.6734 11.2692 19.6734 11.3438V14.7188ZM19.4138 16.6875H12.1445C12.0757 16.6875 12.0096 16.6579 11.961 16.6051C11.9123 16.5524 11.8849 16.4808 11.8849 16.4062C11.8849 16.3317 11.9123 16.2601 11.961 16.2074C12.0096 16.1546 12.0757 16.125 12.1445 16.125H19.4138C19.4826 16.125 19.5487 16.1546 19.5973 16.2074C19.646 16.2601 19.6734 16.3317 19.6734 16.4062C19.6734 16.4808 19.646 16.5524 19.5973 16.6051C19.5487 16.6579 19.4826 16.6875 19.4138 16.6875ZM18.3753 18.375H12.1445C12.0757 18.375 12.0096 18.3454 11.961 18.2926C11.9123 18.2399 11.8849 18.1683 11.8849 18.0938C11.8849 18.0192 11.9123 17.9476 11.961 17.8949C12.0096 17.8421 12.0757 17.8125 12.1445 17.8125H18.3753C18.4442 17.8125 18.5102 17.8421 18.5589 17.8949C18.6076 17.9476 18.6349 18.0192 18.6349 18.0938C18.6349 18.1683 18.6076 18.2399 18.5589 18.2926C18.5102 18.3454 18.4442 18.375 18.3753 18.375ZM12.1445 14.4375H15.7791C15.848 14.4375 15.914 14.4671 15.9627 14.5199C16.0114 14.5726 16.0388 14.6442 16.0388 14.7188C16.0388 14.7933 16.0114 14.8649 15.9627 14.9176C15.914 14.9704 15.848 15 15.7791 15H12.1445C12.0757 15 12.0096 14.9704 11.961 14.9176C11.9123 14.8649 11.8849 14.7933 11.8849 14.7188C11.8849 14.6442 11.9123 14.5726 11.961 14.5199C12.0096 14.4671 12.0757 14.4375 12.1445 14.4375ZM12.1445 12.75H15.7791C15.848 12.75 15.914 12.7796 15.9627 12.8324C16.0114 12.8851 16.0388 12.9567 16.0388 13.0312C16.0388 13.1058 16.0114 13.1774 15.9627 13.2301C15.914 13.2829 15.848 13.3125 15.7791 13.3125H12.1445C12.0757 13.3125 12.0096 13.2829 11.961 13.2301C11.9123 13.1774 11.8849 13.1058 11.8849 13.0312C11.8849 12.9567 11.9123 12.8851 11.961 12.8324C12.0096 12.7796 12.0757 12.75 12.1445 12.75ZM12.1445 11.0625H15.7791C15.848 11.0625 15.914 11.0921 15.9627 11.1449C16.0114 11.1976 16.0388 11.2692 16.0388 11.3438C16.0388 11.4183 16.0114 11.4899 15.9627 11.5426C15.914 11.5954 15.848 11.625 15.7791 11.625H12.1445C12.0757 11.625 12.0096 11.5954 11.961 11.5426C11.9123 11.4899 11.8849 11.4183 11.8849 11.3438C11.8849 11.2692 11.9123 11.1976 11.961 11.1449C12.0096 11.0921 12.0757 11.0625 12.1445 11.0625ZM20.4522 9.375H11.1061C10.8995 9.375 10.7014 9.46389 10.5553 9.62213C10.4093 9.78036 10.3272 9.99497 10.3272 10.2188V19.2188C10.3272 19.2933 10.2999 19.3649 10.2512 19.4176C10.2025 19.4704 10.1365 19.5 10.0676 19.5C9.99875 19.5 9.93272 19.4704 9.88403 19.4176C9.83535 19.3649 9.80799 19.2933 9.80799 19.2188V10.7812C9.80799 10.7067 9.78064 10.6351 9.73195 10.5824C9.68327 10.5296 9.61723 10.5 9.54838 10.5C9.34181 10.5 9.14371 10.5889 8.99765 10.7471C8.85159 10.9054 8.76953 11.12 8.76953 11.3438V19.2188C8.76953 19.5917 8.90629 19.9494 9.14973 20.2131C9.39317 20.4768 9.72334 20.625 10.0676 20.625H20.4522C20.6588 20.625 20.8569 20.5361 21.003 20.3779C21.149 20.2196 21.2311 20.005 21.2311 19.7812V10.2188C21.2311 9.99497 21.149 9.78036 21.003 9.62213C20.8569 9.46389 20.6588 9.375 20.4522 9.375Z" fill="#A6ACDC"/>
</svg>
