<svg width="110" height="110" viewBox="0 0 110 110" fill="none" xmlns="http://www.w3.org/2000/svg">
<path d="M110 55C110 24.6243 85.3757 0 55 0C24.6243 0 0 24.6243 0 55C0 85.3757 24.6243 110 55 110C85.3757 110 110 85.3757 110 55Z" fill="white" fill-opacity="0.45"/>
<path d="M100 55C100 30.1472 79.8528 10 55 10C30.1472 10 10 30.1472 10 55C10 79.8528 30.1472 100 55 100C79.8528 100 100 79.8528 100 55Z" fill="white"/>
<path d="M68.3837 55.3712C69.2834 52.8449 69.7658 50.1456 69.7658 47.3723V38.5941C69.7658 37.688 69.0313 36.9535 68.1252 36.9535C59.2657 36.9535 56.1707 34.1614 56.1405 34.1332L56.1605 34.1528C55.5199 33.5121 54.4811 33.5121 53.8404 34.1528C53.8124 34.1808 50.7903 36.9534 41.8756 36.9534C40.9696 36.9534 40.235 37.6879 40.235 38.594V47.3722C40.235 50.1454 40.7175 52.8448 41.6172 55.3711L40.3404 57.748L46.1039 65.4172L50.1775 66.7618C51.4626 67.6854 52.851 68.4885 54.3299 69.1509C54.5432 69.2465 54.7718 69.2943 55.0005 69.2943C55.2292 69.2943 55.4578 69.2465 55.6712 69.1509C57.15 68.4885 58.5384 67.6854 59.8237 66.7617L63.181 65.7518L69.801 56.9428L68.3837 55.3712ZM28.6415 59.9219C27.9046 59.9219 27.2359 60.4163 27.0457 61.176C26.949 61.5622 27.0098 61.9712 27.1893 62.3266L30.0884 68.0642L27.171 73.9596C26.8453 74.6178 26.9897 75.4334 27.5819 75.9415C27.8837 76.2005 28.277 76.3278 28.6747 76.3278H36.9537C37.8598 76.3278 38.5943 75.5932 38.5943 74.6872V69.9591L40.3443 64.5858L38.5943 59.9219H28.6415ZM79.9124 68.0642L82.8236 62.3024C83.1415 61.6731 83.0273 60.8954 82.4981 60.3806C82.1872 60.0782 81.7621 59.922 81.3283 59.922H71.4063L69.6563 63.8122L71.4063 69.9592V74.6873C71.4063 75.5933 72.1409 76.3279 73.0469 76.3279H81.3593C82.0619 76.3279 82.7027 75.8782 82.9257 75.1772C83.0565 74.7659 83.0073 74.3183 82.8159 73.9315L79.9124 68.0642Z" fill="url(#paint0_linear)"/>
<path d="M41.6166 55.3712C40.851 55.6126 40.1901 55.8468 39.6475 56.0538C39.0122 56.296 38.5938 56.906 38.5938 57.586V59.9218V69.9591C42.0412 68.2745 46.1233 67.225 50.1768 66.7619C46.2175 63.9163 43.2385 59.9251 41.6166 55.3712ZM70.3519 56.0538C69.8093 55.8468 69.1488 55.6126 68.3831 55.3712C66.7612 59.9251 63.7822 63.9162 59.8228 66.7618C63.8779 67.225 67.9595 68.2749 71.4058 69.959V59.9217V57.5859C71.4058 56.906 70.9872 56.296 70.3519 56.0538ZM60.6749 56.3765L60.0336 52.4451L62.7365 49.6748C63.1659 49.2347 63.3132 48.5913 63.1179 48.0083C62.9228 47.4251 62.4179 47.0002 61.8101 46.9073L58.1409 46.3468L56.485 42.8188C56.2146 42.243 55.6358 41.8754 54.9998 41.8754C54.3638 41.8754 53.7849 42.2431 53.5145 42.8188L51.8587 46.3468L48.1895 46.9073C47.5816 47.0002 47.0767 47.4252 46.8816 48.0083C46.6864 48.5913 46.8338 49.2347 47.2631 49.6748L49.966 52.4451L49.3247 56.3765C49.2235 56.9965 49.4854 57.62 49.9991 57.9818C50.5126 58.3437 51.1879 58.3804 51.7378 58.0765L54.9998 56.2733L58.2618 58.0765C58.8136 58.3815 59.4888 58.3423 60.0005 57.9818C60.5141 57.62 60.7759 56.9965 60.6749 56.3765Z" fill="url(#paint1_linear)"/>
<path d="M50.1029 17.6793C50.2489 17.0598 50.564 16.4932 51.013 16.0431C51.462 15.593 52.0271 15.2771 52.6451 15.1307L57.7523 13.9879C57.8425 13.9617 57.9217 13.9068 57.9781 13.8316C58.0345 13.7564 58.065 13.6648 58.065 13.5707C58.065 13.4766 58.0345 13.385 57.9781 13.3098C57.9217 13.2346 57.8425 13.1798 57.7523 13.1536L52.6451 12.0107C52.0271 11.8644 51.462 11.5485 51.013 11.0983C50.564 10.6482 50.2489 10.0817 50.1029 9.46214L48.9629 4.35357C48.9465 4.25479 48.8957 4.16503 48.8195 4.10029C48.7433 4.03554 48.6467 4 48.5468 4C48.4469 4 48.3503 4.03554 48.2741 4.10029C48.1979 4.16503 48.1471 4.25479 48.1307 4.35357L46.9907 9.46214C46.8447 10.0817 46.5296 10.6482 46.0806 11.0983C45.6316 11.5485 45.0665 11.8644 44.4485 12.0107L39.3527 13.1536C39.2542 13.17 39.1646 13.2209 39.1 13.2973C39.0354 13.3737 39 13.4706 39 13.5707C39 13.6709 39.0354 13.7677 39.1 13.8441C39.1646 13.9205 39.2542 13.9715 39.3527 13.9879L44.4485 15.1307C45.0665 15.2771 45.6316 15.593 46.0806 16.0431C46.5296 16.4932 46.8447 17.0598 46.9907 17.6793L48.1307 22.7879C48.1471 22.8866 48.1979 22.9764 48.2741 23.0411C48.3503 23.1059 48.4469 23.1414 48.5468 23.1414C48.6467 23.1414 48.7433 23.1059 48.8195 23.0411C48.8957 22.9764 48.9465 22.8866 48.9629 22.7879L50.1029 17.6793Z" fill="#A6ACDC"/>
<path d="M14.6267 53.68L18.6167 52.3429C18.6908 52.3184 18.7551 52.2709 18.8002 52.2071C18.8454 52.1433 18.8689 52.0667 18.8675 51.9886C18.8672 51.9108 18.843 51.835 18.7981 51.7716C18.7532 51.7082 18.6898 51.6602 18.6167 51.6343L15.3335 50.4914C15.1135 50.4172 14.9136 50.2929 14.7494 50.1284C14.5853 49.9638 14.4613 49.7634 14.3873 49.5429L13.2473 46.2514C13.2214 46.1781 13.1736 46.1146 13.1103 46.0696C13.047 46.0246 12.9714 46.0003 12.8939 46C12.8195 46.0101 12.75 46.0429 12.6949 46.0941C12.6398 46.1452 12.6018 46.2121 12.5861 46.2857L11.4461 49.5771C11.3717 49.7994 11.2463 50.001 11.0799 50.1657C10.9136 50.3305 10.711 50.4538 10.4885 50.5257L7.20526 51.6686C7.14418 51.6998 7.09277 51.7472 7.0566 51.8056C7.02044 51.864 7.00089 51.9313 7.00006 52C6.9986 52.0782 7.02217 52.1548 7.0673 52.2185C7.11244 52.2823 7.17677 52.3299 7.25086 52.3543L10.5341 53.4971C10.757 53.5718 10.9595 53.6974 11.1257 53.864C11.2919 54.0306 11.4172 54.2337 11.4917 54.4571L12.5861 57.7143C12.6104 57.7886 12.6579 57.8531 12.7215 57.8983C12.7851 57.9436 12.8615 57.9672 12.9395 57.9657C13.017 57.9654 13.0926 57.9411 13.1559 57.8961C13.2192 57.8511 13.267 57.7876 13.2929 57.7143L14.6267 53.68Z" fill="#A6ACDC"/>
<path d="M96.7028 80.6709L100.704 79.3338C100.777 79.3072 100.839 79.259 100.884 79.1957C100.928 79.1323 100.951 79.0568 100.951 78.9795C100.951 78.9021 100.928 78.8267 100.884 78.7633C100.839 78.6999 100.777 78.6517 100.704 78.6252L97.421 77.4823C97.2002 77.4097 96.9994 77.286 96.8351 77.1212C96.6707 76.9564 96.5473 76.7552 96.4748 76.5338L95.3348 73.2423C95.3058 73.1707 95.2561 73.1094 95.1922 73.0662C95.1282 73.0231 95.0528 73 94.9757 73C94.8986 73 94.8233 73.0231 94.7593 73.0662C94.6953 73.1094 94.6457 73.1707 94.6166 73.2423L93.4766 76.5338C93.4026 76.7543 93.2786 76.9547 93.1145 77.1193C92.9503 77.2838 92.7504 77.4081 92.5304 77.4823L89.2472 78.6252C89.1748 78.6517 89.1122 78.6999 89.0679 78.7633C89.0237 78.8267 89 78.9021 89 78.9795C89 79.0568 89.0237 79.1323 89.0679 79.1957C89.1122 79.259 89.1748 79.3072 89.2472 79.3338L92.5304 80.4766C92.7521 80.5512 92.9532 80.6769 93.1176 80.8437C93.2819 81.0104 93.4049 81.2135 93.4766 81.4366L94.6166 84.728C94.6457 84.7997 94.6953 84.861 94.7593 84.9041C94.8233 84.9473 94.8986 84.9704 94.9757 84.9704C95.0528 84.9704 95.1282 84.9473 95.1922 84.9041C95.2561 84.861 95.3058 84.7997 95.3348 84.728L96.7028 80.6709Z" fill="#A6ACDC"/>
<defs>
<linearGradient id="paint0_linear" x1="55" y1="76.3279" x2="55" y2="33.6723" gradientUnits="userSpaceOnUse">
<stop stop-color="#00B59C"/>
<stop offset="1" stop-color="#BAFFE6"/>
</linearGradient>
<linearGradient id="paint1_linear" x1="54.9998" y1="69.959" x2="54.9998" y2="41.8753" gradientUnits="userSpaceOnUse">
<stop stop-color="#C3FFE8"/>
<stop offset="0.9973" stop-color="#F0FFF4"/>
</linearGradient>
</defs>
</svg>