<svg width="37" height="12" viewBox="0 0 37 12" fill="none" xmlns="http://www.w3.org/2000/svg">
<rect width="37" height="12" rx="2" fill="#DD3A62"/>
<path d="M8 2C5.79032 2 4 3.79032 4 6C4 8.20968 5.79032 10 8 10C10.2097 10 12 8.20968 12 6C12 3.79032 10.2097 2 8 2ZM9.86613 6.3871L7.02742 8.01613C6.77258 8.15806 6.45161 7.97581 6.45161 7.67742V4.32258C6.45161 4.02581 6.77097 3.84194 7.02742 3.98387L9.86613 5.70968C10.1306 5.85806 10.1306 6.24032 9.86613 6.3871Z" fill="white"/>
<path d="M17.864 7.944H19.656V9H16.496V3.384H17.864V7.944ZM21.6765 3.384V9H20.3085V3.384H21.6765ZM27.9399 3.384L25.9479 9H24.2359L22.2439 3.384H23.6999L25.0919 7.624L26.4919 3.384H27.9399ZM29.8796 4.48V5.616H31.7116V6.672H29.8796V7.904H31.9516V9H28.5116V3.384H31.9516V4.48H29.8796Z" fill="white"/>
</svg>
