<svg width="33" height="32" viewBox="0 0 33 32" fill="none" xmlns="http://www.w3.org/2000/svg">
<path d="M24.2247 14H22.7247V10C22.7247 8.4087 22.0925 6.88258 20.9673 5.75736C19.8421 4.63214 18.316 4 16.7247 4C15.1334 4 13.6072 4.63214 12.482 5.75736C11.3568 6.88258 10.7247 8.4087 10.7247 10V14H9.22467C8.82701 14.0005 8.44578 14.1587 8.16459 14.4399C7.8834 14.7211 7.7252 15.1023 7.72467 15.5V26.5C7.7252 26.8977 7.8834 27.2789 8.16459 27.5601C8.44578 27.8413 8.82701 27.9995 9.22467 28H24.2247C24.6223 27.9995 25.0036 27.8413 25.2847 27.5601C25.5659 27.2789 25.7241 26.8977 25.7247 26.5V15.5C25.7241 15.1023 25.5659 14.7211 25.2847 14.4399C25.0036 14.1587 24.6223 14.0005 24.2247 14ZM17.6747 21.75C17.7023 21.8308 17.7191 21.9148 17.7247 22C17.7247 22.2652 17.6193 22.5196 17.4318 22.7071C17.2442 22.8946 16.9899 23 16.7247 23C16.4595 23 16.2051 22.8946 16.0176 22.7071C15.83 22.5196 15.7247 22.2652 15.7247 22C15.7302 21.9148 15.747 21.8308 15.7747 21.75C15.3829 21.5385 15.0729 21.2024 14.8938 20.7949C14.7146 20.3874 14.6766 19.9317 14.7856 19.5001C14.8947 19.0685 15.1446 18.6856 15.4958 18.4121C15.847 18.1386 16.2795 17.99 16.7247 17.99C17.1698 17.99 17.6023 18.1386 17.9535 18.4121C18.3047 18.6856 18.5547 19.0685 18.6637 19.5001C18.7728 19.9317 18.7347 20.3874 18.5556 20.7949C18.3764 21.2024 18.0664 21.5385 17.6747 21.75ZM20.7247 14H12.7247V10C12.7247 8.93913 13.1461 7.92172 13.8962 7.17157C14.6464 6.42143 15.6638 6 16.7247 6C17.7855 6 18.803 6.42143 19.5531 7.17157C20.3032 7.92172 20.7247 8.93913 20.7247 10V14Z" fill="#B4BAE9"/>
</svg>
