<svg width="190" height="190" viewBox="0 0 190 190" fill="none" xmlns="http://www.w3.org/2000/svg">
<circle cx="95" cy="95" r="95" fill="white"/>
<circle opacity="0.8" cx="95" cy="95" r="80" fill="#343961"/>
<path d="M117.873 155.723C117.525 154.721 116.359 153.892 115.281 153.892H109.726C108.949 153.892 108.315 153.259 108.315 152.481V142.521C108.315 141.743 108.948 141.11 109.726 141.11H115.279C116.359 141.11 117.525 140.281 117.879 139.261L118.93 136.737C119.401 135.787 119.166 134.379 118.398 133.618L114.48 129.729C114.214 129.465 114.067 129.113 114.067 128.737C114.067 128.361 114.214 128.009 114.48 127.744L121.587 120.693C121.853 120.429 122.21 120.283 122.59 120.283C122.971 120.283 123.327 120.429 123.594 120.693L127.512 124.581C127.997 125.063 128.748 125.351 129.52 125.351C129.934 125.351 130.329 125.265 130.661 125.103L133.22 124.055C134.224 123.712 135.055 122.549 135.055 121.469V115.985C135.055 115.207 135.688 114.574 136.466 114.574H146.529C147.307 114.574 147.94 115.207 147.94 115.985V121.469C147.94 122.549 148.771 123.712 149.793 124.062L152.354 125.112C152.668 125.265 153.061 125.351 153.475 125.351C154.248 125.351 154.999 125.063 155.484 124.581L157.429 122.652V112.898H151.087C150.675 112.898 150.133 112.585 149.926 112.228L144.777 103.308C144.57 102.95 144.57 102.324 144.776 101.967L149.926 93.047C150.133 92.6902 150.675 92.3768 151.087 92.3768H157.43V76.628H153.868C153.871 76.8804 153.821 77.1347 153.715 77.3177L149.736 84.2081C149.53 84.565 148.988 84.8784 148.575 84.8784H146.248V90.8446C146.248 91.1969 145.961 91.4835 145.609 91.4835H40.8205C40.4681 91.4835 40.1816 91.1969 40.1816 90.8446V76.628H29V140.204C33.7272 146.974 39.496 152.962 46.0768 157.934H118.792L117.873 155.723Z" fill="#6A73B5"/>
<path d="M156.99 63.3491L153.793 57.8117C153.586 57.4548 153.586 56.8283 153.792 56.4715L156.99 50.9337C157.082 50.7737 157.244 50.6241 157.43 50.5059V45.611H29V76.9478H40.1816V55.3146C40.1816 54.9623 40.4681 54.6757 40.8205 54.6757H145.609C145.961 54.6757 146.248 54.9623 146.248 55.3146V68.4169H148.575C148.988 68.4169 149.53 68.73 149.736 69.0871L153.715 75.9779C153.861 76.2303 153.901 76.6165 153.841 76.9478H157.43V63.7769C157.244 63.6587 157.082 63.5091 156.99 63.3491Z" fill="#B4BAE9"/>
<rect x="29" y="45" width="128.5" height="32" fill="#A6ACDC"/>
<path d="M158 158V46H29.0001C29.0001 46 28.9998 110.5 29.0001 140C34.5089 147.946 38.4534 151.955 46.0001 158H158Z" fill="white"/>
<rect x="40" y="137" width="100" height="10" rx="2" fill="#B4BAE9"/>
<path d="M154.235 28H32.1947C30.4376 28 29 29.4376 29 31.1947V45.9304H157.43V31.1947C157.43 29.4376 155.992 28 154.235 28Z" fill="#B4BAE9"/>
<path d="M38.5337 28H32.1947C30.4376 28 29 29.4376 29 31.1947V45.9304H35.339V31.1947C35.339 29.4376 36.7766 28 38.5337 28Z" fill="#B4BAE9"/>
<path d="M36.4831 39.5244C35.7748 39.5244 35.0844 39.2382 34.5841 38.7411C34.0867 38.2404 33.8008 37.5501 33.8008 36.8421C33.8008 36.1373 34.087 35.4473 34.5841 34.9463C35.0844 34.4457 35.7751 34.1595 36.4831 34.1595C37.1875 34.1595 37.8814 34.4457 38.3785 34.9463C38.8791 35.447 39.1657 36.1373 39.1657 36.8421C39.1657 37.5504 38.8791 38.2404 38.3785 38.7411C37.8814 39.2382 37.1875 39.5244 36.4831 39.5244Z" fill="#E26693"/>
<path d="M45.2803 39.5244C44.5755 39.5244 43.8816 39.2381 43.3842 38.7372C42.8839 38.2401 42.5977 37.55 42.5977 36.8417C42.5977 36.137 42.8839 35.4469 43.3842 34.946C43.8851 34.4454 44.5755 34.1591 45.2803 34.1591C45.9882 34.1591 46.6783 34.4454 47.1795 34.946C47.6766 35.4466 47.9626 36.137 47.9626 36.8417C47.9626 37.5462 47.6766 38.2401 47.1795 38.7372C46.6783 39.2381 45.9882 39.5244 45.2803 39.5244Z" fill="#FFAF10"/>
<path d="M54.0811 39.5244C53.3728 39.5244 52.6824 39.2382 52.1853 38.7411C51.6847 38.2404 51.3984 37.5501 51.3984 36.8421C51.3984 36.1373 51.6847 35.4473 52.1853 34.9463C52.6824 34.4457 53.3728 34.1595 54.0811 34.1595C54.7855 34.1595 55.4794 34.4457 55.9765 34.9463C56.4771 35.447 56.7637 36.1373 56.7637 36.8421C56.7637 37.5504 56.4774 38.2404 55.9765 38.7411C55.4759 39.2382 54.7855 39.5244 54.0811 39.5244Z" fill="#37C47A"/>
<rect x="65" y="54" width="57" height="38" rx="2" fill="#E2E4F5"/>
<rect x="40" y="54" width="21" height="79" rx="2" fill="#E2E4F5"/>
<rect x="126" y="54" width="21" height="79" rx="2" fill="#E2E4F5"/>
<rect x="65" y="97" width="27" height="36" rx="2" fill="#E2E4F5"/>
<rect x="95" y="97" width="27" height="36" rx="2" fill="#E2E4F5"/>
<path d="M149.391 38.9516H135.259C133.936 38.9516 132.863 37.8791 132.863 36.5555C132.863 35.232 133.936 34.1595 135.259 34.1595H149.391C150.714 34.1595 151.787 35.232 151.787 36.5555C151.787 37.8791 150.714 38.9516 149.391 38.9516Z" fill="#A6ACDC"/>
<path d="M140.546 179.491C140.546 180.321 141.232 181 142.07 181H150.931C151.769 181 152.454 180.321 152.454 179.491V174.708C152.454 173.878 153.103 172.978 153.896 172.709L156.167 171.788C156.92 171.424 158.023 171.605 158.618 172.19L162.068 175.582C162.663 176.167 163.636 176.167 164.231 175.582L170.488 169.431C171.083 168.846 171.083 167.889 170.488 167.304L167.038 163.912C166.443 163.327 166.26 162.24 166.632 161.495L167.563 159.278C167.838 158.495 168.748 157.853 169.587 157.853H174.476C175.314 157.853 176 157.174 176 156.344V147.656C176 146.826 175.314 146.147 174.476 146.147H169.587C168.749 146.147 167.838 145.505 167.563 144.721L166.632 142.504C166.261 141.759 166.443 140.672 167.038 140.087L170.488 136.696C171.083 136.111 171.083 135.154 170.488 134.57L164.231 128.418C163.636 127.834 162.663 127.834 162.068 128.418L158.618 131.81C158.023 132.395 156.92 132.576 156.166 132.213L153.895 131.291C153.103 131.022 152.454 130.123 152.454 129.293V124.509C152.454 123.679 151.768 123 150.93 123H142.069C141.231 123 140.546 123.679 140.546 124.509V129.293C140.546 130.123 139.897 131.022 139.104 131.291L136.835 132.212C136.081 132.576 134.978 132.395 134.383 131.81L130.933 128.418C130.338 127.834 129.364 127.834 128.769 128.418L122.511 134.569C121.916 135.154 121.916 136.111 122.511 136.696L125.962 140.088C126.557 140.672 126.739 141.76 126.368 142.504L125.437 144.721C125.162 145.505 124.251 146.147 123.413 146.147H118.524C117.686 146.147 117 146.826 117 147.656V156.344C117 157.174 117.686 157.853 118.524 157.853H123.413C124.251 157.853 125.162 158.495 125.437 159.278L126.368 161.496C126.74 162.24 126.557 163.327 125.962 163.912L122.511 167.304C121.916 167.889 121.916 168.846 122.511 169.431L128.769 175.582C129.364 176.167 130.338 176.167 130.932 175.582L134.382 172.19C134.977 171.605 136.08 171.424 136.833 171.787L139.104 172.709C139.897 172.978 140.546 173.877 140.546 174.708V179.491H140.546Z" fill="#E2E4F5"/>
<path d="M146.5 166C154.508 166 161 159.732 161 152C161 144.268 154.508 138 146.5 138C138.492 138 132 144.268 132 152C132 159.732 138.492 166 146.5 166Z" fill="#00BAFF"/>
<path d="M136.489 152C136.489 144.991 141.915 139.186 149 138.16C148.268 138.055 147.519 138 146.756 138C138.606 138 132 144.267 132 152C132 159.732 138.606 166 146.756 166C147.519 166 148.268 165.945 149 165.839C141.915 164.813 136.489 159.008 136.489 152Z" fill="#0A9FD6"/>
<path d="M146.5 168C137.402 168 130 160.823 130 152C130 143.177 137.402 136 146.5 136C155.598 136 163 143.177 163 152C163 160.823 155.598 168 146.5 168ZM146.5 140.466C139.925 140.466 134.576 145.64 134.576 152C134.576 158.36 139.925 163.534 146.5 163.534C153.075 163.534 158.424 158.36 158.424 152C158.424 145.64 153.075 140.466 146.5 140.466Z" fill="#B4BAE9"/>
<path d="M146.5 158C149.538 158 152 155.314 152 152C152 148.686 149.538 146 146.5 146C143.462 146 141 148.686 141 152C141 155.314 143.462 158 146.5 158Z" fill="#565E9F"/>
<path d="M146.5 160C141.813 160 138 156.411 138 152C138 147.589 141.813 144 146.5 144C151.187 144 155 147.589 155 152C154.999 156.411 151.186 160 146.5 160ZM146.5 148.437C144.398 148.437 142.688 150.036 142.688 152.001C142.688 153.965 144.398 155.563 146.5 155.563C148.602 155.563 150.311 153.965 150.311 152C150.311 150.036 148.602 148.437 146.5 148.437Z" fill="#0A9FD6"/>
<path d="M161.153 57.3388C160.625 57.3388 159.979 56.9653 159.715 56.5088L156.518 50.9714C156.254 50.5149 156.254 49.7679 156.518 49.3117L159.715 43.774C159.979 43.3174 160.625 42.944 161.153 42.944H167.547C168.074 42.944 168.721 43.3174 168.984 43.774L172.181 49.3117C172.445 49.7682 172.445 50.5152 172.181 50.9714L168.984 56.5088C168.721 56.9653 168.074 57.3388 167.547 57.3388H161.153Z" fill="#66D5FF"/>
<path d="M166.054 56.5088L162.857 50.9714C162.593 50.5149 162.593 49.7679 162.857 49.3117L166.054 43.774C166.318 43.3174 166.964 42.944 167.492 42.944H161.153C160.625 42.944 159.979 43.3174 159.715 43.774L156.518 49.3117C156.254 49.7682 156.254 50.5152 156.518 50.9714L159.715 56.5088C159.979 56.9653 160.625 57.3388 161.153 57.3388H167.492C166.964 57.3388 166.317 56.9653 166.054 56.5088Z" fill="#00BAFF"/>
<g filter="url(#filter0_f)">
<path d="M26.3711 113C25.7852 113 25.0661 112.585 24.7732 112.077L21.2197 105.923C20.9268 105.415 20.9268 104.585 21.2197 104.078L24.7732 97.9225C25.0661 97.4151 25.7852 97 26.3711 97H33.4784C34.0643 97 34.7834 97.4151 35.0763 97.9225L38.6298 104.078C38.9228 104.585 38.9228 105.415 38.6298 105.923L35.0763 112.077C34.7834 112.585 34.0643 113 33.4784 113H26.3711Z" fill="#38CAFF"/>
<path d="M31.819 112.077L28.2656 105.923C27.9726 105.415 27.9726 104.585 28.2656 104.078L31.819 97.9225C32.112 97.4151 32.8311 97 33.417 97H26.3711C25.7852 97 25.0661 97.4151 24.7732 97.9225L21.2197 104.078C20.9268 104.585 20.9268 105.415 21.2197 105.923L24.7732 112.077C25.0661 112.585 25.7852 113 26.3711 113H33.417C32.8311 113 32.1116 112.585 31.819 112.077Z" fill="#0A9FD6"/>
</g>
<path d="M157.086 119.217C156.559 119.217 155.912 118.844 155.648 118.387L150.498 109.468C150.235 109.011 150.235 108.264 150.498 107.808L155.649 98.8876C155.912 98.4311 156.559 98.0576 157.086 98.0576H167.386C167.914 98.0576 168.561 98.4311 168.824 98.8876L173.974 107.808C174.238 108.264 174.238 109.011 173.974 109.468L168.824 118.388C168.561 118.844 167.914 119.218 167.386 119.218L157.086 119.217Z" fill="#66D5FF"/>
<path d="M161.988 118.388L156.838 109.468C156.574 109.011 156.574 108.264 156.838 107.808L161.988 98.8876C162.252 98.431 162.899 98.0576 163.426 98.0576H157.086C156.559 98.0576 155.912 98.431 155.649 98.8876L150.498 107.808C150.235 108.264 150.235 109.011 150.498 109.468L155.649 118.388C155.912 118.844 156.559 119.218 157.086 119.218H163.425C162.899 119.217 162.252 118.844 161.988 118.388Z" fill="#00BAFF"/>
<path d="M148.617 86.1982C148.09 86.1982 147.443 85.8247 147.18 85.3682L143.202 78.4778C142.938 78.0213 142.938 77.2743 143.202 76.8181L147.18 69.9274C147.443 69.4709 148.09 69.0974 148.617 69.0974H156.574C157.101 69.0974 157.748 69.4709 158.012 69.9274L161.99 76.8181C162.254 77.2747 162.254 78.0216 161.99 78.4778L158.012 85.3682C157.748 85.8247 157.101 86.1982 156.574 86.1982H148.617Z" fill="#00BAFF"/>
<path d="M153.519 85.3682L149.541 78.4778C149.277 78.0213 149.277 77.2743 149.541 76.8181L153.519 69.9274C153.782 69.4709 154.429 69.0974 154.956 69.0974H148.617C148.09 69.0974 147.443 69.4709 147.18 69.9274L143.202 76.8181C142.938 77.2747 142.938 78.0216 143.202 78.4778L147.18 85.3682C147.443 85.8247 148.09 86.1982 148.617 86.1982H154.956C154.429 86.1982 153.782 85.8247 153.519 85.3682Z" fill="#0A9FD6"/>
<defs>
<filter id="filter0_f" x="19" y="95" width="21.8495" height="20" color-interpolation-filters="sRGB">
<feFlood flood-opacity="0" result="BackgroundImageFix"/>
<feBlend in="SourceGraphic" in2="BackgroundImageFix" result="shape"/>
<feGaussianBlur stdDeviation="1" result="effect1_foregroundBlur"/>
</filter>
</defs>
</svg>
