<svg width="45" height="45" viewBox="0 0 45 45" fill="none" xmlns="http://www.w3.org/2000/svg">
<path d="M9.13694 5.625H35.8632C36.159 5.62496 36.4507 5.69493 36.7143 5.82919C36.978 5.96345 37.2061 6.15819 37.3801 6.3975L44.5482 16.2525C44.6756 16.4279 44.7383 16.6419 44.7257 16.8583C44.7131 17.0747 44.6258 17.2801 44.4788 17.4394L23.1882 40.5037C23.0195 40.6861 22.7854 40.794 22.5372 40.8039C22.289 40.8137 22.047 40.7246 21.8644 40.5562C21.8513 40.545 14.7394 32.8406 0.521313 17.4394C0.374319 17.2801 0.287074 17.0747 0.274425 16.8583C0.261777 16.6419 0.324506 16.4279 0.451938 16.2525L7.62006 6.3975C7.79402 6.15819 8.02215 5.96345 8.28578 5.82919C8.54942 5.69493 8.84108 5.62496 9.13694 5.625ZM10.0932 9.375L4.84319 16.5938L22.5001 35.7187L40.1569 16.5938L34.9069 9.375H10.0932Z" fill="#12EEB1"/>
</svg>
