<svg width="45" height="45" viewBox="0 0 45 45" fill="none" xmlns="http://www.w3.org/2000/svg">
<path d="M9.13657 5.625H35.8628C36.1587 5.62496 36.4503 5.69493 36.714 5.82919C36.9776 5.96345 37.2057 6.15819 37.3797 6.3975L44.5478 16.2525C44.6753 16.4279 44.738 16.6419 44.7253 16.8583C44.7127 17.0747 44.6254 17.2801 44.4784 17.4394L23.1878 40.5037C23.0191 40.6861 22.785 40.794 22.5368 40.8039C22.2886 40.8137 22.0467 40.7246 21.8641 40.5562C21.8509 40.545 14.7391 32.8406 0.520947 17.4394C0.373953 17.2801 0.286708 17.0747 0.274059 16.8583C0.26141 16.6419 0.32414 16.4279 0.451572 16.2525L7.6197 6.3975C7.79366 6.15819 8.02178 5.96345 8.28542 5.82919C8.54905 5.69493 8.84072 5.62496 9.13657 5.625ZM10.0928 9.375L4.84282 16.5938L22.4997 35.7187L40.1566 16.5938L34.9066 9.375H10.0928Z" fill="#FFA800"/>
</svg>
