<svg width="45" height="45" viewBox="0 0 45 45" fill="none" xmlns="http://www.w3.org/2000/svg">
<path d="M9.13688 5.625H35.8631C36.159 5.62496 36.4506 5.69493 36.7143 5.82919C36.9779 5.96345 37.206 6.15819 37.38 6.3975L44.5481 16.2525C44.6756 16.4279 44.7383 16.6419 44.7256 16.8583C44.713 17.0747 44.6257 17.2801 44.4788 17.4394L23.1881 40.5037C23.0194 40.6861 22.7853 40.794 22.5371 40.8039C22.2889 40.8137 22.047 40.7246 21.8644 40.5562C21.8513 40.545 14.7394 32.8406 0.521252 17.4394C0.374258 17.2801 0.287013 17.0747 0.274364 16.8583C0.261716 16.6419 0.324445 16.4279 0.451877 16.2525L7.62 6.3975C7.79396 6.15819 8.02209 5.96345 8.28572 5.82919C8.54936 5.69493 8.84102 5.62496 9.13688 5.625ZM10.0931 9.375L4.84313 16.5938L22.5 35.7187L40.1569 16.5938L34.9069 9.375H10.0931Z" fill="#00BAFF"/>
</svg>
