<svg xmlns="http://www.w3.org/2000/svg" width="18" height="18" fill="none" viewBox="0 0 18 18">
    <path fill="#fff" d="M9 16.5c-4.142 0-7.5-3.358-7.5-7.5 0-4.142 3.358-7.5 7.5-7.5 4.142 0 7.5 3.358 7.5 7.5 0 4.142-3.358 7.5-7.5 7.5zm-2.625-6V12H8.25v1.5h1.5V12h.75c.497 0 .974-.197 1.326-.55.351-.35.549-.828.549-1.325s-.197-.974-.55-1.326c-.35-.351-.828-.549-1.325-.549h-3c-.1 0-.195-.04-.265-.11s-.11-.166-.11-.265c0-.1.04-.195.11-.265S7.4 7.5 7.5 7.5h4.125V6H9.75V4.5h-1.5V6H7.5c-.497 0-.974.198-1.326.55-.351.35-.549.828-.549 1.325s.198.974.55 1.326c.35.351.828.549 1.325.549h3c.1 0 .195.04.265.11s.11.165.11.265-.04.195-.11.265-.165.11-.265.11H6.375z"/>
</svg>
