<svg width="146" height="98" viewBox="0 0 146 98" fill="none" xmlns="http://www.w3.org/2000/svg">
<g clip-path="url(#clip0)">
<path d="M74.8572 0C41.7201 0 14.8572 26.8629 14.8572 60C14.8572 74.3021 19.8613 87.4355 28.2141 97.7447H121.5C129.853 87.4355 134.857 74.3021 134.857 60C134.857 26.8629 107.994 0 74.8572 0Z" fill="#C0CADB"/>
<rect x="33" y="96" width="100" height="2" rx="1" fill="#4F5794"/>
<rect y="96" width="30" height="2" rx="1" fill="#4F5794"/>
<rect x="137" y="96.4287" width="8" height="2" rx="1" fill="#4F5794"/>
</g>
<path d="M86.4949 92.0898H68.4512" stroke="#4F5794" stroke-width="2" stroke-linecap="round" stroke-linejoin="round"/>
<path d="M65.4375 88.4124H69.6983H77.0467H84.3951H85.8031" stroke="#4F5794" stroke-width="2" stroke-linecap="round" stroke-linejoin="round"/>
<path d="M89.7179 88.4124C89.6168 88.6684 89.5665 88.9418 89.5697 89.2171C89.5697 89.8279 89.8118 90.4137 90.2426 90.8455C90.6734 91.2774 91.2576 91.52 91.8669 91.52H93.2007C92.6521 91.5121 92.1214 91.716 91.7187 92.0896" stroke="#4F5794" stroke-width="2" stroke-linecap="round" stroke-linejoin="round"/>
<path d="M48.5795 88.2886C48.728 88.5753 48.8043 88.8941 48.8018 89.2172C48.8018 89.8279 48.5598 90.4137 48.129 90.8456C47.6982 91.2774 47.1139 91.5201 46.5046 91.5201H48.0361C48.5847 91.5121 49.1154 91.716 49.5181 92.0896" stroke="#4F5794" stroke-width="2" stroke-linecap="round" stroke-linejoin="round"/>
<path d="M51.1357 92.0897C51.5348 91.7261 52.0539 91.5233 52.5931 91.5202H62.4733C63.0253 91.514 63.5591 91.7175 63.9676 92.0897" stroke="#4F5794" stroke-width="2" stroke-linecap="round" stroke-linejoin="round"/>
<path d="M47.6533 73.1094H43.9729" stroke="#4F5794" stroke-width="2" stroke-linecap="round" stroke-linejoin="round"/>
<path d="M47.6531 69.2711V67.8349C47.6563 67.4299 47.8191 67.0425 48.106 66.7573C48.3928 66.472 48.7805 66.312 49.1845 66.312H68.772V70.9054C68.729 72.0209 68.911 73.1337 69.3072 74.177C69.7033 75.2203 70.3054 76.1727 71.0775 76.9772C71.8495 77.7817 72.7756 78.4216 73.8002 78.8588C74.8248 79.2959 75.9269 79.5213 77.0405 79.5213C78.154 79.5213 79.2561 79.2959 80.2808 78.8588C81.3054 78.4216 82.2314 77.7817 83.0035 76.9772C83.7755 76.1727 84.3777 75.2203 84.7738 74.177C85.17 73.1337 85.352 72.0209 85.309 70.9054V66.312H104.909C105.313 66.312 105.701 66.472 105.987 66.7573C106.274 67.0425 106.437 67.4299 106.44 67.8349V85.1686" stroke="#4F5794" stroke-width="2" stroke-linecap="round" stroke-linejoin="round"/>
<path d="M106.255 92.0897C106.659 91.7183 107.189 91.5147 107.737 91.5201H109.763" stroke="#4F5794" stroke-width="2" stroke-linecap="round" stroke-linejoin="round"/>
<path d="M110.121 87.6819V62.6223H81.641V70.9053C81.641 71.5102 81.5221 72.1091 81.2912 72.6679C81.0603 73.2267 80.7219 73.7344 80.2953 74.1621C79.8687 74.5898 79.3622 74.9291 78.8048 75.1606C78.2474 75.392 77.65 75.5111 77.0467 75.5111C76.4433 75.5111 75.8459 75.392 75.2885 75.1606C74.7311 74.9291 74.2246 74.5898 73.798 74.1621C73.3714 73.7344 73.033 73.2267 72.8021 72.6679C72.5712 72.1091 72.4524 71.5102 72.4524 70.9053V62.6223H43.948V69.271" stroke="#4F5794" stroke-width="2" stroke-linecap="round" stroke-linejoin="round"/>
<path d="M104.637 92.0898C104.233 91.7184 103.703 91.5149 103.155 91.5203H101.821C102.126 91.5203 102.428 91.4596 102.709 91.3415C102.99 91.2235 103.245 91.0505 103.459 90.8327C103.673 90.6149 103.841 90.3567 103.954 90.073C104.068 89.7893 104.123 89.4858 104.118 89.1803C104.124 88.9035 104.069 88.6289 103.958 88.3755" stroke="#4F5794" stroke-width="2" stroke-linecap="round" stroke-linejoin="round"/>
<path d="M72.4521 70.9053V62.6223H81.6407V70.9053C81.6407 71.5102 81.5219 72.1091 81.291 72.6679C81.0601 73.2267 80.7217 73.7345 80.2951 74.1621C79.8685 74.5898 79.362 74.9291 78.8046 75.1606C78.2472 75.392 77.6498 75.5111 77.0464 75.5111C76.4431 75.5111 75.8457 75.392 75.2883 75.1606C74.7309 74.9291 74.2244 74.5898 73.7978 74.1621C73.3712 73.7345 73.0327 73.2267 72.8019 72.6679C72.571 72.1091 72.4521 71.5102 72.4521 70.9053V70.9053Z" stroke="#4F5794" stroke-width="2" stroke-linecap="round" stroke-linejoin="round"/>
<path d="M47.6532 77.7521C47.5094 77.7395 47.3648 77.7395 47.2209 77.7521H47.6532Z" stroke="#4F5794" stroke-width="2" stroke-linecap="round" stroke-linejoin="round"/>
<path d="M47.6532 82.3086H47.2209C47.3648 82.3212 47.5094 82.3212 47.6532 82.3086Z" stroke="#4F5794" stroke-width="2" stroke-linecap="round" stroke-linejoin="round"/>
<path d="M47.7148 87.273C47.3486 87.0312 46.9181 86.906 46.4797 86.9139H47.653C47.6484 87.0366 47.6694 87.1589 47.7148 87.273V87.273Z" stroke="#4F5794" stroke-width="2" stroke-linecap="round" stroke-linejoin="round"/>
<path d="M81.6407 62.6223V70.9053C81.6407 71.5102 81.5219 72.1091 81.291 72.6679C81.0601 73.2267 80.7217 73.7345 80.2951 74.1621C79.8685 74.5898 79.362 74.9291 78.8046 75.1606C78.2472 75.392 77.6498 75.5111 77.0464 75.5111C76.4431 75.5111 75.8457 75.392 75.2883 75.1606C74.7309 74.9291 74.2244 74.5898 73.7978 74.1621C73.3712 73.7345 73.0327 73.2267 72.8019 72.6679C72.571 72.1091 72.4521 71.5102 72.4521 70.9053V62.6223H81.6407Z" stroke="#4F5794" stroke-width="2" stroke-linecap="round" stroke-linejoin="round"/>
<path d="M110.121 38.0705V62.6224H43.948V38.0705C43.948 37.2562 44.2707 36.4752 44.8451 35.8993C45.4195 35.3235 46.1985 35 47.0109 35H107.058C107.869 35.0033 108.646 35.3278 109.22 35.9029C109.794 36.4781 110.117 37.2572 110.121 38.0705Z" stroke="#4F5794" stroke-width="2" stroke-linecap="round" stroke-linejoin="round"/>
<path d="M99.0918 86.9143H101.821C102.288 86.914 102.743 87.0576 103.125 87.3256C103.507 87.5936 103.798 87.9731 103.958 88.4124" stroke="#4F5794" stroke-width="2" stroke-linecap="round" stroke-linejoin="round"/>
<path d="M106.44 85.2184V67.8847C106.437 67.4797 106.274 67.0923 105.987 66.8071C105.7 66.5219 105.313 66.3618 104.909 66.3618H99.0918V83.0764" stroke="#4F5794" stroke-width="2" stroke-linecap="round" stroke-linejoin="round"/>
<path d="M91.7437 83.0887V66.2998H99.092V83.0887" stroke="#4F5794" stroke-width="2" stroke-linecap="round" stroke-linejoin="round"/>
<path d="M91.7437 86.9392C91.7836 86.9252 91.8272 86.9252 91.8672 86.9392H99.092" stroke="#4F5794" stroke-width="2" stroke-linecap="round" stroke-linejoin="round"/>
<path d="M85.8029 88.4125H84.395V74.7188C84.9966 73.5382 85.3099 72.2312 85.3089 70.9054V66.312H91.7434V83.0762" stroke="#4F5794" stroke-width="2" stroke-linecap="round" stroke-linejoin="round"/>
<path d="M91.7437 86.939C91.298 86.954 90.867 87.1023 90.5061 87.3649C90.1451 87.6274 89.8708 87.9922 89.7183 88.4123" stroke="#4F5794" stroke-width="2" stroke-linecap="round" stroke-linejoin="round"/>
<path d="M84.3953 74.7188V88.4123H76.9851V79.2007C78.512 79.2093 80.0117 78.7955 81.3191 78.0047C82.6265 77.2139 83.6909 76.0769 84.3953 74.7188V74.7188Z" stroke="#4F5794" stroke-width="2" stroke-linecap="round" stroke-linejoin="round"/>
<path d="M77.0466 79.2007V88.4123H69.6982V74.7188C70.3967 76.0684 71.4512 77.2001 72.747 77.9904C74.0427 78.7807 75.5299 79.1993 77.0466 79.2007V79.2007Z" stroke="#4F5794" stroke-width="2" stroke-linecap="round" stroke-linejoin="round"/>
<path d="M62.3496 87.682V66.312H68.7717V70.9054C68.7751 72.2321 69.0926 73.5391 69.698 74.7188V88.4125H65.4372" stroke="#4F5794" stroke-width="2" stroke-linecap="round" stroke-linejoin="round"/>
<path d="M55.0017 87.6821V85.503V83.7077V77.1333" stroke="#4F5794" stroke-width="2" stroke-linecap="round" stroke-linejoin="round"/>
<path d="M55.0017 76.7124V66.2998H62.3501V87.6821" stroke="#4F5794" stroke-width="2" stroke-linecap="round" stroke-linejoin="round"/>
<path d="M55.0017 87.6821V85.503V83.7077V77.1333" stroke="#4F5794" stroke-width="2" stroke-linecap="round" stroke-linejoin="round"/>
<path d="M48.5795 88.2887C48.4199 87.8585 48.1137 87.4989 47.715 87.2734C47.6696 87.1593 47.6486 87.037 47.6532 86.9143H48.95C49.3115 86.9184 49.6687 86.835 49.9912 86.6712C50.3137 86.5074 50.592 86.268 50.8025 85.9734C51.0884 85.5768 51.2438 85.1007 51.2471 84.6114C51.2471 84.0007 51.0051 83.4149 50.5743 82.983C50.1435 82.5512 49.5592 82.3085 48.95 82.3085H47.6532C48.1755 82.2055 48.6458 81.9239 48.9839 81.5117C49.322 81.0996 49.5068 80.5826 49.5068 80.049C49.5068 79.5154 49.322 78.9983 48.9839 78.5862C48.6458 78.1741 48.1755 77.8924 47.6532 77.7894V77.7894H49.1353C49.7445 77.7894 50.3288 77.5468 50.7596 77.1149C51.1904 76.683 51.4324 76.0973 51.4324 75.4865C51.4324 74.8757 51.1904 74.29 50.7596 73.8581C50.3288 73.4262 49.7445 73.1836 49.1353 73.1836H47.6532" stroke="#4F5794" stroke-width="2" stroke-linecap="round" stroke-linejoin="round"/>
<path d="M47.6531 69.2711V67.8349C47.6563 67.4299 47.8191 67.0425 48.106 66.7573C48.3928 66.4721 48.7805 66.312 49.1845 66.312H55.0632V76.7122" stroke="#4F5794" stroke-width="2" stroke-linecap="round" stroke-linejoin="round"/>
<path d="M77.0467 71.673C77.4696 71.673 77.8124 71.3293 77.8124 70.9053C77.8124 70.4814 77.4696 70.1377 77.0467 70.1377C76.6238 70.1377 76.281 70.4814 76.281 70.9053C76.281 71.3293 76.6238 71.673 77.0467 71.673Z" stroke="#4F5794" stroke-width="2" stroke-linecap="round" stroke-linejoin="round"/>
<path d="M50.3328 93.8231C50.3328 94.4339 50.0908 95.0197 49.66 95.4515C49.2292 95.8834 48.6449 96.126 48.0356 96.126H38.0813C37.4721 96.126 36.8878 95.8834 36.457 95.4515C36.0262 95.0197 35.7842 94.4339 35.7842 93.8231C35.7842 93.2124 36.0262 92.6266 36.457 92.1948C36.8878 91.7629 37.4721 91.5202 38.0813 91.5202H48.0356C48.5843 91.5123 49.1149 91.7162 49.5177 92.0898C49.7763 92.2973 49.9842 92.5614 50.1255 92.8618C50.2668 93.1622 50.3377 93.4911 50.3328 93.8231V93.8231Z" stroke="#4F5794" stroke-width="2" stroke-miterlimit="10"/>
<path d="M48.8017 89.18C48.8017 89.7907 48.5596 90.3765 48.1288 90.8084C47.698 91.2402 47.1138 91.4829 46.5045 91.4829H36.5379C35.9286 91.4829 35.3443 91.2402 34.9135 90.8084C34.4827 90.3765 34.2407 89.7907 34.2407 89.18C34.2407 88.5692 34.4827 87.9834 34.9135 87.5516C35.3443 87.1197 35.9286 86.8771 36.5379 86.8771H46.4922C46.9305 86.8691 47.3611 86.9943 47.7272 87.2361C48.1259 87.4616 48.4321 87.8213 48.5917 88.2514C48.736 88.5392 48.808 88.8579 48.8017 89.18V89.18Z" stroke="#4F5794" stroke-width="2" stroke-miterlimit="10"/>
<path d="M51.2467 84.6115C51.2434 85.1008 51.088 85.5769 50.8021 85.9734C50.5915 86.2681 50.3132 86.5075 49.9907 86.6713C49.6682 86.8351 49.3111 86.9185 48.9495 86.9144H39.0076C38.6463 86.9174 38.2895 86.8336 37.9671 86.6699C37.6448 86.5061 37.3663 86.2673 37.1551 85.9734C36.8692 85.5769 36.7138 85.1008 36.7104 84.6115C36.7104 84.0007 36.9525 83.415 37.3833 82.9831C37.8141 82.5512 38.3984 82.3086 39.0076 82.3086H48.9619C49.569 82.3119 50.1501 82.5559 50.5782 82.9875C51.0064 83.419 51.2467 84.0029 51.2467 84.6115V84.6115Z" stroke="#4F5794" stroke-width="2" stroke-miterlimit="10"/>
<path d="M49.5177 80.0178C49.5181 80.5525 49.3319 81.0706 48.9913 81.4822C48.6507 81.8937 48.1772 82.1728 47.6528 82.2711C47.509 82.2838 47.3644 82.2838 47.2205 82.2711H37.2662C36.9512 82.2943 36.6349 82.2522 36.3369 82.1473C36.0388 82.0423 35.7656 81.877 35.5342 81.6614C35.3029 81.4459 35.1183 81.1848 34.9921 80.8946C34.8659 80.6043 34.8008 80.2911 34.8008 79.9744C34.8008 79.6578 34.8659 79.3445 34.9921 79.0543C35.1183 78.764 35.3029 78.503 35.5342 78.2874C35.7656 78.0719 36.0388 77.9065 36.3369 77.8016C36.6349 77.6967 36.9512 77.6545 37.2662 77.6777H47.2205C47.3644 77.665 47.509 77.665 47.6528 77.6777C48.1921 77.7784 48.6772 78.0702 49.0196 78.4998C49.362 78.9295 49.5388 79.4682 49.5177 80.0178V80.0178Z" stroke="#4F5794" stroke-width="2" stroke-miterlimit="10"/>
<path d="M51.4321 75.4123C51.4321 76.023 51.1901 76.6088 50.7593 77.0407C50.3285 77.4726 49.7442 77.7152 49.135 77.7152H39.1807C38.5714 77.7152 37.9872 77.4726 37.5564 77.0407C37.1256 76.6088 36.8835 76.023 36.8835 75.4123C36.8835 74.8015 37.1256 74.2158 37.5564 73.7839C37.9872 73.352 38.5714 73.1094 39.1807 73.1094H49.135C49.7442 73.1094 50.3285 73.352 50.7593 73.7839C51.1901 74.2158 51.4321 74.8015 51.4321 75.4123Z" stroke="#4F5794" stroke-width="2" stroke-miterlimit="10"/>
<path d="M64.8692 93.8231C64.8692 94.4338 64.6272 95.0196 64.1964 95.4514C63.7656 95.8833 63.1813 96.126 62.5721 96.126H52.5931C51.9838 96.126 51.3996 95.8833 50.9688 95.4514C50.538 95.0196 50.2959 94.4338 50.2959 93.8231C50.2886 93.4918 50.3572 93.1633 50.4964 92.8628C50.6356 92.5624 50.8416 92.2979 51.0987 92.0897C51.5072 91.7175 52.0411 91.514 52.5931 91.5202H62.4733C63.0253 91.514 63.5591 91.7175 63.9677 92.0897C64.2429 92.2876 64.4679 92.5476 64.6245 92.8487C64.7811 93.1497 64.865 93.4835 64.8692 93.8231Z" stroke="#4F5794" stroke-width="2" stroke-miterlimit="10"/>
<path d="M105.44 93.8231C105.442 94.125 105.384 94.4242 105.27 94.7035C105.156 94.9828 104.988 95.2368 104.775 95.4508C104.563 95.6648 104.311 95.8346 104.033 95.9505C103.754 96.0664 103.456 96.126 103.155 96.126H93.201C92.8972 96.1293 92.5959 96.0722 92.3143 95.9579C92.0328 95.8436 91.7766 95.6745 91.5607 95.4604C91.3447 95.2462 91.1733 94.9912 91.0563 94.7102C90.9393 94.4292 90.8791 94.1277 90.8791 93.8231C90.8743 93.4911 90.9452 93.1622 91.0864 92.8618C91.2277 92.5614 91.4356 92.2973 91.6943 92.0898C92.097 91.7162 92.6277 91.5123 93.1763 91.5202H103.131C103.736 91.5299 104.313 91.776 104.74 92.2062C105.167 92.6363 105.409 93.2165 105.415 93.8231H105.44Z" stroke="#4F5794" stroke-width="2" stroke-miterlimit="10"/>
<path d="M104.118 89.1804C104.118 89.7911 103.876 90.3769 103.445 90.8088C103.015 91.2406 102.43 91.4833 101.821 91.4833H91.8669C91.2576 91.4833 90.6734 91.2406 90.2426 90.8088C89.8118 90.3769 89.5697 89.7911 89.5697 89.1804C89.5665 88.905 89.6168 88.6316 89.7179 88.3756C89.8704 87.9555 90.1448 87.5907 90.5057 87.3281C90.8667 87.0656 91.2977 86.9173 91.7434 86.9022C91.7833 86.8881 91.8269 86.8881 91.8669 86.9022H101.821C102.288 86.9019 102.743 87.0455 103.125 87.3135C103.507 87.5815 103.798 87.961 103.958 88.4003C104.065 88.6461 104.12 88.9119 104.118 89.1804V89.1804Z" stroke="#4F5794" stroke-width="2" stroke-miterlimit="10"/>
<path d="M119.989 93.8229C119.989 94.4337 119.747 95.0194 119.316 95.4513C118.885 95.8832 118.301 96.1258 117.691 96.1258H107.737C107.128 96.1258 106.544 95.8832 106.113 95.4513C105.682 95.0194 105.44 94.4337 105.44 93.8229C105.453 93.2161 105.699 92.6377 106.127 92.2085C106.555 91.7794 107.132 91.5327 107.737 91.52H117.691C118.301 91.52 118.885 91.7626 119.316 92.1945C119.747 92.6264 119.989 93.2122 119.989 93.8229V93.8229Z" stroke="#4F5794" stroke-width="2" stroke-miterlimit="10"/>
<path d="M62.4731 60.3195C62.4731 60.9303 62.2311 61.516 61.8003 61.9479C61.3695 62.3798 60.7852 62.6224 60.176 62.6224H50.2464C49.6371 62.6224 49.0528 62.3798 48.622 61.9479C48.1912 61.516 47.9492 60.9303 47.9492 60.3195C47.9492 59.7087 48.1912 59.123 48.622 58.6911C49.0528 58.2592 49.6371 58.0166 50.2464 58.0166H60.2007C60.8056 58.0231 61.3836 58.2686 61.809 58.6998C62.2345 59.131 62.4731 59.713 62.4731 60.3195V60.3195Z" stroke="#4F5794" stroke-width="2" stroke-miterlimit="10"/>
<path d="M77.0464 60.3195C77.0464 60.9303 76.8044 61.516 76.3736 61.9479C75.9428 62.3798 75.3585 62.6224 74.7492 62.6224H64.7949C64.4933 62.6224 64.1946 62.5628 63.9159 62.4471C63.6372 62.3314 63.3839 62.1617 63.1706 61.9479C62.9573 61.7341 62.7881 61.4802 62.6727 61.2008C62.5572 60.9214 62.4978 60.6219 62.4978 60.3195C62.4978 60.0171 62.5572 59.7176 62.6727 59.4382C62.7881 59.1588 62.9573 58.9049 63.1706 58.6911C63.3839 58.4773 63.6372 58.3076 63.9159 58.1919C64.1946 58.0762 64.4933 58.0166 64.7949 58.0166H74.7492C75.3585 58.0166 75.9428 58.2592 76.3736 58.6911C76.8044 59.123 77.0464 59.7087 77.0464 60.3195V60.3195Z" stroke="#4F5794" stroke-width="2" stroke-miterlimit="10"/>
<path d="M91.595 60.3195C91.595 60.9303 91.353 61.516 90.9222 61.9479C90.4914 62.3798 89.9071 62.6224 89.2978 62.6224H79.3435C78.7343 62.6224 78.15 62.3798 77.7192 61.9479C77.2884 61.516 77.0464 60.9303 77.0464 60.3195C77.0464 59.7087 77.2884 59.123 77.7192 58.6911C78.15 58.2592 78.7343 58.0166 79.3435 58.0166H89.2978C89.9071 58.0166 90.4914 58.2592 90.9222 58.6911C91.353 59.123 91.595 59.7087 91.595 60.3195Z" stroke="#4F5794" stroke-width="2" stroke-miterlimit="10"/>
<path d="M106.131 60.3195C106.131 60.9303 105.889 61.516 105.459 61.9479C105.028 62.3798 104.444 62.6224 103.834 62.6224H93.9541C93.3449 62.6224 92.7606 62.3798 92.3298 61.9479C91.899 61.516 91.657 60.9303 91.657 60.3195C91.657 59.7087 91.899 59.123 92.3298 58.6911C92.7606 58.2592 93.3449 58.0166 93.9541 58.0166H103.834C104.444 58.0166 105.028 58.2592 105.459 58.6911C105.889 59.123 106.131 59.7087 106.131 60.3195Z" stroke="#4F5794" stroke-width="2" stroke-miterlimit="10"/>
<path d="M77.7879 58.0165C77.1786 58.0165 76.5943 57.7738 76.1635 57.3419C75.7327 56.9101 75.4907 56.3243 75.4907 55.7135C75.4907 55.1028 75.7327 54.517 76.1635 54.0851C76.5943 53.6533 77.1786 53.4106 77.7879 53.4106H87.7422C88.3514 53.4106 88.9357 53.6533 89.3665 54.0851C89.7973 54.517 90.0393 55.1028 90.0393 55.7135C90.0393 56.3243 89.7973 56.9101 89.3665 57.3419C88.9357 57.7738 88.3514 58.0165 87.7422 58.0165H77.7879Z" stroke="#4F5794" stroke-width="2" stroke-miterlimit="10"/>
<path d="M85.6421 53.4105C85.0329 53.4105 84.4486 53.1679 84.0178 52.736C83.587 52.3041 83.345 51.7184 83.345 51.1076C83.345 50.4968 83.587 49.9111 84.0178 49.4792C84.4486 49.0473 85.0329 48.8047 85.6421 48.8047H95.5964C96.2056 48.8047 96.7899 49.0473 97.2207 49.4792C97.6515 49.9111 97.8936 50.4968 97.8936 51.1076C97.8936 51.7184 97.6515 52.3041 97.2207 52.736C96.7899 53.1679 96.2056 53.4105 95.5964 53.4105H85.6421Z" stroke="#4F5794" stroke-width="2" stroke-miterlimit="10"/>
<path d="M51.6795 58.0165C51.0702 58.0165 50.4859 57.7738 50.0551 57.3419C49.6243 56.9101 49.3823 56.3243 49.3823 55.7135C49.3823 55.1028 49.6243 54.517 50.0551 54.0851C50.4859 53.6533 51.0702 53.4106 51.6795 53.4106H61.6338C62.243 53.4106 62.8273 53.6533 63.2581 54.0851C63.6889 54.517 63.9309 55.1028 63.9309 55.7135C63.9309 56.3243 63.6889 56.9101 63.2581 57.3419C62.8273 57.7738 62.243 58.0165 61.6338 58.0165H51.6795Z" stroke="#4F5794" stroke-width="2" stroke-miterlimit="10"/>
<path d="M71.1183 57.5959C70.8796 57.8218 70.5955 57.9938 70.285 58.1004C69.9745 58.2069 69.6448 58.2455 69.3181 58.2136C68.9915 58.1817 68.6754 58.0799 68.3913 57.9153C68.1072 57.7506 67.8615 57.5268 67.6709 57.2589C67.4803 56.9911 67.3492 56.6854 67.2864 56.3624C67.2236 56.0395 67.2305 55.7068 67.3067 55.3868C67.3829 55.0667 67.5267 54.7668 67.7282 54.5071C67.9298 54.2475 68.1846 54.0341 68.4753 53.8815L76.6141 48.1366C77.1056 47.8786 77.6737 47.8076 78.2133 47.9367C78.753 48.0659 79.2278 48.3865 79.55 48.8393C79.8722 49.2921 80.02 49.8466 79.9662 50.4002C79.9123 50.9537 79.6605 51.4691 79.2571 51.851L71.1183 57.5959Z" stroke="#4F5794" stroke-width="2" stroke-miterlimit="10"/>
<path d="M92.3365 58.0165C91.7272 58.0165 91.1429 57.7738 90.7121 57.3419C90.2813 56.9101 90.0393 56.3243 90.0393 55.7135C90.0393 55.1028 90.2813 54.517 90.7121 54.0851C91.1429 53.6533 91.7272 53.4106 92.3365 53.4106H102.291C102.9 53.4106 103.484 53.6533 103.915 54.0851C104.346 54.517 104.588 55.1028 104.588 55.7135C104.588 56.3243 104.346 56.9101 103.915 57.3419C103.484 57.7738 102.9 58.0165 102.291 58.0165H92.3365Z" stroke="#4F5794" stroke-width="2" stroke-miterlimit="10"/>
<path d="M52.5409 14.6002C52.6869 13.9807 53.002 13.4141 53.451 12.964C53.9 12.5139 54.4651 12.198 55.0831 12.0516L60.1903 10.9088C60.2804 10.8826 60.3597 10.8277 60.4161 10.7525C60.4725 10.6773 60.503 10.5857 60.503 10.4916C60.503 10.3975 60.4725 10.3059 60.4161 10.2307C60.3597 10.1555 60.2804 10.1007 60.1903 10.0745L55.0831 8.93162C54.4651 8.78528 53.9 8.46936 53.451 8.01923C53.002 7.56911 52.6869 7.00256 52.5409 6.38304L51.4009 1.27447C51.3845 1.17569 51.3337 1.08593 51.2575 1.02118C51.1813 0.956435 51.0847 0.920898 50.9848 0.920898C50.8849 0.920898 50.7882 0.956435 50.712 1.02118C50.6358 1.08593 50.585 1.17569 50.5687 1.27447L49.4287 6.38304C49.2827 7.00256 48.9676 7.56911 48.5186 8.01923C48.0696 8.46936 47.5045 8.78528 46.8865 8.93162L41.7907 10.0745C41.6921 10.0909 41.6026 10.1418 41.538 10.2182C41.4734 10.2946 41.438 10.3915 41.438 10.4916C41.438 10.5918 41.4734 10.6886 41.538 10.765C41.6026 10.8414 41.6921 10.8923 41.7907 10.9088L46.8865 12.0516C47.5045 12.198 48.0696 12.5139 48.5186 12.964C48.9676 13.4141 49.2827 13.9807 49.4287 14.6002L50.5687 19.7088C50.585 19.8075 50.6358 19.8973 50.712 19.962C50.7882 20.0268 50.8849 20.0623 50.9848 20.0623C51.0847 20.0623 51.1813 20.0268 51.2575 19.962C51.3337 19.8973 51.3845 19.8075 51.4009 19.7088L52.5409 14.6002Z" stroke="#A6ACDC" stroke-width="1.2" stroke-linecap="round" stroke-linejoin="round"/>
<path d="M32.3264 58.8231L36.3164 57.4859C36.3905 57.4615 36.4548 57.4139 36.4999 57.3502C36.5451 57.2864 36.5686 57.2098 36.5672 57.1316C36.5669 57.0539 36.5427 56.9781 36.4978 56.9147C36.4529 56.8512 36.3895 56.8033 36.3164 56.7774L33.0332 55.6345C32.8132 55.5603 32.6133 55.436 32.4491 55.2714C32.285 55.1069 32.161 54.9065 32.087 54.6859L30.947 51.3945C30.9211 51.3212 30.8733 51.2577 30.81 51.2126C30.7467 51.1676 30.6711 51.1433 30.5936 51.1431C30.5192 51.1532 30.4497 51.186 30.3946 51.2371C30.3395 51.2883 30.3015 51.3552 30.2858 51.4288L29.1458 54.7202C29.0714 54.9424 28.946 55.144 28.7796 55.3088C28.6133 55.4736 28.4107 55.5969 28.1882 55.6688L24.905 56.8116C24.8439 56.8429 24.7925 56.8903 24.7563 56.9487C24.7201 57.0071 24.7006 57.0743 24.6998 57.1431C24.6983 57.2212 24.7219 57.2978 24.767 57.3616C24.8121 57.4254 24.8765 57.4729 24.9506 57.4974L28.2338 58.6402C28.4567 58.7149 28.6592 58.8405 28.8254 59.0071C28.9916 59.1737 29.1169 59.3767 29.1914 59.6002L30.2858 62.8574C30.3101 62.9316 30.3576 62.9961 30.4212 63.0414C30.4848 63.0866 30.5612 63.1102 30.6392 63.1088C30.7167 63.1085 30.7923 63.0842 30.8556 63.0392C30.9189 62.9942 30.9667 62.9307 30.9926 62.8574L32.3264 58.8231Z" stroke="#A6ACDC" stroke-width="1.2" stroke-linecap="round" stroke-linejoin="round"/>
<path d="M123.048 67.4287L127.049 66.0916C127.121 66.0651 127.184 66.0168 127.228 65.9535C127.272 65.8901 127.296 65.8146 127.296 65.7373C127.296 65.6599 127.272 65.5845 127.228 65.5211C127.184 65.4577 127.121 65.4095 127.049 65.383L123.766 64.2401C123.545 64.1675 123.344 64.0438 123.18 63.879C123.015 63.7142 122.892 63.513 122.82 63.2916L121.68 60.0001C121.651 59.9285 121.601 59.8672 121.537 59.824C121.473 59.7809 121.398 59.7578 121.32 59.7578C121.243 59.7578 121.168 59.7809 121.104 59.824C121.04 59.8672 120.99 59.9285 120.961 60.0001L119.821 63.2916C119.747 63.5121 119.623 63.7125 119.459 63.8771C119.295 64.0417 119.095 64.1659 118.875 64.2401L115.592 65.383C115.519 65.4095 115.457 65.4577 115.413 65.5211C115.368 65.5845 115.345 65.6599 115.345 65.7373C115.345 65.8146 115.368 65.8901 115.413 65.9535C115.457 66.0168 115.519 66.0651 115.592 66.0916L118.875 67.2344C119.097 67.309 119.298 67.4347 119.462 67.6015C119.627 67.7682 119.75 67.9713 119.821 68.1944L120.961 71.4859C120.99 71.5575 121.04 71.6188 121.104 71.6619C121.168 71.7051 121.243 71.7282 121.32 71.7282C121.398 71.7282 121.473 71.7051 121.537 71.6619C121.601 71.6188 121.651 71.5575 121.68 71.4859L123.048 67.4287Z" stroke="#A6ACDC" stroke-width="1.2" stroke-linecap="round" stroke-linejoin="round"/>
<defs>
<clipPath id="clip0">
<rect width="146" height="98" fill="white"/>
</clipPath>
</defs>
</svg>
