<svg width="58" height="39" viewBox="0 0 58 39" fill="none" xmlns="http://www.w3.org/2000/svg">
<path d="M19.4126 38.9999C19.1775 38.9999 18.9425 38.9167 18.7532 38.7504C18.3375 38.3863 18.2974 37.7528 18.6615 37.3399L24.791 30.3561C25.1551 29.9404 25.7887 29.9001 26.2016 30.2642C26.6173 30.6283 26.6574 31.2619 26.2933 31.6747L20.1638 38.6587C19.9688 38.8852 19.6907 38.9999 19.4126 38.9999Z" fill="#4F5794"/>
<path d="M20.6253 0.740464C20.3902 0.740464 20.1551 0.657359 19.9659 0.491076C19.5502 0.126974 19.51 -0.506599 19.8741 -0.91944L23.5782 -5.13958C23.9423 -5.55529 24.5759 -5.59545 24.9888 -5.23134C25.4045 -4.86724 25.4446 -4.23367 25.0805 -3.82083L21.3764 0.399314C21.1786 0.625803 20.9034 0.740464 20.6253 0.740464Z" fill="#4F5794"/>
<path d="M5.33547 30.9613C5.10038 30.9613 4.86531 30.8781 4.67609 30.7118C4.26039 30.3477 4.22023 29.7141 4.58433 29.3013L29.3605 1.07331C29.7246 0.657602 30.3582 0.617445 30.771 0.981548C31.1867 1.34565 31.2269 1.97922 30.8628 2.39206L6.08661 30.6201C5.89166 30.8466 5.61356 30.9613 5.33547 30.9613Z" fill="#4F5794"/>
<path d="M31.5193 8.54437C31.2842 8.54437 31.0491 8.4612 30.8599 8.29491C30.4442 7.93081 30.4041 7.29724 30.7682 6.8844L47.924 -12.6596C48.2881 -13.0753 48.9217 -13.1154 49.3345 -12.7513C49.7502 -12.3872 49.7904 -11.7537 49.4263 -11.3408L32.2705 8.20315C32.0755 8.42964 31.7974 8.54437 31.5193 8.54437Z" fill="#4F5794"/>
<path d="M43.7415 10.6546C43.5064 10.6546 43.2713 10.5715 43.0821 10.4052C42.6664 10.0411 42.6262 9.40746 42.9904 8.99462L46.6973 4.77448C47.0614 4.35877 47.695 4.31862 48.1078 4.68272C48.5236 5.04682 48.5637 5.68047 48.1996 6.09331L44.4926 10.3134C44.2977 10.5399 44.0196 10.6546 43.7415 10.6546Z" fill="#4F5794"/>
<path d="M35.0601 32.9709C34.825 32.9709 34.5899 32.8879 34.4007 32.7216C33.985 32.3575 33.9449 31.7238 34.309 31.311L59.0851 3.08308C59.4492 2.66737 60.0828 2.62721 60.4957 2.99131C60.9114 3.35542 60.9515 3.98899 60.5874 4.40183L35.8112 32.6298C35.6134 32.8534 35.3353 32.9709 35.0601 32.9709Z" fill="#4F5794"/>
<path d="M1.49975 24.3699C1.14712 24.3699 0.794499 24.2466 0.510671 23.9972C-0.111457 23.4496 -0.174524 22.5035 0.373063 21.8785L5.02899 16.5746C5.57657 15.9525 6.52267 15.8894 7.14766 16.437C7.76979 16.9846 7.83286 17.9307 7.28527 18.5557L2.62935 23.8596C2.33119 24.1979 1.91833 24.3699 1.49975 24.3699Z" fill="#00BAFF"/>
<path d="M24.2432 27.0789C23.7759 27.0789 23.3028 26.9155 22.9244 26.5829C22.093 25.8547 22.0128 24.5904 22.741 23.7589L38.1336 6.22471C38.8618 5.39329 40.1261 5.31305 40.9575 6.04125C41.7889 6.76946 41.8692 8.03374 41.141 8.86515L25.7484 26.3994C25.3527 26.8495 24.7994 27.0789 24.2432 27.0789Z" fill="#00BAFF"/>
<path d="M53.1275 5.78627C52.7748 5.78627 52.4222 5.66298 52.1384 5.41356C51.5162 4.86597 51.4532 3.91991 52.0007 3.29491L59.6956 -5.47224C60.2432 -6.09437 61.1893 -6.15743 61.8143 -5.60985C62.4364 -5.06226 62.4995 -4.11613 61.9519 -3.49113L54.257 5.27595C53.9589 5.61425 53.5432 5.78627 53.1275 5.78627Z" fill="#00BAFF"/>
</svg>
