<svg width="90" height="90" viewBox="0 0 90 90" fill="none" xmlns="http://www.w3.org/2000/svg">
<path d="M45 1C50.7782 1 56.4997 2.13809 61.8381 4.3493C67.1764 6.56051 72.0269 9.80153 76.1127 13.8873C80.1985 17.9731 83.4395 22.8236 85.6507 28.1619C87.8619 33.5003 89 39.2218 89 45C89 50.7782 87.8619 56.4998 85.6507 61.8381C83.4395 67.1764 80.1985 72.0269 76.1127 76.1127C72.0269 80.1985 67.1764 83.4395 61.8381 85.6507C56.4997 87.8619 50.7781 89 45 89C39.2218 89 33.5002 87.8619 28.1619 85.6507C22.8236 83.4395 17.9731 80.1985 13.8873 76.1127C9.80151 72.0269 6.5605 67.1764 4.34929 61.8381C2.13809 56.4997 0.999997 50.7781 1 45C1 39.2218 2.1381 33.5002 4.34931 28.1619C6.56052 22.8236 9.80154 17.9731 13.8873 13.8873C17.9731 9.80151 22.8236 6.56049 28.162 4.34929C33.5003 2.13809 39.2219 0.999996 45 1L45 1Z" stroke="#4F5794" stroke-width="2" stroke-linecap="round"/>
<circle cx="45" cy="45" r="35" fill="#FFF4F5"/>
<g>
<path d="M56.9052 54.0766H33.0947V41.1712C33.0947 34.624 38.4023 29.3164 44.9495 29.3164H45.0503C51.5975 29.3164 56.9051 34.624 56.9051 41.1712V54.0766H56.9052Z" fill="#FF5E57"/>
<path d="M45.0504 29.3154H44.9497C44.606 29.3154 44.2659 29.3309 43.9297 29.3596C49.9993 29.8769 54.7645 34.9667 54.7645 41.1703V54.0757H56.9053V41.1702C56.9053 34.6231 51.5977 29.3154 45.0504 29.3154V29.3154Z" fill="#F7372F"/>
<path d="M41.3721 54.0757V42.426C41.3721 40.4504 42.9792 38.8433 44.9548 38.8433H45.0449C47.0204 38.8433 48.6276 40.4504 48.6276 42.426V54.0757H41.3721Z" fill="#DE2A2E"/>
<path d="M45.0451 38.8433H44.9549C44.5987 38.8433 44.2547 38.8963 43.9297 38.9935C45.4071 39.4357 46.4871 40.8067 46.4871 42.426V54.0757H48.6278V42.426C48.6278 40.4504 47.0206 38.8433 45.0451 38.8433V38.8433Z" fill="#CF1D21"/>
<path d="M60.9673 61.9998H29.0327C28.3765 61.9998 27.9357 61.3278 28.198 60.7274L31.1857 53.8865C31.514 53.1349 32.2611 52.6484 33.0871 52.6484H56.913C57.739 52.6484 58.4861 53.1349 58.8144 53.8865L61.8021 60.7274C62.0643 61.3279 61.6235 61.9998 60.9673 61.9998Z" fill="#C2D8ED"/>
<path d="M61.8023 60.7274L58.8146 53.8865C58.4863 53.1349 57.7392 52.6484 56.9132 52.6484H54.7725C55.5985 52.6484 56.3456 53.135 56.6739 53.8865L59.6616 60.7274C59.9238 61.3279 59.483 61.9998 58.8268 61.9998H60.9676C61.6238 61.9998 62.0645 61.3279 61.8023 60.7274Z" fill="#B4CAE0"/>
<path d="M53.2427 41.655C52.9472 41.655 52.7075 41.4155 52.7075 41.1199C52.7075 36.9083 49.25 33.482 45 33.482C44.7045 33.482 44.4648 33.2424 44.4648 32.9468C44.4648 32.6512 44.7045 32.4116 45 32.4116C49.8402 32.4116 53.7779 36.3182 53.7779 41.1199C53.7779 41.4155 53.5383 41.655 53.2427 41.655Z" fill="white"/>
<path d="M29.2912 26.8327C29.082 26.6238 28.7431 26.6242 28.5344 26.8333C28.3255 27.0426 28.3258 27.3814 28.535 27.5902L32.9002 31.9482C33.0047 32.0525 33.1415 32.1046 33.2784 32.1046C33.4154 32.1046 33.5526 32.0522 33.6571 31.9475C33.866 31.7383 33.8657 31.3995 33.6565 31.1907L29.2912 26.8327Z" fill="#FFA6A3"/>
<path d="M34.6828 26.3472C34.5788 26.0706 34.2701 25.9302 33.9936 26.0345C33.7169 26.1384 33.5769 26.4469 33.6808 26.7236L34.8097 29.7291C34.8904 29.9438 35.0942 30.0761 35.3108 30.0761C35.3733 30.0761 35.437 30.0651 35.4989 30.0419C35.7756 29.9379 35.9156 29.6294 35.8117 29.3526L34.6828 26.3472Z" fill="#FFA6A3"/>
<path d="M31.77 33.359L28.609 32.1944C28.3315 32.0919 28.024 32.2343 27.9218 32.5115C27.8196 32.7889 27.9616 33.0965 28.239 33.1987L31.4001 34.3633C31.4611 34.3858 31.5236 34.3965 31.585 34.3965C31.8029 34.3965 32.0075 34.2625 32.0873 34.0462C32.1894 33.7688 32.0474 33.4612 31.77 33.359Z" fill="#FFA6A3"/>
<path d="M61.4657 26.8334C61.2569 26.6241 60.918 26.6239 60.7089 26.8328L56.3436 31.1908C56.1344 31.3996 56.1341 31.7384 56.343 31.9476C56.4475 32.0523 56.5846 32.1046 56.7217 32.1046C56.8585 32.1046 56.9954 32.0525 57.0999 31.9482L61.4652 27.5903C61.6743 27.3814 61.6746 27.0426 61.4657 26.8334V26.8334Z" fill="#FFA6A3"/>
<path d="M56.0067 26.0344C55.7302 25.9303 55.4215 26.0704 55.3176 26.3471L54.1886 29.3526C54.0847 29.6293 54.2247 29.9378 54.5015 30.0418C54.5635 30.0651 54.6271 30.0761 54.6896 30.0761C54.9061 30.0761 55.11 29.9437 55.1906 29.729L56.3196 26.7235C56.4235 26.4468 56.2835 26.1383 56.0067 26.0344V26.0344Z" fill="#FFA6A3"/>
<path d="M62.0784 32.5115C61.9762 32.2341 61.6686 32.0919 61.3913 32.1944L58.2302 33.359C57.9528 33.4612 57.8108 33.7688 57.913 34.0462C57.9927 34.2626 58.1974 34.3965 58.4153 34.3965C58.4767 34.3965 58.5393 34.3859 58.6003 34.3633L61.7613 33.1987C62.0386 33.0966 62.1806 32.7889 62.0784 32.5115Z" fill="#FFA6A3"/>
</g>
<defs>
</defs>
</svg>
