<svg width="146" height="95" viewBox="0 0 146 95" fill="none" xmlns="http://www.w3.org/2000/svg">
<path d="M75 6C44.6243 6 20 30.6243 20 61C20 73.0822 23.8959 84.2545 30.5 93.3292H119.5C126.104 84.2545 130 73.0822 130 61C130 30.6243 105.376 6 75 6Z" fill="#F2ECE1"/>
<rect x="35" y="93" width="99" height="2" rx="1" fill="#F2ECE1"/>
<rect y="93" width="39" height="2" rx="1" fill="#F2ECE1"/>
<rect x="137" y="93" width="9" height="2" rx="1" fill="#F2ECE1"/>
<path d="M49.125 45.7812H99.75V90.7812H49.125V45.7812Z" fill="url(#paint0_linear)"/>
<path d="M63.6287 45.7812L49.125 57.8363V45.7812H63.6287Z" fill="#D18D28"/>
<path d="M99.2188 7.03125C100.772 7.03125 102.031 5.77205 102.031 4.21875C102.031 2.66545 100.772 1.40625 99.2188 1.40625C97.6654 1.40625 96.4062 2.66545 96.4062 4.21875C96.4062 5.77205 97.6654 7.03125 99.2188 7.03125Z" fill="#43DCFE"/>
<path d="M88.5 45.7812C90.0533 45.7812 91.3125 44.5221 91.3125 42.9688C91.3125 41.4154 90.0533 40.1562 88.5 40.1562C86.9467 40.1562 85.6875 41.4154 85.6875 42.9688C85.6875 44.5221 86.9467 45.7812 88.5 45.7812Z" fill="#43DCFE"/>
<path d="M99.4063 23.625C99.1282 23.625 98.8563 23.5426 98.625 23.3881C98.3937 23.2335 98.2135 23.0139 98.1071 22.7569C98.0006 22.5 97.9728 22.2172 98.027 21.9444C98.0813 21.6716 98.2152 21.4211 98.4119 21.2244L101.224 18.4119C101.488 18.1482 101.846 18 102.219 18C102.592 18 102.949 18.1482 103.213 18.4119C103.477 18.6756 103.625 19.0333 103.625 19.4063C103.625 19.7793 103.477 20.137 103.213 20.4007L100.401 23.2132C100.27 23.3439 100.115 23.4477 99.9446 23.5183C99.7739 23.589 99.591 23.6253 99.4063 23.625Z" fill="#00BAFF"/>
<path d="M35.2188 27.625C35.0341 27.6253 34.8511 27.589 34.6805 27.5183C34.5098 27.4477 34.3548 27.3439 34.2244 27.2132L31.4119 24.4007C31.1482 24.137 31 23.7793 31 23.4063C31 23.0333 31.1482 22.6756 31.4119 22.4119C31.6756 22.1482 32.0333 22 32.4063 22C32.7793 22 33.1369 22.1482 33.4007 22.4119L36.2132 25.2244C36.4099 25.4211 36.5438 25.6716 36.5981 25.9444C36.6523 26.2172 36.6245 26.5 36.518 26.7569C36.4116 27.0139 36.2313 27.2335 36.0001 27.3881C35.7688 27.5426 35.4969 27.625 35.2188 27.625Z" fill="#00BAFF"/>
<path d="M25.2129 54.6529L68.4691 18.7091L77.4551 29.5232L34.1988 65.467L25.2129 54.6529Z" fill="url(#paint1_linear)"/>
<path d="M49.125 62.6562H99.75V73.9062H49.125V62.6562Z" fill="#00BAFF"/>
<path d="M68.8125 45.7812H80.0625V90.7812H68.8125V45.7812Z" fill="#00BAFF"/>
<path d="M81.3988 11.2889L83.7393 18.4924H91.3128C91.6091 18.4927 91.8977 18.5866 92.1373 18.7609C92.3769 18.9351 92.5553 19.1807 92.6468 19.4624C92.7384 19.7442 92.7384 20.0477 92.647 20.3295C92.5556 20.6113 92.3773 20.8569 92.1378 21.0313L86.0102 25.4838L88.3508 32.6873C88.4423 32.9693 88.4423 33.2729 88.3506 33.5549C88.259 33.8368 88.0805 34.0825 87.8406 34.2567C87.6008 34.4309 87.312 34.5248 87.0155 34.5248C86.7191 34.5249 86.4303 34.4311 86.1904 34.2569L80.0628 29.8048L73.9353 34.2569C73.6954 34.4311 73.4066 34.5249 73.1101 34.5248C72.8137 34.5248 72.5249 34.4309 72.2851 34.2567C72.0452 34.0825 71.8667 33.8368 71.7751 33.5549C71.6834 33.2729 71.6834 32.9693 71.7749 32.6873L74.1155 25.4838L67.9879 21.0313C67.7484 20.8569 67.5701 20.6113 67.4787 20.3295C67.3872 20.0477 67.3873 19.7442 67.4789 19.4624C67.5704 19.1807 67.7488 18.9351 67.9884 18.7609C68.228 18.5866 68.5166 18.4927 68.8128 18.4924H76.3873L78.7278 11.2889C78.8192 11.0067 78.9977 10.7607 79.2376 10.5862C79.4776 10.4117 79.7666 10.3177 80.0633 10.3177C80.36 10.3177 80.649 10.4117 80.889 10.5862C81.1289 10.7607 81.3074 11.0067 81.3988 11.2889Z" fill="url(#paint2_linear)"/>
<path d="M104.613 29.4262L110.265 35.6759L106.091 39.4503L100.44 33.2006L104.613 29.4262Z" fill="#12EEB1"/>
<path d="M46.4043 13.7946L52.8814 8.41243L56.4758 12.7381L49.9987 18.1202L46.4043 13.7946Z" fill="#12EEB1"/>
<path d="M70.2188 13.4375C70.0341 13.4377 69.8511 13.4014 69.6805 13.3308C69.5098 13.2601 69.3548 13.1564 69.2244 13.0256L67.8181 11.6194C67.6876 11.4888 67.584 11.3338 67.5133 11.1631C67.4426 10.9925 67.4062 10.8097 67.4062 10.625C67.4063 10.4403 67.4426 10.2574 67.5133 10.0868C67.584 9.91619 67.6876 9.76117 67.8181 9.63058C67.9487 9.49999 68.1038 9.39641 68.2744 9.32574C68.445 9.25506 68.6279 9.21869 68.8125 9.21869C68.9972 9.21869 69.1801 9.25506 69.3507 9.32574C69.5213 9.39641 69.6763 9.49999 69.8069 9.63058L71.2132 11.0368C71.4099 11.2335 71.5438 11.4841 71.5981 11.7569C71.6523 12.0297 71.6245 12.3124 71.518 12.5694C71.4116 12.8263 71.2313 13.046 71.0001 13.2005C70.7688 13.355 70.4969 13.4375 70.2188 13.4375Z" fill="#FAA6B2"/>
<path d="M58.9688 30.3125C60.5221 30.3125 61.7812 29.0533 61.7812 27.5C61.7812 25.9467 60.5221 24.6875 58.9688 24.6875C57.4154 24.6875 56.1562 25.9467 56.1562 27.5C56.1562 29.0533 57.4154 30.3125 58.9688 30.3125Z" fill="#12EEB1"/>
<path d="M99.2188 0C98.3844 0 97.5687 0.247425 96.8749 0.710988C96.1812 1.17455 95.6404 1.83343 95.3211 2.6043C95.0018 3.37518 94.9183 4.22343 95.0811 5.04179C95.2438 5.86014 95.6456 6.61185 96.2356 7.20186C96.8257 7.79186 97.5774 8.19366 98.3957 8.35644C99.2141 8.51922 100.062 8.43567 100.833 8.11637C101.604 7.79706 102.263 7.25633 102.727 6.56256C103.19 5.86879 103.438 5.05314 103.438 4.21875C103.436 3.10025 102.991 2.02793 102.2 1.23703C101.41 0.446134 100.337 0.00125619 99.2188 0ZM99.2188 5.625C98.9406 5.625 98.6687 5.54252 98.4375 5.388C98.2062 5.23348 98.026 5.01386 97.9196 4.7569C97.8131 4.49994 97.7853 4.21719 97.8395 3.9444C97.8938 3.67162 98.0277 3.42105 98.2244 3.22438C98.4211 3.02771 98.6716 2.89378 98.9444 2.83952C99.2172 2.78526 99.4999 2.81311 99.7569 2.91954C100.014 3.02598 100.233 3.20622 100.388 3.43748C100.543 3.66874 100.625 3.94062 100.625 4.21875C100.625 4.59158 100.476 4.94902 100.213 5.21266C99.949 5.47629 99.5916 5.62458 99.2188 5.625Z" fill="#1F233F"/>
<path d="M110.406 19.625C110.591 19.6253 110.774 19.589 110.945 19.5183C111.115 19.4477 111.27 19.3439 111.401 19.2132L114.213 16.4007C114.477 16.137 114.625 15.7793 114.625 15.4063C114.625 15.0333 114.477 14.6756 114.213 14.4119C113.949 14.1482 113.592 14 113.219 14C112.846 14 112.488 14.1482 112.224 14.4119L109.412 17.2244C109.215 17.4211 109.081 17.6716 109.027 17.9444C108.973 18.2172 109.001 18.5 109.107 18.7569C109.213 19.0139 109.394 19.2335 109.625 19.3881C109.856 19.5426 110.128 19.625 110.406 19.625Z" fill="#1F233F"/>
<path d="M99.7499 44.375H92.4768C92.7021 43.7386 92.7714 43.0575 92.6789 42.3888C92.5863 41.7201 92.3347 41.0834 91.945 40.5321C91.5554 39.9808 91.0392 39.5311 90.4397 39.2207C89.8402 38.9103 89.175 38.7483 88.4999 38.7483C87.8249 38.7483 87.1596 38.9103 86.5602 39.2207C85.9607 39.5311 85.4444 39.9808 85.0548 40.5321C84.6652 41.0834 84.4135 41.7201 84.321 42.3888C84.2285 43.0575 84.2978 43.7386 84.5231 44.375H61.7866L72.1472 35.764C72.4548 35.8802 72.7809 35.9402 73.1097 35.9412C73.7046 35.939 74.2833 35.7474 74.7621 35.3943L80.0624 31.543L85.3633 35.3942C85.8434 35.7429 86.4215 35.9308 87.0149 35.9308C87.6083 35.9308 88.1865 35.7429 88.6666 35.3942C89.1467 35.0454 89.504 34.5536 89.6874 33.9892C89.8708 33.4249 89.8708 32.817 89.6875 32.2526L87.6627 26.0208L92.9648 22.1696C93.4449 21.8208 93.8023 21.3289 93.9856 20.7644C94.169 20.2 94.1689 19.592 93.9855 19.0276C93.802 18.4632 93.4446 17.9713 92.9644 17.6226C92.4842 17.2738 91.9059 17.0861 91.3124 17.0862H84.7598L82.7343 10.8546C82.5509 10.2902 82.1935 9.79844 81.7134 9.44967C81.2333 9.1009 80.6551 8.91306 80.0617 8.91306C79.4683 8.91306 78.8901 9.1009 78.41 9.44967C77.93 9.79844 77.5726 10.2902 77.3891 10.8546L75.365 17.0862H68.8124C68.2696 17.0801 67.737 17.2342 67.2813 17.5292C66.8256 17.8242 66.467 18.247 66.2502 18.7447C66.19 18.7806 66.1326 18.8209 66.0783 18.8653L60.444 23.5481C59.7479 23.2872 58.9952 23.2151 58.2623 23.339C57.5293 23.4629 56.8422 23.7784 56.2705 24.2536C55.6988 24.7287 55.263 25.3466 55.0072 26.0446C54.7514 26.7425 54.6847 27.4957 54.8139 28.2277L24.3199 53.5724C24.1779 53.6904 24.0605 53.8353 23.9745 53.9987C23.8884 54.1621 23.8354 54.3409 23.8184 54.5248C23.8015 54.7086 23.8209 54.8941 23.8756 55.0705C23.9303 55.2468 24.0192 55.4107 24.1373 55.5528L33.1258 66.3675C33.3642 66.6543 33.7067 66.8347 34.0781 66.869C34.1213 66.873 34.1644 66.875 34.2074 66.875C34.5358 66.8751 34.8538 66.7601 35.1062 66.5502L47.7187 56.0674V90.7812C47.7187 91.1542 47.8668 91.5119 48.1306 91.7756C48.3943 92.0393 48.752 92.1875 49.1249 92.1875H99.7499C100.123 92.1875 100.481 92.0393 100.744 91.7756C101.008 91.5119 101.156 91.1542 101.156 90.7812V45.7813C101.156 45.4083 101.008 45.0506 100.744 44.7869C100.481 44.5232 100.123 44.375 99.7499 44.375ZM98.3437 61.25H81.4687V47.1875H98.3437V61.25ZM98.3437 72.5H81.4687V64.0625H98.3437V72.5ZM87.0937 42.9688C87.0937 42.6906 87.1761 42.4187 87.3307 42.1875C87.4852 41.9562 87.7048 41.776 87.9618 41.6695C88.2187 41.5631 88.5015 41.5353 88.7743 41.5895C89.0471 41.6438 89.2976 41.7777 89.4943 41.9744C89.691 42.171 89.8249 42.4216 89.8792 42.6944C89.9334 42.9672 89.9056 43.2499 89.7991 43.5069C89.6927 43.7639 89.5125 43.9835 89.2812 44.138C89.0499 44.2925 88.7781 44.375 88.4999 44.375C88.1271 44.3746 87.7696 44.2263 87.506 43.9627C87.2424 43.699 87.0941 43.3416 87.0937 42.9688ZM50.5312 64.0625H67.4062V72.5H50.5312V64.0625ZM76.3868 19.8987C76.6838 19.8987 76.9731 19.8047 77.2134 19.6301C77.4536 19.4555 77.6324 19.2094 77.7242 18.927L80.0624 11.7305L82.4003 18.927C82.4921 19.2094 82.6709 19.4555 82.9111 19.6301C83.1514 19.8047 83.4407 19.8987 83.7377 19.8987H91.3043L85.1828 24.346C84.9426 24.5206 84.7639 24.7667 84.6722 25.0491C84.5805 25.3314 84.5805 25.6356 84.6723 25.918L87.0102 33.1143L80.8886 28.6672C80.6484 28.4928 80.3592 28.3989 80.0624 28.3989C79.7656 28.3989 79.4764 28.4928 79.2363 28.6672L73.1147 33.1145L75.4526 25.918C75.5443 25.6356 75.5443 25.3314 75.4525 25.049C75.3607 24.7666 75.1819 24.5205 74.9417 24.346L68.8202 19.8987H76.3868ZM58.9687 26.0938C59.2113 26.0936 59.4498 26.1563 59.6611 26.2756C59.8723 26.3949 60.0491 26.5669 60.1742 26.7748C60.2994 26.9826 60.3686 27.2194 60.3752 27.4619C60.3817 27.7044 60.3254 27.9445 60.2118 28.1589C60.0981 28.3732 59.9309 28.5545 59.7264 28.6851C59.5219 28.8157 59.2871 28.8912 59.0449 28.9042C58.8026 28.9172 58.5611 28.8674 58.3438 28.7594C58.1265 28.6515 57.9408 28.4891 57.8048 28.2882C57.764 28.1511 57.7022 28.0211 57.6218 27.9027C57.5588 27.6928 57.5457 27.4711 57.5836 27.2552C57.6216 27.0394 57.7095 26.8354 57.8404 26.6596C57.9713 26.4838 58.1415 26.341 58.3374 26.2428C58.5333 26.1445 58.7495 26.0935 58.9687 26.0938ZM34.3899 63.4884L27.199 54.8366L56.2316 30.7064C56.9873 31.3531 57.9474 31.7117 58.942 31.7188C59.9366 31.7259 60.9017 31.3811 61.6666 30.7453C62.4315 30.1096 62.947 29.2238 63.1219 28.2447C63.2968 27.2655 63.1198 26.2561 62.6223 25.3948L66.8349 21.8936C66.9368 21.9934 67.0458 22.0857 67.161 22.1698L72.462 26.021L70.4372 32.2526C70.2929 32.691 70.2578 33.158 70.335 33.613L34.3899 63.4884ZM58.4027 47.1875H67.4062V61.25H50.5312V53.7299L58.4027 47.1875ZM50.5312 75.3125H67.4062V89.375H50.5312V75.3125ZM70.2187 89.375V47.1875H78.6562V89.375H70.2187ZM81.4687 89.375V75.3125H98.3437V89.375H81.4687Z" fill="#1F233F"/>
<path d="M105.623 28.4634C105.499 28.3264 105.349 28.2151 105.182 28.1359C105.016 28.0567 104.835 28.0111 104.65 28.0018C104.466 27.9925 104.281 28.0196 104.107 28.0816C103.934 28.1435 103.773 28.2392 103.636 28.363L99.4634 32.1348C99.3264 32.2586 99.2151 32.4082 99.1359 32.575C99.0567 32.7419 99.0111 32.9227 99.0018 33.1071C98.9925 33.2916 99.0196 33.4761 99.0816 33.65C99.1435 33.824 99.2392 33.9841 99.363 34.1211L105.011 40.3698C105.135 40.5068 105.284 40.6181 105.451 40.6972C105.618 40.7764 105.799 40.822 105.983 40.8313C106.168 40.8406 106.352 40.8135 106.526 40.7515C106.7 40.6895 106.86 40.5938 106.997 40.47L111.17 36.6982C111.307 36.5744 111.418 36.4248 111.498 36.2579C111.577 36.0911 111.622 35.9103 111.632 35.7258C111.641 35.5414 111.614 35.3569 111.552 35.1829C111.49 35.009 111.394 34.8489 111.27 34.7119L105.623 28.4634ZM106.155 37.4405L102.393 33.2782L104.479 31.3924L108.241 35.5548L106.155 37.4405Z" fill="#1F233F"/>
<path d="M51.9849 7.32477L45.5074 12.7084C45.3654 12.8265 45.248 12.9713 45.162 13.1347C45.0759 13.2981 45.0229 13.4769 45.0059 13.6608C44.989 13.8447 45.0084 14.0301 45.0631 14.2065C45.1178 14.3829 45.2067 14.5468 45.3248 14.6888L48.9202 19.0146C49.0382 19.1566 49.1831 19.2741 49.3465 19.3601C49.5099 19.4462 49.6887 19.4992 49.8726 19.5162C50.0565 19.5332 50.242 19.5138 50.4184 19.4591C50.5948 19.4044 50.7587 19.3154 50.9007 19.1974L57.3781 13.8136C57.5201 13.6955 57.6375 13.5506 57.7235 13.3872C57.8095 13.2238 57.8625 13.0451 57.8795 12.8612C57.8964 12.6773 57.877 12.4919 57.8222 12.3155C57.7675 12.1391 57.6786 11.9752 57.5606 11.8332L53.9653 7.50741C53.8473 7.36539 53.7024 7.248 53.539 7.16196C53.3756 7.07592 53.1968 7.0229 53.013 7.00594C52.8291 6.98898 52.6436 7.00841 52.4672 7.06312C52.2909 7.11782 52.127 7.20673 51.9849 7.32477ZM50.1844 16.1356L48.3867 13.9735L52.7013 10.3876L54.499 12.5497L50.1844 16.1356Z" fill="#1F233F"/>
<path d="M69.2244 13.0256C69.4881 13.2893 69.8458 13.4375 70.2188 13.4375C70.5918 13.4375 70.9495 13.2893 71.2132 13.0256C71.4769 12.7619 71.6251 12.4042 71.6251 12.0312C71.6251 11.6583 71.4769 11.3006 71.2132 11.0368L69.8069 9.63058C69.6764 9.49999 69.5213 9.39641 69.3507 9.32574C69.1801 9.25506 68.9972 9.21869 68.8125 9.21869C68.6279 9.21869 68.445 9.25506 68.2744 9.32574C68.1038 9.39641 67.9487 9.49999 67.8181 9.63058C67.6876 9.76117 67.584 9.91619 67.5133 10.0868C67.4426 10.2574 67.4062 10.4403 67.4062 10.625C67.4062 10.8097 67.4426 10.9925 67.5133 11.1631C67.584 11.3338 67.6876 11.4888 67.8181 11.6194L69.2244 13.0256Z" fill="#1F233F"/>
<defs>
<linearGradient id="paint0_linear" x1="74.4375" y1="45.7812" x2="74.4375" y2="90.7812" gradientUnits="userSpaceOnUse">
<stop stop-color="#FFCB66"/>
<stop offset="1" stop-color="#FFA800"/>
</linearGradient>
<linearGradient id="paint1_linear" x1="67.125" y1="26.375" x2="28.5" y2="58.625" gradientUnits="userSpaceOnUse">
<stop stop-color="#FFCB66"/>
<stop offset="1" stop-color="#FFA800"/>
</linearGradient>
<linearGradient id="paint2_linear" x1="80.0628" y1="10.3177" x2="80.0628" y2="34.5248" gradientUnits="userSpaceOnUse">
<stop stop-color="#FFCB66"/>
<stop offset="1" stop-color="#FFA800"/>
</linearGradient>
</defs>
</svg>
