<svg width="26" height="26" viewBox="0 0 26 26" fill="none" xmlns="http://www.w3.org/2000/svg">
<path fill-rule="evenodd" clip-rule="evenodd" d="M15.5141 17.4551C14.3134 16.1384 13.0375 14.7393 13.2695 12.6701C13.306 12.3445 13.3798 12.0023 13.4971 11.6413L13.1567 11.2324L14.5764 10.0365L14.001 11.8071C13.5549 13.1799 13.8095 14.218 14.3478 15.1373C14.755 15.8326 15.2989 16.4289 15.8683 17.0533C16.0983 17.3054 16.3324 17.5621 16.5633 17.8317C17.324 18.7197 18.0395 19.7493 17.9689 21.0512C17.926 21.844 17.5961 22.6726 16.9207 23.5776C18.0972 22.8822 19.0713 21.9131 19.6985 20.7801C20.6747 19.0166 20.8268 16.8318 19.5556 14.579C18.2123 12.1984 17.8241 10.4909 17.8122 9.32261C17.8063 9.33384 17.8005 9.34509 17.7947 9.3564C17.5301 9.87352 17.4186 10.4411 17.4616 10.9093C17.4857 11.1706 17.4552 11.4161 17.3468 11.6285C17.2346 11.8481 17.0634 11.9843 16.8938 12.0606C16.7331 12.1329 16.5798 12.1495 16.4783 12.1518C16.4254 12.153 16.3802 12.1504 16.3462 12.1473C16.3291 12.1456 16.3144 12.1438 16.3025 12.1422L16.2916 12.1406L16.2867 12.1398L16.2804 12.1388L16.2776 12.1383L16.2764 12.1381L16.2758 12.138C16.2755 12.1379 16.2752 12.1379 16.368 11.6128C16.368 11.6128 17.0045 11.7267 16.9337 10.9584C16.8531 10.0815 17.2082 9.00515 17.9159 8.27904C18.1461 8.04283 18.4137 7.84368 18.7156 7.70053C18.7156 7.70053 18.5077 7.95944 18.4021 8.5484C18.231 9.50296 18.3288 11.3245 20.0167 14.3157C22.5047 18.7249 19.9397 23.0163 16.0279 24.6136C15.6484 24.7685 15.2563 24.8981 14.8549 25C15.18 24.7089 15.4695 24.4294 15.726 24.1605C18.7443 20.9974 17.2037 19.3079 15.5141 17.4551ZM15.8731 9.74907C15.8731 9.74907 15.4771 11.3139 16.368 11.6128L16.2752 12.1379C16.2498 12.1334 16.2247 12.1269 16.2003 12.1187C15.4047 11.8518 15.2697 11.04 15.2565 10.5843C15.2491 10.3272 15.275 10.0879 15.3012 9.91693C15.3145 9.83029 15.3283 9.75832 15.3391 9.70688C15.3429 9.68829 15.3465 9.67229 15.3494 9.65915C15.7032 6.26581 14.5148 4.04501 13.4595 2.78137C13.4785 2.94053 13.4915 3.1009 13.4991 3.26146C13.5437 4.19891 13.4089 5.1896 13.1674 6.08669C12.9266 6.98083 12.5713 7.8132 12.1526 8.42464C11.9437 8.72973 11.7048 9.00067 11.4375 9.19291C11.1694 9.38571 10.8381 9.52243 10.4706 9.48283C10.1938 9.45301 9.94392 9.3628 9.73684 9.20283C9.52964 9.04275 9.39527 8.83597 9.31333 8.62056C9.21504 8.36203 9.188 8.08056 9.19669 7.81232C8.67937 8.71019 8.51507 9.79899 8.45617 10.8879C8.43639 11.2538 8.42881 11.6088 8.42149 11.952V11.952V11.9523C8.42035 12.005 8.41924 12.0575 8.41807 12.1098C8.40954 12.4949 8.39891 12.871 8.36569 13.2028C8.33319 13.5277 8.27511 13.8596 8.14692 14.1374C8.01055 14.4329 7.77521 14.7036 7.39412 14.8035C6.91819 14.9283 6.48986 14.865 6.15108 14.6137C6.06294 14.5482 5.98673 14.4744 5.92075 14.3957C5.46004 16.0203 5.44147 17.3771 5.68587 18.5069C6.00479 19.9812 6.78273 21.1207 7.71034 21.9966C8.49993 22.7421 9.38954 23.2885 10.1734 23.676C8.82119 21.9107 8.44705 20.238 8.48883 18.8802C8.51602 17.9963 8.71882 17.2675 8.91575 16.7578C9.01434 16.5026 9.112 16.3009 9.18675 16.1603C9.22415 16.0899 9.25594 16.0347 9.27935 15.9956C9.29106 15.976 9.30071 15.9604 9.30792 15.9489C9.3097 15.9461 9.31132 15.9435 9.3128 15.9413C9.31434 15.9388 9.31572 15.9367 9.31691 15.9348L9.31739 15.9341C9.3163 15.933 9.3158 15.9322 9.31593 15.9319C9.36327 15.8492 9.41571 15.7521 9.47236 15.6472C9.72973 15.1706 10.0749 14.5315 10.4323 14.3326C10.4462 14.7634 10.3857 15.2907 10.3384 15.7038C10.3082 15.9676 10.2833 16.1847 10.2865 16.3004C10.2865 16.3014 10.2865 16.3024 10.2865 16.3034L10.2875 16.3038C10.2871 16.3065 10.2867 16.3092 10.2863 16.3119C10.2859 16.3175 10.2851 16.3227 10.284 16.3275C10.1393 17.3012 10.3619 18.0042 10.639 18.4056C10.781 18.6113 10.9266 18.7237 11.0307 18.7713C11.0509 18.7805 11.0679 18.7868 11.0821 18.791C11.0869 18.7599 11.0904 18.721 11.0915 18.6744C11.0934 18.5927 11.0873 18.511 11.08 18.4474C11.0765 18.4164 11.0729 18.3916 11.0703 18.3755L11.0684 18.3634C10.5585 16.123 11.0694 14.3425 11.7139 13.1245C12.0353 12.5172 12.3891 12.0504 12.6645 11.7337C12.8024 11.5751 12.9213 11.4533 13.0076 11.3695C13.0508 11.3276 13.086 11.2951 13.1114 11.2723C13.1241 11.2608 13.1343 11.2518 13.1419 11.2451L13.1514 11.237L13.1546 11.2342L13.1558 11.2332L13.1563 11.2328C13.1565 11.2326 13.1567 11.2324 13.4971 11.6413C13.4971 11.6413 13.1635 11.9224 12.7618 12.4591C11.9852 13.4969 10.9541 15.4904 11.5879 18.2565C11.5879 18.2565 11.7436 19.0675 11.3899 19.2667C10.8836 19.5518 9.98718 18.8962 9.76122 17.5676C9.69453 17.1754 9.68623 16.7247 9.76361 16.2221L9.66921 16.159C9.66918 16.159 9.66916 16.159 9.66913 16.159C9.69813 16.1784 9.72957 16.1994 9.76361 16.2221C9.76361 16.2221 9.44108 16.7104 9.2197 17.5347C8.83116 18.9813 8.7541 21.4627 11.2783 24.1559C11.5384 24.4334 11.826 24.7131 12.1438 24.9941C12.0388 24.9679 11.5957 24.8515 10.9776 24.6115C8.51237 23.6543 3.26331 20.7309 5.57407 13.7175C5.69007 13.3655 5.82513 13.0031 5.98054 12.6301C5.98054 12.6301 5.9422 13.2297 6.13395 13.7171C6.29478 14.126 6.61746 14.4561 7.26039 14.2875C7.84469 14.1342 7.86502 13.1802 7.89142 11.9415C7.92679 10.2815 7.97304 8.11048 9.40187 6.67045C9.62926 6.44128 9.89167 6.23061 10.1946 6.04347L10.1942 6.04445C10.1833 6.06869 10.0057 6.46355 9.87235 6.95531C9.65166 7.76877 9.55183 8.84744 10.5271 8.95253C11.9094 9.10144 13.5498 4.77715 12.7806 2.06577C12.6683 1.66979 12.5046 1.30822 12.2812 1C12.2907 1.00562 12.7028 1.25306 13.2474 1.77621C14.4603 2.94136 16.3303 5.47413 15.8731 9.74907ZM11.1399 18.7976C11.1399 18.7978 11.1389 18.7982 11.1366 18.7985C11.1387 18.7977 11.1398 18.7975 11.1399 18.7976ZM11.0637 18.8645C11.0637 18.8645 11.0639 18.864 11.0643 18.8632C11.0639 18.8641 11.0637 18.8645 11.0637 18.8645Z" fill="url(#paint0_linear_14261_102025)"/>
<defs>
<linearGradient id="paint0_linear_14261_102025" x1="5.53018" y1="3.8" x2="19.3026" y2="26.9283" gradientUnits="userSpaceOnUse">
<stop offset="0.093512" stop-color="#FFA800"/>
<stop offset="0.872532" stop-color="#FFCF00"/>
</linearGradient>
</defs>
</svg>
