<svg width="30" height="30" viewBox="0 0 30 30" fill="none" xmlns="http://www.w3.org/2000/svg">
<circle cx="15" cy="15" r="15" fill="#4F5794"/>
<path d="M15 8C15.7956 8 16.5587 8.31607 17.1213 8.87868C17.6839 9.44129 18 10.2044 18 11C18 11.7956 17.6839 12.5587 17.1213 13.1213C16.5587 13.6839 15.7956 14 15 14C14.2044 14 13.4413 13.6839 12.8787 13.1213C12.3161 12.5587 12 11.7956 12 11C12 10.2044 12.3161 9.44129 12.8787 8.87868C13.4413 8.31607 14.2044 8 15 8ZM15 15.5C18.315 15.5 21 16.8425 21 18.5V20H9V18.5C9 16.8425 11.685 15.5 15 15.5Z" fill="#A6ACDC"/>
</svg>
