<svg width="39" height="39" viewBox="0 0 39 39" fill="none" xmlns="http://www.w3.org/2000/svg">
<path d="M19.4998 38.25C9.14422 38.25 0.749847 29.8556 0.749847 19.5C0.749847 9.14435 9.14422 0.749969 19.4998 0.749969C29.8555 0.749969 38.2499 9.14435 38.2499 19.5C38.2499 29.8556 29.8555 38.25 19.4998 38.25ZM16.9161 12.7781C16.8033 12.7028 16.6721 12.6595 16.5366 12.6529C16.4011 12.6462 16.2664 12.6765 16.1467 12.7403C16.027 12.8042 15.9269 12.8994 15.857 13.0156C15.7871 13.1319 15.7501 13.2649 15.7498 13.4006V25.5993C15.7501 25.735 15.7871 25.8681 15.857 25.9843C15.9269 26.1006 16.027 26.1957 16.1467 26.2596C16.2664 26.3235 16.4011 26.3537 16.5366 26.3471C16.6721 26.3404 16.8033 26.2971 16.9161 26.2218L26.0642 20.1243C26.1671 20.0559 26.2515 19.9631 26.3098 19.8541C26.3682 19.7452 26.3987 19.6235 26.3987 19.5C26.3987 19.3764 26.3682 19.2547 26.3098 19.1458C26.2515 19.0369 26.1671 18.9441 26.0642 18.8756L16.9142 12.7781H16.9161Z" fill="#1B1E37"/>
</svg>
