<svg width="14" height="18" viewBox="0 0 14 18" fill="none" xmlns="http://www.w3.org/2000/svg">
<path fill-rule="evenodd" clip-rule="evenodd" d="M1.01405 0.00116211C1.18868 0.00973182 1.35772 0.0655065 1.50317 0.162545H1.50075L13.2941 8.02155C13.4267 8.10979 13.5354 8.22942 13.6106 8.36982C13.6858 8.51022 13.7252 8.66702 13.7252 8.8263C13.7252 8.98557 13.6858 9.14238 13.6106 9.28277C13.5354 9.42317 13.4267 9.54281 13.2941 9.63105L1.50317 17.49C1.35772 17.5871 1.18868 17.6429 1.01405 17.6514C0.839415 17.66 0.665726 17.621 0.511478 17.5387C0.357231 17.4564 0.228203 17.3338 0.138132 17.1839C0.0480633 17.034 0.000324249 16.8626 0 16.6877V0.964879C0.000324249 0.790034 0.0480633 0.61855 0.138132 0.468691C0.228203 0.318833 0.357231 0.196208 0.511478 0.113877C0.665726 0.0315443 0.839415 -0.00740761 1.01405 0.00116211Z" fill="white"/>
</svg>
