<svg width="16" height="16" viewBox="0 0 16 16" fill="none" xmlns="http://www.w3.org/2000/svg">
<path d="M12.3574 13.2766L12.0924 12.6116C11.9583 12.2741 11.7508 11.9716 11.4841 11.725L11.4358 11.68C11.0166 11.2916 10.4666 11.075 9.89494 11.075H6.10327C5.5316 11.075 4.98077 11.2916 4.5616 11.6791L4.51327 11.7241C4.24743 11.9708 4.03993 12.2733 3.90493 12.6108L3.6416 13.2766" stroke="#6A73B5" stroke-linecap="round" stroke-linejoin="round"/>
<path d="M9.87167 4.60832C10.905 5.64165 10.905 7.31749 9.87167 8.35165C8.83834 9.38582 7.16251 9.38499 6.12834 8.35165C5.09417 7.31832 5.09501 5.64249 6.12834 4.60832C7.16167 3.57415 8.83751 3.57499 9.87167 4.60832" stroke="#6A73B5" stroke-linecap="round" stroke-linejoin="round"/>
<path d="M13.8333 15.5H2.16667C1.24583 15.5 0.5 14.7542 0.5 13.8333V2.16667C0.5 1.24583 1.24583 0.5 2.16667 0.5H13.8333C14.7542 0.5 15.5 1.24583 15.5 2.16667V13.8333C15.5 14.7542 14.7542 15.5 13.8333 15.5Z" stroke="#6A73B5" stroke-linecap="round" stroke-linejoin="round"/>
</svg>
