<svg width="24" height="24" viewBox="0 0 24 24" fill="none" xmlns="http://www.w3.org/2000/svg">
<path d="M18.913 12.1305C18.913 12.7826 18.3913 13.3044 17.7391 13.3044H13.0434V17.7392C13.0434 18.3913 12.5217 18.9131 11.8695 18.9131C11.2173 18.9131 10.6956 18.3913 10.6956 17.7392V13.3044H6.26083C5.60865 13.3044 5.08691 12.7826 5.08691 12.1305C5.08691 11.4783 5.60865 10.9565 6.26083 10.9565H10.6956V6.26089C10.6956 5.60871 11.2173 5.08698 11.8695 5.08698C12.5217 5.08698 13.0434 5.60871 13.0434 6.26089V10.9565H17.7391C18.3913 10.9565 18.913 11.4783 18.913 12.1305Z" fill="white"/>
</svg>
