<svg width="145" height="103" viewBox="0 0 145 103" fill="none" xmlns="http://www.w3.org/2000/svg">
<path d="M74.8574 0C41.7203 0 14.8574 26.8629 14.8574 60C14.8574 74.3021 19.8615 87.4355 28.2143 97.7447H121.5C129.853 87.4355 134.857 74.3021 134.857 60C134.857 26.8629 107.994 0 74.8574 0Z" fill="#E6ECF5"/>
<path d="M132 96H34C33.4477 96 33 96.4477 33 97C33 97.5523 33.4477 98 34 98H132C132.552 98 133 97.5523 133 97C133 96.4477 132.552 96 132 96Z" fill="#6A73B5"/>
<path d="M144 96H137C136.448 96 136 96.4477 136 97C136 97.5523 136.448 98 137 98H144C144.552 98 145 97.5523 145 97C145 96.4477 144.552 96 144 96Z" fill="#6A73B5"/>
<path d="M29 96H1C0.447715 96 0 96.4477 0 97C0 97.5523 0.447715 98 1 98H29C29.5523 98 30 97.5523 30 97C30 96.4477 29.5523 96 29 96Z" fill="#6A73B5"/>
<path d="M76.8393 10.2054L79.1339 14.8482C79.2259 15.0323 79.3606 15.1916 79.5268 15.3128C79.6931 15.4339 79.886 15.5135 80.0893 15.5447L85.2232 16.2947C85.4564 16.3299 85.6752 16.4295 85.8549 16.5822C86.0347 16.735 86.1682 16.9348 86.2406 17.1593C86.3129 17.3838 86.3212 17.6241 86.2645 17.853C86.2078 18.082 86.0884 18.2906 85.9197 18.4554L82.2143 22.0714C82.0737 22.2189 81.9709 22.3984 81.9149 22.5943C81.859 22.7903 81.8514 22.9969 81.8929 23.1964L82.7857 28.3036C82.8263 28.5369 82.8007 28.7769 82.7118 28.9965C82.623 29.216 82.4744 29.4063 82.2829 29.5457C82.0915 29.6851 81.8648 29.7681 81.6286 29.7853C81.3924 29.8024 81.1561 29.7531 80.9464 29.6429L76.3572 27.2321C76.1759 27.1352 75.9734 27.0845 75.7679 27.0845C75.5623 27.0845 75.3599 27.1352 75.1786 27.2321L70.5893 29.6429C70.3797 29.7531 70.1434 29.8024 69.9072 29.7853C69.671 29.7681 69.4443 29.6851 69.2528 29.5457C69.0614 29.4063 68.9128 29.216 68.8239 28.9965C68.735 28.7769 68.7094 28.5369 68.75 28.3036L69.6429 23.1964C69.6787 22.9933 69.664 22.7844 69.6002 22.5883C69.5364 22.3921 69.4253 22.2146 69.2768 22.0714L65.5625 18.4554C65.3936 18.29 65.2743 18.0807 65.218 17.8511C65.1618 17.6215 65.1709 17.3807 65.2442 17.156C65.3176 16.9313 65.4523 16.7315 65.6332 16.5793C65.8141 16.4271 66.0339 16.3285 66.2679 16.2947L71.4018 15.5447C71.6051 15.5135 71.798 15.4339 71.9643 15.3128C72.1305 15.1916 72.2652 15.0323 72.3572 14.8482L74.6518 10.2054C74.7618 10.0123 74.921 9.85187 75.1131 9.74024C75.3052 9.62862 75.5234 9.56982 75.7455 9.56982C75.9677 9.56982 76.1859 9.62862 76.378 9.74024C76.5701 9.85187 76.7293 10.0123 76.8393 10.2054Z" stroke="#6A73B5" stroke-width="2" stroke-linecap="round" stroke-linejoin="round"/>
<path d="M102.5 21.2678L102.223 25.4732C102.209 25.6429 102.238 25.8134 102.307 25.9692C102.375 26.1251 102.481 26.2615 102.616 26.366L105.919 28.9732C106.062 29.0944 106.17 29.2522 106.23 29.4297C106.291 29.6072 106.302 29.7978 106.262 29.9811C106.223 30.1644 106.135 30.3335 106.007 30.4705C105.879 30.6075 105.716 30.7072 105.535 30.7589L101.455 31.7946C101.292 31.8347 101.142 31.9143 101.017 32.0264C100.893 32.1386 100.798 32.2798 100.741 32.4375L99.2855 36.3928C99.2169 36.5717 99.1 36.7281 98.9478 36.8445C98.7956 36.9609 98.6141 37.0328 98.4235 37.0523C98.2329 37.0717 98.0406 37.0379 97.8681 36.9546C97.6956 36.8712 97.5495 36.7417 97.4462 36.5803L95.1962 33.0089C95.1082 32.8745 94.9894 32.7631 94.8496 32.6839C94.7098 32.6047 94.5532 32.56 94.3926 32.5535L90.1873 32.3839C89.9892 32.3851 89.795 32.329 89.6281 32.2223C89.4613 32.1157 89.3288 31.963 89.2467 31.7828C89.1646 31.6025 89.1363 31.4024 89.1654 31.2064C89.1945 31.0105 89.2796 30.8272 89.4105 30.6785L92.0891 27.4375C92.1957 27.309 92.2701 27.1568 92.3058 26.9937C92.3415 26.8306 92.3376 26.6613 92.2944 26.5L91.1605 22.4643C91.1067 22.2796 91.1058 22.0834 91.158 21.8983C91.2102 21.7131 91.3134 21.5463 91.4558 21.417C91.5982 21.2876 91.7741 21.2008 91.9634 21.1666C92.1527 21.1323 92.3479 21.1519 92.5266 21.2232L96.4462 22.7857C96.6 22.8477 96.7667 22.8711 96.9316 22.854C97.0966 22.8369 97.2548 22.7797 97.3926 22.6875L100.902 20.3482C101.061 20.2409 101.247 20.1804 101.439 20.1736C101.631 20.1668 101.821 20.214 101.987 20.3098C102.154 20.4056 102.29 20.5461 102.381 20.7155C102.471 20.8848 102.513 21.0762 102.5 21.2678Z" stroke="#6A73B5" stroke-width="2" stroke-linecap="round" stroke-linejoin="round"/>
<path d="M115.687 42.2858L113.902 44.9643C113.831 45.0729 113.787 45.1971 113.775 45.3261C113.762 45.4552 113.781 45.5853 113.83 45.7054L115.027 48.7143C115.082 48.855 115.096 49.0086 115.067 49.157C115.038 49.3054 114.968 49.4425 114.864 49.5521C114.76 49.6618 114.626 49.7395 114.48 49.7762C114.333 49.8128 114.179 49.8068 114.036 49.759L110.911 48.8661C110.788 48.8301 110.659 48.8252 110.534 48.8517C110.409 48.8782 110.293 48.9353 110.196 49.0179L107.696 51.0893C107.583 51.1856 107.445 51.2478 107.298 51.2687C107.151 51.2897 107.001 51.2686 106.866 51.2079C106.73 51.1471 106.615 51.0493 106.533 50.9256C106.45 50.8019 106.405 50.6574 106.402 50.509L106.277 47.2679C106.27 47.1398 106.232 47.0153 106.167 46.9049C106.102 46.7945 106.011 46.7015 105.902 46.634L103.187 44.9643C103.05 44.8903 102.938 44.7777 102.865 44.6405C102.791 44.5033 102.76 44.3475 102.774 44.1925C102.788 44.0374 102.848 43.89 102.945 43.7685C103.042 43.647 103.173 43.5568 103.321 43.509L106.366 42.384C106.492 42.3442 106.606 42.2736 106.698 42.1785C106.79 42.0834 106.857 41.9668 106.893 41.8393L107.669 38.7143C107.706 38.571 107.783 38.4409 107.889 38.3385C107.996 38.2362 108.13 38.1658 108.275 38.1351C108.419 38.1045 108.57 38.1149 108.709 38.1652C108.848 38.2155 108.971 38.3036 109.062 38.4197L111.071 40.9643C111.15 41.0647 111.252 41.144 111.369 41.1954C111.486 41.2468 111.614 41.2687 111.741 41.259L114.973 41.0536C115.121 41.0439 115.268 41.0757 115.399 41.1454C115.53 41.2151 115.638 41.3199 115.713 41.448C115.787 41.5761 115.824 41.7225 115.819 41.8705C115.815 42.0185 115.769 42.1624 115.687 42.2858Z" stroke="#6A73B5" stroke-width="2" stroke-linecap="round" stroke-linejoin="round"/>
<path d="M50.7142 20.3482L54.2142 22.6875C54.3537 22.7798 54.5134 22.8369 54.6798 22.8541C54.8462 22.8712 55.0142 22.8477 55.1696 22.7857L59.0803 21.2232C59.2598 21.1509 59.456 21.1304 59.6466 21.1639C59.8372 21.1974 60.0146 21.2837 60.1586 21.4129C60.3027 21.5421 60.4077 21.7091 60.4617 21.8949C60.5157 22.0808 60.5166 22.278 60.4642 22.4643L59.3214 26.5179C59.2762 26.6784 59.2705 26.8475 59.3047 27.0107C59.3389 27.1739 59.412 27.3265 59.5178 27.4554L62.2499 30.6786C62.3705 30.827 62.4477 31.0058 62.4728 31.1954C62.498 31.3849 62.4702 31.5777 62.3926 31.7524C62.3149 31.9271 62.1904 32.0769 62.0329 32.1853C61.8753 32.2936 61.6909 32.3562 61.4999 32.3661L57.2856 32.5357C57.1189 32.5398 56.9558 32.5852 56.8109 32.6678C56.666 32.7504 56.5438 32.8676 56.4553 33.0089L54.2053 36.5804C54.1033 36.7422 53.9581 36.8723 53.7862 36.9561C53.6142 37.0399 53.4222 37.0739 53.2319 37.0544C53.0416 37.0349 52.8606 36.9627 52.7092 36.8458C52.5577 36.7289 52.442 36.572 52.3749 36.3929L50.866 32.4643C50.8091 32.3066 50.7141 32.1654 50.5895 32.0533C50.4649 31.9411 50.3145 31.8615 50.1517 31.8214L46.0714 30.7679C45.8911 30.7162 45.7283 30.6165 45.6003 30.4795C45.4723 30.3425 45.3838 30.1733 45.3444 29.99C45.305 29.8067 45.3161 29.6162 45.3765 29.4387C45.4369 29.2611 45.5444 29.1034 45.6874 28.9822L48.991 26.375C49.1266 26.2715 49.2338 26.1354 49.3025 25.9792C49.3712 25.8231 49.3992 25.6521 49.3839 25.4822L49.1071 21.2768C49.0947 21.0842 49.1365 20.892 49.2275 20.7219C49.3186 20.5517 49.4554 20.4104 49.6225 20.3139C49.7896 20.2173 49.9804 20.1694 50.1733 20.1754C50.3662 20.1815 50.5535 20.2414 50.7142 20.3482Z" stroke="#6A73B5" stroke-width="2" stroke-linecap="round" stroke-linejoin="round"/>
<path d="M36.3571 41.0357L39.5893 41.25C39.7172 41.2579 39.8451 41.2343 39.9618 41.1814C40.0785 41.1285 40.1805 41.0478 40.2589 40.9464L42.2679 38.4018C42.3603 38.2857 42.4833 38.1979 42.6231 38.1482C42.7629 38.0984 42.9138 38.0888 43.0587 38.1204C43.2036 38.152 43.3369 38.2235 43.4433 38.3269C43.5496 38.4303 43.625 38.5614 43.6607 38.7054L44.3929 41.8393C44.423 41.9648 44.4835 42.081 44.5691 42.1775C44.6548 42.2741 44.7629 42.348 44.8839 42.3929L47.9643 43.5089C48.1124 43.5567 48.2433 43.647 48.3406 43.7685C48.4379 43.89 48.4974 44.0374 48.5117 44.1924C48.5259 44.3474 48.4944 44.5032 48.4209 44.6404C48.3474 44.7777 48.2352 44.8903 48.0982 44.9643L45.3571 46.6875C45.2489 46.7581 45.1587 46.853 45.0936 46.9646C45.0285 47.0762 44.9903 47.2014 44.9821 47.3304L44.8571 50.5714C44.8521 50.7191 44.8055 50.8624 44.7227 50.9848C44.64 51.1072 44.5243 51.2038 44.3892 51.2635C44.254 51.3231 44.1047 51.3435 43.9585 51.3221C43.8123 51.3008 43.675 51.2387 43.5625 51.1429L41.0625 49.0714C40.9643 48.9909 40.8481 48.9351 40.7238 48.9086C40.5995 48.8822 40.4707 48.886 40.3482 48.9197L37.2232 49.8125C37.0806 49.8514 36.9299 49.8497 36.7882 49.8076C36.6465 49.7655 36.5193 49.6848 36.4209 49.5744C36.3226 49.464 36.257 49.3283 36.2316 49.1827C36.2061 49.0371 36.2218 48.8872 36.2768 48.75L37.4732 45.7411C37.53 45.6166 37.5532 45.4794 37.5407 45.3432C37.5282 45.207 37.4803 45.0763 37.4018 44.9643L35.6161 42.2857C35.5268 42.1604 35.4759 42.0118 35.4694 41.858C35.463 41.7043 35.5014 41.552 35.5798 41.4196C35.6583 41.2872 35.7736 41.1805 35.9115 41.1123C36.0495 41.0442 36.2043 41.0176 36.3571 41.0357Z" stroke="#6A73B5" stroke-width="2" stroke-linecap="round" stroke-linejoin="round"/>
<path d="M96.8396 49.1161H54.4467C53.569 49.1161 52.8574 49.8276 52.8574 50.7054V94.9197C52.8574 95.7974 53.569 96.5089 54.4467 96.5089H96.8396C97.7173 96.5089 98.4288 95.7974 98.4288 94.9197V50.7054C98.4288 49.8276 97.7173 49.1161 96.8396 49.1161Z" stroke="#6A73B5" stroke-width="2" stroke-linecap="round" stroke-linejoin="round"/>
<path d="M91.3747 54.5803H59.9194C59.0416 54.5803 58.3301 55.2919 58.3301 56.1696V83.9732C58.3301 84.8509 59.0416 85.5625 59.9194 85.5625H91.3747C92.2525 85.5625 92.964 84.8509 92.964 83.9732V56.1696C92.964 55.2919 92.2525 54.5803 91.3747 54.5803Z" stroke="#6A73B5" stroke-width="2" stroke-linecap="round" stroke-linejoin="round"/>
<path d="M67.7325 68.25V68.9285C65.4647 68.9285 65.6165 72.8928 68.1254 72.8928C68.623 74.499 69.6216 75.9038 70.9752 76.9015C72.3288 77.8993 73.9662 78.4375 75.6477 78.4375C77.3292 78.4375 78.9666 77.8993 80.3202 76.9015C81.6738 75.9038 82.6724 74.499 83.17 72.8928C85.6789 72.8928 85.8486 68.9285 83.5718 68.9285V67.3392C83.5635 66.8988 83.5187 66.4598 83.4379 66.0267" stroke="#6A73B5" stroke-width="2" stroke-linecap="round" stroke-linejoin="round"/>
<path d="M73.0721 69.5714C72.9653 69.5714 72.8632 69.5289 72.7881 69.4537C72.712 69.3777 72.6703 69.2753 72.6703 69.1697C72.6703 69.0637 72.7122 68.9613 72.7881 68.8855C72.8632 68.8104 72.9652 68.7679 73.0721 68.7679C73.1794 68.7679 73.2814 68.8106 73.3563 68.8855C73.4312 68.9604 73.4739 69.0624 73.4739 69.1697C73.4739 69.2766 73.4314 69.3786 73.3563 69.4537C73.2813 69.5287 73.1793 69.5714 73.0721 69.5714ZM73.0721 69.0714C73.0982 69.0714 73.1232 69.0818 73.1416 69.1002C73.16 69.1186 73.1703 69.1436 73.1703 69.1697C73.1703 69.1957 73.16 69.2207 73.1416 69.2391C73.1232 69.2575 73.0982 69.2679 73.0721 69.2679C73.0461 69.2679 73.0211 69.2575 73.0027 69.2391C72.9843 69.2207 72.9739 69.1957 72.9739 69.1697C72.9739 69.1436 72.9843 69.1186 73.0027 69.1002C73.0211 69.0818 73.0461 69.0714 73.0721 69.0714Z" fill="#6A73B5" stroke="#6A73B5"/>
<path d="M77.8518 69.3222C77.8519 69.3225 77.852 69.3228 77.8521 69.3231C77.8623 69.3476 77.8747 69.3709 77.8892 69.3926L78.1418 69.2242M77.8518 69.3222L78.5578 68.9468C78.5725 68.9689 78.5848 68.9921 78.5948 69.0161L78.3142 69.1321M77.8518 69.3222C77.832 69.2741 77.8217 69.2223 77.8217 69.1697M77.8518 69.3222L77.8217 69.1697M78.1418 69.2242L77.8897 69.3933C77.9189 69.4368 77.9562 69.4742 77.9995 69.5032C77.9999 69.5035 78.0003 69.5038 78.0006 69.504C78.0226 69.5186 78.0458 69.531 78.0699 69.5409L78.1859 69.2604M78.1418 69.2242C78.1489 69.2349 78.158 69.244 78.1686 69.2511C78.1687 69.2512 78.1689 69.2513 78.169 69.2514C78.1743 69.2549 78.18 69.258 78.1859 69.2604M78.1418 69.2242C78.1382 69.2188 78.1351 69.2131 78.1327 69.2071C78.1326 69.207 78.1326 69.2069 78.1325 69.2068C78.1278 69.1951 78.1253 69.1825 78.1253 69.1697C78.1253 69.1632 78.1259 69.1568 78.1272 69.1505C78.1272 69.1504 78.1272 69.1503 78.1272 69.1503C78.131 69.1314 78.1402 69.114 78.154 69.1002C78.1678 69.0864 78.1852 69.0771 78.2041 69.0733C78.2041 69.0733 78.2042 69.0733 78.2043 69.0733C78.2105 69.072 78.217 69.0714 78.2235 69.0714C78.2363 69.0714 78.2489 69.0739 78.2606 69.0787C78.2607 69.0788 78.2608 69.0788 78.2609 69.0789C78.2669 69.0813 78.2726 69.0844 78.278 69.088M78.1859 69.2604L78.0705 69.5412C78.1187 69.561 78.1707 69.5714 78.2235 69.5714C78.25 69.5714 78.2762 69.5688 78.3018 69.5637L78.2426 69.266L78.3021 69.5636C78.3795 69.5482 78.4511 69.5102 78.5076 69.4537C78.5645 69.3968 78.6022 69.3251 78.6175 69.2483L78.3198 69.1888L78.6176 69.248C78.6227 69.2224 78.6253 69.1961 78.6253 69.1697C78.6253 69.1176 78.6151 69.0655 78.595 69.0167L78.3142 69.1321M78.1859 69.2604C78.1979 69.2653 78.2107 69.2679 78.2235 69.2679C78.2299 69.2679 78.2363 69.2673 78.2426 69.266C78.2617 69.2622 78.2792 69.2528 78.2929 69.2391C78.3066 69.2254 78.316 69.2079 78.3198 69.1888C78.3211 69.1825 78.3217 69.1761 78.3217 69.1697C78.3217 69.1569 78.3191 69.1441 78.3142 69.1321M78.3142 69.1321C78.3118 69.1262 78.3088 69.1205 78.3052 69.1152C78.3051 69.1151 78.305 69.1149 78.3049 69.1148C78.2978 69.1042 78.2887 69.0951 78.278 69.088M78.4464 68.8354L78.4962 68.7606L78.4464 68.8354ZM78.4464 68.8354L78.278 69.088M78.4464 68.8354L78.4471 68.8359M78.278 69.088L78.4471 68.8359M78.4471 68.8359C78.4907 68.8651 78.528 68.9024 78.557 68.9457L78.4471 68.8359ZM77.8217 69.1697C77.8217 69.1436 77.8242 69.1173 77.8294 69.0912M77.8217 69.1697L77.8294 69.0912M77.8294 69.0912C77.8294 69.0911 77.8295 69.0909 77.8295 69.0907M77.8294 69.0912L77.8295 69.0907M77.8295 69.0907C77.8452 69.0126 77.8836 68.9413 77.9393 68.8855M77.8295 69.0907L77.9393 68.8855M77.9393 68.8855C77.9951 68.8298 78.0664 68.7914 78.1445 68.7757M77.9393 68.8855L78.1445 68.7757M78.1445 68.7757C78.1447 68.7757 78.1449 68.7756 78.145 68.7756M78.1445 68.7757L78.145 68.7756M78.145 68.7756C78.1711 68.7704 78.1974 68.7679 78.2235 68.7679M78.145 68.7756L78.2235 68.7679M78.2235 68.7679C78.2761 68.7679 78.3279 68.7782 78.376 68.7979L78.2235 68.7679Z" fill="#6A73B5" stroke="#6A73B5"/>
<path d="M73.6699 73.75C74.2568 74.1416 74.9465 74.3505 75.6521 74.3505C76.3576 74.3505 77.0473 74.1416 77.6342 73.75" stroke="#6A73B5" stroke-width="2" stroke-linecap="round" stroke-linejoin="round"/>
<path d="M71.3034 64.1518C74.7856 67.5178 80.7766 66.9643 84.3838 65.741C84.3113 63.477 83.361 61.3299 81.7338 59.754C80.1067 58.178 77.9303 57.2969 75.665 57.2969C73.3998 57.2969 71.2234 58.178 69.5963 59.754C67.9691 61.3299 67.0188 63.477 66.9463 65.741V68.491C66.9463 68.491 71.3034 67.4018 71.3034 64.1339" stroke="#6A73B5" stroke-width="2" stroke-linecap="round" stroke-linejoin="round"/>
<path d="M71.3033 64.1518C70.9975 63.92 70.7321 63.6395 70.5176 63.3214" stroke="#6A73B5" stroke-width="2" stroke-linecap="round" stroke-linejoin="round"/>
<path d="M85.1788 85.5714C83.9292 84.3145 82.4434 83.3171 80.8069 82.6364C79.1705 81.9558 77.4155 81.6053 75.6431 81.6053C73.8707 81.6053 72.1158 81.9558 70.4793 82.6364C68.8428 83.3171 67.357 84.3145 66.1074 85.5714H85.1788Z" stroke="#6A73B5" stroke-width="2" stroke-linecap="round" stroke-linejoin="round"/>
<path d="M73.2853 85.5715H77.9996C78.4951 85.2042 78.8983 84.7265 79.1773 84.1764C79.4562 83.6262 79.6033 83.0187 79.6067 82.4018C79.6067 82.3483 79.6067 82.2947 79.6067 82.2411C77.0437 81.3957 74.2769 81.3957 71.7139 82.2411C71.7139 82.2947 71.7139 82.3483 71.7139 82.4018C71.7132 83.0157 71.8547 83.6213 72.1273 84.1712C72.4 84.7212 72.7963 85.2004 73.2853 85.5715Z" stroke="#6A73B5" stroke-width="2" stroke-linecap="round" stroke-linejoin="round"/>
<path d="M131.5 12.125V10" stroke="#A6ACDC" stroke-width="2" stroke-linecap="round" stroke-linejoin="round"/>
<path d="M136.01 13.9908L137.513 12.4878" stroke="#A6ACDC" stroke-width="2" stroke-linecap="round" stroke-linejoin="round"/>
<path d="M137.875 18.5001H140" stroke="#A6ACDC" stroke-width="2" stroke-linecap="round" stroke-linejoin="round"/>
<path d="M136.01 23.0093L137.513 24.5123" stroke="#A6ACDC" stroke-width="2" stroke-linecap="round" stroke-linejoin="round"/>
<path d="M131.5 24.875V27" stroke="#A6ACDC" stroke-width="2" stroke-linecap="round" stroke-linejoin="round"/>
<path d="M126.99 23.0093L125.487 24.5123" stroke="#A6ACDC" stroke-width="2" stroke-linecap="round" stroke-linejoin="round"/>
<path d="M125.125 18.5001H123" stroke="#A6ACDC" stroke-width="2" stroke-linecap="round" stroke-linejoin="round"/>
<path d="M126.99 13.9908L125.487 12.4878" stroke="#A6ACDC" stroke-width="2" stroke-linecap="round" stroke-linejoin="round"/>
<path d="M13.0146 61V49" stroke="#A6ACDC" stroke-width="2" stroke-linecap="round" stroke-linejoin="round"/>
<path d="M7 55.0135H19" stroke="#A6ACDC" stroke-width="2" stroke-linecap="round" stroke-linejoin="round"/>
<path d="M123.509 86V79" stroke="#A6ACDC" stroke-width="2" stroke-linecap="round" stroke-linejoin="round"/>
<path d="M120 82.5079H127" stroke="#A6ACDC" stroke-width="2" stroke-linecap="round" stroke-linejoin="round"/>
</svg>
