<svg width="180" height="150" viewBox="0 0 180 150" fill="none" xmlns="http://www.w3.org/2000/svg">
<path d="M55.9992 150C55.3211 150 54.643 149.76 54.0972 149.281C52.898 148.23 52.7822 146.403 53.8325 145.212L71.5138 125.066C72.5641 123.867 74.3918 123.751 75.5827 124.801C76.7819 125.851 76.8976 127.679 75.8473 128.87L58.166 149.016C57.6036 149.669 56.8014 150 55.9992 150Z" fill="#4F5794"/>
<path d="M59.4953 39.636C58.8172 39.636 58.139 39.3963 57.5932 38.9166C56.394 37.8663 56.2783 36.0387 57.3286 34.8478L68.0134 22.6743C69.0637 21.4751 70.8915 21.3593 72.0823 22.4096C73.2815 23.4599 73.3972 25.2875 72.3469 26.4784L61.6621 38.6519C61.0915 39.3052 60.2975 39.636 59.4953 39.636Z" fill="#4F5794"/>
<path d="M15.3918 126.811C14.7136 126.811 14.0356 126.572 13.4897 126.092C12.2906 125.042 12.1747 123.214 13.225 122.023L84.6949 40.5962C85.7452 39.397 87.5728 39.2812 88.7637 40.3315C89.9628 41.3818 90.0787 43.2094 89.0284 44.4003L17.5585 125.827C16.9962 126.481 16.194 126.811 15.3918 126.811Z" fill="#4F5794"/>
<path d="M90.9211 62.1473C90.243 62.1473 89.5648 61.9074 89.019 61.4277C87.8198 60.3774 87.7041 58.5498 88.7544 57.3589L138.242 0.98181C139.293 -0.217348 141.12 -0.332983 142.311 0.717313C143.51 1.76761 143.626 3.59523 142.576 4.78611L93.0879 61.163C92.5255 61.8163 91.7233 62.1473 90.9211 62.1473Z" fill="#4F5794"/>
<path d="M126.177 68.2338C125.499 68.2338 124.821 67.9941 124.275 67.5145C123.076 66.4642 122.96 64.6363 124.01 63.4455L134.703 51.272C135.754 50.0728 137.581 49.957 138.772 51.0073C139.971 52.0576 140.087 53.8854 139.037 55.0763L128.344 67.2498C127.781 67.9031 126.979 68.2338 126.177 68.2338Z" fill="#4F5794"/>
<path d="M101.134 132.608C100.456 132.608 99.7777 132.369 99.2319 131.889C98.0327 130.839 97.917 129.011 98.9673 127.82L170.437 46.3931C171.487 45.1939 173.315 45.0781 174.506 46.1284C175.705 47.1787 175.821 49.0063 174.77 50.1972L103.301 131.624C102.73 132.269 101.928 132.608 101.134 132.608Z" fill="#4F5794"/>
<path d="M4.32622 107.797C3.309 107.797 2.29183 107.442 1.47309 106.722C-0.321512 105.143 -0.503436 102.413 1.07614 100.611L14.5067 85.311C16.0863 83.5164 18.8154 83.3345 20.6183 84.914C22.4129 86.4936 22.5948 89.2228 21.0152 91.0257L7.58467 106.325C6.72459 107.301 5.53364 107.797 4.32622 107.797Z" fill="#3FFBC7"/>
<path d="M69.9341 115.614C68.586 115.614 67.2214 115.143 66.1297 114.184C63.7314 112.083 63.5 108.436 65.6006 106.037L110.002 55.4579C112.103 53.0596 115.75 52.8281 118.148 54.9287C120.547 57.0293 120.778 60.6762 118.678 63.0746L74.2758 113.654C73.1346 114.953 71.5384 115.614 69.9341 115.614Z" fill="#3FFBC7"/>
<path d="M153.252 54.1918C152.235 54.1918 151.218 53.8361 150.399 53.1166C148.604 51.5371 148.422 48.808 150.002 47.0052L172.199 21.7153C173.778 19.9207 176.507 19.7388 178.31 21.3183C180.105 22.8979 180.287 25.6271 178.707 27.43L156.51 52.7197C155.65 53.6956 154.451 54.1918 153.252 54.1918Z" fill="#3FFBC7"/>
</svg>
