<svg width="10" height="12" viewBox="0 0 10 12" fill="none" xmlns="http://www.w3.org/2000/svg">
<path d="M8.9375 1.92188V0.9375H9.96875V0H0.03125V0.9375H1.0625V1.92188C1.0625 2.01441 1.0899 2.1049 1.14123 2.18189L3.68513 5.99777L1.09641 9.81502C1.04377 9.89266 1.01563 9.9843 1.01563 10.0781V11.0625H0.03125V12H9.96875V11.0625H8.9375V10.0781C8.9375 9.98559 8.9101 9.8951 8.85877 9.81811L6.31337 6L8.85877 2.18189C8.9101 2.1049 8.9375 2.01441 8.9375 1.92188ZM8 1.77994L5.35998 5.73998C5.255 5.89744 5.255 6.10256 5.35998 6.26002L8 10.2201V11.0625H7.72677L5 6.9375L2.25001 11.0625H1.95313V10.2221L4.63796 6.26311C4.74491 6.10538 4.74575 5.89856 4.64002 5.74001L2 1.77994V0.9375H8V1.77994Z" fill="#E2E4F5"/>
</svg>
