<svg xmlns="http://www.w3.org/2000/svg" width="16" height="18" fill="none" viewBox="0 0 16 18">
    <path stroke="#6A73B5" stroke-linecap="round" stroke-linejoin="round" stroke-width="1.2" d="M9.595 7.409c.879.879.879 2.303 0 3.182s-2.303.879-3.182 0-.879-2.303 0-3.182 2.303-.879 3.182 0z"/>
    <path stroke="#6A73B5" stroke-linecap="round" stroke-linejoin="round" stroke-width="1.2" d="M2.37 9c0 .248.023.495.053.735L1.1 10.77c-.294.23-.374.64-.187.963L2.09 13.77c.185.323.58.458.926.32l1.185-.476c.234-.094.495-.056.705.083.184.122.374.233.57.333.225.114.389.319.424.569l.181 1.26c.053.369.369.642.74.642H9.17c.371 0 .687-.273.74-.642l.18-1.26c.036-.25.201-.456.427-.569.196-.098.385-.209.568-.33.211-.14.473-.18.708-.085l1.183.475c.345.138.74.003.926-.32l1.177-2.036c.187-.322.107-.734-.187-.963l-1.323-1.035c.03-.24.052-.487.052-.735s-.022-.495-.052-.735L14.89 7.23c.294-.23.374-.64.187-.963L13.9 4.23c-.186-.323-.58-.458-.926-.32l-1.183.475c-.235.094-.497.055-.708-.085-.183-.121-.372-.232-.568-.33-.226-.114-.39-.32-.426-.57l-.18-1.26c-.053-.368-.369-.641-.74-.641H6.822c-.372 0-.687.273-.74.642L5.9 3.403c-.035.25-.2.454-.424.569-.196.1-.386.212-.57.333-.21.138-.471.176-.706.082L3.016 3.91c-.346-.139-.74-.003-.926.32L.913 6.267C.726 6.589.806 7 1.1 7.23l1.323 1.035c-.03.24-.053.487-.053.735z"/>
</svg>
