<svg width="219" height="140" viewBox="0 0 219 140" fill="none" xmlns="http://www.w3.org/2000/svg">
<path d="M214.448 138.66C219.032 123.378 220.158 107.344 217.746 91.7042L109.775 109.74L214.448 138.66Z" fill="url(#paint0_radial)" fill-opacity="0.15"/>
<path d="M1.75969 92.8906C-0.924082 108.575 -0.0755415 124.591 4.24474 139.793L109.436 109.019L1.75969 92.8906Z" fill="url(#paint1_radial)" fill-opacity="0.15"/>
<path d="M31.5542 33.4116C20.2523 44.9277 11.608 58.7339 6.23845 73.8447L109.044 108.252L31.5542 33.4116Z" fill="url(#paint2_radial)" fill-opacity="0.15"/>
<path d="M92.9943 1.01144C77.1343 3.66251 61.9954 9.77306 48.6585 18.9069L109.168 108.471L92.9943 1.01144Z" fill="url(#paint3_radial)" fill-opacity="0.15"/>
<path d="M166.71 15.4409C153.044 7.25237 137.689 2.2137 121.741 0.684631L109.548 109.26L166.71 15.4409Z" fill="url(#paint4_radial)" fill-opacity="0.15"/>
<path d="M212.492 71.7037C207.194 56.7381 198.616 43.1775 187.371 31.99L109.548 109.26L212.492 71.7037Z" fill="url(#paint5_radial)" fill-opacity="0.15"/>
<defs>
<radialGradient id="paint0_radial" cx="0" cy="0" r="1" gradientUnits="userSpaceOnUse" gradientTransform="translate(110 114.5) rotate(-81.7286) scale(114.693 112.581)">
<stop stop-color="white"/>
<stop offset="1" stop-color="white" stop-opacity="0"/>
</radialGradient>
<radialGradient id="paint1_radial" cx="0" cy="0" r="1" gradientUnits="userSpaceOnUse" gradientTransform="translate(110 114.5) rotate(-81.7286) scale(114.693 112.581)">
<stop stop-color="white"/>
<stop offset="1" stop-color="white" stop-opacity="0"/>
</radialGradient>
<radialGradient id="paint2_radial" cx="0" cy="0" r="1" gradientUnits="userSpaceOnUse" gradientTransform="translate(110 114.5) rotate(-81.7286) scale(114.693 112.581)">
<stop stop-color="white"/>
<stop offset="1" stop-color="white" stop-opacity="0"/>
</radialGradient>
<radialGradient id="paint3_radial" cx="0" cy="0" r="1" gradientUnits="userSpaceOnUse" gradientTransform="translate(110 114.5) rotate(-81.7286) scale(114.693 112.581)">
<stop stop-color="white"/>
<stop offset="1" stop-color="white" stop-opacity="0"/>
</radialGradient>
<radialGradient id="paint4_radial" cx="0" cy="0" r="1" gradientUnits="userSpaceOnUse" gradientTransform="translate(110 114.5) rotate(-81.7286) scale(114.693 112.581)">
<stop stop-color="white"/>
<stop offset="1" stop-color="white" stop-opacity="0"/>
</radialGradient>
<radialGradient id="paint5_radial" cx="0" cy="0" r="1" gradientUnits="userSpaceOnUse" gradientTransform="translate(110 114.5) rotate(-81.7286) scale(114.693 112.581)">
<stop stop-color="white"/>
<stop offset="1" stop-color="white" stop-opacity="0"/>
</radialGradient>
</defs>
</svg>
