<svg width="54" height="56" viewBox="0 0 54 56" fill="none" xmlns="http://www.w3.org/2000/svg">
<g filter="url(#filter0_i_14749:102842)">
<path d="M24.2775 0.925962C25.8801 -0.308654 28.1199 -0.308654 29.7225 0.925962L33.3526 3.72247C34.169 4.35139 35.1801 4.67805 36.2123 4.64635L40.8023 4.5055C42.8287 4.44333 44.6407 5.75233 45.2074 7.68783L46.4911 12.0718C46.7797 13.0577 47.4046 13.9129 48.2584 14.4905L52.055 17.0592C53.7311 18.1931 54.4234 20.3112 53.7376 22.2082L52.1848 26.5052C51.8351 27.4715 51.8351 28.5286 52.1848 29.4949L53.7376 33.7918C54.4234 35.6889 53.7311 37.8069 52.055 38.9409L48.2584 41.5095C47.4046 42.0872 46.7797 42.9423 46.4911 43.9283L45.2074 48.3122C44.6407 50.2477 42.8287 51.5567 40.8023 51.4946L36.2123 51.3537C35.1801 51.322 34.169 51.6487 33.3526 52.2776L29.7225 55.074C28.1199 56.3087 25.8801 56.3087 24.2775 55.074L20.6474 52.2776C19.831 51.6487 18.8199 51.322 17.7877 51.3537L13.1977 51.4946C11.1713 51.5567 9.35933 50.2477 8.79259 48.3122L7.50893 43.9283C7.22029 42.9423 6.59541 42.0872 5.74158 41.5095L1.94495 38.9409C0.268754 37.8069 -0.423336 35.6889 0.262353 33.7918L1.81545 29.4949C2.16473 28.5286 2.16473 27.4715 1.81545 26.5052L0.262353 22.2082C-0.423336 20.3112 0.268754 18.1931 1.94495 17.0592L5.74158 14.4905C6.59541 13.9129 7.22029 13.0577 7.50893 12.0718L8.79259 7.68783C9.35933 5.75233 11.1713 4.44333 13.1977 4.5055L17.7877 4.64635C18.8199 4.67805 19.831 4.35139 20.6474 3.72247L24.2775 0.925962Z" fill="#C4C4C4"/>
<path d="M24.2775 0.925962C25.8801 -0.308654 28.1199 -0.308654 29.7225 0.925962L33.3526 3.72247C34.169 4.35139 35.1801 4.67805 36.2123 4.64635L40.8023 4.5055C42.8287 4.44333 44.6407 5.75233 45.2074 7.68783L46.4911 12.0718C46.7797 13.0577 47.4046 13.9129 48.2584 14.4905L52.055 17.0592C53.7311 18.1931 54.4234 20.3112 53.7376 22.2082L52.1848 26.5052C51.8351 27.4715 51.8351 28.5286 52.1848 29.4949L53.7376 33.7918C54.4234 35.6889 53.7311 37.8069 52.055 38.9409L48.2584 41.5095C47.4046 42.0872 46.7797 42.9423 46.4911 43.9283L45.2074 48.3122C44.6407 50.2477 42.8287 51.5567 40.8023 51.4946L36.2123 51.3537C35.1801 51.322 34.169 51.6487 33.3526 52.2776L29.7225 55.074C28.1199 56.3087 25.8801 56.3087 24.2775 55.074L20.6474 52.2776C19.831 51.6487 18.8199 51.322 17.7877 51.3537L13.1977 51.4946C11.1713 51.5567 9.35933 50.2477 8.79259 48.3122L7.50893 43.9283C7.22029 42.9423 6.59541 42.0872 5.74158 41.5095L1.94495 38.9409C0.268754 37.8069 -0.423336 35.6889 0.262353 33.7918L1.81545 29.4949C2.16473 28.5286 2.16473 27.4715 1.81545 26.5052L0.262353 22.2082C-0.423336 20.3112 0.268754 18.1931 1.94495 17.0592L5.74158 14.4905C6.59541 13.9129 7.22029 13.0577 7.50893 12.0718L8.79259 7.68783C9.35933 5.75233 11.1713 4.44333 13.1977 4.5055L17.7877 4.64635C18.8199 4.67805 19.831 4.35139 20.6474 3.72247L24.2775 0.925962Z" fill="#FFDD00"/>
<path d="M24.2775 0.925962C25.8801 -0.308654 28.1199 -0.308654 29.7225 0.925962L33.3526 3.72247C34.169 4.35139 35.1801 4.67805 36.2122 4.64635L40.8023 4.5055C42.8287 4.44333 44.6407 5.75232 45.2074 7.68783L46.4911 12.0718C46.7797 13.0577 47.4046 13.9129 48.2584 14.4905L52.055 17.0592C53.7311 18.1931 54.4234 20.3112 53.7376 22.2082L52.1848 26.5052C51.8351 27.4715 51.8351 28.5286 52.1848 29.4949L53.7376 33.7918C54.4234 35.6889 53.7311 37.8069 52.055 38.9409L48.2584 41.5095C47.4046 42.0872 46.7797 42.9423 46.4911 43.9283L45.2074 48.3122C44.6407 50.2477 42.8287 51.5567 40.8023 51.4946L36.2122 51.3537C35.1801 51.322 34.169 51.6487 33.3526 52.2776L29.7225 55.074C28.1199 56.3087 25.8801 56.3087 24.2775 55.074L20.6474 52.2776C19.831 51.6487 18.8199 51.322 17.7877 51.3537L13.1977 51.4946C11.1713 51.5567 9.35933 50.2477 8.79259 48.3122L7.50893 43.9283C7.22029 42.9423 6.59542 42.0872 5.74158 41.5095L1.94495 38.9409C0.268754 37.8069 -0.423336 35.6889 0.262353 33.7918L1.81545 29.4949C2.16473 28.5286 2.16473 27.4715 1.81545 26.5052L0.262353 22.2082C-0.423336 20.3112 0.268754 18.1931 1.94495 17.0592L5.74158 14.4905C6.59542 13.9129 7.22029 13.0577 7.50893 12.0718L8.79259 7.68783C9.35933 5.75232 11.1713 4.44333 13.1977 4.5055L17.7877 4.64635C18.8199 4.67805 19.831 4.35139 20.6474 3.72247L24.2775 0.925962Z" fill="#FFDE03"/>
<path d="M29.3596 1.39183L32.9897 4.18834C33.9148 4.90112 35.0607 5.27134 36.2306 5.23539L40.8206 5.09454C42.5768 5.04068 44.1472 6.17512 44.6383 7.85256L45.922 12.2366C46.2492 13.3539 46.9574 14.3231 47.925 14.9778L51.7219 17.5464C53.1746 18.5292 53.7744 20.3648 53.18 22.0089L51.6271 26.3059C51.231 27.4011 51.231 28.599 51.6271 29.6942L53.18 33.9911C53.7744 35.6353 53.1746 37.4709 51.7219 38.4537L47.925 41.0223C46.9574 41.6769 46.2492 42.6461 45.922 43.7635L44.6383 48.1475C44.1472 49.825 42.5768 50.9594 40.8206 50.9055L36.2306 50.7647C35.0607 50.7287 33.9148 51.099 32.9897 51.8117L29.3596 54.6085C27.9706 55.6781 26.0295 55.6781 24.6405 54.6085L21.0104 51.8117C20.0852 51.099 18.9393 50.7287 17.7695 50.7647L13.1795 50.9055C11.4233 50.9594 9.85285 49.825 9.36174 48.1475L8.07808 43.7635C7.75092 42.6461 7.0427 41.6769 6.07507 41.0223L2.27839 38.4537C0.825752 37.4709 0.225886 35.6353 0.820122 33.9911L2.37328 29.6942C2.76908 28.599 2.76908 27.4011 2.37328 26.3059L0.820122 22.0089C0.225886 20.3648 0.825752 18.5292 2.27839 17.5464L6.07507 14.9778C7.0427 14.3231 7.75092 13.3539 8.07808 12.2366L9.36174 7.85256C9.85285 6.17512 11.4233 5.04068 13.1795 5.09454L17.7695 5.23539C18.9393 5.27134 20.0852 4.90112 21.0104 4.18834L24.6405 1.39183C26.0295 0.321863 27.9706 0.321863 29.3596 1.39183Z" stroke="white" stroke-opacity="0.6"/>
</g>
<g filter="url(#filter1_iii_14749:102842)">
<path d="M27 49.2158C38.7841 49.2158 48.337 39.7173 48.337 28.0002C48.337 16.2832 38.7841 6.78467 27 6.78467C15.2159 6.78467 5.66296 16.2832 5.66296 28.0002C5.66296 39.7173 15.2159 49.2158 27 49.2158Z" fill="#FCCC07"/>
<path d="M27.0001 48.8316C38.5666 48.8316 47.9481 39.5077 47.9481 28C47.9481 16.4924 38.5666 7.16846 27.0001 7.16846C15.4335 7.16846 6.05212 16.4924 6.05212 28C6.05212 39.5077 15.4335 48.8316 27.0001 48.8316Z" stroke="white" stroke-opacity="0.7" stroke-linecap="round"/>
</g>
<path d="M37.3087 24.5617L19.2471 34.9302C18.565 35.3218 18.3313 36.1889 18.7251 36.8671L19.6164 38.402C20.0101 39.0802 20.8823 39.3126 21.5643 38.921L39.6259 28.5525C40.308 28.161 40.5417 27.2938 40.1479 26.6156L39.2566 25.0807C38.8629 24.4025 37.9907 24.1701 37.3087 24.5617Z" fill="white"/>
<path d="M21.8325 39.5848L40.0668 29.1172C40.6083 30.0497 40.287 31.242 39.3491 31.7804L24.511 40.2984C23.5732 40.8368 22.374 40.5173 21.8325 39.5848Z" fill="white"/>
<path d="M19.0842 22.1783C18.1606 21.5394 17.3792 20.6291 17.422 19.5112C17.4662 18.3572 17.9612 16.8394 19.9143 15.7182C21.791 14.6408 23.3637 14.8771 24.4394 15.35C25.569 15.8468 26.0516 17.0797 26.1556 18.3035L26.5573 23.0319C26.7141 24.8763 28.0646 26.4111 29.8795 26.8234C30.4046 26.9427 30.5163 27.6417 30.0497 27.9096L25.6497 30.4355C25.1831 30.7033 24.63 30.2577 24.7887 29.7458C25.337 27.9769 24.6755 26.0466 23.1475 24.9894L19.0842 22.1783Z" fill="white"/>
<path d="M20.2605 31.6849L17.7568 31.9418M30.3437 23.2995L31.0252 18.6587L30.3437 23.2995ZM34.0068 23.7936L35.4824 21.7661L34.0068 23.7936ZM21.6618 28.2835L17.0732 26.1959L21.6618 28.2835Z" stroke="white" stroke-linecap="round"/>
<defs>
<filter id="filter0_i_14749:102842" x="0" y="0" width="54" height="86" filterUnits="userSpaceOnUse" color-interpolation-filters="sRGB">
<feFlood flood-opacity="0" result="BackgroundImageFix"/>
<feBlend mode="normal" in="SourceGraphic" in2="BackgroundImageFix" result="shape"/>
<feColorMatrix in="SourceAlpha" type="matrix" values="0 0 0 0 0 0 0 0 0 0 0 0 0 0 0 0 0 0 127 0" result="hardAlpha"/>
<feOffset dy="40"/>
<feGaussianBlur stdDeviation="15"/>
<feComposite in2="hardAlpha" operator="arithmetic" k2="-1" k3="1"/>
<feColorMatrix type="matrix" values="0 0 0 0 0.966551 0 0 0 0 0.887407 0 0 0 0 0.0890902 0 0 0 1 0"/>
<feBlend mode="normal" in2="shape" result="effect1_innerShadow_14749:102842"/>
</filter>
<filter id="filter1_iii_14749:102842" x="5.55212" y="5.16846" width="42.896" height="45.6631" filterUnits="userSpaceOnUse" color-interpolation-filters="sRGB">
<feFlood flood-opacity="0" result="BackgroundImageFix"/>
<feBlend mode="normal" in="SourceGraphic" in2="BackgroundImageFix" result="shape"/>
<feColorMatrix in="SourceAlpha" type="matrix" values="0 0 0 0 0 0 0 0 0 0 0 0 0 0 0 0 0 0 127 0" result="hardAlpha"/>
<feOffset/>
<feGaussianBlur stdDeviation="10.6667"/>
<feComposite in2="hardAlpha" operator="arithmetic" k2="-1" k3="1"/>
<feColorMatrix type="matrix" values="0 0 0 0 0.988235 0 0 0 0 0.788235 0 0 0 0 0.0352941 0 0 0 1 0"/>
<feBlend mode="normal" in2="shape" result="effect1_innerShadow_14749:102842"/>
<feColorMatrix in="SourceAlpha" type="matrix" values="0 0 0 0 0 0 0 0 0 0 0 0 0 0 0 0 0 0 127 0" result="hardAlpha"/>
<feOffset dy="-1.5"/>
<feGaussianBlur stdDeviation="2"/>
<feComposite in2="hardAlpha" operator="arithmetic" k2="-1" k3="1"/>
<feColorMatrix type="matrix" values="0 0 0 0 0 0 0 0 0 0 0 0 0 0 0 0 0 0 0.1 0"/>
<feBlend mode="normal" in2="effect1_innerShadow_14749:102842" result="effect2_innerShadow_14749:102842"/>
<feColorMatrix in="SourceAlpha" type="matrix" values="0 0 0 0 0 0 0 0 0 0 0 0 0 0 0 0 0 0 127 0" result="hardAlpha"/>
<feOffset dy="1.5"/>
<feGaussianBlur stdDeviation="2"/>
<feComposite in2="hardAlpha" operator="arithmetic" k2="-1" k3="1"/>
<feColorMatrix type="matrix" values="0 0 0 0 1 0 0 0 0 1 0 0 0 0 1 0 0 0 0.1 0"/>
<feBlend mode="normal" in2="effect2_innerShadow_14749:102842" result="effect3_innerShadow_14749:102842"/>
</filter>
</defs>
</svg>
