<svg width="24" height="20" viewBox="0 0 24 20" fill="none" xmlns="http://www.w3.org/2000/svg">
<g clip-path="url(#clip0_14948:103534)">
<g filter="url(#filter0_d_14948:103534)">
<path d="M0 0H14C19.5228 0 24 4.47715 24 10V20H10C4.47715 20 0 15.5228 0 10V0Z" fill="#FFDE00"/>
<path d="M0.5 0.5H14C19.2467 0.5 23.5 4.7533 23.5 10V19.5H10C4.75329 19.5 0.5 15.2467 0.5 10V0.5Z" stroke="#FFDE00"/>
</g>
<path d="M6.54682 15.6446C6.55889 15.6488 6.56792 15.6913 6.55711 15.7188C6.55375 15.7031 6.51901 15.6359 6.54682 15.6446ZM9.80205 17.459C9.81412 17.4632 9.82336 17.5067 9.81244 17.5335C9.80909 17.5175 9.77403 17.4503 9.80205 17.459ZM15.6338 6.32013C15.6258 6.35599 15.6127 6.32569 15.6114 6.286C15.6089 6.19269 15.629 6.30898 15.6338 6.32013ZM10.1184 12.7088C10.1074 12.6813 10.1166 12.6388 10.1286 12.6346C10.1566 12.6252 10.1217 12.6931 10.1184 12.7088ZM17.0434 5.85879C17.0544 5.8863 17.0452 5.92912 17.0332 5.9333C17.0053 5.94166 17.0402 5.87411 17.0434 5.85879ZM22.9128 16.2501C22.9019 16.2222 22.911 16.1798 22.923 16.1756C22.9511 16.1669 22.916 16.2337 22.9128 16.2501ZM9.57852 17.9948C9.59154 17.9948 9.59154 18.0571 9.57852 18.0571C9.56551 18.0571 9.56551 17.9948 9.57852 17.9948ZM9.49835 11.5323C9.51147 11.5323 9.51147 11.5943 9.49835 11.5943C9.48534 11.5943 9.48534 11.5323 9.49835 11.5323ZM12.733 3.86061C12.7094 3.99605 12.7132 3.80525 12.719 3.77601C12.7236 3.77984 12.7413 3.81465 12.733 3.86061ZM11.0861 7.72606C11.099 7.72606 11.099 7.78769 11.0861 7.78769C11.0729 7.78769 11.0729 7.72606 11.0861 7.72606ZM12.487 11.4881C12.4998 11.4881 12.4998 11.5501 12.487 11.5501C12.4739 11.5501 12.4739 11.4881 12.487 11.4881ZM12.1933 11.2228C12.2064 11.2228 12.2064 11.2837 12.1933 11.2837C12.1803 11.2837 12.1803 11.2228 12.1933 11.2228ZM15.8088 6.48621C15.8219 6.48621 15.8219 6.54853 15.8088 6.54853C15.796 6.54853 15.796 6.48621 15.8088 6.48621ZM10.017 17.5356C10.0166 17.5836 10.0268 17.6919 10.0159 17.6787C9.99651 17.6553 9.9876 17.6163 9.99914 17.585C10.0052 17.5683 10.0095 17.5331 10.017 17.5356ZM11.2596 14.3982V14.5332C11.2475 14.5214 11.2341 14.4821 11.236 14.4441C11.2373 14.4156 11.2475 14.3818 11.2596 14.3982ZM3.16754 9.79388C3.17919 9.82626 3.17047 9.86491 3.15106 9.88858C3.14004 9.90181 3.15001 9.79388 3.14949 9.74583C3.15725 9.74235 3.16156 9.77717 3.16754 9.79388ZM9.30777 11.306C9.27744 11.4237 9.28479 11.2388 9.28678 11.2277C9.29528 11.1786 9.32194 11.252 9.30777 11.306ZM18.9703 11.8499C18.9609 11.8885 18.949 11.8593 18.9421 11.7945C18.9382 11.7586 18.9706 11.7914 18.9852 11.7903C18.9863 11.8157 18.9756 11.83 18.9703 11.8499ZM9.31155 5.98622V6.11226C9.27786 6.17145 9.28447 6.04158 9.28888 5.98622H9.31155ZM4.49539 10.0143V10.1396C4.46149 10.1995 4.46821 10.07 4.47272 10.0143H4.49539ZM8.97091 18.2908C8.96461 18.3395 8.93501 18.3068 8.94614 18.2476C8.95306 18.211 8.97248 18.1894 8.97689 18.2549C8.97689 18.2549 8.97206 18.2814 8.97091 18.2908ZM6.72344 16.6094V16.7355C6.68943 16.795 6.69615 16.6648 6.70056 16.6094H6.72344ZM10.5759 15.4375C10.5982 15.5161 10.5524 15.5151 10.5425 15.4796C10.5198 15.4006 10.5657 15.4019 10.5759 15.4375ZM7.644 15.9897V16.1154C7.61 16.1749 7.61682 16.0447 7.62113 15.9897H7.644ZM17.8484 5.89709C17.848 5.94305 17.8586 6.04785 17.8382 6.03149C17.8264 6.02139 17.8091 5.98831 17.8179 5.94444C17.8243 5.91206 17.8374 5.88595 17.8484 5.89709ZM5.06187 9.26535C5.05316 9.29633 5.03406 9.32071 5.03196 9.25525C5.0307 9.22078 5.04329 9.17865 5.05421 9.18283C5.0646 9.187 5.07278 9.22531 5.06187 9.26535ZM12.6453 4.21471C12.6449 4.26067 12.6555 4.36547 12.6349 4.3491C12.6234 4.339 12.6059 4.30593 12.6149 4.26206C12.621 4.23002 12.6342 4.20392 12.6453 4.21471ZM13.2404 15.3246C13.2309 15.3758 13.2084 15.333 13.2062 15.278C13.2035 15.2084 13.2338 15.2442 13.2473 15.2432C13.249 15.2693 13.2454 15.2992 13.2404 15.3246ZM4.70118 12.1368C4.69478 12.1691 4.68176 12.1952 4.67064 12.1834C4.67106 12.1385 4.66046 12.033 4.68082 12.0504C4.69247 12.0598 4.70968 12.0922 4.70118 12.1368ZM9.31816 6.9162C9.34471 7.01892 9.29875 7.01821 9.28647 6.98131C9.28017 6.96216 9.29297 6.87233 9.31071 6.89288C9.31333 6.89636 9.3168 6.91168 9.31816 6.9162ZM4.66214 13.8613C4.65301 13.9253 4.6316 13.9093 4.61723 13.9048C4.62321 13.8661 4.64221 13.7415 4.66089 13.816C4.66351 13.8261 4.66277 13.8574 4.66214 13.8613ZM8.06912 17.0513C8.0686 17.0972 8.07941 17.2024 8.05884 17.1856C8.0473 17.1756 8.02987 17.1428 8.03858 17.0986C8.04499 17.0666 8.058 17.0405 8.06912 17.0513ZM19.7123 8.24066C19.7256 8.31134 19.6806 8.28488 19.6654 8.28071C19.6725 8.24763 19.6767 8.18565 19.6911 8.15571C19.6995 8.18078 19.7065 8.20898 19.7123 8.24066ZM9.67581 13.3839C9.67014 13.4128 9.64664 13.4135 9.64139 13.3818C9.62838 13.3084 9.65964 13.307 9.67066 13.316C9.68032 13.3247 9.68043 13.3599 9.67581 13.3839ZM17.2498 9.66018H17.2099V9.52717H17.2498V9.66018ZM5.93626 12.095H5.89606V11.9616H5.93626V12.095ZM3.58815 10.9874H3.54817V10.8555H3.58815V10.9874ZM17.8235 8.9513H17.7834V8.81899H17.8235V8.9513ZM22.4258 7.42245C22.4044 7.45414 22.4045 7.35491 22.4086 7.31974C22.4129 7.28249 22.4278 7.25811 22.4383 7.27065C22.4396 7.32322 22.4445 7.39425 22.4258 7.42245ZM9.44966 15.5419C9.44347 15.5966 9.42185 15.5579 9.42101 15.512C9.42059 15.4855 9.40799 15.3891 9.44063 15.4148C9.45165 15.4239 9.45469 15.4977 9.44966 15.5419ZM22.906 7.19822C22.9198 7.16688 22.9361 7.11188 22.9338 7.05617C22.9116 7.02901 22.8945 7.06662 22.8866 7.13451C22.8817 7.17664 22.8946 7.22399 22.906 7.19822ZM9.92536 16.3932V16.5133C9.90542 16.5367 9.87436 16.5102 9.8794 16.4503C9.88622 16.3713 9.90909 16.389 9.92536 16.3932ZM9.57107 8.97775C9.56436 9.05783 9.54127 9.03973 9.52521 9.0359V8.91508C9.54505 8.89175 9.57622 8.91891 9.57107 8.97775ZM12.0165 18.1334C11.9985 18.1689 11.9969 18.0658 12.0052 18.0122C12.0085 17.9924 12.0316 17.9917 12.0379 18.0227C12.0487 18.077 12.0283 18.1097 12.0165 18.1334ZM7.16997 15.6373C7.16074 15.67 7.14552 15.6909 7.13702 15.6398C7.13104 15.6025 7.12558 15.5475 7.13744 15.5297C7.15234 15.5078 7.18792 15.5746 7.16997 15.6373ZM10.7699 17.2769C10.7648 17.3082 10.7408 17.3075 10.7372 17.2838C10.7283 17.2243 10.7323 17.1393 10.7516 17.1522C10.7651 17.162 10.7781 17.2243 10.7699 17.2769ZM9.1788 4.01172C9.17586 4.02809 9.15487 4.02634 9.14427 3.99675C9.12601 3.94522 9.15455 3.8996 9.16463 3.88672C9.18761 3.85538 9.18772 3.95776 9.1788 4.01172ZM8.97143 15.8117C8.96146 15.872 8.94047 15.8556 8.92473 15.8511V15.7247H8.97772C8.97972 15.7553 8.97562 15.7853 8.97143 15.8117ZM10.2534 14.8379C10.2851 14.9894 10.2195 14.9124 10.2056 14.9169V14.7996C10.2218 14.7951 10.2417 14.7808 10.2534 14.8379ZM18.664 15.4145V15.592H18.6257C18.6188 15.5186 18.628 15.4368 18.6515 15.4145C18.6533 15.4131 18.6614 15.4145 18.664 15.4145ZM13.448 17.8218C13.4453 17.8374 13.4242 17.836 13.4138 17.8068C13.3952 17.756 13.4238 17.7104 13.4338 17.6968C13.457 17.6654 13.4571 17.7685 13.448 17.8218ZM8.97038 12.5351C8.96335 12.5775 8.94719 12.5929 8.93428 12.5744C8.92599 12.5612 8.91213 12.5351 8.91917 12.495C8.9262 12.4529 8.94236 12.4376 8.95506 12.4567C8.96345 12.4693 8.97752 12.495 8.97038 12.5351ZM15.635 14.7738C15.618 14.794 15.601 14.7042 15.6109 14.6488C15.6155 14.6231 15.6228 14.5757 15.635 14.5991C15.648 14.6241 15.6516 14.6736 15.6471 14.7261C15.6466 14.7321 15.6389 14.7693 15.635 14.7738ZM10.1123 12.2053C10.0769 12.3039 10.0855 12.1294 10.0921 12.056C10.0921 12.056 10.0993 12.0083 10.1116 12.0316C10.1248 12.0563 10.1281 12.1065 10.1236 12.1583C10.1232 12.165 10.1152 12.1966 10.1123 12.2053ZM12.5204 6.52346C12.5136 6.55619 12.4875 6.55236 12.4836 6.52172C12.479 6.48412 12.4751 6.42493 12.4852 6.41552C12.4976 6.40508 12.5141 6.38976 12.519 6.42562C12.5217 6.44477 12.5237 6.50709 12.5204 6.52346ZM11.833 16.2115H11.7798V16.0785H11.833V16.2115ZM2.79436 4.91976C2.78576 4.98522 2.76393 4.96781 2.74913 4.96398C2.74797 4.91419 2.74252 4.84038 2.76141 4.82158C2.77159 4.81218 2.78827 4.79616 2.793 4.83202C2.79551 4.85117 2.79583 4.90827 2.79436 4.91976ZM16.7962 19H16.7299C16.7326 18.9526 16.7351 18.8889 16.7526 18.8719C16.7657 18.859 16.7814 18.8715 16.7904 18.9224C16.7915 18.9279 16.7948 18.9826 16.7962 19ZM18.8899 11.3307C18.8981 11.4059 18.8834 11.4526 18.8603 11.4296C18.8371 11.4063 18.8408 11.3081 18.8507 11.2893C18.8644 11.2635 18.8833 11.2705 18.8899 11.3307ZM9.69187 11.2057C9.68347 11.2705 9.66143 11.2534 9.64663 11.2489C9.64537 11.1998 9.64023 11.1253 9.65901 11.1075C9.66898 11.0971 9.68588 11.0814 9.6906 11.118C9.69312 11.1364 9.69334 11.1939 9.69187 11.2057ZM6.99272 17.8496C6.98727 17.8824 6.95756 17.8942 6.95043 17.8169C6.94361 17.74 6.95757 17.6919 6.98045 17.7194C6.9985 17.741 7.0007 17.8037 6.99272 17.8496ZM22.9999 15.8556C22.9838 15.8563 22.962 15.873 22.9565 15.8205C22.9507 15.7637 22.9511 15.6993 22.9715 15.6794C22.9747 15.677 22.9938 15.6794 22.9999 15.6794V15.8556ZM22.1189 14.4246C22.1115 14.4302 22.1021 14.3877 22.1132 14.3522C22.1274 14.3069 22.1402 14.2446 22.1597 14.2181C22.1826 14.1868 22.1706 14.2913 22.1696 14.316C22.1658 14.3982 22.1368 14.4135 22.1189 14.4246ZM16.9173 9.86247C16.9053 9.8952 16.8893 9.8757 16.8762 9.87848V9.7037H16.9282C16.9295 9.75767 16.9329 9.82103 16.9173 9.86247ZM13.6866 12.5264C13.6948 12.6002 13.6791 12.6534 13.6584 12.6151C13.6454 12.5904 13.6224 12.5514 13.6277 12.5093C13.6348 12.4494 13.6516 12.4369 13.6653 12.4571C13.6732 12.4679 13.6826 12.4898 13.6866 12.5264ZM2.65447 8.93144C2.64146 8.96069 2.61302 8.96731 2.61113 8.89628C2.60871 8.8343 2.64146 8.71976 2.66276 8.78974C2.67084 8.8162 2.67147 8.8928 2.65447 8.93144ZM16.6347 17.9074C16.6227 17.9217 16.602 17.9196 16.5972 17.8615C16.5944 17.8207 16.5971 17.7622 16.6109 17.7469C16.6227 17.7326 16.6436 17.734 16.6481 17.7929C16.6513 17.8336 16.6482 17.8904 16.6347 17.9074ZM13.8997 11.1344C13.8878 11.1486 13.8669 11.1476 13.8624 11.0891C13.8594 11.0484 13.8621 10.9902 13.8758 10.9738C13.8877 10.9599 13.9087 10.962 13.9132 11.0202C13.9161 11.0609 13.9134 11.1183 13.8997 11.1344ZM6.642 8.34686C6.62993 8.36044 6.60905 8.35835 6.60474 8.3009C6.6016 8.25946 6.60454 8.20201 6.61818 8.18565C6.62993 8.17172 6.65102 8.17277 6.65543 8.23126C6.65858 8.27235 6.65575 8.33015 6.642 8.34686ZM16.6224 18.9993L16.5561 19C16.5574 18.9826 16.5617 18.929 16.5642 18.913C16.5726 18.8586 16.591 18.8266 16.6087 18.8499C16.6277 18.8753 16.6225 18.9464 16.6224 18.9993ZM11.5665 11.6758C11.5544 11.704 11.5274 11.7116 11.5221 11.6476C11.5183 11.6044 11.518 11.5358 11.5394 11.5191C11.5439 11.516 11.5708 11.5191 11.5782 11.5191C11.5794 11.5724 11.5836 11.6375 11.5665 11.6758ZM9.69921 14.3306C9.68788 14.3686 9.6714 14.3466 9.66017 14.3491C9.66175 14.2864 9.64779 14.1903 9.66542 14.1684C9.68536 14.1443 9.70571 14.1461 9.71064 14.207C9.714 14.2512 9.70918 14.2979 9.69921 14.3306ZM2.35926 3.76278C2.36976 3.83311 2.35318 3.88359 2.33125 3.85713C2.30942 3.83101 2.29976 3.74432 2.30312 3.68234C2.30522 3.64543 2.32338 3.66111 2.33408 3.67086C2.34006 3.67538 2.3557 3.73875 2.35926 3.76278ZM22.5591 9.95682C22.5755 10.0808 22.5352 10.0644 22.5172 10.0519C22.4982 10.0383 22.4976 9.97319 22.5021 9.93071C22.5073 9.88267 22.5245 9.87083 22.5379 9.89067C22.5452 9.90181 22.5548 9.9234 22.5591 9.95682ZM9.39834 11.8593C9.39089 11.9143 9.37451 11.9265 9.36129 11.9108C9.3466 11.893 9.3338 11.8297 9.33852 11.7712C9.3444 11.697 9.37578 11.7075 9.38333 11.7451C9.39057 11.782 9.40337 11.8251 9.39834 11.8593ZM17.3819 2.81016C17.3652 2.84394 17.3462 2.80425 17.3377 2.75341C17.3291 2.70293 17.3492 2.67333 17.358 2.65522C17.3746 2.62215 17.3937 2.66149 17.4022 2.71198C17.4107 2.76316 17.3906 2.79276 17.3819 2.81016ZM9.7649 16.0548C9.75294 16.0917 9.72776 16.0917 9.71947 16.0325C9.70824 15.9517 9.7329 15.9023 9.75168 15.8831C9.77078 15.864 9.7861 15.95 9.77781 16.0036C9.77603 16.014 9.76794 16.0457 9.7649 16.0548ZM15.4154 18.7316C15.4169 18.719 15.4167 18.6605 15.4142 18.6466C15.4015 18.5766 15.362 18.5763 15.35 18.649C15.3426 18.695 15.3584 18.7354 15.3642 18.773C15.3814 18.7737 15.4065 18.805 15.4154 18.7316ZM7.71746 6.29784C7.70497 6.36713 7.66394 6.36539 7.65512 6.30585C7.64756 6.25223 7.6483 6.18086 7.66751 6.17285C7.68251 6.16484 7.70802 6.14012 7.71662 6.21289C7.71819 6.22473 7.71998 6.28356 7.71746 6.29784ZM8.54452 17.983C8.53203 18.053 8.4911 18.0505 8.48239 17.9917C8.47462 17.9384 8.47557 17.8663 8.49478 17.8576C8.50947 17.8503 8.53539 17.8256 8.54389 17.8984C8.54515 17.9102 8.54714 17.9697 8.54452 17.983ZM22.6527 14.7648C22.6391 14.7777 22.6204 14.7777 22.6137 14.7202C22.607 14.66 22.6223 14.6022 22.6357 14.5799C22.6534 14.5496 22.6709 14.6043 22.6781 14.6481C22.6891 14.7174 22.6668 14.7512 22.6527 14.7648ZM12.6069 3.36098C12.6317 3.52984 12.5671 3.45185 12.5462 3.44698C12.5418 3.44593 12.5298 3.41947 12.5334 3.37351C12.5397 3.29413 12.564 3.26976 12.5834 3.29413C12.5929 3.30666 12.602 3.32929 12.6069 3.36098ZM9.49761 13.8359C9.48387 13.8512 9.46319 13.8512 9.45847 13.7829C9.45647 13.7544 9.45847 13.6381 9.45847 13.6061C9.4782 13.5862 9.5036 13.6054 9.50832 13.6778C9.51147 13.7276 9.51892 13.8132 9.49761 13.8359ZM8.17785 17.5189C8.16452 17.5478 8.14132 17.5498 8.13041 17.4962C8.12159 17.4517 8.12107 17.3737 8.13744 17.3385C8.15077 17.3089 8.17376 17.3068 8.18488 17.3611C8.1937 17.4057 8.19422 17.4823 8.17785 17.5189ZM10.1922 13.8146C10.1942 13.8432 10.1922 13.9598 10.1922 13.9918C10.1724 14.0117 10.1469 13.9922 10.1423 13.9198C10.1391 13.8696 10.1318 13.7843 10.1531 13.761C10.1669 13.7467 10.1875 13.7467 10.1922 13.8146ZM17.3183 7.46284C17.3018 7.47851 17.2821 7.47642 17.2765 7.40852C17.2754 7.39495 17.2765 7.32322 17.2765 7.30233C17.2895 7.28005 17.3011 7.23026 17.3102 7.24488C17.3327 7.28005 17.3418 7.33958 17.334 7.40783C17.3331 7.41688 17.3209 7.46005 17.3183 7.46284ZM15.3816 8.44017C15.3696 8.46245 15.356 8.47011 15.3405 8.4635C15.3566 8.38376 15.3799 8.2995 15.4041 8.26086C15.418 8.23857 15.4541 8.22082 15.4492 8.28071C15.4404 8.38272 15.4052 8.39595 15.3816 8.44017ZM10.807 12.1563C10.7911 12.1845 10.7688 12.1987 10.7601 12.1381C10.7487 12.0553 10.7731 12.0037 10.7927 11.9898C10.8067 11.9808 10.8251 11.9797 10.8321 12.0361C10.8409 12.1065 10.8187 12.1357 10.807 12.1563ZM6.38164 6.99803C6.37587 7.04538 6.35928 7.05861 6.34627 7.04433C6.3214 7.01683 6.31815 6.91969 6.32812 6.86119C6.33315 6.83229 6.34889 6.78286 6.36054 6.81036C6.37828 6.85214 6.38993 6.93153 6.38164 6.99803ZM9.09159 9.16855C9.08403 9.2166 9.06714 9.23123 9.05455 9.2079C9.04143 9.18422 9.02516 9.1501 9.02086 9.09335C9.01813 9.05853 9.01099 8.9586 9.03827 8.9976C9.05601 9.02406 9.07774 9.04008 9.08991 9.08569C9.09316 9.09787 9.09316 9.15811 9.09159 9.16855ZM9.11174 6.1436C9.0981 6.17041 9.07532 6.17389 9.0643 6.11992C9.05549 6.0757 9.05496 5.9991 9.07102 5.96254C9.08655 5.92703 9.10754 5.94862 9.12296 5.94479C9.1216 6.00502 9.13535 6.09695 9.11174 6.1436ZM10.2357 12.0838C10.2229 12.1061 10.2069 12.0901 10.2005 12.0483C10.1885 11.9707 10.2126 11.9129 10.2289 11.8843C10.2416 11.8617 10.2575 11.8781 10.264 11.9202C10.2762 11.9975 10.2518 12.0549 10.2357 12.0838ZM18.1338 2.92158C18.121 2.94352 18.1051 2.9275 18.0986 2.88537C18.0865 2.80773 18.1109 2.75063 18.1269 2.72138C18.1396 2.6991 18.1559 2.71546 18.162 2.75759C18.1742 2.83454 18.15 2.89268 18.1338 2.92158ZM17.3169 17.9607C17.3014 17.9969 17.2806 17.9753 17.2648 17.9784C17.2666 17.9182 17.2525 17.8263 17.2764 17.7796C17.2898 17.7532 17.3128 17.7493 17.3235 17.8037C17.3327 17.8482 17.3329 17.9248 17.3169 17.9607ZM11.914 2.55042C11.8982 2.57584 11.8859 2.52327 11.8747 2.50412C11.8763 2.43344 11.8626 2.33247 11.8857 2.29625C11.9017 2.26979 11.9136 2.32341 11.9252 2.34222C11.9237 2.41255 11.9372 2.51352 11.914 2.55042ZM12.3711 11.6037C12.357 11.6789 12.3107 11.6779 12.2988 11.6155C12.2891 11.5637 12.2912 11.4933 12.3117 11.4749C12.3158 11.4714 12.3384 11.4707 12.3424 11.4787C12.3563 11.5125 12.3809 11.5522 12.3711 11.6037ZM7.88359 10.032C7.85998 10.071 7.84276 9.99094 7.83416 9.93698C7.82723 9.8952 7.83206 9.84192 7.84476 9.81999C7.86816 9.77995 7.88558 9.86107 7.89408 9.91365C7.9009 9.95578 7.89629 10.0097 7.88359 10.032ZM16.1344 6.42702C16.1273 6.47089 16.1105 6.49282 16.097 6.46949C16.084 6.44721 16.0717 6.4016 16.0639 6.35216C16.0445 6.23239 16.0875 6.24178 16.1107 6.2759C16.1226 6.29296 16.1464 6.34659 16.1344 6.42702ZM15.1558 18.7542C15.1615 18.7493 15.178 18.6814 15.1805 18.6584C15.1831 18.6386 15.1839 18.5627 15.182 18.5491C15.1769 18.5139 15.1681 18.4708 15.1558 18.4948C15.1323 18.5408 15.1134 18.6417 15.1248 18.7437C15.1279 18.773 15.145 18.7636 15.1558 18.7542ZM9.25855 9.68385C9.24554 9.71345 9.22067 9.71798 9.21238 9.65844C9.20682 9.6177 9.19265 9.57418 9.19968 9.53066C9.21112 9.45894 9.24995 9.46067 9.26517 9.52752C9.27472 9.57 9.27471 9.64869 9.25855 9.68385ZM3.32516 7.03841C3.30785 7.07358 3.28979 7.01822 3.28329 6.97365C3.27447 6.91411 3.2898 6.85075 3.30491 6.83926C3.31971 6.82707 3.34479 6.80409 3.35402 6.87303C3.36483 6.95207 3.34038 7.00673 3.32516 7.03841ZM11.0819 11.8836C11.0614 11.892 11.0369 11.7847 11.0459 11.6817C11.0522 11.6082 11.0825 11.6221 11.0919 11.6549C11.1087 11.7148 11.1196 11.8707 11.0819 11.8836ZM22.5664 7.00464C22.5543 7.07358 22.5148 7.07114 22.4996 7.00394C22.49 6.96077 22.4901 6.88487 22.5056 6.84691C22.529 6.79121 22.5525 6.86119 22.5663 6.93152C22.5663 6.93152 22.5688 6.99072 22.5664 7.00464ZM9.71138 17.6909C9.69564 17.7229 9.66395 17.7455 9.65304 17.6707C9.64149 17.592 9.66615 17.537 9.68158 17.5046C9.69868 17.4698 9.71726 17.5244 9.72303 17.5707C9.72817 17.615 9.72377 17.6654 9.71138 17.6909ZM18.4636 11.0957C18.4395 11.1319 18.423 11.0515 18.4137 11.0003C18.4028 10.9436 18.4199 10.8837 18.4332 10.8621C18.451 10.8321 18.4701 10.8833 18.4737 10.9335C18.4773 10.9829 18.4841 11.0654 18.4636 11.0957ZM18.5317 11.4749C18.5276 11.4825 18.4994 11.4749 18.4922 11.4749C18.4937 11.4087 18.48 11.3158 18.5037 11.2768C18.5205 11.2489 18.5519 11.2228 18.5629 11.299C18.5746 11.3805 18.5515 11.4369 18.5317 11.4749ZM9.5779 11.1009C9.55891 11.1062 9.53203 11.0713 9.52521 11.0003C9.52185 10.9679 9.52521 10.8488 9.52521 10.8168C9.54085 10.8123 9.56142 10.797 9.5716 10.8569C9.58115 10.9143 9.59248 10.9794 9.59091 11.0445C9.59038 11.0574 9.58136 11.1002 9.5779 11.1009ZM11.4774 13.8209C11.4703 13.8331 11.4419 13.8209 11.4351 13.8209C11.4273 13.7481 11.4395 13.6994 11.457 13.6743C11.4686 13.6572 11.488 13.5765 11.4967 13.5615C11.5175 13.5253 11.5357 13.5848 11.524 13.652C11.5172 13.6921 11.4891 13.8007 11.4774 13.8209ZM4.16471 8.58257C4.15054 8.59998 4.12525 8.61983 4.11602 8.55193C4.10521 8.47255 4.12872 8.41336 4.14593 8.39212C4.15988 8.37471 4.18528 8.35452 4.19441 8.42207C4.20533 8.50145 4.18171 8.56134 4.16471 8.58257ZM10.2373 16.1227C10.2204 16.2243 10.1888 16.1213 10.1669 16.0959C10.1469 16.0715 10.1526 15.9973 10.1539 15.9451C10.1636 15.9451 10.2 15.934 10.2064 15.9451C10.2267 15.9803 10.2507 16.0422 10.2373 16.1227ZM19.172 15.2195C19.1626 15.2474 19.1488 15.2373 19.1411 15.2268C19.117 15.1941 19.0869 15.0757 19.1167 14.9894C19.126 14.9622 19.1397 14.9719 19.1477 14.9827C19.1716 15.0151 19.2015 15.1345 19.172 15.2195ZM11.1008 17.8695C11.0845 17.8918 11.0635 17.9067 11.0522 17.8496C11.0434 17.8054 11.0421 17.725 11.0599 17.6968C11.0803 17.6644 11.1168 17.6435 11.1256 17.6909C11.145 17.796 11.118 17.8451 11.1008 17.8695ZM22.3722 7.86324C22.3523 7.8998 22.3156 7.91756 22.3055 7.86428C22.288 7.76819 22.3129 7.70447 22.3298 7.68184C22.3494 7.65538 22.3759 7.66652 22.3846 7.74452C22.3893 7.78769 22.385 7.83922 22.3722 7.86324ZM10.0388 7.68428C10.017 7.75427 9.97238 7.70482 9.94026 7.70865C9.93481 7.64703 9.94048 7.55929 9.96199 7.54884C9.98665 7.5384 10.0215 7.50218 10.0368 7.57425C10.0407 7.59306 10.044 7.66792 10.0388 7.68428ZM3.04161 6.71496C3.02125 6.75395 2.98389 6.75953 2.97518 6.64289C2.96972 6.57081 3.00089 6.44895 3.03142 6.4775C3.05682 6.50048 3.05693 6.59449 3.0521 6.67422C3.0521 6.67422 3.04434 6.70973 3.04161 6.71496ZM9.36129 4.8073C9.34114 4.85291 9.32425 4.7697 9.31396 4.71399C9.30032 4.64018 9.32593 4.59108 9.34219 4.55313C9.36234 4.50822 9.37903 4.59178 9.38931 4.64749C9.40296 4.72026 9.37766 4.7704 9.36129 4.8073ZM10.3639 11.0891C10.3516 11.1075 10.3311 11.1041 10.3255 11.0344C10.3249 11.0243 10.325 10.9519 10.3278 10.9314C10.3395 10.8495 10.3783 10.7482 10.3937 10.8461C10.409 10.9418 10.3888 11.0515 10.3639 11.0891ZM20.0525 16.0973C20.0391 16.122 20.0296 16.076 20.0268 16.0478C20.0186 15.9674 20.0142 15.88 20.0144 15.811C20.0147 15.7418 20.0373 15.74 20.0498 15.754C20.0951 15.8027 20.07 15.9548 20.0631 16.0436C20.0619 16.0593 20.0546 16.0938 20.0525 16.0973ZM6.71378 10.1368C6.69668 10.172 6.67611 10.1184 6.67401 10.0703C6.67107 10.0038 6.65984 9.90355 6.68345 9.86247C6.712 9.81372 6.72785 9.91992 6.74212 9.98537C6.75524 10.0467 6.72921 10.1055 6.71378 10.1368ZM21.088 4.87381C21.0698 4.91245 21.0372 4.84037 21.023 4.78327C21.0059 4.71503 21.0312 4.64853 21.0546 4.61963C21.0752 4.59526 21.1126 4.7018 21.1057 4.79894C21.1041 4.81775 21.0965 4.8557 21.088 4.87381ZM11.1463 12.4929C11.1389 12.5103 11.1082 12.4929 11.0995 12.4929V12.3683C11.1517 12.385 11.1906 12.2349 11.2296 12.2053C11.237 12.298 11.2305 12.3843 11.2078 12.3909C11.1838 12.3972 11.1651 12.447 11.1463 12.4929ZM17.3431 16.411C17.319 16.46 17.2853 16.4308 17.2716 16.341C17.2595 16.2602 17.2823 16.2014 17.3058 16.1728C17.3263 16.147 17.3637 16.2543 17.3566 16.3511C17.3552 16.3702 17.3464 16.404 17.3431 16.411ZM1.22965 14.0775C1.21748 14.0984 1.20059 14.0831 1.19586 14.0402C1.1859 13.9452 1.20667 13.8125 1.24057 13.8045C1.25096 13.8021 1.26796 13.7822 1.271 13.8143C1.28181 13.926 1.25694 14.0326 1.22965 14.0775ZM19.6509 16.6759C19.6314 16.7087 19.5945 16.718 19.5868 16.6209C19.5816 16.5541 19.5837 16.4635 19.6077 16.4402C19.6278 16.4211 19.6556 16.4308 19.6614 16.5112C19.665 16.5589 19.6713 16.6408 19.6509 16.6759ZM6.77832 14.5454C6.75891 14.5768 6.73813 14.5402 6.72984 14.4567C6.72155 14.3703 6.76426 14.2571 6.78693 14.2693C6.81022 14.2815 6.82429 14.3501 6.81358 14.4166C6.80981 14.441 6.78619 14.5332 6.77832 14.5454ZM9.97899 12.4734C9.9474 12.5601 9.92746 12.4104 9.90626 12.3589C9.89325 12.3276 9.90039 12.2701 9.89986 12.2315C9.92589 12.2266 9.9537 12.2266 9.97962 12.2628C10.0017 12.2938 9.98948 12.3732 9.99001 12.425C9.99001 12.4296 9.98256 12.4647 9.97899 12.4734ZM9.67182 14.9058C9.64716 14.935 9.62817 14.8619 9.62386 14.8052C9.61893 14.7411 9.60802 14.6377 9.62628 14.6116C9.65052 14.5754 9.66636 14.614 9.68095 14.6725C9.69428 14.7265 9.70467 14.8661 9.67182 14.9058ZM11.8087 5.63248C11.8026 5.6464 11.7647 5.63248 11.7533 5.63248C11.7533 5.60219 11.7495 5.50749 11.7533 5.48555C11.7611 5.43785 11.7746 5.39363 11.7852 5.38074C11.8102 5.35115 11.8361 5.36473 11.8461 5.44203C11.8579 5.5336 11.8271 5.58756 11.8087 5.63248ZM15.3448 16.9541C15.3352 17.0363 15.2861 17.0342 15.2715 16.9642C15.258 16.8984 15.252 16.7598 15.2781 16.7306C15.3099 16.6944 15.3572 16.8507 15.3448 16.9541ZM4.00163 3.52706C3.98064 3.55909 3.94485 3.58103 3.933 3.52288C3.91683 3.4428 3.91547 3.31641 3.94286 3.30005C3.9649 3.28682 3.99502 3.2513 4.00793 3.33068C4.01685 3.38465 4.0244 3.4905 4.00163 3.52706ZM17.1966 16.6676C17.1858 16.678 17.1673 16.6944 17.1642 16.6589C17.1528 16.5199 17.1139 16.4228 17.0974 16.3002C17.112 16.3002 17.1414 16.286 17.1473 16.3002C17.1713 16.3539 17.1943 16.4273 17.2045 16.5029C17.2119 16.5579 17.2177 16.647 17.1966 16.6676ZM9.77886 16.8103C9.74465 16.8813 9.71243 16.7807 9.69564 16.6912C9.68903 16.6557 9.69019 16.5788 9.70834 16.5753C9.73311 16.5701 9.76816 16.5321 9.78232 16.6011C9.79471 16.6616 9.80079 16.7661 9.77886 16.8103ZM17.5601 8.19296C17.5432 8.22395 17.5232 8.17451 17.5206 8.12159C17.5176 8.05613 17.506 7.95377 17.5301 7.91477C17.5511 7.88135 17.5892 7.85802 17.599 7.92904C17.6137 8.03663 17.587 8.14387 17.5601 8.19296ZM4.97938 5.00924C4.97277 5.07157 4.95178 5.00611 4.94045 4.94553C4.96385 4.8738 5.0115 4.77944 5.02451 4.67464C5.03312 4.60466 5.06355 4.70772 5.07153 4.75298C5.07866 4.79302 5.07709 4.87137 5.05253 4.87137C5.02955 4.87171 4.99166 4.88808 4.97938 5.00924ZM15.7022 7.85802C15.6887 7.92417 15.6482 7.88831 15.6177 7.87996C15.6006 7.87543 15.5994 7.80301 15.6053 7.76262C15.6187 7.67001 15.6594 7.61081 15.6887 7.67C15.7069 7.70621 15.7159 7.79047 15.7022 7.85802ZM12.4197 3.61863C12.3947 3.67086 12.3633 3.61027 12.3363 3.59077C12.3186 3.57754 12.3175 3.50791 12.3241 3.46891C12.3326 3.41703 12.3524 3.34218 12.3753 3.37909C12.3952 3.41181 12.4233 3.41913 12.4303 3.47866C12.4373 3.53855 12.433 3.59078 12.4197 3.61863ZM4.57535 1.62637C4.55048 1.67233 4.51816 1.64273 4.50305 1.55777C4.49151 1.49267 4.4894 1.3715 4.52005 1.33877C4.52445 1.33355 4.54796 1.32868 4.55279 1.33877C4.56717 1.36697 4.58144 1.40841 4.58469 1.4488C4.58973 1.51043 4.59582 1.58911 4.57535 1.62637ZM11.3927 13.0472C11.3752 13.0577 11.3477 13.018 11.3421 12.9456C11.3347 12.8495 11.3407 12.7088 11.3801 12.6952C11.3946 12.691 11.415 12.6851 11.4196 12.7537C11.4215 12.784 11.4213 12.9107 11.4179 12.9487C11.416 12.971 11.3993 13.0434 11.3927 13.0472ZM11.1525 13.5322C11.1198 13.5813 11.1074 13.4435 11.0856 13.3985C11.0734 13.3731 11.0506 13.3453 11.0599 13.276C11.0704 13.1976 11.099 13.1761 11.1197 13.2095C11.1362 13.2366 11.1548 13.3004 11.1614 13.3582C11.1679 13.416 11.1736 13.5002 11.1525 13.5322ZM9.6311 7.46458C9.61127 7.50079 9.57286 7.52134 9.56079 7.44613C9.54746 7.36535 9.54169 7.2139 9.56635 7.17212C9.59878 7.11571 9.62386 7.26821 9.6417 7.34933C9.64968 7.38728 9.64391 7.4409 9.6311 7.46458ZM4.71461 5.67182C4.69257 5.68296 4.66456 5.70525 4.64567 5.63283C4.63832 5.60463 4.64147 5.55762 4.64525 5.53951C4.66151 5.46257 4.68113 5.33166 4.70548 5.36926C4.72972 5.40721 4.76089 5.46744 4.74809 5.55309C4.74337 5.58443 4.72122 5.66869 4.71461 5.67182ZM9.43759 9.34925C9.43161 9.3886 9.41471 9.38233 9.40443 9.37015C9.3954 9.35866 9.37147 9.26187 9.36906 9.23958C9.36077 9.16333 9.36402 9.06758 9.38847 9.05365C9.4082 9.04216 9.43779 9.007 9.45227 9.08394C9.46833 9.1696 9.45039 9.26883 9.43759 9.34925ZM16.0887 3.70602C16.0729 3.73179 16.0419 3.75755 16.0292 3.68374C16.0128 3.58973 16.0054 3.48319 16.0103 3.37491C16.0179 3.37491 16.0472 3.36237 16.0533 3.37491C16.0726 3.41529 16.0911 3.47414 16.0976 3.53159C16.104 3.58869 16.1099 3.6712 16.0887 3.70602ZM11.2536 11.3523C11.2396 11.3843 11.215 11.3541 11.1928 11.3408C11.1928 11.3126 11.1892 11.2172 11.1928 11.1953C11.2007 11.1476 11.2132 11.0926 11.2277 11.0773C11.2436 11.0595 11.296 11.0773 11.3149 11.0773C11.3254 11.2123 11.2818 11.2872 11.2536 11.3523ZM16.1024 19H15.9424C15.9441 18.9373 15.9537 18.8827 15.9701 18.8499C15.9864 18.8196 16.0042 18.7796 16.0178 18.7855C16.0475 18.7963 16.0773 18.7984 16.0964 18.8646C16.1073 18.9011 16.1011 18.9551 16.1024 19ZM5.19536 11.2966C5.18675 11.3387 5.16923 11.3617 5.15632 11.3238C5.13239 11.2534 5.10826 11.1427 5.08695 11.0484C5.0773 11.0066 5.08286 10.9463 5.09629 10.9303C5.12536 10.8965 5.15758 10.9819 5.17447 11.0574C5.19242 11.1399 5.18172 11.2298 5.19536 11.2966ZM10.2923 10.1762C10.2466 10.2054 10.1828 10.0888 10.1624 9.96344C10.156 9.9234 10.1601 9.82626 10.1799 9.84506C10.2204 9.8844 10.2599 9.96274 10.2923 10.054C10.2957 10.063 10.2923 10.1295 10.2923 10.1762ZM10.6624 16.9903C10.634 17.014 10.5946 17.0401 10.578 16.9816C10.5529 16.8939 10.575 16.8114 10.5942 16.7738C10.6313 16.6993 10.6863 16.7365 10.693 16.8765C10.6961 16.9385 10.6752 16.9806 10.6624 16.9903ZM22.9999 12.5351C22.9687 12.5048 22.919 12.5379 22.9133 12.4289C22.908 12.3282 22.9207 12.1785 22.9603 12.1636C22.9681 12.1601 22.992 12.1437 22.9999 12.1392V12.5351ZM10.9466 10.4039C10.9104 10.3983 10.8614 10.384 10.8516 10.2361C10.8487 10.1925 10.8445 10.1487 10.8462 10.1031C10.8794 10.0867 10.9125 10.1208 10.9421 10.1612C10.9597 10.1842 10.9835 10.2427 10.9701 10.3283C10.9677 10.3429 10.9494 10.4049 10.9466 10.4039ZM2.65405 5.51932C2.62529 5.56632 2.5936 5.44829 2.59644 5.39119C2.60263 5.26307 2.64313 5.15896 2.68207 5.11439C2.68962 5.10499 2.70684 5.18298 2.69813 5.23138C2.68144 5.32643 2.6891 5.46082 2.65405 5.51932ZM15.5823 15.215C15.5397 15.2404 15.4933 15.1046 15.4958 14.9692C15.4965 14.9326 15.5037 14.8985 15.5116 14.895C15.5365 14.8846 15.5711 14.8518 15.5824 14.9044C15.5996 14.9841 15.6108 15.0524 15.6071 15.1147C15.6057 15.1405 15.5884 15.2115 15.5823 15.215ZM4.00834 2.4707C3.97371 2.48776 3.92334 2.45886 3.89983 2.38818C3.8865 2.34709 3.89647 2.27676 3.90917 2.24891C3.92607 2.21339 3.94758 2.16221 3.96469 2.17822C3.98012 2.1925 4.01884 2.30253 4.0244 2.33525C4.03321 2.38644 4.02849 2.46095 4.00834 2.4707ZM11.5112 9.23262C11.4942 9.25211 11.4723 9.24167 11.4596 9.20964C11.4304 9.13791 11.3886 9.06341 11.3923 8.98159C11.3969 8.87852 11.4181 8.87992 11.4318 8.89245C11.4709 8.93005 11.4967 9.03764 11.5212 9.11598C11.5319 9.1508 11.5261 9.2159 11.5112 9.23262ZM9.9071 11.735C9.88874 11.76 9.86534 11.7235 9.86271 11.6629C9.85988 11.5967 9.84823 11.4965 9.87215 11.4526C9.89199 11.4146 9.92043 11.4237 9.93942 11.4435C9.95926 11.4655 9.98308 11.525 9.9708 11.6058C9.95842 11.6866 9.92987 11.704 9.9071 11.735ZM19.5955 13.9758C19.5874 13.8592 19.5755 13.7331 19.548 13.7049C19.5265 13.683 19.4983 13.7143 19.4735 13.7331C19.4554 13.7467 19.4537 13.8219 19.4627 13.8661C19.4757 13.9288 19.5056 13.9476 19.5315 13.9734C19.5533 13.996 19.5984 14.0152 19.5955 13.9758ZM11.2419 9.52822C11.2103 9.55781 11.1678 9.43317 11.178 9.3409C11.1841 9.28624 11.2007 9.23958 11.2133 9.23262C11.2406 9.2159 11.2758 9.18317 11.2899 9.25246C11.3023 9.31374 11.3086 9.41924 11.2861 9.45963C11.2777 9.4753 11.2511 9.51951 11.2419 9.52822ZM10.3056 13.3327C10.2954 13.3926 10.2732 13.37 10.2589 13.363C10.2317 13.3491 10.2069 13.2882 10.1984 13.2018C10.1899 13.1169 10.2126 13.0507 10.2325 13.0413C10.2589 13.0305 10.295 13.088 10.3141 13.1628C10.3257 13.2095 10.3147 13.2805 10.3056 13.3327ZM13.4677 15.1485C13.4612 15.1579 13.4307 15.1485 13.42 15.1485C13.4186 15.0593 13.4321 14.9699 13.4472 14.9229C13.4749 14.8379 13.5116 14.8261 13.5446 14.8473C13.5632 14.8577 13.5647 14.9302 13.5555 14.9848C13.5409 15.0715 13.5016 15.1018 13.4677 15.1485ZM8.85893 10.3329C8.83458 10.3858 8.79187 10.3983 8.77256 10.3276C8.75892 10.2764 8.75924 10.1897 8.76532 10.1316C8.76973 10.0849 8.7861 10.0366 8.79838 10.0285C8.82104 10.0136 8.85232 9.97806 8.86344 10.0599C8.87477 10.1428 8.88107 10.2841 8.85893 10.3329ZM5.7269 6.03183C5.70244 6.03636 5.66771 5.9911 5.66183 5.91938C5.65438 5.83024 5.64599 5.71291 5.6695 5.65685C5.70308 5.57538 5.73246 5.68714 5.75586 5.76444C5.76804 5.80413 5.76342 5.86611 5.75975 5.91346C5.75796 5.93818 5.73487 6.03044 5.7269 6.03183ZM17.1964 8.48682C17.1815 8.51154 17.1584 8.52721 17.1514 8.46245C17.1418 8.37262 17.1609 8.27479 17.1838 8.2243C17.2129 8.16024 17.2564 8.11811 17.2775 8.18356C17.2942 8.23718 17.2945 8.32423 17.2764 8.35347C17.2602 8.37854 17.2121 8.45932 17.1964 8.48682ZM6.67348 1.98464C6.65459 2.00588 6.62332 2.03756 6.60989 1.95817C6.59866 1.89202 6.60055 1.79593 6.60779 1.7343C6.61566 1.66849 6.63392 1.5637 6.66016 1.60931C6.68744 1.65596 6.70444 1.75101 6.70875 1.86974C6.71042 1.91083 6.68891 1.96723 6.67348 1.98464ZM6.64903 7.93009C6.62605 7.97396 6.60989 7.88239 6.60055 7.84026C6.58407 7.76679 6.61388 7.72049 6.62689 7.70134C6.63749 7.68602 6.65501 7.61708 6.65669 7.5941C6.66026 7.55023 6.65669 7.40539 6.65669 7.36396C6.67779 7.34515 6.70843 7.36465 6.71053 7.43951C6.71378 7.55824 6.69479 7.68985 6.68115 7.81485C6.67821 7.84166 6.65596 7.91616 6.64903 7.93009ZM22.7102 15.6746C22.6934 15.7097 22.6723 15.6575 22.6664 15.6008C22.6623 15.5604 22.661 15.3981 22.6664 15.356C22.6727 15.3079 22.6868 15.2561 22.7014 15.2373C22.712 15.2233 22.7483 15.2373 22.7568 15.2373C22.7692 15.4354 22.7469 15.5976 22.7102 15.6746ZM5.83614 4.70285C5.82606 4.7798 5.79826 4.74672 5.78136 4.73906C5.76279 4.7314 5.74201 4.7025 5.73414 4.6635C5.71892 4.58725 5.70003 4.50752 5.7099 4.4438C5.72123 4.36895 5.74641 4.26798 5.76782 4.3491C5.78986 4.43371 5.80277 4.57193 5.83614 4.66559C5.83614 4.66559 5.83729 4.69554 5.83614 4.70285ZM9.94803 9.83113C9.90217 9.84645 9.84287 9.68977 9.84623 9.54389C9.84875 9.42307 9.91382 9.35831 9.93145 9.48539C9.94415 9.57522 9.96576 9.66123 9.96482 9.76011C9.9644 9.77403 9.95548 9.82869 9.94803 9.83113ZM16.8314 18.4648C16.8139 18.469 16.7879 18.4997 16.7751 18.4262C16.7546 18.3071 16.7851 18.211 16.8104 18.1428C16.8409 18.0613 16.8825 18.1578 16.9001 18.2361C16.9154 18.3057 16.8882 18.3562 16.8751 18.3959C16.868 18.4178 16.8408 18.4624 16.8314 18.4648ZM9.89797 4.1879C9.88391 4.19973 9.86575 4.19974 9.85883 4.14229C9.84896 4.06186 9.87205 4.00685 9.88706 3.98282C9.92767 3.91806 9.96325 3.81674 10.0034 3.78227C10.0301 3.75964 10.0351 3.89543 10.029 3.96158C10.0258 3.99919 10.0128 4.05663 9.99483 4.03017C9.97458 4.00057 9.93681 4.00963 9.92988 4.11896C9.92736 4.16144 9.91025 4.17745 9.89797 4.1879ZM18.3239 10.6382C18.3101 10.6838 18.2807 10.6553 18.2648 10.6072C18.2363 10.523 18.2036 10.4352 18.1979 10.3012C18.1957 10.2514 18.2125 10.1925 18.2303 10.1957C18.2813 10.2054 18.3175 10.3781 18.3225 10.5449C18.3228 10.5633 18.3271 10.6278 18.3239 10.6382ZM9.88286 7.90955C9.84592 7.84374 9.8074 7.65956 9.76249 7.61499C9.7436 7.59654 9.77141 7.48791 9.79104 7.44752C9.79377 7.44125 9.82272 7.4322 9.82671 7.45204C9.84896 7.56868 9.88223 7.69124 9.92767 7.74242C9.91928 7.81588 9.90196 7.84688 9.88286 7.90955ZM17.0045 7.38868C16.9782 7.404 16.9442 7.42941 16.9219 7.36465C16.9113 7.33367 16.9143 7.28109 16.9183 7.26055C16.94 7.14565 16.9864 7.05896 17.0397 7.10875C17.0567 7.12511 17.0804 7.19022 17.0682 7.26821C17.0561 7.34794 17.0281 7.3751 17.0045 7.38868ZM6.49645 4.36965C6.48962 4.4083 6.47483 4.39123 6.46696 4.38183C6.43233 4.34422 6.4042 4.15935 6.43694 4.03923C6.4552 3.97238 6.48312 3.89612 6.50799 3.93825C6.52111 3.96054 6.53968 4.00615 6.53622 4.05141C6.52856 4.14681 6.51355 4.22689 6.50904 4.31776C6.50841 4.32995 6.49844 4.35886 6.49645 4.36965ZM19.2821 14.9685C19.2644 14.9869 19.2395 14.9479 19.2244 14.8974C19.2209 14.8859 19.2229 14.8017 19.2257 14.7798C19.2401 14.6725 19.2751 14.6468 19.3023 14.5733C19.3079 14.559 19.3461 14.5733 19.3581 14.5733C19.362 14.6697 19.3514 14.763 19.3412 14.864C19.3346 14.9288 19.307 14.942 19.2821 14.9685ZM7.12096 4.24883C7.0899 4.31394 7.04289 4.2168 7.02861 4.11687C7.01298 4.00824 7.04865 3.8829 7.08444 3.83694C7.0985 3.81848 7.1219 3.79933 7.13009 3.8634C7.14153 3.9581 7.13702 4.07822 7.13555 4.18824C7.13534 4.1973 7.12778 4.2342 7.12096 4.24883ZM10.7136 8.03664C10.6611 8.11602 10.6288 8.00147 10.6185 7.87647C10.6118 7.79152 10.6321 7.73825 10.6472 7.69716C10.6629 7.65468 10.6837 7.61813 10.7004 7.63031C10.7306 7.65155 10.7236 7.75844 10.7274 7.82076C10.7307 7.87786 10.7345 7.93009 10.7301 7.97814C10.7285 7.99798 10.7088 8.0436 10.7136 8.03664ZM10.9942 9.67933C10.9624 9.66296 10.9268 9.66366 10.8939 9.57244C10.879 9.53065 10.8765 9.35692 10.9003 9.33255C10.9506 9.28067 10.9979 9.3597 11.0194 9.476C11.0227 9.4941 11.0212 9.60064 11.0176 9.62849C11.0157 9.64347 10.9976 9.68142 10.9942 9.67933ZM17.2764 19H17.0231C17.0221 18.9171 17.0414 18.8506 17.0573 18.8405C17.1269 18.7925 17.192 18.8151 17.254 18.8705C17.271 18.8858 17.2735 18.9492 17.2764 19ZM20.305 17.8448C20.3091 17.8622 20.305 17.9872 20.305 18.053L20.1716 17.7483C20.1644 17.7292 20.1703 17.5989 20.1729 17.5829C20.184 17.5157 20.2087 17.4154 20.2279 17.4927C20.2526 17.5916 20.2756 17.7194 20.305 17.8448ZM15.4456 14.7321C15.4188 14.7686 15.3836 14.7512 15.3836 14.6607C15.3835 14.5214 15.4094 14.4096 15.4291 14.3104C15.4416 14.2481 15.4647 14.2624 15.4782 14.2791C15.4952 14.3007 15.5203 14.3633 15.5069 14.4368C15.4873 14.5475 15.4769 14.6878 15.4456 14.7321ZM7.8564 17.9269C7.85976 17.9603 7.86533 18.0505 7.83752 18.0268C7.7926 17.9872 7.75104 17.9262 7.70917 17.8615C7.68797 17.8284 7.68881 17.6247 7.71158 17.6118C7.76101 17.5836 7.81317 17.664 7.82471 17.8016C7.82723 17.8315 7.85326 17.8963 7.8564 17.9269ZM9.85852 13.0013C9.82966 13.0782 9.81066 12.955 9.7966 12.9289C9.7605 12.8627 9.71296 12.7259 9.72639 12.6736C9.75829 12.5514 9.81622 12.5521 9.83543 12.6768C9.85054 12.775 9.88874 12.8345 9.88947 12.9428C9.87992 12.9609 9.86324 12.9884 9.85852 13.0013ZM4.58417 15.0116C4.55268 15.0468 4.504 14.8849 4.521 14.8289L4.6081 14.5357C4.62457 14.4866 4.64975 14.5517 4.65552 14.6078C4.65962 14.6488 4.65794 14.8069 4.65312 14.8459C4.64147 14.9417 4.61156 14.9807 4.58417 15.0116ZM6.67537 4.65445C6.66204 4.72618 6.6144 4.72931 6.60958 4.64017C6.6016 4.48524 6.60842 4.31393 6.63014 4.20217C6.64116 4.14576 6.69563 4.13567 6.70297 4.22201C6.71798 4.39715 6.69594 4.54443 6.67537 4.65445ZM16.3989 10.9112C16.3563 11.0205 16.3149 10.877 16.3031 10.798C16.2856 10.6803 16.2438 10.5383 16.2401 10.3398C16.2921 10.446 16.3365 10.6138 16.3814 10.6361C16.4063 10.649 16.4232 10.8485 16.3989 10.9112ZM22.9999 13.5103C22.9842 13.5103 22.9658 13.5204 22.9555 13.4612C22.9453 13.4024 22.897 13.2614 22.8936 13.2408C22.8723 13.1054 22.9043 13.0483 22.9226 13.0197C22.9503 12.9769 22.9622 12.8345 22.9999 12.8909V13.5103ZM7.17018 12.519C7.15108 12.5685 7.12841 12.5152 7.12317 12.4557C7.12044 12.4264 7.13041 12.2893 7.13702 12.2579C7.15381 12.1785 7.17428 12.0981 7.19841 12.0511C7.20639 12.0351 7.2405 12.0375 7.24805 12.0511C7.26232 12.0755 7.27565 12.1218 7.27932 12.1563C7.28845 12.2395 7.28467 12.3328 7.25802 12.3526C7.22433 12.377 7.19421 12.4567 7.17018 12.519ZM12.359 1.77887C12.3354 1.8485 12.3145 1.70262 12.2959 1.64203C12.2748 1.57344 12.2754 1.46307 12.2584 1.37777C12.2441 1.30674 12.2081 1.30256 12.1991 1.24616C12.1855 1.15877 12.2007 1.08983 12.2225 1.07938C12.2488 1.06545 12.2716 1.21796 12.2979 1.29699C12.3291 1.39065 12.3682 1.5045 12.381 1.66989C12.3844 1.71202 12.3733 1.73674 12.359 1.77887ZM11.8647 10.6779C11.8584 10.6876 11.8349 10.6831 11.8304 10.6737C11.8165 10.6434 11.8009 10.61 11.796 10.5557C11.7874 10.4589 11.7966 10.3423 11.8316 10.3074C11.8461 10.2921 11.8749 10.1532 11.8857 10.1375C11.9008 10.1145 11.9216 10.1166 11.9266 10.1852C11.9284 10.2103 11.9279 10.3207 11.9253 10.3398C11.9085 10.4659 11.9039 10.6222 11.8647 10.6779ZM10.6069 10.774C10.6162 10.8356 10.5808 10.8112 10.5733 10.8018C10.5287 10.7458 10.4849 10.7239 10.4616 10.6023C10.4445 10.5139 10.4447 10.3792 10.4437 10.2841C10.4433 10.2395 10.4647 10.2197 10.4739 10.2465C10.4964 10.3148 10.5336 10.3165 10.545 10.4122C10.5603 10.5445 10.5873 10.6462 10.6069 10.774ZM9.94478 14.8393C9.93869 14.8463 9.90846 14.8393 9.8987 14.8393C9.8987 14.809 9.90164 14.7174 9.8987 14.6878C9.88548 14.5531 9.83197 14.6179 9.822 14.5023C9.8136 14.4027 9.85002 14.2662 9.88759 14.2791C9.90007 14.4058 9.93565 14.5346 9.97762 14.5367C9.9984 14.5371 10.0228 14.6234 10.0107 14.7042C9.99861 14.7846 9.9708 14.809 9.94478 14.8393ZM9.82283 15.4145H9.65608C9.64653 15.4145 9.6331 15.3703 9.64265 15.2992C9.69554 15.3059 9.74612 15.1694 9.7606 15.0621C9.77099 14.9873 9.80489 14.949 9.8221 14.9692C9.83773 14.9869 9.85316 15.0391 9.85873 15.0875C9.86303 15.1255 9.86061 15.2578 9.85662 15.2944C9.85358 15.3222 9.83018 15.4145 9.82283 15.4145ZM18.4242 11.8217C18.3374 11.783 18.2552 11.6256 18.2583 11.2956C18.2587 11.2604 18.2858 11.2628 18.2911 11.2837C18.3143 11.3784 18.3458 11.4787 18.3913 11.5191C18.4051 11.5313 18.4595 11.5191 18.4758 11.5191C18.4744 11.6013 18.4872 11.7075 18.4686 11.7503C18.4559 11.7799 18.4281 11.8237 18.4242 11.8217ZM15.0837 15.5882C15.0746 15.5955 15.0451 15.592 15.0352 15.592C15.0352 15.5531 15.0313 15.4326 15.0352 15.4051C15.0487 15.3093 15.0792 15.2442 15.1102 15.2383C15.1251 15.2348 15.1469 15.3013 15.1555 15.2777C15.1935 15.1718 15.2445 15.0893 15.3021 15.0761C15.3137 15.1391 15.306 15.2205 15.2948 15.2794C15.272 15.396 15.2209 15.4382 15.1652 15.4044C15.1423 15.4953 15.1157 15.5635 15.0837 15.5882ZM11.2639 9.04007C11.2565 9.0547 11.2227 9.054 11.2153 9.04007C11.2007 9.01535 11.1867 8.96905 11.1852 8.94467C11.1708 8.71662 11.1933 8.56029 11.2323 8.47708C11.2523 8.43425 11.2987 8.47638 11.3174 8.55716C11.3336 8.62714 11.3293 8.74378 11.3216 8.83187C11.3178 8.87887 11.2787 9.01326 11.2639 9.04007ZM15.0859 16.9078C15.0647 16.9412 15.0302 16.9405 15.0037 16.9172C14.9899 16.9057 14.9761 16.8493 14.97 16.7992C14.9474 16.6122 14.9542 16.3977 14.9823 16.2411C14.9924 16.186 15.0442 16.1791 15.0509 16.263C15.0585 16.3587 15.0482 16.467 15.0696 16.5628C15.0872 16.6418 15.1084 16.7396 15.1013 16.8413C15.1003 16.857 15.0926 16.8967 15.0859 16.9078ZM4.13417 13.0103C4.08841 13.0545 4.0499 12.9571 4.03217 12.8613C4.02062 12.7997 4.02839 12.6691 4.05945 12.6705C4.09912 12.6722 4.13427 12.8087 4.17394 12.8206C4.18968 12.8247 4.22516 12.6489 4.23702 12.6413C4.26745 12.6211 4.30659 12.5943 4.32307 12.6514C4.34794 12.7398 4.32622 12.822 4.30764 12.8613C4.26063 12.9619 4.19178 12.955 4.13417 13.0103ZM9.91802 11.0323C9.91025 11.0497 9.87667 11.0369 9.87215 11.0285C9.85232 10.9923 9.82819 10.9394 9.84099 10.8576C9.86492 10.7061 9.86261 10.5167 9.89692 10.3875C9.90752 10.3485 9.9304 10.3593 9.94142 10.3833C9.97679 10.4575 10.0341 10.6114 9.99651 10.8018C9.97972 10.8868 9.94593 10.9707 9.91802 11.0323ZM11.1539 8.36043C11.1346 8.40639 11.0867 8.41023 11.0728 8.34582C11.0578 8.27688 11.07 8.20898 11.0879 8.186C11.1298 8.13204 11.1112 7.93009 11.1458 7.90711C11.1745 7.88831 11.2075 7.92348 11.2317 7.95899C11.2426 7.92557 11.2704 7.82251 11.2818 7.80092C11.2871 7.79117 11.3106 7.79848 11.3133 7.803C11.3433 7.85593 11.3663 7.95829 11.358 8.08921C11.336 8.08398 11.2462 8.02619 11.2385 8.06379C11.216 8.1766 11.1877 8.2807 11.1539 8.36043ZM11.2195 10.656C11.1901 10.7002 11.1727 10.6023 11.1608 10.5432L11.0692 10.0909C11.0578 10.0366 11.0917 9.9711 11.11 9.92549C11.1134 9.91748 11.1384 9.91782 11.1428 9.92792C11.1839 10.0167 11.2017 10.1776 11.2242 10.2883C11.2401 10.3666 11.2777 10.3593 11.2882 10.4098C11.3001 10.4704 11.2888 10.5331 11.2724 10.5651C11.2623 10.5856 11.2302 10.6393 11.2195 10.656ZM10.6658 11.83C10.6557 11.9077 10.6229 11.8948 10.6052 11.86C10.5529 11.7569 10.4841 11.6545 10.3933 11.6907C10.3714 11.7001 10.3657 11.5992 10.3764 11.5556C10.4009 11.4543 10.4455 11.4143 10.508 11.4317C10.5286 11.438 10.5903 11.4602 10.6067 11.4787C10.6498 11.5288 10.6474 11.681 10.6642 11.7847C10.6656 11.7935 10.6669 11.8217 10.6658 11.83ZM9.64369 9.64347C9.61651 9.69117 9.57664 9.66018 9.55082 9.56756C9.53372 9.50559 9.54809 9.3604 9.56635 9.2932C9.58167 9.23714 9.61483 9.28763 9.6354 9.26395C9.65073 9.2455 9.66448 9.19188 9.67077 9.13652C9.67602 9.09021 9.66363 8.98054 9.69491 8.96905C9.72303 8.95861 9.75955 8.82247 9.75116 8.67484C9.74927 8.64002 9.77341 8.57875 9.78548 8.5676C9.80405 8.54985 9.8284 8.5293 9.83816 8.59859C9.8518 8.69538 9.82158 8.74935 9.80342 8.78869C9.72545 8.95233 9.69018 9.2744 9.65377 9.60586C9.65503 9.59611 9.64894 9.63407 9.64369 9.64347ZM13.9574 14.1116C13.9396 14.136 13.9087 14.1645 13.8941 14.0876C13.8723 13.9713 13.9028 13.871 13.9294 13.807C13.9531 13.7502 13.9821 13.7154 14.0161 13.7377C14.0522 13.5873 14.1059 13.3968 14.185 13.4403C14.2092 13.4532 14.2423 13.6068 14.206 13.6548C14.1442 13.7366 14.1026 13.8797 14.0213 13.894C14.0058 13.996 13.9827 14.0757 13.9574 14.1116ZM11.4717 12.1663C11.4186 12.1751 11.3842 12.0215 11.3615 11.9094C11.3382 11.9223 11.3177 11.9616 11.3 11.9278C11.2861 11.9021 11.2777 11.8286 11.2771 11.7677C11.2759 11.657 11.2539 11.4742 11.2925 11.4251C11.3046 11.4105 11.347 11.4543 11.3574 11.4749C11.3737 11.5083 11.4128 11.6664 11.4323 11.69C11.4517 11.713 11.4919 11.6664 11.4962 11.783C11.4992 11.8798 11.4825 11.9919 11.485 12.1086C11.4853 12.1197 11.4758 12.1657 11.4717 12.1663ZM9.49373 7.88622C9.42793 7.91756 9.34996 7.96665 9.29445 7.91547C9.25719 7.81136 9.24732 7.63136 9.27293 7.51124C9.28237 7.46633 9.31186 7.48095 9.3296 7.50636C9.34345 7.52621 9.35867 7.57774 9.3784 7.55476C9.40317 7.52621 9.4293 7.4705 9.46445 7.5081C9.48932 7.53456 9.53634 7.52725 9.54725 7.67348C9.55051 7.71631 9.5568 7.79361 9.53812 7.82146C9.5293 7.83539 9.50307 7.88204 9.49373 7.88622ZM9.79712 10.8858C9.79229 10.9429 9.76249 10.9686 9.75756 10.9286C9.73846 10.7761 9.69827 10.6372 9.65849 10.5069C9.63855 10.4425 9.59647 10.5839 9.55439 10.5992C9.53403 10.3506 9.47295 10.2364 9.41943 10.0971C9.40621 10.0623 9.41051 9.98398 9.42762 9.97319C9.43696 9.96553 9.46582 9.97354 9.46372 9.96901C9.52773 10.1142 9.60927 10.1692 9.64957 10.3705C9.6608 10.4272 9.71999 10.196 9.75462 10.2932C9.78778 10.3872 9.80152 10.5661 9.78064 10.7016C9.77329 10.7489 9.80153 10.8335 9.79712 10.8858ZM10.7661 13.8021C10.7345 13.8881 10.7127 13.7446 10.6963 13.6799C10.6733 13.5883 10.6578 13.4825 10.6325 13.3958C10.6285 13.3818 10.6307 13.2927 10.6331 13.2847C10.6747 13.1392 10.7024 12.9438 10.7239 12.7419C10.7307 12.6764 10.7216 12.6012 10.7018 12.5817C10.6873 12.5668 10.6323 12.5849 10.619 12.5779C10.5976 12.5647 10.5967 12.495 10.6017 12.4536C10.6064 12.416 10.6197 12.3944 10.6323 12.4062C10.6417 12.4149 10.6699 12.4463 10.6813 12.4445C10.718 12.4376 10.7387 12.2861 10.7793 12.3046C10.7834 12.4637 10.7674 12.5981 10.7644 12.722C10.7929 12.8181 10.8126 12.9525 10.8134 13.1207C10.7999 13.1346 10.7546 13.167 10.7486 13.1882C10.7322 13.2485 10.7179 13.3599 10.7277 13.3867C10.7566 13.4598 10.7796 13.5918 10.7793 13.7425C10.7793 13.7579 10.7696 13.7927 10.7661 13.8021ZM22.9999 15.3703C22.9842 15.3689 22.9633 15.3859 22.9549 15.3215C22.9372 15.1889 22.8939 15.138 22.8665 15.0458C22.8594 15.0221 22.8633 14.8926 22.8698 14.8661C22.8833 14.809 22.9086 14.6986 22.8792 14.6394C22.8488 14.5768 22.8055 14.5778 22.787 14.4542C22.7596 14.2714 22.8314 14.378 22.8462 14.3553C22.8734 14.3132 22.9045 14.2947 22.9177 14.2331C22.9325 14.1638 22.9421 14.0963 22.9462 14.0148C22.9505 13.9218 22.9381 13.7913 22.9589 13.7098C22.9693 13.6698 22.9866 13.6931 22.9999 13.6886V15.3703ZM16.7532 12.3053C16.6975 12.3349 16.6309 12.2993 16.5759 12.2516C16.5496 12.2276 16.525 12.1127 16.5003 12.0351C16.4755 11.9564 16.4535 11.8074 16.4824 11.6942C16.4914 11.6591 16.5072 11.6274 16.5011 11.5647C16.491 11.4585 16.4763 11.3478 16.4793 11.2486C16.4805 11.2043 16.4942 11.1518 16.509 11.1678C16.5388 11.1981 16.5796 11.1998 16.596 11.2886C16.6171 11.4038 16.6598 11.4366 16.7023 11.5031C16.7188 11.5302 16.7295 11.5915 16.7211 11.657C16.7191 11.6726 16.7004 11.7367 16.6939 11.7409C16.6716 11.7545 16.6012 11.7364 16.5823 11.7451C16.5611 11.7565 16.5592 11.8286 16.5667 11.8659C16.5843 11.9522 16.5928 12.1239 16.616 12.1249C16.6661 12.127 16.7083 12.0863 16.7432 12.0605C16.7685 12.0417 16.7718 12.1712 16.767 12.2516C16.767 12.2516 16.7598 12.3021 16.7532 12.3053ZM11.0113 17.6108C10.9897 17.6738 10.9498 17.6776 10.9256 17.6059C10.9148 17.5725 10.9079 17.5206 10.9135 17.4983C10.9795 17.2281 11.0608 16.9997 11.1689 16.9217C11.1822 16.7508 11.2182 16.6923 11.2473 16.6397C11.2953 16.5544 11.3428 16.4813 11.3739 16.3448C11.3822 16.3079 11.448 16.3208 11.4639 16.3002C11.4745 16.286 11.4992 16.1846 11.5077 16.1801C11.5342 16.1658 11.5672 16.1376 11.5885 16.208C11.58 16.3177 11.5391 16.3462 11.5168 16.3984C11.4931 16.4541 11.4736 16.5464 11.4653 16.5582C11.3275 16.7668 11.2226 16.9997 11.1271 17.2689C11.1213 17.2849 11.1022 17.2779 11.0943 17.3211C11.0728 17.4412 11.0394 17.53 11.0113 17.6108ZM21.092 10.5244C21.0606 10.5546 21.0373 10.4753 21.0066 10.4533C20.9945 10.445 20.9619 10.3005 20.9489 10.2932C20.9156 10.2782 20.8791 10.2792 20.8464 10.2319C20.8334 10.2124 20.8182 10.1678 20.8121 10.1201C20.8082 10.0909 20.8078 9.97876 20.8121 9.95578C20.8237 9.89137 20.8406 9.82625 20.8601 9.79248C20.8692 9.77716 20.9046 9.78204 20.9148 9.79248C20.9456 9.8273 20.9767 9.93141 21.0017 9.91121C21.0481 9.87396 21.0793 9.781 21.1104 9.65113C21.15 9.74513 21.2026 9.88092 21.2771 9.82905C21.3161 9.93594 21.381 9.9711 21.4251 9.89032C21.4379 9.86664 21.4612 9.97214 21.451 10.0265C21.4239 10.1737 21.3548 10.2479 21.3161 10.2113C21.245 10.2162 21.2079 10.3047 21.1617 10.3485C21.1411 10.3673 21.1248 10.4937 21.092 10.5244ZM3.32979 15.895C3.53432 15.2 3.12923 15.951 3.13417 15.895C3 16 3.15096 15.7024 3.13417 15.895C3.15883 15.6199 3.21015 15.4469 3.24866 15.2414C3.2665 15.144 3.25674 15.013 3.26702 14.9159C3.27343 14.8564 3.32642 14.7282 3.33104 14.6666C3.33912 14.5517 3.30805 14.4006 3.32327 14.3271C3.35496 14.1718 3.3748 14.02 3.40209 13.8989C3.40954 13.8661 3.43567 13.8797 3.44144 13.9476C3.44249 13.9619 3.44344 14.0367 3.43945 14.0622C3.42864 14.1297 3.39086 14.184 3.40324 14.2766C3.41132 14.3372 3.43745 14.3867 3.4279 14.4702C3.42056 14.5332 3.40124 14.5998 3.40681 14.6575C3.4109 14.7014 3.44921 14.7853 3.45498 14.824C3.45855 14.8511 3.45907 14.9706 3.45351 14.9869C3.41751 15.0855 3.38897 15.2195 3.35549 15.4089C3.34646 15.5454 3.34993 15.7331 3.32873 15.9037C3.38036 15.8149 3.30543 16.0938 3.32873 15.9037C3.32831 16.0666 3.36222 15.8309 3.32979 15.895ZM11.0394 8.9513H10.9064C10.8328 8.84058 10.7882 8.71906 10.7377 8.57074C10.7462 8.4635 10.7592 8.35034 10.7798 8.27896C10.795 8.22639 10.8168 8.1947 10.8325 8.20341C10.8547 8.21629 10.8547 8.28349 10.8499 8.32945C10.8432 8.39247 10.8406 8.46698 10.8464 8.52513C10.8511 8.57143 10.8672 8.62366 10.8772 8.62818C10.9242 8.65116 10.9615 8.50214 10.9494 8.33885C10.8957 8.23857 10.8597 7.98893 10.8662 7.72328C10.8678 7.66304 10.8389 7.59514 10.8244 7.57948C10.8077 7.56172 10.7502 7.59932 10.735 7.57948C10.7204 7.56067 10.7064 7.5081 10.7046 7.47294C10.6963 7.31626 10.6918 7.09482 10.7201 7.10317C10.8072 7.12894 10.8763 7.24209 10.946 7.33053C10.9677 7.35734 10.9244 7.58853 10.941 7.662C10.9688 7.78769 11.0004 7.86812 11.0264 7.95481C11.0427 8.00843 11.0389 8.14143 11.0153 8.20863C11.0007 8.25111 10.9891 8.32736 10.9959 8.40048C11.0066 8.51154 11.0573 8.45828 11.0776 8.55577C11.0946 8.6362 11.1068 8.73508 11.0958 8.84614C11.0897 8.90882 11.0612 8.9513 11.0394 8.9513ZM10.5039 8.86007C10.498 8.89628 10.486 8.91334 10.4727 8.90463C10.4335 8.87782 10.3944 8.82177 10.3486 8.82003C10.3355 8.82003 10.3177 8.75144 10.3122 8.70339C10.3078 8.66509 10.3074 8.52756 10.3122 8.49587C10.3193 8.44713 10.3333 8.39839 10.3494 8.38376C10.3777 8.35765 10.4166 8.40779 10.4335 8.35034C10.4586 8.26295 10.436 8.18357 10.4181 8.13761C10.4048 8.10349 10.3865 8.05961 10.3718 8.07354C10.2989 8.14631 10.2599 8.35521 10.2376 8.5965C10.2328 8.64873 10.2266 8.71558 10.2093 8.73055C10.195 8.74343 10.1452 8.74273 10.1299 8.73055C10.1113 8.71592 10.0597 8.60451 10.0385 8.59407C10.0105 8.58049 9.97784 8.65499 9.95423 8.63167C9.92106 8.59789 9.8878 8.45514 9.91025 8.36636C9.93586 8.26504 9.98287 8.25947 10.0132 8.17973C10.0384 8.11497 10.0345 7.94437 10.0532 7.84688C10.0608 7.80684 10.0764 7.79013 10.0889 7.81206C10.1048 7.84026 10.1264 7.89597 10.1201 7.97883C10.112 8.08642 10.0801 8.18565 10.0961 8.27548C10.111 8.35835 10.1558 8.31065 10.1917 8.23231C10.222 8.16581 10.2379 7.97222 10.2132 7.80057C10.2434 7.70691 10.2801 7.63309 10.3165 7.67348C10.3579 7.71805 10.3394 7.88796 10.367 7.90955C10.401 7.93671 10.4472 7.99068 10.4574 7.85593C10.4634 7.7762 10.4441 7.69229 10.4478 7.62788C10.4515 7.55755 10.4733 7.50566 10.4892 7.54118C10.534 7.64041 10.5337 7.86811 10.5044 7.96804C10.4899 8.01748 10.497 8.10314 10.5126 8.13203C10.5269 8.15884 10.5462 8.17451 10.5524 8.23126C10.5544 8.24972 10.5549 8.33154 10.5498 8.34929C10.5306 8.41754 10.5093 8.50667 10.5228 8.61077C10.5346 8.7013 10.5166 8.78556 10.5039 8.86007ZM19.5708 14.5068C19.5327 14.5388 19.4852 14.4344 19.4735 14.3595C19.456 14.2481 19.4085 14.1799 19.3698 14.0831C19.3428 14.1262 19.3752 14.2021 19.3674 14.2345C19.3487 14.3132 19.3299 14.434 19.304 14.3724C19.2739 14.3014 19.2404 14.2056 19.2333 14.1224C19.2117 13.879 19.2521 13.6931 19.3043 13.6611C19.3231 13.6489 19.3438 13.6555 19.3547 13.6419C19.3967 13.5869 19.4107 13.4508 19.4264 13.3341H19.5658C19.5946 13.2384 19.6122 13.1085 19.6496 13.0176C19.7426 13.0444 19.7983 13.293 19.8224 13.5712C19.8247 13.5967 19.8264 13.6799 19.8241 13.6921C19.7954 13.8533 19.7384 13.9546 19.675 13.9535C19.6542 13.9535 19.6301 13.9817 19.6246 14.027C19.6173 14.0851 19.6278 14.3031 19.6214 14.3581C19.6128 14.4281 19.5945 14.4869 19.5708 14.5068ZM15.689 19H5.75506C5.75821 18.9492 5.52866 18.8708 5.54818 18.8715C5.64945 18.8719 5.74347 18.8033 5.83866 18.7799L6.16304 18.7782L6.29663 18.6456H6.4637L6.54283 18.2911C6.54682 18.2734 6.58124 18.2911 6.5931 18.2911C6.58775 18.4645 6.63109 18.6546 6.68839 18.6229C6.71116 18.3642 6.76804 18.1358 6.85693 18.0892C6.89628 18.069 6.91559 18.2333 6.94298 18.2734C6.96135 18.2998 6.98758 18.3176 6.99671 18.2455C7.00479 18.1821 7.02085 18.0836 7.04793 18.1139C7.1004 18.1731 7.06996 18.3458 7.07731 18.4367C7.1621 18.413 7.23693 18.4795 7.31458 18.4178C7.32917 18.4064 7.36937 18.5122 7.38311 18.5094C7.4762 18.4917 7.56015 18.5352 7.63613 18.5648C7.66153 18.5752 7.7205 18.4652 7.73352 18.4788C7.84119 18.5836 7.96502 18.6149 8.08266 18.6504C8.11163 18.6584 8.13671 18.5898 8.15896 18.5996C8.17859 18.6086 8.23105 18.7253 8.24595 18.7239C8.33222 18.7169 8.38605 18.8137 8.44052 18.8628C8.50464 18.8203 8.55449 18.8196 8.59741 18.7284C8.64516 18.7392 8.69511 18.7702 8.74874 18.7712C8.7797 18.7712 8.81254 18.6494 8.85001 18.6922C8.85631 18.6992 8.87404 18.7608 8.87404 18.7608C8.93984 18.8308 9.00039 18.6494 8.99651 18.5087C8.99399 18.4238 9.02516 18.4248 9.03996 18.43C9.08571 18.445 9.11698 18.5777 9.13251 18.671C9.14049 18.718 9.18709 18.7096 9.2085 18.6292C9.234 18.5334 9.28752 18.5909 9.30326 18.515C9.32131 18.4262 9.30515 18.3548 9.28752 18.335C9.26789 18.313 9.19454 18.3193 9.17407 18.2911C9.15938 18.272 9.14311 18.2243 9.13818 18.1762C9.13335 18.1289 9.13818 17.9725 9.13818 17.9182C9.11751 17.8904 9.09358 17.8371 9.08834 17.7504C9.11845 17.7079 9.13661 17.858 9.15739 17.8931C9.16767 17.9106 9.19957 17.8931 9.21017 17.8931C9.22319 18.0251 9.26621 18.0961 9.30336 18.116C9.34376 18.2532 9.39057 18.313 9.43664 18.3795C9.46875 18.4265 9.48282 18.2699 9.50412 18.2472C9.52794 18.2222 9.6013 18.265 9.62313 18.2472C9.6332 18.2389 9.65713 18.1313 9.66752 18.1146C9.67298 18.1052 9.69585 18.1146 9.70719 18.1146C9.71957 18.1915 9.7649 18.2862 9.7712 18.1807C9.77666 18.0871 9.79807 18.0248 9.81654 17.9945C9.84624 17.9468 9.88936 17.9945 9.90301 18.0812C9.922 18.2023 9.94194 18.3301 9.96377 18.4433C10.0047 18.5108 10.0514 18.5735 10.1049 18.5578L10.2573 18.3639L10.3571 18.0342C10.3838 17.9492 10.4508 17.9955 10.4744 18.0899C10.4658 18.1637 10.4844 18.2511 10.4963 18.2371C10.558 18.1668 10.6392 18.1438 10.6968 18.0634C10.7145 18.038 10.7402 17.8625 10.7505 17.8427C10.7653 17.8148 10.7854 17.8218 10.7918 17.8799C10.7987 17.9422 10.7841 18.0011 10.7656 18.0234C10.75 18.0415 10.7219 18.0446 10.7123 18.102C10.7046 18.1508 10.7123 18.3597 10.7123 18.4252C10.7727 18.4168 10.8283 18.35 10.8593 18.2253C10.8673 18.1922 10.8593 18.0293 10.8593 17.983C10.8919 17.9649 10.9256 17.9182 10.9512 17.9492C10.9744 17.9771 11.0001 18.0439 10.9987 18.14C10.9979 18.2079 11.0048 18.3144 11.0272 18.336C11.0454 18.3538 11.104 18.3454 11.1213 18.3259C11.1559 18.289 11.1908 18.2183 11.2302 18.2232C11.2616 18.2267 11.2996 18.272 11.3515 18.2688C11.3927 18.266 11.4455 18.374 11.4942 18.3806C11.5257 18.3844 11.543 18.2758 11.5582 18.2009C11.577 18.1097 11.5843 17.9945 11.6158 17.9405C11.6389 17.9015 11.6545 17.9812 11.6646 18.0293C11.6838 18.1181 11.6985 18.2246 11.7196 18.2685C11.7569 18.3433 11.7988 18.35 11.8372 18.328C11.8554 18.3179 11.8598 18.2044 11.8483 18.1901C11.7927 18.1216 11.7472 17.9492 11.7204 17.7532C11.6835 17.6978 11.6483 17.6233 11.6196 17.5286C11.6033 17.6073 11.5879 17.6842 11.5642 17.7292C11.5551 17.7469 11.5247 17.7473 11.5331 17.6714C11.5411 17.5989 11.5573 17.5276 11.5775 17.5185C11.616 17.5001 11.6539 17.319 11.6835 17.397L11.9666 18.1428L11.9533 18.4387C11.9692 18.4937 11.9817 18.5731 12.0012 18.6013C12.0147 18.6208 12.0652 18.6201 12.0779 18.6013C12.0946 18.5756 12.1353 18.3806 12.1525 18.383C12.2098 18.391 12.258 18.5007 12.3042 18.5641C12.3415 18.5171 12.3796 18.4652 12.4211 18.4652C12.4809 18.6351 12.5834 18.7455 12.677 18.6365C12.7134 18.594 12.7243 18.43 12.7554 18.3701C12.7845 18.3141 12.8071 18.461 12.8403 18.4652C12.8844 18.4718 12.8894 18.2991 12.913 18.2685C12.9623 18.2027 13.0009 18.3472 13.0255 18.3513C13.0825 18.3621 13.1168 18.5087 13.1566 18.5648C13.2163 18.5209 13.261 18.6097 13.2985 18.6421C13.3318 18.5627 13.3652 18.4631 13.4132 18.4631C13.4371 18.5735 13.4808 18.6922 13.5366 18.6619C13.567 18.6456 13.6096 18.7904 13.6418 18.7622C13.6842 18.7249 13.7279 18.6515 13.7701 18.6362C13.7928 18.6268 13.8474 18.7615 13.866 18.7716C13.9454 18.8158 13.9945 18.687 14.0225 18.5491C14.0366 18.4795 14.0635 18.4043 14.072 18.3193C14.0828 18.2142 14.0748 18.0745 14.0954 18.0136C14.1131 17.9617 14.1648 17.8931 14.1834 17.8719C14.1996 17.8545 14.2158 17.9384 14.2069 17.9948C14.1922 18.0878 14.1547 18.1062 14.1465 18.1832C14.1333 18.3117 14.1465 18.4474 14.1577 18.562C14.1699 18.6852 14.2137 18.7403 14.2478 18.7284C14.3096 18.7065 14.3777 18.6476 14.4376 18.7065C14.4624 18.7309 14.4822 18.5415 14.5192 18.6006C14.5265 18.6125 14.5442 18.6894 14.5503 18.6894H14.6712C14.7029 18.6894 14.7351 18.8116 14.7675 18.8082C14.8049 18.805 14.8423 18.7552 14.8759 18.7215C14.9063 18.6908 14.9348 18.5655 14.9238 18.4868C14.9078 18.3712 14.8846 18.2312 14.887 18.0613C14.8876 18.0136 14.9097 17.9603 14.922 17.9523C14.9448 17.937 14.9766 17.9001 14.99 18.0011C15.0015 18.0864 15.008 18.2424 15.0442 18.2754C15.0644 18.2932 15.1127 18.3162 15.1089 18.2243C15.097 17.9468 15.1568 17.796 15.206 17.6815C15.2294 17.6268 15.2501 17.7326 15.2623 17.7967C15.269 17.8308 15.2686 17.9976 15.2753 18.0401C15.2829 18.0878 15.2966 18.1341 15.3085 18.1449C15.3267 18.1609 15.3517 18.1839 15.3614 18.1122C15.3765 17.9993 15.4039 17.8893 15.4044 17.7354C15.3355 17.6961 15.2784 17.5617 15.2636 17.3455C15.2593 17.2811 15.2689 17.2229 15.2853 17.1912C15.3421 17.0816 15.441 17.1414 15.448 17.3796C15.4495 17.4315 15.5109 17.397 15.5429 17.4698C15.5728 17.537 15.5706 17.6519 15.5541 17.7267C15.5728 17.8576 15.5831 17.9955 15.6065 18.0846C15.6241 18.1522 15.6523 18.1466 15.6731 18.1557C15.6812 18.2312 15.6662 18.272 15.6514 18.3054C15.6174 18.382 15.5902 18.483 15.5689 18.5839C15.5651 18.6013 15.5658 18.6873 15.5689 18.7037C15.5773 18.7507 15.5899 18.7963 15.6059 18.8196C15.6298 18.8548 15.6652 18.8346 15.6814 18.9011C15.6865 18.9213 15.6875 18.9826 15.689 19ZM22.9605 19L22.773 18.9993C22.7701 18.9551 22.7673 18.8611 22.7469 18.8921C22.7354 18.9091 22.7369 18.9617 22.7332 19H17.3032C17.3017 18.9161 17.3228 18.8719 17.3433 18.8454C17.385 18.7914 17.4312 18.7538 17.4807 18.735C17.4908 18.7309 17.516 18.6156 17.5241 18.6104C17.5753 18.5794 17.6112 18.6462 17.6394 18.6936C17.6483 18.7089 17.6806 18.6584 17.677 18.6563C17.7749 18.6957 17.8768 18.6807 17.9524 18.7775C18.0137 18.7065 18.0741 18.6288 18.1284 18.5415C18.1391 18.5237 18.158 18.4377 18.1682 18.4286C18.1912 18.4071 18.2278 18.4589 18.2341 18.4168C18.2692 18.179 18.315 18.0234 18.3251 17.7911C18.3263 17.7629 18.3657 17.7211 18.3749 17.7163C18.3932 17.7072 18.4512 17.7267 18.4642 17.7062C18.4843 17.6727 18.5185 17.6101 18.5049 17.5286C18.4965 17.4767 18.4826 17.4255 18.4664 17.4154C18.4473 17.4022 18.4188 17.4085 18.4149 17.3354C18.41 17.248 18.3998 17.1293 18.4241 17.0784C18.4473 17.0304 18.4814 17.0415 18.5101 17.0683C18.5306 17.0868 18.5452 17.2118 18.5743 17.1836C18.5928 17.1658 18.595 17.0937 18.5855 17.0527C18.5734 17.0001 18.5634 16.9259 18.5727 16.8531C18.578 16.8124 18.6226 16.7003 18.6303 16.6369C18.6427 16.5325 18.5951 16.4795 18.5786 16.3845C18.5639 16.3009 18.5436 16.1728 18.5533 16.1554C18.6556 15.9674 18.7417 15.7738 18.806 15.6077C18.8262 15.5558 18.8555 15.5513 18.8838 15.5736C18.8875 15.7073 18.8644 15.8685 18.862 15.9966C18.861 16.0405 18.9088 16.1554 18.9132 16.1916C18.9222 16.2651 18.9154 16.3372 18.8998 16.3922C18.8817 16.4562 18.8766 16.6025 18.8574 16.5951C18.7908 16.5718 18.7488 16.7421 18.7203 16.8914C18.7089 16.9517 18.7197 17.1101 18.6864 17.1895C18.6699 17.2292 18.6321 17.2118 18.628 17.3106C18.6244 17.3956 18.6438 17.5028 18.6335 17.5899C18.6204 17.7027 18.5775 17.741 18.5703 17.8263C18.5571 17.9802 18.5232 18.0731 18.4906 18.1358C18.4809 18.1557 18.4548 18.2434 18.4504 18.2768C18.447 18.3043 18.4467 18.4137 18.4504 18.438C18.4582 18.4864 18.4718 18.5394 18.4825 18.5439C18.5366 18.5693 18.5857 18.656 18.6411 18.6525C18.6769 18.4401 18.7811 18.4377 18.8499 18.5401L18.956 18.1466C18.9669 18.1076 19.0166 18.2737 19.0318 18.3795C19.0455 18.4739 19.0803 18.5296 19.1018 18.538C19.1464 18.5547 19.1896 18.6013 19.2291 18.6341C19.2556 18.6546 19.3086 18.6327 19.3113 18.5442C19.3159 18.3973 19.3066 18.2041 19.3311 18.1146C19.3384 18.0878 19.3691 18.1097 19.3767 18.1195C19.4152 18.1745 19.4122 18.3632 19.4415 18.4241C19.4522 18.4471 19.4871 18.4182 19.4927 18.4307C19.5204 18.491 19.545 18.5683 19.5573 18.6748C19.6206 18.6748 19.6648 18.5275 19.7049 18.4596C19.717 18.4398 19.7623 18.5502 19.7759 18.5568C19.7976 18.5676 19.8653 18.5662 19.891 18.5484C19.919 18.531 19.9477 18.4603 19.9847 18.4708L20.0922 18.5171C20.2215 18.328 20.3348 18.2765 20.429 18.1581C20.4592 18.1202 20.4691 17.9861 20.4956 18.0293C20.5241 18.0749 20.5281 18.2009 20.5501 18.2472C20.558 18.2636 20.5838 18.2532 20.587 18.2455C20.625 18.1428 20.6608 18.0268 20.6881 17.8653C20.7198 17.928 20.7476 18.0679 20.7881 18.1146C20.7927 18.1195 20.831 18.1181 20.836 18.1135C20.8891 18.0575 20.8828 17.8695 20.8673 17.7688C20.8597 17.7204 20.8919 17.6442 20.9119 17.6787C20.9196 17.6919 20.945 17.7911 20.952 17.7936C21.0082 17.8113 21.055 17.8155 21.0923 17.7487V17.8998C21.0724 17.8799 21.0461 17.8987 21.0429 17.9711C21.0395 18.0516 21.0285 18.1706 21.0527 18.2215C21.0754 18.2695 21.1116 18.2758 21.1383 18.2465C21.1545 18.2274 21.191 18.0192 21.2092 17.9924C21.2326 17.9583 21.2665 17.9422 21.2767 17.8555C21.2853 17.7817 21.27 17.6696 21.2931 17.5916C21.3335 17.6491 21.3812 17.7121 21.4286 17.7104C21.4579 17.71 21.4846 17.5986 21.5019 17.5986C21.5799 17.5972 21.6477 17.6021 21.7186 17.6094C21.7483 17.6132 21.7855 17.506 21.8127 17.3852C21.8767 17.4238 21.9294 17.5467 22.0078 17.5345C22.0441 17.5286 22.0732 17.4287 22.0927 17.3218C22.0957 17.3061 22.0883 17.193 22.0927 17.171C22.1089 17.0909 22.1314 17.0001 22.1572 16.9851C22.1914 16.9653 22.2284 17.0784 22.2647 17.0868C22.2983 17.0934 22.3306 17.0387 22.3699 17.053C22.3841 17.1801 22.4433 17.2379 22.4789 17.0972C22.5197 17.0325 22.5704 17.0004 22.5949 16.8751C22.705 16.8072 22.8042 16.7093 22.923 16.685C22.9553 16.678 22.9542 16.5217 22.9676 16.4594C22.9728 16.436 22.9946 16.4367 22.9999 16.4322V18.8677C22.9773 18.8618 22.9585 18.9248 22.9605 19Z" fill="white"/>
<g clip-path="url(#clip1_14948:103534)">
<path d="M17.6484 8.5938H15.0115L13.0046 5.2488C12.9046 5.0823 12.689 5.02839 12.5222 5.12828C12.3557 5.2282 12.3018 5.44415 12.4017 5.61065L14.1915 8.59377H9.80845L11.5983 5.61065C11.6982 5.44415 11.6443 5.2282 11.4778 5.12828C11.3113 5.02837 11.095 5.08227 10.9954 5.2488L8.98847 8.5938H6.35156C6.15724 8.5938 6 8.75104 6 8.94536V9.64848C6 9.8428 6.15724 10 6.35156 10H17.6484C17.8428 10 18 9.8428 18 9.64848V8.94536C18 8.75104 17.8428 8.5938 17.6484 8.5938V8.5938Z" fill="white"/>
<path d="M17.2432 10.7032H6.75708L7.21549 13.4529C7.35729 14.3043 8.10994 14.9219 8.97272 14.9219H15.0276C15.8903 14.9219 16.6196 14.3043 16.7614 13.4529L17.2432 10.7032ZM9.80288 13.8659C9.61908 13.8849 9.4399 13.7443 9.42349 13.5449L9.30607 12.1386C9.2896 11.9454 9.43346 11.7754 9.62707 11.7593C9.82655 11.7376 9.99066 11.887 10.0065 12.0803L10.1239 13.4865C10.1404 13.6798 9.99652 13.8497 9.80288 13.8659ZM12.3517 13.5157C12.3517 13.71 12.1945 13.8672 12.0001 13.8672C11.8058 13.8672 11.6486 13.71 11.6486 13.5157V12.1094C11.6486 11.9151 11.8058 11.7579 12.0001 11.7579C12.1945 11.7579 12.3517 11.9151 12.3517 12.1094V13.5157ZM14.5768 13.5449C14.5604 13.7437 14.3816 13.8849 14.1974 13.8659C14.0038 13.8497 13.8599 13.6798 13.8764 13.4865L13.9938 12.0802C14.01 11.8869 14.1754 11.738 14.3732 11.7592C14.5669 11.7754 14.7107 11.9453 14.6942 12.1386L14.5768 13.5449Z" fill="white"/>
</g>
</g>
<defs>
<filter id="filter0_d_14948:103534" x="-40" y="0" width="104" height="100" filterUnits="userSpaceOnUse" color-interpolation-filters="sRGB">
<feFlood flood-opacity="0" result="BackgroundImageFix"/>
<feColorMatrix in="SourceAlpha" type="matrix" values="0 0 0 0 0 0 0 0 0 0 0 0 0 0 0 0 0 0 127 0" result="hardAlpha"/>
<feOffset dy="40"/>
<feGaussianBlur stdDeviation="20"/>
<feComposite in2="hardAlpha" operator="out"/>
<feColorMatrix type="matrix" values="0 0 0 0 1 0 0 0 0 0.909804 0 0 0 0 0 0 0 0 0.08 0"/>
<feBlend mode="normal" in2="BackgroundImageFix" result="effect1_dropShadow_14948:103534"/>
<feBlend mode="normal" in="SourceGraphic" in2="effect1_dropShadow_14948:103534" result="shape"/>
</filter>
<clipPath id="clip0_14948:103534">
<rect width="24" height="20" fill="white"/>
</clipPath>
<clipPath id="clip1_14948:103534">
<rect width="12" height="12" fill="white" transform="translate(6 4)"/>
</clipPath>
</defs>
</svg>
