<svg width="16" height="16" viewBox="0 0 16 16" fill="none" xmlns="http://www.w3.org/2000/svg">
<g clip-path="url(#clip0)">
<path d="M8 6.086C8.26562 6.086 8.51432 6.13678 8.74609 6.23834C8.97786 6.3399 9.17969 6.47662 9.35156 6.6485C9.52344 6.82037 9.66016 7.02219 9.76172 7.25396C9.86328 7.48574 9.91406 7.73443 9.91406 8.00006C9.91406 8.26568 9.86328 8.51438 9.76172 8.74615C9.66016 8.97792 9.52344 9.17975 9.35156 9.35162C9.17969 9.5235 8.97786 9.66021 8.74609 9.76178C8.51432 9.86334 8.26562 9.91412 8 9.91412C7.73438 9.91412 7.48568 9.86334 7.25391 9.76178C7.02214 9.66021 6.82031 9.5235 6.64844 9.35162C6.47656 9.17975 6.33984 8.97792 6.23828 8.74615C6.13672 8.51438 6.08594 8.26568 6.08594 8.00006C6.08594 7.73443 6.13672 7.48574 6.23828 7.25396C6.33984 7.02219 6.47656 6.82037 6.64844 6.6485C6.82031 6.47662 7.02214 6.3399 7.25391 6.23834C7.48568 6.13678 7.73438 6.086 8 6.086ZM8 9.086C8.15104 9.086 8.29297 9.05735 8.42578 9.00006C8.55859 8.94277 8.67318 8.86594 8.76953 8.76959C8.86589 8.67324 8.94271 8.55865 9 8.42584C9.05729 8.29303 9.08594 8.1511 9.08594 8.00006C9.08594 7.84902 9.05729 7.70709 9 7.57428C8.94271 7.44146 8.86589 7.32688 8.76953 7.23053C8.67318 7.13417 8.55859 7.05735 8.42578 7.00006C8.29297 6.94277 8.15104 6.91412 8 6.91412C7.84896 6.91412 7.70703 6.94277 7.57422 7.00006C7.44141 7.05735 7.32682 7.13417 7.23047 7.23053C7.13411 7.32688 7.05729 7.44146 7 7.57428C6.94271 7.70709 6.91406 7.84902 6.91406 8.00006C6.91406 8.1511 6.94271 8.29303 7 8.42584C7.05729 8.55865 7.13411 8.67324 7.23047 8.76959C7.32682 8.86594 7.44141 8.94277 7.57422 9.00006C7.70703 9.05735 7.84896 9.086 8 9.086ZM13.3018 2.69825C13.4634 2.53669 13.726 2.535 13.8799 2.70392C14.1393 2.98876 14.3747 3.2906 14.5859 3.60943C14.8724 4.04173 15.1146 4.49485 15.3125 4.96881C15.5104 5.44277 15.6602 5.93495 15.7617 6.44537C15.8633 6.95579 15.9141 7.47402 15.9141 8.00006C15.9141 8.5261 15.8633 9.04433 15.7617 9.55475C15.6602 10.0652 15.5104 10.5573 15.3125 11.0313C15.1146 11.5053 14.8724 11.9584 14.5859 12.3907C14.3747 12.7095 14.1393 13.0114 13.8799 13.2962C13.726 13.4651 13.4634 13.4634 13.3018 13.3019V13.3019C13.1394 13.1395 13.1405 12.877 13.2933 12.7057C13.5125 12.46 13.7129 12.2013 13.8945 11.9297C14.1523 11.5443 14.3685 11.1381 14.543 10.711C14.7174 10.2839 14.8503 9.84251 14.9414 9.38678C15.0326 8.93105 15.0781 8.46881 15.0781 8.00006C15.0781 7.53131 15.0326 7.06907 14.9414 6.61334C14.8503 6.15761 14.7174 5.7162 14.543 5.28912C14.3685 4.86204 14.1523 4.45579 13.8945 4.07037C13.7129 3.7988 13.5125 3.54015 13.2933 3.29443C13.1405 3.12307 13.1394 2.86062 13.3018 2.69825V2.69825ZM2.69819 2.69825C2.86056 2.86062 2.85954 3.12307 2.7067 3.29443C2.48754 3.54015 2.28713 3.7988 2.10547 4.07037C1.84766 4.45579 1.63021 4.86204 1.45312 5.28912C1.27604 5.7162 1.14193 6.15761 1.05078 6.61334C0.959635 7.06907 0.914062 7.53131 0.914062 8.00006C0.914062 8.46881 0.959635 8.93105 1.05078 9.38678C1.14193 9.84251 1.27604 10.2839 1.45312 10.711C1.63021 11.1381 1.84766 11.5443 2.10547 11.9297C2.28713 12.2013 2.48754 12.46 2.7067 12.7057C2.85954 12.877 2.86056 13.1395 2.69819 13.3019V13.3019C2.53663 13.4634 2.27401 13.4651 2.12015 13.2962C1.8607 13.0114 1.62534 12.7095 1.41406 12.3907C1.1276 11.9584 0.885417 11.5053 0.6875 11.0313C0.489583 10.5573 0.339844 10.0652 0.238281 9.55475C0.136719 9.04433 0.0859375 8.5261 0.0859375 8.00006C0.0859375 7.47402 0.136719 6.95579 0.238281 6.44537C0.339844 5.93495 0.489583 5.44277 0.6875 4.96881C0.885417 4.49485 1.1276 4.04173 1.41406 3.60943C1.62534 3.2906 1.8607 2.98876 2.12015 2.70392C2.27401 2.535 2.53663 2.53669 2.69819 2.69825V2.69825ZM11.1828 4.81728C11.3448 4.6553 11.6091 4.65496 11.7567 4.83015C12.0859 5.22086 12.348 5.6512 12.543 6.12115C12.7904 6.71751 12.9141 7.34381 12.9141 8.00006C12.9141 8.65631 12.7904 9.28261 12.543 9.87896C12.348 10.3489 12.0859 10.7793 11.7567 11.17C11.6091 11.3452 11.3448 11.3448 11.1828 11.1828V11.1828C11.0214 11.0215 11.0234 10.7612 11.1681 10.5848C11.421 10.2764 11.6241 9.93696 11.7773 9.56646C11.9831 9.06907 12.0859 8.54693 12.0859 8.00006C12.0859 7.45318 11.9831 6.93105 11.7773 6.43365C11.6241 6.06316 11.421 5.72373 11.1681 5.41536C11.0234 5.23894 11.0214 4.97863 11.1828 4.81728V4.81728ZM4.81722 4.81728C4.97857 4.97863 4.97664 5.23894 4.83192 5.41536C4.57899 5.72373 4.3759 6.06316 4.22266 6.43365C4.01693 6.93105 3.91406 7.45318 3.91406 8.00006C3.91406 8.54693 4.01693 9.06907 4.22266 9.56646C4.3759 9.93696 4.57899 10.2764 4.83192 10.5848C4.97664 10.7612 4.97857 11.0215 4.81722 11.1828V11.1828C4.65524 11.3448 4.39086 11.3452 4.24326 11.17C3.91407 10.7793 3.65199 10.3489 3.45703 9.87896C3.20964 9.28261 3.08594 8.65631 3.08594 8.00006C3.08594 7.34381 3.20964 6.71751 3.45703 6.12115C3.65199 5.6512 3.91407 5.22086 4.24326 4.83015C4.39086 4.65496 4.65524 4.6553 4.81722 4.81728V4.81728Z" fill="#6A73B5"/>
<path fill-rule="evenodd" clip-rule="evenodd" d="M7.9999 5.98638C8.27864 5.98638 8.54108 6.03975 8.78613 6.14714C9.02883 6.25349 9.24114 6.39714 9.42218 6.57817C9.60321 6.75921 9.74686 6.97152 9.85321 7.21422C9.9606 7.45927 10.014 7.72171 10.014 8.00045C10.014 8.27919 9.9606 8.54163 9.85321 8.78668C9.74686 9.02937 9.60321 9.24168 9.42218 9.42272C9.24114 9.60376 9.02883 9.74741 8.78613 9.85376C8.54108 9.96114 8.27864 10.0145 7.9999 10.0145C7.72116 10.0145 7.45872 9.96114 7.21367 9.85376C6.97097 9.74741 6.75867 9.60376 6.57763 9.42272C6.39659 9.24168 6.25294 9.02937 6.14659 8.78668C6.03921 8.54163 5.98584 8.27919 5.98584 8.00045C5.98584 7.72171 6.03921 7.45927 6.14659 7.21422C6.25294 6.97152 6.39659 6.75921 6.57763 6.57817C6.75867 6.39714 6.97097 6.25349 7.21367 6.14714C7.45872 6.03975 7.72116 5.98638 7.9999 5.98638ZM7.9999 8.98638C8.13794 8.98638 8.26632 8.96028 8.38608 8.90863C8.508 8.85603 8.61185 8.78614 8.69872 8.69927C8.7856 8.61239 8.85549 8.50854 8.90808 8.38662C8.95974 8.26687 8.98584 8.13848 8.98584 8.00045C8.98584 7.86241 8.95974 7.73403 8.90808 7.61427C8.85549 7.49235 8.7856 7.3885 8.69872 7.30163C8.61185 7.21475 8.508 7.14486 8.38608 7.09227C8.26632 7.04061 8.13794 7.01451 7.9999 7.01451C7.86187 7.01451 7.73348 7.04061 7.61373 7.09227C7.4918 7.14486 7.38796 7.21475 7.30108 7.30163C7.21421 7.3885 7.14432 7.49235 7.09172 7.61427C7.04007 7.73403 7.01396 7.86241 7.01396 8.00045C7.01396 8.13848 7.04007 8.26687 7.09172 8.38662C7.14432 8.50854 7.21421 8.61239 7.30108 8.69927C7.38796 8.78614 7.4918 8.85603 7.61373 8.90863C7.73348 8.96028 7.86187 8.98638 7.9999 8.98638ZM13.9537 2.63697C14.2166 2.92556 14.4551 3.23145 14.6692 3.55458C14.9591 3.9921 15.2043 4.45081 15.4047 4.93066C15.6052 5.41083 15.7569 5.9094 15.8597 6.42624C15.9626 6.94316 16.014 7.46792 16.014 8.00045C16.014 8.53297 15.9626 9.05774 15.8597 9.57465C15.7569 10.0915 15.6052 10.5901 15.4047 11.0702C15.2043 11.5501 14.9591 12.0088 14.6692 12.4463C14.4551 12.7694 14.2166 13.0753 13.9537 13.3639C13.759 13.5777 13.4303 13.5723 13.231 13.373C13.0286 13.1706 13.0329 12.8477 13.2186 12.6395C13.4347 12.3972 13.6322 12.1422 13.8113 11.8745C14.0654 11.4947 14.2784 11.0944 14.4503 10.6736C14.6224 10.2524 14.7533 9.8171 14.8433 9.36755C14.9331 8.91834 14.978 8.46267 14.978 8.00045C14.978 7.53823 14.9331 7.08256 14.8433 6.63334C14.7533 6.18379 14.6224 5.74849 14.4503 5.32733C14.2784 4.90651 14.0654 4.50621 13.8113 4.12636C13.6322 3.85866 13.4347 3.60367 13.2186 3.36138C13.0329 3.1532 13.0286 2.83033 13.231 2.62793C13.4303 2.42858 13.759 2.42323 13.9537 2.63697ZM2.78123 3.36138C2.56513 3.60367 2.36756 3.85866 2.18849 4.12636C1.93431 4.50634 1.71997 4.9068 1.5454 5.32781C1.37083 5.74883 1.23861 6.18398 1.14874 6.63334C1.0589 7.08256 1.01396 7.53823 1.01396 8.00045C1.01396 8.46267 1.0589 8.91834 1.14874 9.36755C1.23861 9.81692 1.37083 10.2521 1.5454 10.6731C1.71997 11.0941 1.93431 11.4946 2.18849 11.8745C2.36756 12.1422 2.56513 12.3972 2.78123 12.6395C2.96692 12.8477 2.9712 13.1706 2.76881 13.373C2.56946 13.5723 2.2408 13.5777 2.04612 13.3639C1.78325 13.0753 1.54473 12.7694 1.33061 12.4463C1.04069 12.0088 0.795503 11.5501 0.595125 11.0702C0.394614 10.5901 0.242948 10.0915 0.140106 9.57465C0.0372513 9.05774 -0.0141602 8.53297 -0.0141602 8.00045C-0.0141602 7.46792 0.0372513 6.94316 0.140106 6.42624C0.242948 5.9094 0.394614 5.41083 0.595125 4.93066C0.795503 4.45081 1.04069 3.9921 1.33061 3.55458C1.54473 3.23145 1.78325 2.92556 2.04612 2.63697C2.2408 2.42323 2.56946 2.42858 2.76881 2.62793C2.9712 2.83033 2.96691 3.1532 2.78123 3.36138ZM11.8331 4.76611C12.1689 5.16463 12.4363 5.60376 12.6352 6.08322C12.8878 6.69193 13.014 7.33127 13.014 8.00045C13.014 8.66963 12.8878 9.30897 12.6352 9.91767C12.4363 10.3971 12.1689 10.8363 11.8331 11.2348C11.6443 11.4589 11.3115 11.4534 11.112 11.2539C10.91 11.0519 10.9173 10.733 11.0907 10.5217C11.3373 10.221 11.5353 9.89008 11.6848 9.52863C11.8855 9.04355 11.9858 8.53442 11.9858 8.00045C11.9858 7.46647 11.8855 6.95734 11.6848 6.47226C11.5353 6.11081 11.3373 5.77988 11.0907 5.47917C10.9173 5.26786 10.91 4.94896 11.112 4.74696C11.3115 4.54745 11.6443 4.54199 11.8331 4.76611ZM4.90914 5.47917C4.66248 5.77988 4.46447 6.11081 4.31497 6.47226C4.11433 6.95734 4.01396 7.46647 4.01396 8.00045C4.01396 8.53442 4.11433 9.04355 4.31497 9.52863C4.46447 9.89008 4.66248 10.221 4.90914 10.5217C5.08247 10.733 5.08984 11.0519 4.88784 11.2539C4.68833 11.4534 4.35551 11.4589 4.16668 11.2348C3.83092 10.8363 3.56347 10.3971 3.36457 9.91767C3.11205 9.30897 2.98584 8.66963 2.98584 8.00045C2.98584 7.33127 3.11205 6.69193 3.36457 6.08322C3.56347 5.60376 3.83092 5.16463 4.16668 4.76611C4.35551 4.54199 4.68833 4.54745 4.88784 4.74696C5.08984 4.94896 5.08247 5.26786 4.90914 5.47917ZM8.746 6.23873C8.51423 6.13717 8.26553 6.08638 7.9999 6.08638C7.73428 6.08638 7.48558 6.13717 7.25381 6.23873C7.02204 6.34029 6.82021 6.47701 6.64834 6.64888C6.47646 6.82076 6.33975 7.02258 6.23818 7.25435C6.13662 7.48612 6.08584 7.73482 6.08584 8.00045C6.08584 8.26607 6.13662 8.51477 6.23818 8.74654C6.33975 8.97831 6.47646 9.18013 6.64834 9.35201C6.82021 9.52388 7.02204 9.6606 7.25381 9.76217C7.48558 9.86373 7.73428 9.91451 7.9999 9.91451C8.26553 9.91451 8.51423 9.86373 8.746 9.76217C8.97777 9.6606 9.17959 9.52388 9.35147 9.35201C9.52334 9.18013 9.66006 8.97831 9.76162 8.74654C9.86318 8.51477 9.91397 8.26607 9.91397 8.00045C9.91397 7.73482 9.86318 7.48612 9.76162 7.25435C9.66006 7.02258 9.52334 6.82076 9.35147 6.64888C9.17959 6.47701 8.97777 6.34029 8.746 6.23873ZM8.42568 9.00045C8.29287 9.05774 8.15094 9.08638 7.9999 9.08638C7.84886 9.08638 7.70693 9.05774 7.57412 9.00045C7.44131 8.94316 7.32673 8.86633 7.23037 8.76998C7.13402 8.67362 7.05719 8.55904 6.9999 8.42623C6.94261 8.29342 6.91396 8.15149 6.91396 8.00045C6.91396 7.84941 6.94261 7.70748 6.9999 7.57467C7.05719 7.44185 7.13402 7.32727 7.23037 7.23092C7.32673 7.13456 7.44131 7.05774 7.57412 7.00045C7.70693 6.94316 7.84886 6.91451 7.9999 6.91451C8.15094 6.91451 8.29287 6.94316 8.42568 7.00045C8.5585 7.05774 8.67308 7.13456 8.76943 7.23092C8.86579 7.32727 8.94261 7.44185 8.9999 7.57467C9.05719 7.70748 9.08584 7.84941 9.08584 8.00045C9.08584 8.15149 9.05719 8.29342 8.9999 8.42623C8.94261 8.55904 8.86579 8.67362 8.76943 8.76998C8.67308 8.86633 8.5585 8.94316 8.42568 9.00045ZM13.8798 2.70431C13.7259 2.53539 13.4633 2.53708 13.3017 2.69864C13.1393 2.86101 13.1404 3.12346 13.2932 3.29482C13.5124 3.54054 13.7128 3.79918 13.8944 4.07076C14.1522 4.45618 14.3684 4.86243 14.5429 5.28951C14.7174 5.71659 14.8502 6.158 14.9413 6.61373C15.0325 7.06946 15.078 7.5317 15.078 8.00045C15.078 8.4692 15.0325 8.93144 14.9413 9.38717C14.8502 9.84289 14.7174 10.2843 14.5429 10.7114C14.3684 11.1385 14.1522 11.5447 13.8944 11.9301C13.7128 12.2017 13.5124 12.4604 13.2932 12.7061C13.1404 12.8774 13.1393 13.1399 13.3017 13.3023C13.4633 13.4638 13.7259 13.4655 13.8798 13.2966C14.1392 13.0117 14.3746 12.7099 14.5858 12.3911C14.8723 11.9588 15.1145 11.5057 15.3124 11.0317C15.5103 10.5577 15.6601 10.0656 15.7616 9.55513C15.8632 9.04472 15.914 8.52649 15.914 8.00045C15.914 7.47441 15.8632 6.95618 15.7616 6.44576C15.6601 5.93534 15.5103 5.44316 15.3124 4.9692C15.1145 4.49524 14.8723 4.04211 14.5858 3.60982C14.3746 3.29098 14.1392 2.98914 13.8798 2.70431ZM2.7066 3.29482C2.85944 3.12346 2.86046 2.86101 2.6981 2.69864C2.53653 2.53708 2.27391 2.53539 2.12005 2.70431C1.8606 2.98914 1.62524 3.29098 1.41396 3.60982C1.12751 4.04211 0.885319 4.49524 0.687402 4.9692C0.489486 5.44316 0.339746 5.93534 0.238184 6.44576C0.136621 6.95618 0.0858398 7.47441 0.0858398 8.00045C0.0858398 8.52649 0.136621 9.04472 0.238184 9.55513C0.339746 10.0656 0.489486 10.5577 0.687402 11.0317C0.885319 11.5057 1.12751 11.9588 1.41396 12.3911C1.62524 12.7099 1.8606 13.0117 2.12005 13.2966C2.27391 13.4655 2.53653 13.4638 2.6981 13.3023C2.86046 13.1399 2.85944 12.8774 2.7066 12.7061C2.48744 12.4604 2.28703 12.2017 2.10537 11.9301C1.84756 11.5447 1.63011 11.1385 1.45303 10.7114C1.27594 10.2843 1.14183 9.84289 1.05068 9.38717C0.959538 8.93144 0.913965 8.4692 0.913965 8.00045C0.913965 7.5317 0.959538 7.06946 1.05068 6.61373C1.14183 6.158 1.27594 5.71659 1.45303 5.28951C1.63011 4.86243 1.84756 4.45618 2.10537 4.07076C2.28703 3.79918 2.48744 3.54054 2.7066 3.29482ZM11.7566 4.83054C11.609 4.65535 11.3447 4.65568 11.1827 4.81767C11.0213 4.97902 11.0233 5.23933 11.168 5.41575C11.4209 5.72412 11.624 6.06355 11.7772 6.43404C11.983 6.93144 12.0858 7.45357 12.0858 8.00045C12.0858 8.54732 11.983 9.06946 11.7772 9.56685C11.624 9.93735 11.4209 10.2768 11.168 10.5851C11.0233 10.7616 11.0213 11.0219 11.1827 11.1832C11.3447 11.3452 11.609 11.3455 11.7566 11.1704C12.0858 10.7796 12.3479 10.3493 12.5429 9.87935C12.7903 9.283 12.914 8.6567 12.914 8.00045C12.914 7.3442 12.7903 6.71789 12.5429 6.12154C12.3479 5.65159 12.0858 5.22125 11.7566 4.83054ZM4.83183 5.41575C4.97654 5.23933 4.97848 4.97902 4.81713 4.81767C4.65514 4.65568 4.39076 4.65535 4.24316 4.83054C3.91397 5.22125 3.65189 5.65159 3.45693 6.12154C3.20954 6.71789 3.08584 7.3442 3.08584 8.00045C3.08584 8.6567 3.20954 9.283 3.45693 9.87935C3.65189 10.3493 3.91397 10.7796 4.24316 11.1704C4.39076 11.3455 4.65514 11.3452 4.81713 11.1832C4.97848 11.0219 4.97654 10.7616 4.83183 10.5851C4.57889 10.2768 4.3758 9.93735 4.22256 9.56685C4.01683 9.06946 3.91396 8.54732 3.91396 8.00045C3.91396 7.45357 4.01683 6.93144 4.22256 6.43404C4.3758 6.06355 4.57889 5.72412 4.83183 5.41575Z" fill="#6A73B5"/>
</g>
<defs>
<clipPath id="clip0">
<rect width="16" height="16" fill="white"/>
</clipPath>
</defs>
</svg>
