<svg width="26" height="26" viewBox="0 0 48 49" fill="none" xmlns="http://www.w3.org/2000/svg">
  <g>
    <path
      d="M37.65 26.4455V30.6211L23.9266 36.8068L10.2031 30.6211V26.4455L16.0479 29.0777V19.8948L10.2031 17.2626V13.0869L20.2235 17.6036V30.9621L23.9266 32.6312L27.6237 30.9621V17.6036L37.6441 13.0869V17.2626L31.8053 19.8948V29.0777L37.65 26.4455Z"
      fill="currentColor" />
    <path fill-rule="evenodd" clip-rule="evenodd"
      d="M23.9224 42.9992C34.6112 42.9992 43.2763 34.3341 43.2763 23.6453C43.2763 12.9564 34.6112 4.29132 23.9224 4.29132C13.2335 4.29132 4.56842 12.9564 4.56842 23.6453C4.56842 34.3341 13.2335 42.9992 23.9224 42.9992ZM23.9224 46.384C36.4806 46.384 46.6611 36.2035 46.6611 23.6453C46.6611 11.087 36.4806 0.906494 23.9224 0.906494C11.3641 0.906494 1.18359 11.087 1.18359 23.6453C1.18359 36.2035 11.3641 46.384 23.9224 46.384Z"
      fill="currentColor" />
  </g>
</svg>