<svg width="18" height="18" viewBox="0 0 18 18" fill="none" xmlns="http://www.w3.org/2000/svg">
<path d="M9 14.3125C11.934 14.3125 14.3125 11.934 14.3125 9C14.3125 6.06599 11.934 3.6875 9 3.6875C6.06599 3.6875 3.6875 6.06599 3.6875 9C3.6875 11.934 6.06599 14.3125 9 14.3125Z" fill="white"/>
<path d="M9 2.4375C9.08208 2.4375 9.16335 2.42134 9.23918 2.38993C9.31501 2.35852 9.38391 2.31248 9.44194 2.25444C9.49998 2.19641 9.54602 2.12751 9.57743 2.05168C9.60883 1.97585 9.625 1.89458 9.625 1.8125V1.1875C9.625 1.02174 9.55915 0.862768 9.44194 0.745558C9.32473 0.628348 9.16576 0.5625 9 0.5625C8.83424 0.5625 8.67527 0.628348 8.55806 0.745558C8.44085 0.862768 8.375 1.02174 8.375 1.1875V1.8125C8.375 1.89458 8.39117 1.97585 8.42257 2.05168C8.45398 2.12751 8.50002 2.19641 8.55806 2.25444C8.61609 2.31248 8.68499 2.35852 8.76082 2.38993C8.83665 2.42134 8.91792 2.4375 9 2.4375Z" fill="white"/>
<path d="M3.47535 4.35951C3.53335 4.4177 3.60226 4.46388 3.67812 4.49541C3.75399 4.52694 3.83533 4.5432 3.91749 4.54326C3.99964 4.54333 4.08101 4.5272 4.15692 4.49579C4.23284 4.46438 4.30182 4.41831 4.35991 4.36022C4.41801 4.30212 4.46408 4.23315 4.49549 4.15723C4.5269 4.08132 4.54304 3.99995 4.54298 3.9178C4.54292 3.83564 4.52666 3.7543 4.49513 3.67843C4.46361 3.60256 4.41743 3.53366 4.35925 3.47565L3.91732 3.0337C3.85932 2.97549 3.79041 2.9293 3.71454 2.89775C3.63867 2.8662 3.55732 2.84993 3.47515 2.84985C3.39299 2.84978 3.31161 2.86591 3.23568 2.89732C3.15975 2.92873 3.09077 2.97481 3.03266 3.03291C2.97456 3.09101 2.92849 3.16 2.89708 3.23593C2.86567 3.31185 2.84954 3.39323 2.84961 3.4754C2.84968 3.55757 2.86596 3.63891 2.8975 3.71479C2.92905 3.79066 2.97525 3.85956 3.03345 3.91756L3.47535 4.35951Z" fill="white"/>
<path d="M1.8125 8.375H1.1875C1.02174 8.375 0.862768 8.44085 0.745558 8.55806C0.628348 8.67527 0.5625 8.83424 0.5625 9C0.5625 9.16576 0.628348 9.32473 0.745558 9.44194C0.862768 9.55915 1.02174 9.625 1.1875 9.625H1.8125C1.97826 9.625 2.13723 9.55915 2.25444 9.44194C2.37165 9.32473 2.4375 9.16576 2.4375 9C2.4375 8.83424 2.37165 8.67527 2.25444 8.55806C2.13723 8.44085 1.97826 8.375 1.8125 8.375Z" fill="white"/>
<path d="M3.47585 13.6403L3.03392 14.0822C2.97582 14.1403 2.92973 14.2092 2.89827 14.285C2.86682 14.3608 2.85061 14.4421 2.85059 14.5242C2.85056 14.6064 2.86671 14.6877 2.89812 14.7635C2.92953 14.8394 2.97558 14.9083 3.03364 14.9664C3.0917 15.0244 3.16063 15.0705 3.23649 15.1019C3.31235 15.1333 3.39366 15.1495 3.47577 15.1494C3.55788 15.1494 3.63917 15.1332 3.71502 15.1017C3.79086 15.0703 3.85976 15.0242 3.91778 14.9661L4.35972 14.5242C4.4768 14.4069 4.54255 14.248 4.54249 14.0823C4.54244 13.9166 4.4766 13.7577 4.35944 13.6406C4.24228 13.5234 4.08339 13.4576 3.9177 13.4575C3.75201 13.4575 3.59308 13.5232 3.47585 13.6403Z" fill="white"/>
<path d="M9 15.5625C8.91792 15.5625 8.83665 15.5787 8.76082 15.6101C8.68499 15.6415 8.61609 15.6875 8.55805 15.7456C8.50002 15.8036 8.45398 15.8725 8.42257 15.9483C8.39116 16.0241 8.375 16.1054 8.375 16.1875V16.8125C8.375 16.9783 8.44085 17.1372 8.55806 17.2544C8.67527 17.3717 8.83424 17.4375 9 17.4375C9.16576 17.4375 9.32473 17.3717 9.44194 17.2544C9.55915 17.1372 9.625 16.9783 9.625 16.8125V16.1875C9.625 16.1054 9.60884 16.0241 9.57743 15.9483C9.54602 15.8725 9.49998 15.8036 9.44195 15.7456C9.38391 15.6875 9.31501 15.6415 9.23918 15.6101C9.16335 15.5787 9.08208 15.5625 9 15.5625Z" fill="white"/>
<path d="M14.5244 13.6405C14.4071 13.5238 14.2482 13.4583 14.0827 13.4585C13.9172 13.4587 13.7586 13.5245 13.6416 13.6416C13.5245 13.7586 13.4587 13.9172 13.4585 14.0827C13.4583 14.2482 13.5238 14.4071 13.6405 14.5244L14.0824 14.9663C14.1997 15.0834 14.3586 15.1491 14.5243 15.1491C14.69 15.149 14.8489 15.0832 14.966 14.966C15.0832 14.8489 15.149 14.69 15.1491 14.5243C15.1491 14.3586 15.0834 14.1997 14.9663 14.0824L14.5244 13.6405Z" fill="white"/>
<path d="M16.8125 8.375H16.1875C16.0217 8.375 15.8628 8.44085 15.7456 8.55806C15.6283 8.67527 15.5625 8.83424 15.5625 9C15.5625 9.16576 15.6283 9.32473 15.7456 9.44194C15.8628 9.55915 16.0217 9.625 16.1875 9.625H16.8125C16.9783 9.625 17.1372 9.55915 17.2544 9.44194C17.3717 9.32473 17.4375 9.16576 17.4375 9C17.4375 8.83424 17.3717 8.67527 17.2544 8.55806C17.1372 8.44085 16.9783 8.375 16.8125 8.375Z" fill="white"/>
<path d="M14.0825 4.54277C14.1646 4.54287 14.2459 4.52675 14.3218 4.49533C14.3976 4.46392 14.4665 4.41782 14.5245 4.3597L14.9664 3.91775C15.0244 3.85971 15.0705 3.79082 15.1019 3.71499C15.1333 3.63916 15.1494 3.55789 15.1494 3.47582C15.1494 3.39374 15.1333 3.31247 15.1019 3.23664C15.0705 3.16082 15.0244 3.09192 14.9664 3.03388C14.9084 2.97585 14.8395 2.92981 14.7636 2.8984C14.6878 2.867 14.6065 2.85083 14.5245 2.85083C14.4424 2.85083 14.3611 2.867 14.2853 2.8984C14.2095 2.92981 14.1406 2.97585 14.0825 3.03388L13.6406 3.47584C13.5532 3.56324 13.4936 3.67461 13.4695 3.79584C13.4454 3.91708 13.4578 4.04275 13.5051 4.15695C13.5524 4.27115 13.6325 4.36877 13.7353 4.43744C13.8381 4.50612 13.9589 4.54277 14.0825 4.54277V4.54277Z" fill="white"/>
</svg>
