<svg width="30" height="30" viewBox="0 0 30 30" fill="none" xmlns="http://www.w3.org/2000/svg">
<circle cx="15" cy="15" r="15" fill="#4F5794"/>
<path d="M22.2855 13.2664C22.2444 13.1157 22.1545 12.9828 22.03 12.8885C21.9055 12.7942 21.7532 12.7437 21.597 12.7449H17.1758L15.7341 8.22299C15.6843 8.06737 15.5864 7.93161 15.4544 7.83531C15.3224 7.739 15.1632 7.68713 14.9998 7.68719C14.8365 7.68726 14.6773 7.73925 14.5454 7.83565C14.4135 7.93206 14.3156 8.0679 14.266 8.22355L12.8249 12.7449H8.40248C8.24786 12.7449 8.09742 12.7952 7.9738 12.888C7.85017 12.9809 7.76005 13.1114 7.71698 13.2599C7.6739 13.4084 7.68021 13.5669 7.73496 13.7115C7.7897 13.8561 7.88992 13.979 8.02054 14.0617L11.5812 16.517L10.4117 20.9175C10.4026 20.9521 10.3966 20.9875 10.3937 21.0232C10.3755 21.0983 10.3729 21.1764 10.386 21.2525C10.3992 21.3287 10.4278 21.4013 10.4702 21.4659C10.5286 21.5537 10.6079 21.6256 10.701 21.6751C10.7941 21.7246 10.898 21.7501 11.0035 21.7494C11.1812 21.7494 11.1863 21.7494 15 18.9926L18.6833 21.6555C18.7826 21.7138 18.895 21.7463 19.0101 21.75C19.1147 21.7489 19.2174 21.7218 19.3088 21.671C19.4003 21.6202 19.4776 21.5474 19.5338 21.4592C19.6073 21.3438 19.6363 21.2057 19.6154 21.0705L19.6007 20.9754C19.5975 20.9559 19.5933 20.9366 19.5884 20.9175L18.4189 16.517L21.966 14.0713C22.1009 13.9915 22.2055 13.8691 22.2633 13.7234C22.3211 13.5777 22.329 13.417 22.2855 13.2664Z" fill="#A6ACDC"/>
</svg>
