<svg width="30" height="30" viewBox="0 0 30 30" fill="none" xmlns="http://www.w3.org/2000/svg">
<path d="M15 30C23.2843 30 30 23.2843 30 15C30 6.71573 23.2843 0 15 0C6.71573 0 0 6.71573 0 15C0 23.2843 6.71573 30 15 30Z" fill="white"/>
<path d="M22.2843 13.2664C22.2432 13.1157 22.1533 12.9828 22.0288 12.8885C21.9043 12.7942 21.752 12.7437 21.5958 12.7449H17.1746L15.7329 8.22299C15.6831 8.06737 15.5852 7.93161 15.4532 7.83531C15.3212 7.739 15.162 7.68713 14.9986 7.68719C14.8353 7.68726 14.6761 7.73925 14.5442 7.83565C14.4123 7.93206 14.3144 8.0679 14.2648 8.22355L12.8237 12.7449H8.40126C8.24664 12.7449 8.0962 12.7952 7.97258 12.888C7.84895 12.9809 7.75883 13.1114 7.71576 13.2599C7.67268 13.4084 7.67899 13.5669 7.73374 13.7115C7.78848 13.8561 7.8887 13.979 8.01932 14.0617L11.58 16.517L10.4105 20.9175C10.4014 20.9521 10.3954 20.9875 10.3925 21.0232C10.3743 21.0983 10.3717 21.1764 10.3848 21.2525C10.398 21.3287 10.4266 21.4013 10.469 21.4659C10.5274 21.5537 10.6067 21.6256 10.6998 21.6751C10.7929 21.7246 10.8968 21.7501 11.0023 21.7494C11.18 21.7494 11.1851 21.7494 14.9988 18.9926L18.6821 21.6555C18.7814 21.7138 18.8938 21.7463 19.0089 21.75C19.1135 21.7489 19.2162 21.7218 19.3076 21.671C19.3991 21.6202 19.4764 21.5474 19.5326 21.4592C19.6061 21.3438 19.6351 21.2057 19.6142 21.0705L19.5995 20.9754C19.5963 20.9559 19.5921 20.9366 19.5872 20.9175L18.4177 16.517L21.9648 14.0713C22.0997 13.9915 22.2043 13.8691 22.2621 13.7234C22.3199 13.5777 22.3278 13.417 22.2843 13.2664Z" fill="#4F5794"/>
</svg>
