<svg xmlns="http://www.w3.org/2000/svg" width="32" height="32" fill="none" viewBox="0 0 32 32">
    <g clip-path="url(#prefix__clip1)">
        <path fill="url(#prefix__paint0_linear)" d="M9.69 16.043c-4.71-1.84-7.752-6.298-7.752-11.355 0-.519.419-.938.937-.938h5.472c.518 0 .938.42.938.938s-.42.937-.938.937H3.854c.346 3.886 2.828 7.229 6.52 8.67.48.19.72.733.531 1.216-.19.485-.737.718-1.215.532z"/>
        <path fill="url(#prefix__paint1_linear)" d="M21.095 15.51c-.189-.482.05-1.025.532-1.214 3.691-1.442 6.173-4.785 6.52-8.671h-4.494c-.518 0-.938-.42-.938-.938s.42-.937.938-.937h5.472c.518 0 .938.42.938.938 0 5.057-3.044 9.515-7.753 11.355-.478.186-1.025-.047-1.215-.532z"/>
        <path fill="url(#prefix__paint2_linear)" d="M19.75 26.25h-7.5c-.379 0-.721-.228-.866-.579-.146-.35-.065-.753.203-1.021.064-.066 1.68-1.776 1.582-5.236-.008-.31.137-.604.387-.785.25-.182.576-.225.866-.125.928.331 2.228.331 3.156 0 .293-.106.622-.057.876.131.25.187.392.488.376.8-.193 3.69 1.44 5.09 1.509 5.148.304.253.422.673.287 1.044-.134.371-.481.623-.876.623z"/>
        <path fill="url(#prefix__paint3_linear)" d="M16 20.625c-.817 0-1.538-.116-2.208-.354C5.97 17.71 7.498 1.53 7.567.844 7.616.365 8.018 0 8.5 0h15c.482 0 .884.365.933.844.069.687 1.596 16.851-6.237 19.43-.665.237-1.385.351-2.196.351z"/>
        <path fill="url(#prefix__paint4_linear)" d="M20.45 8.87c-.11-.34-.403-.586-.757-.638l-1.97-.287-.878-1.785c-.158-.32-.483-.524-.84-.524h-.002c-.356 0-.681.202-.84.522L14.28 7.94l-1.969.284c-.353.051-.647.299-.758.638-.11.339-.018.712.236.962l1.424 1.39-.338 1.961c-.06.352.084.707.372.918.29.21.673.239.988.072l1.762-.925 1.762.929c.315.166.697.139.986-.07.29-.21.434-.566.374-.917l-.334-1.963 1.426-1.388c.257-.25.348-.622.238-.961z"/>
        <path fill="url(#prefix__paint5_linear)" d="M21.625 32h-11.25c-.518 0-.938-.42-.938-.938v-5.75c0-.518.42-.937.938-.937h11.25c.518 0 .938.42.938.938v5.75c0 .518-.42.937-.938.937z"/>
    </g>
    <defs>
        <linearGradient id="prefix__paint0_linear" x1="6.454" x2="6.454" y1="16.107" y2="3.75" gradientUnits="userSpaceOnUse">
            <stop stop-color="#FFEDAD"/>
            <stop offset="1" stop-color="#FFFFE5"/>
        </linearGradient>
        <linearGradient id="prefix__paint1_linear" x1="25.546" x2="25.546" y1="16.107" y2="3.75" gradientUnits="userSpaceOnUse">
            <stop stop-color="#FFEDAD"/>
            <stop offset="1" stop-color="#FFFFE5"/>
        </linearGradient>
        <linearGradient id="prefix__paint2_linear" x1="15.997" x2="15.997" y1="26.25" y2="18.449" gradientUnits="userSpaceOnUse">
            <stop stop-color="#FFEDAD"/>
            <stop offset="1" stop-color="#FFFFE5"/>
        </linearGradient>
        <linearGradient id="prefix__paint3_linear" x1="16" x2="16" y1="20.625" y2="0" gradientUnits="userSpaceOnUse">
            <stop stop-color="#FD5900"/>
            <stop offset="1" stop-color="#FFDE00"/>
        </linearGradient>
        <linearGradient id="prefix__paint4_linear" x1="16.001" x2="16.001" y1="14.278" y2="5.636" gradientUnits="userSpaceOnUse">
            <stop stop-color="#FFE59A"/>
            <stop offset="1" stop-color="#FFFFD5"/>
        </linearGradient>
        <linearGradient id="prefix__paint5_linear" x1="16" x2="16" y1="32" y2="24.375" gradientUnits="userSpaceOnUse">
            <stop stop-color="#FD5900"/>
            <stop offset="1" stop-color="#FFDE00"/>
        </linearGradient>
        <clipPath id="prefix__clip0">
            <path fill="#fff" d="M0 0H32V32H0z"/>
        </clipPath>
    </defs>
</svg>
