<svg xmlns="http://www.w3.org/2000/svg" width="32" height="32" fill="none" viewBox="0 0 32 32">
    <path fill="url(#prefix__paint0_linear)" d="M29.96.51c-.162-.314-.483-.51-.835-.51h-7.5c-.303 0-.587.146-.763.393l-4.86 6.93-4.864-6.93C10.962.146 10.678 0 10.375 0h-7.5c-.352 0-.673.196-.834.51-.16.311-.133.687.071.973l8.794 12.425c.181.254.469.392.764.392.146 0 .294-.035.433-.106 1.888-.986 4.227-1.192 6.265-.615.019.007.033.022.053.028.486.14.974.335 1.49.594.135.067.278.1.42.1.294 0 .582-.14.763-.393l8.794-12.425c.204-.286.231-.662.071-.974z"/>
    <path fill="url(#prefix__paint1_linear)" d="M16 32c-5.686 0-10.313-4.626-10.313-10.313 0-3.851 2.125-7.36 5.546-9.155 2.329-1.216 5.198-1.47 7.71-.745.189.056 1.065.366 1.809.737 3.436 1.804 5.56 5.312 5.56 9.164C26.313 27.373 21.686 32 16 32z"/>
    <path fill="url(#prefix__paint2_linear)" d="M18.79 27.066l-2.831-1.527-2.863 1.466c-.315.166-.7.133-.987-.082-.287-.213-.427-.57-.363-.92l.578-3.165-2.279-2.268c-.253-.252-.341-.626-.227-.964.114-.338.41-.583.764-.63l3.188-.429 1.454-2.868c.16-.319.477-.5.846-.514.357.004.68.21.834.532l1.393 2.899 3.178.496c.352.055.643.306.75.646.107.34.01.713-.248.959l-2.327 2.22.51 3.176c.057.352-.091.706-.383.913-.293.207-.674.23-.987.06z"/>
    <defs>
        <linearGradient id="prefix__paint0_linear" x1="16" x2="16" y1="14.3" y2="0" gradientUnits="userSpaceOnUse">
            <stop stop-color="#FFEDAD"/>
            <stop offset="1" stop-color="#FFFFE5"/>
        </linearGradient>
        <linearGradient id="prefix__paint1_linear" x1="16" x2="16" y1="32" y2="11.383" gradientUnits="userSpaceOnUse">
            <stop stop-color="#FD5900"/>
            <stop offset="1" stop-color="#FFDE00"/>
        </linearGradient>
        <linearGradient id="prefix__paint2_linear" x1="16.018" x2="16.018" y1="27.179" y2="15.165" gradientUnits="userSpaceOnUse">
            <stop stop-color="#FFEDAD"/>
            <stop offset="1" stop-color="#FFFFE5"/>
        </linearGradient>
    </defs>
</svg>
