<svg width="30" height="32" viewBox="0 0 30 32" fill="none" xmlns="http://www.w3.org/2000/svg">
<path d="M15 32C9.31369 32 4.6875 27.3738 4.6875 21.6875C4.6875 17.8359 6.81244 14.3276 10.2329 12.5322C12.562 11.3164 15.4312 11.0619 17.9425 11.787C18.1319 11.8427 19.0076 12.1526 19.7516 12.524C23.1876 14.3276 25.3125 17.8359 25.3125 21.6875C25.3125 27.3738 20.6863 32 15 32Z" fill="#FFC700"/>
<path d="M17.7897 27.0663L14.9588 25.5392L12.096 27.0049C11.781 27.1706 11.3956 27.1377 11.109 26.9234C10.8225 26.7101 10.6824 26.353 10.7465 26.0024L11.3241 22.8383L9.04539 20.5697C8.79177 20.3179 8.70389 19.9443 8.81833 19.6056C8.93183 19.2678 9.22758 19.0233 9.58189 18.9757L12.7698 18.5473L14.2236 15.6789C14.3848 15.3603 14.7015 15.1781 15.0696 15.1653C15.4266 15.169 15.7498 15.3749 15.9045 15.6972L17.297 18.5958L20.4748 19.092C20.8273 19.1469 21.1185 19.3978 21.2247 19.7383C21.3318 20.0789 21.2357 20.4506 20.9775 20.6969L18.6502 22.917L19.1602 26.093C19.2169 26.4455 19.0686 26.7988 18.7775 27.0057C18.4843 27.2128 18.1034 27.2355 17.7897 27.0663V27.0663Z" fill="#FFFF00"/>
<path d="M28.9591 0.509063C28.7979 0.195938 28.4765 0 28.125 0H20.625C20.3219 0 20.0381 0.1465 19.8624 0.39275L15.0011 7.32375L10.1376 0.39275C9.96187 0.1465 9.67806 0 9.375 0H1.875C1.52343 0 1.20206 0.195938 1.04093 0.509063C0.880746 0.82125 0.908184 1.19663 1.11237 1.48319L9.906 13.9083C10.0872 14.1619 10.3747 14.3002 10.6696 14.3002C10.8161 14.3002 10.9644 14.2654 11.1026 14.194C12.991 13.2081 15.3299 13.002 17.3677 13.5789C17.3869 13.5859 17.4007 13.6014 17.4207 13.6071C17.9068 13.7472 18.3948 13.9422 18.9112 14.2013C19.0457 14.2681 19.1895 14.3002 19.3305 14.3002C19.6253 14.3002 19.9127 14.161 20.0941 13.9083L28.8876 1.48313C29.0918 1.19663 29.1192 0.82125 28.9591 0.509063V0.509063Z" fill="#FFC700"/>
<defs>
<linearGradient id="paint0_linear" x1="15" y1="32" x2="15" y2="11.3835" gradientUnits="userSpaceOnUse">
<stop stop-color="#FD5900"/>
<stop offset="1" stop-color="#FFDE00"/>
</linearGradient>
<linearGradient id="paint1_linear" x1="15.0184" y1="27.1788" x2="15.0184" y2="15.1653" gradientUnits="userSpaceOnUse">
<stop stop-color="#FFEDAD"/>
<stop offset="1" stop-color="#FFFFE5"/>
</linearGradient>
<linearGradient id="paint2_linear" x1="15" y1="14.3001" x2="15" y2="0" gradientUnits="userSpaceOnUse">
<stop stop-color="#FFC700"/>
<stop offset="1" stop-color="#FFFF00"/>
</linearGradient>
</defs>
</svg>
