<svg width="146" height="98" viewBox="0 0 146 98" fill="none" xmlns="http://www.w3.org/2000/svg">
<g clip-path="url(#clip0)">
<path d="M74.8569 0C41.7198 0 14.8569 26.8629 14.8569 60C14.8569 74.3021 19.861 87.4355 28.2139 97.7447H121.5C129.853 87.4355 134.857 74.3021 134.857 60C134.857 26.8629 107.994 0 74.8569 0Z" fill="#272B4A"/>
<rect x="33" y="96" width="100" height="2" rx="1" fill="#4F5794"/>
<rect y="96" width="30" height="2" rx="1" fill="#4F5794"/>
<rect x="137" y="96.4286" width="8" height="2" rx="1" fill="#4F5794"/>
</g>
<path d="M86.4949 92.0898H68.4512" stroke="#4F5794" stroke-width="2" stroke-linecap="round" stroke-linejoin="round"/>
<path d="M65.4375 88.4124H69.6983H77.0467H84.3951H85.8031" stroke="#4F5794" stroke-width="2" stroke-linecap="round" stroke-linejoin="round"/>
<path d="M89.7177 88.4124C89.6166 88.6684 89.5662 88.9418 89.5695 89.2171C89.5695 89.8279 89.8115 90.4137 90.2423 90.8455C90.6731 91.2774 91.2574 91.52 91.8666 91.52H93.2005C92.6518 91.5121 92.1212 91.716 91.7184 92.0896" stroke="#4F5794" stroke-width="2" stroke-linecap="round" stroke-linejoin="round"/>
<path d="M48.5797 88.2886C48.7283 88.5753 48.8046 88.8941 48.802 89.2172C48.802 89.8279 48.56 90.4137 48.1292 90.8456C47.6984 91.2774 47.1141 91.5201 46.5049 91.5201H48.0363C48.5849 91.5121 49.1156 91.716 49.5183 92.0896" stroke="#4F5794" stroke-width="2" stroke-linecap="round" stroke-linejoin="round"/>
<path d="M51.1357 92.0898C51.5348 91.7263 52.0539 91.5234 52.5931 91.5203H62.4733C63.0253 91.5142 63.5591 91.7176 63.9676 92.0898" stroke="#4F5794" stroke-width="2" stroke-linecap="round" stroke-linejoin="round"/>
<path d="M47.653 73.1095H43.9727" stroke="#4F5794" stroke-width="2" stroke-linecap="round" stroke-linejoin="round"/>
<path d="M47.6533 69.2711V67.8349C47.6566 67.4299 47.8194 67.0425 48.1062 66.7573C48.3931 66.472 48.7807 66.312 49.1848 66.312H68.7722V70.9054C68.7292 72.0209 68.9112 73.1337 69.3074 74.177C69.7036 75.2203 70.3057 76.1727 71.0777 76.9772C71.8498 77.7817 72.7758 78.4216 73.8005 78.8588C74.8251 79.2959 75.9272 79.5213 77.0407 79.5213C78.1543 79.5213 79.2564 79.2959 80.281 78.8588C81.3056 78.4216 82.2317 77.7817 83.0037 76.9772C83.7758 76.1727 84.3779 75.2203 84.7741 74.177C85.1702 73.1337 85.3522 72.0209 85.3092 70.9054V66.312H104.909C105.313 66.312 105.701 66.472 105.988 66.7573C106.274 67.0425 106.437 67.4299 106.44 67.8349V85.1686" stroke="#4F5794" stroke-width="2" stroke-linecap="round" stroke-linejoin="round"/>
<path d="M106.255 92.0898C106.659 91.7184 107.189 91.5148 107.737 91.5202H109.763" stroke="#4F5794" stroke-width="2" stroke-linecap="round" stroke-linejoin="round"/>
<path d="M110.121 87.6819V62.6223H81.6412V70.9053C81.6412 71.5102 81.5224 72.1091 81.2915 72.6679C81.0606 73.2267 80.7222 73.7344 80.2956 74.1621C79.8689 74.5898 79.3625 74.9291 78.8051 75.1606C78.2477 75.392 77.6502 75.5111 77.0469 75.5111C76.4436 75.5111 75.8462 75.392 75.2887 75.1606C74.7313 74.9291 74.2249 74.5898 73.7982 74.1621C73.3716 73.7344 73.0332 73.2267 72.8023 72.6679C72.5714 72.1091 72.4526 71.5102 72.4526 70.9053V62.6223H43.9482V69.271" stroke="#4F5794" stroke-width="2" stroke-linecap="round" stroke-linejoin="round"/>
<path d="M104.637 92.0897C104.233 91.7183 103.703 91.5147 103.155 91.5202H101.821C102.126 91.5202 102.428 91.4595 102.709 91.3414C102.99 91.2234 103.245 91.0504 103.459 90.8326C103.673 90.6148 103.841 90.3565 103.954 90.0728C104.068 89.7891 104.123 89.4857 104.118 89.1801C104.124 88.9034 104.069 88.6288 103.958 88.3754" stroke="#4F5794" stroke-width="2" stroke-linecap="round" stroke-linejoin="round"/>
<path d="M72.4521 70.9053V62.6223H81.6407V70.9053C81.6407 71.5102 81.5219 72.1091 81.291 72.6679C81.0601 73.2267 80.7217 73.7345 80.2951 74.1621C79.8685 74.5898 79.362 74.9291 78.8046 75.1606C78.2472 75.392 77.6498 75.5111 77.0464 75.5111C76.4431 75.5111 75.8457 75.392 75.2883 75.1606C74.7309 74.9291 74.2244 74.5898 73.7978 74.1621C73.3712 73.7345 73.0327 73.2267 72.8019 72.6679C72.571 72.1091 72.4521 71.5102 72.4521 70.9053V70.9053Z" stroke="#4F5794" stroke-width="2" stroke-linecap="round" stroke-linejoin="round"/>
<path d="M47.653 77.7522C47.5092 77.7397 47.3645 77.7397 47.2207 77.7522H47.653Z" stroke="#4F5794" stroke-width="2" stroke-linecap="round" stroke-linejoin="round"/>
<path d="M47.653 82.3085H47.2207C47.3645 82.321 47.5092 82.321 47.653 82.3085Z" stroke="#4F5794" stroke-width="2" stroke-linecap="round" stroke-linejoin="round"/>
<path d="M47.715 87.2731C47.3489 87.0313 46.9184 86.9061 46.48 86.9141H47.6533C47.6486 87.0367 47.6696 87.1591 47.715 87.2731V87.2731Z" stroke="#4F5794" stroke-width="2" stroke-linecap="round" stroke-linejoin="round"/>
<path d="M81.6407 62.6223V70.9053C81.6407 71.5102 81.5219 72.1091 81.291 72.6679C81.0601 73.2267 80.7217 73.7345 80.2951 74.1621C79.8685 74.5898 79.362 74.9291 78.8046 75.1606C78.2472 75.392 77.6498 75.5111 77.0464 75.5111C76.4431 75.5111 75.8457 75.392 75.2883 75.1606C74.7309 74.9291 74.2244 74.5898 73.7978 74.1621C73.3712 73.7345 73.0327 73.2267 72.8019 72.6679C72.571 72.1091 72.4521 71.5102 72.4521 70.9053V62.6223H81.6407Z" stroke="#4F5794" stroke-width="2" stroke-linecap="round" stroke-linejoin="round"/>
<path d="M110.121 38.0705V62.6224H43.9482V38.0705C43.9482 37.2562 44.2709 36.4752 44.8453 35.8993C45.4197 35.3235 46.1988 35 47.0111 35H107.058C107.869 35.0033 108.646 35.3278 109.22 35.9029C109.794 36.4781 110.118 37.2572 110.121 38.0705Z" stroke="#4F5794" stroke-width="2" stroke-linecap="round" stroke-linejoin="round"/>
<path d="M99.0918 86.9143H101.821C102.288 86.914 102.743 87.0576 103.125 87.3256C103.507 87.5936 103.798 87.9731 103.958 88.4124" stroke="#4F5794" stroke-width="2" stroke-linecap="round" stroke-linejoin="round"/>
<path d="M106.44 85.2183V67.8846C106.437 67.4796 106.274 67.0922 105.987 66.807C105.7 66.5217 105.313 66.3617 104.909 66.3617H99.0918V83.0763" stroke="#4F5794" stroke-width="2" stroke-linecap="round" stroke-linejoin="round"/>
<path d="M91.7437 83.0887V66.2998H99.092V83.0887" stroke="#4F5794" stroke-width="2" stroke-linecap="round" stroke-linejoin="round"/>
<path d="M91.7437 86.9391C91.7836 86.9251 91.8272 86.9251 91.8672 86.9391H99.092" stroke="#4F5794" stroke-width="2" stroke-linecap="round" stroke-linejoin="round"/>
<path d="M85.8029 88.4125H84.395V74.7188C84.9966 73.5382 85.3099 72.2312 85.3089 70.9054V66.312H91.7434V83.0762" stroke="#4F5794" stroke-width="2" stroke-linecap="round" stroke-linejoin="round"/>
<path d="M91.7437 86.9391C91.298 86.9541 90.867 87.1024 90.5061 87.365C90.1451 87.6276 89.8708 87.9923 89.7183 88.4124" stroke="#4F5794" stroke-width="2" stroke-linecap="round" stroke-linejoin="round"/>
<path d="M84.3955 74.7186V88.4122H76.9854V79.2006C78.5122 79.2092 80.0119 78.7953 81.3193 78.0046C82.6267 77.2138 83.6911 76.0768 84.3955 74.7186V74.7186Z" stroke="#4F5794" stroke-width="2" stroke-linecap="round" stroke-linejoin="round"/>
<path d="M77.0466 79.2006V88.4122H69.6982V74.7186C70.3967 76.0683 71.4512 77.2 72.747 77.9903C74.0427 78.7806 75.5299 79.1992 77.0466 79.2006V79.2006Z" stroke="#4F5794" stroke-width="2" stroke-linecap="round" stroke-linejoin="round"/>
<path d="M62.3496 87.682V66.312H68.7717V70.9054C68.7751 72.2321 69.0926 73.5391 69.698 74.7188V88.4125H65.4372" stroke="#4F5794" stroke-width="2" stroke-linecap="round" stroke-linejoin="round"/>
<path d="M55.0015 87.6822V85.5031V83.7078V77.1334" stroke="#4F5794" stroke-width="2" stroke-linecap="round" stroke-linejoin="round"/>
<path d="M55.0015 76.7124V66.2998H62.3499V87.6821" stroke="#4F5794" stroke-width="2" stroke-linecap="round" stroke-linejoin="round"/>
<path d="M55.0015 87.6822V85.5031V83.7078V77.1334" stroke="#4F5794" stroke-width="2" stroke-linecap="round" stroke-linejoin="round"/>
<path d="M48.5792 88.2885C48.4197 87.8584 48.1134 87.4988 47.7147 87.2733C47.6694 87.1592 47.6483 87.0369 47.653 86.9142H48.9498C49.3113 86.9183 49.6684 86.8349 49.9909 86.6711C50.3134 86.5073 50.5917 86.2679 50.8023 85.9733C51.0882 85.5767 51.2436 85.1006 51.2469 84.6113C51.2469 84.0005 51.0049 83.4148 50.5741 82.9829C50.1433 82.551 49.559 82.3084 48.9498 82.3084H47.653C48.1752 82.2054 48.6456 81.9237 48.9837 81.5116C49.3218 81.0995 49.5066 80.5824 49.5066 80.0488C49.5066 79.5152 49.3218 78.9982 48.9837 78.5861C48.6456 78.1739 48.1752 77.8923 47.653 77.7893V77.7893H49.135C49.7442 77.7893 50.3285 77.5466 50.7593 77.1148C51.1901 76.6829 51.4322 76.0971 51.4322 75.4864C51.4322 74.8756 51.1901 74.2898 50.7593 73.858C50.3285 73.4261 49.7442 73.1835 49.135 73.1835H47.653" stroke="#4F5794" stroke-width="2" stroke-linecap="round" stroke-linejoin="round"/>
<path d="M47.6533 69.2711V67.8349C47.6566 67.4299 47.8194 67.0425 48.1062 66.7573C48.3931 66.4721 48.7807 66.312 49.1848 66.312H55.0635V76.7122" stroke="#4F5794" stroke-width="2" stroke-linecap="round" stroke-linejoin="round"/>
<path d="M77.047 71.6728C77.4699 71.6728 77.8127 71.3292 77.8127 70.9052C77.8127 70.4812 77.4699 70.1376 77.047 70.1376C76.6241 70.1376 76.2812 70.4812 76.2812 70.9052C76.2812 71.3292 76.6241 71.6728 77.047 71.6728Z" stroke="#4F5794" stroke-width="2" stroke-linecap="round" stroke-linejoin="round"/>
<path d="M50.3328 93.8233C50.3328 94.434 50.0908 95.0198 49.66 95.4517C49.2292 95.8835 48.6449 96.1262 48.0356 96.1262H38.0813C37.4721 96.1262 36.8878 95.8835 36.457 95.4517C36.0262 95.0198 35.7842 94.434 35.7842 93.8233C35.7842 93.2125 36.0262 92.6268 36.457 92.1949C36.8878 91.763 37.4721 91.5204 38.0813 91.5204H48.0356C48.5843 91.5124 49.1149 91.7163 49.5177 92.0899C49.7763 92.2974 49.9842 92.5615 50.1255 92.8619C50.2668 93.1624 50.3377 93.4912 50.3328 93.8233V93.8233Z" stroke="#4F5794" stroke-width="2" stroke-miterlimit="10"/>
<path d="M48.8017 89.18C48.8017 89.7907 48.5596 90.3765 48.1288 90.8084C47.698 91.2402 47.1138 91.4829 46.5045 91.4829H36.5379C35.9286 91.4829 35.3443 91.2402 34.9135 90.8084C34.4827 90.3765 34.2407 89.7907 34.2407 89.18C34.2407 88.5692 34.4827 87.9834 34.9135 87.5516C35.3443 87.1197 35.9286 86.8771 36.5379 86.8771H46.4922C46.9305 86.8691 47.3611 86.9943 47.7272 87.2361C48.1259 87.4616 48.4321 87.8213 48.5917 88.2514C48.736 88.5392 48.808 88.8579 48.8017 89.18V89.18Z" stroke="#4F5794" stroke-width="2" stroke-miterlimit="10"/>
<path d="M51.2467 84.6114C51.2434 85.1007 51.088 85.5767 50.8021 85.9733C50.5915 86.268 50.3132 86.5073 49.9907 86.6711C49.6682 86.8349 49.3111 86.9184 48.9495 86.9143H39.0076C38.6463 86.9173 38.2895 86.8335 37.9671 86.6697C37.6448 86.506 37.3663 86.2672 37.1551 85.9733C36.8692 85.5767 36.7138 85.1007 36.7104 84.6114C36.7104 84.0006 36.9525 83.4149 37.3833 82.983C37.8141 82.5511 38.3984 82.3085 39.0076 82.3085H48.9619C49.569 82.3117 50.1501 82.5558 50.5782 82.9873C51.0064 83.4189 51.2467 84.0027 51.2467 84.6114V84.6114Z" stroke="#4F5794" stroke-width="2" stroke-miterlimit="10"/>
<path d="M49.5177 80.0178C49.5181 80.5525 49.3319 81.0706 48.9913 81.4822C48.6507 81.8937 48.1772 82.1728 47.6528 82.2711C47.509 82.2838 47.3644 82.2838 47.2205 82.2711H37.2662C36.9512 82.2943 36.6349 82.2522 36.3369 82.1473C36.0388 82.0423 35.7656 81.877 35.5342 81.6614C35.3029 81.4459 35.1183 81.1848 34.9921 80.8946C34.8659 80.6043 34.8008 80.2911 34.8008 79.9744C34.8008 79.6578 34.8659 79.3445 34.9921 79.0543C35.1183 78.764 35.3029 78.503 35.5342 78.2874C35.7656 78.0719 36.0388 77.9065 36.3369 77.8016C36.6349 77.6967 36.9512 77.6545 37.2662 77.6777H47.2205C47.3644 77.665 47.509 77.665 47.6528 77.6777C48.1921 77.7784 48.6772 78.0702 49.0196 78.4998C49.362 78.9295 49.5388 79.4682 49.5177 80.0178V80.0178Z" stroke="#4F5794" stroke-width="2" stroke-miterlimit="10"/>
<path d="M51.4324 75.4124C51.4324 76.0232 51.1904 76.6089 50.7596 77.0408C50.3288 77.4727 49.7445 77.7153 49.1352 77.7153H39.1809C38.5717 77.7153 37.9874 77.4727 37.5566 77.0408C37.1258 76.6089 36.8838 76.0232 36.8838 75.4124C36.8838 74.8016 37.1258 74.2159 37.5566 73.784C37.9874 73.3521 38.5717 73.1095 39.1809 73.1095H49.1352C49.7445 73.1095 50.3288 73.3521 50.7596 73.784C51.1904 74.2159 51.4324 74.8016 51.4324 75.4124Z" stroke="#4F5794" stroke-width="2" stroke-miterlimit="10"/>
<path d="M64.8692 93.8232C64.8692 94.4339 64.6272 95.0197 64.1964 95.4516C63.7656 95.8834 63.1813 96.1261 62.5721 96.1261H52.5931C51.9838 96.1261 51.3996 95.8834 50.9688 95.4516C50.538 95.0197 50.2959 94.4339 50.2959 93.8232C50.2886 93.492 50.3572 93.1635 50.4964 92.863C50.6356 92.5625 50.8416 92.298 51.0987 92.0898C51.5072 91.7176 52.0411 91.5142 52.5931 91.5203H62.4733C63.0253 91.5142 63.5591 91.7176 63.9677 92.0898C64.2429 92.2877 64.4679 92.5477 64.6245 92.8488C64.7811 93.1499 64.865 93.4836 64.8692 93.8232Z" stroke="#4F5794" stroke-width="2" stroke-miterlimit="10"/>
<path d="M105.44 93.8233C105.442 94.1251 105.384 94.4243 105.27 94.7036C105.156 94.9829 104.988 95.2369 104.775 95.4509C104.563 95.6649 104.311 95.8347 104.033 95.9506C103.754 96.0665 103.456 96.1262 103.155 96.1262H93.201C92.8972 96.1294 92.5959 96.0723 92.3143 95.958C92.0328 95.8438 91.7766 95.6747 91.5607 95.4605C91.3447 95.2463 91.1733 94.9913 91.0563 94.7103C90.9393 94.4293 90.8791 94.1278 90.8791 93.8233C90.8743 93.4912 90.9452 93.1624 91.0864 92.8619C91.2277 92.5615 91.4356 92.2974 91.6943 92.0899C92.097 91.7163 92.6277 91.5124 93.1763 91.5204H103.131C103.736 91.53 104.313 91.7761 104.74 92.2063C105.167 92.6364 105.409 93.2166 105.415 93.8233H105.44Z" stroke="#4F5794" stroke-width="2" stroke-miterlimit="10"/>
<path d="M104.118 89.1802C104.118 89.791 103.876 90.3768 103.445 90.8086C103.014 91.2405 102.43 91.4831 101.821 91.4831H91.8666C91.2574 91.4831 90.6731 91.2405 90.2423 90.8086C89.8115 90.3768 89.5695 89.791 89.5695 89.1802C89.5662 88.9049 89.6166 88.6315 89.7177 88.3755C89.8702 87.9553 90.1445 87.5906 90.5055 87.328C90.8664 87.0655 91.2974 86.9171 91.7431 86.9021C91.7831 86.8879 91.8267 86.8879 91.8666 86.9021H101.821C102.287 86.9018 102.743 87.0454 103.125 87.3134C103.507 87.5814 103.798 87.9609 103.958 88.4002C104.065 88.646 104.12 88.9118 104.118 89.1802V89.1802Z" stroke="#4F5794" stroke-width="2" stroke-miterlimit="10"/>
<path d="M119.989 93.823C119.989 94.4338 119.747 95.0196 119.316 95.4514C118.885 95.8833 118.301 96.1259 117.691 96.1259H107.737C107.128 96.1259 106.544 95.8833 106.113 95.4514C105.682 95.0196 105.44 94.4338 105.44 93.823C105.453 93.2162 105.699 92.6378 106.127 92.2086C106.555 91.7795 107.132 91.5328 107.737 91.5201H117.691C118.301 91.5201 118.885 91.7628 119.316 92.1946C119.747 92.6265 119.989 93.2123 119.989 93.823V93.823Z" stroke="#4F5794" stroke-width="2" stroke-miterlimit="10"/>
<path d="M62.4731 60.3194C62.4731 60.9301 62.2311 61.5159 61.8003 61.9478C61.3695 62.3797 60.7852 62.6223 60.176 62.6223H50.2464C49.6371 62.6223 49.0528 62.3797 48.622 61.9478C48.1912 61.5159 47.9492 60.9301 47.9492 60.3194C47.9492 59.7086 48.1912 59.1229 48.622 58.691C49.0528 58.2591 49.6371 58.0165 50.2464 58.0165H60.2007C60.8056 58.023 61.3836 58.2685 61.809 58.6997C62.2345 59.1308 62.4731 59.7129 62.4731 60.3194V60.3194Z" stroke="#4F5794" stroke-width="2" stroke-miterlimit="10"/>
<path d="M77.0466 60.3194C77.0466 60.9301 76.8046 61.5159 76.3738 61.9478C75.943 62.3797 75.3587 62.6223 74.7495 62.6223H64.7952C64.4935 62.6223 64.1948 62.5627 63.9161 62.447C63.6374 62.3313 63.3842 62.1616 63.1709 61.9478C62.9576 61.7339 62.7883 61.4801 62.6729 61.2007C62.5575 60.9213 62.498 60.6218 62.498 60.3194C62.498 60.017 62.5575 59.7175 62.6729 59.4381C62.7883 59.1587 62.9576 58.9048 63.1709 58.691C63.3842 58.4771 63.6374 58.3075 63.9161 58.1918C64.1948 58.076 64.4935 58.0165 64.7952 58.0165H74.7495C75.3587 58.0165 75.943 58.2591 76.3738 58.691C76.8046 59.1229 77.0466 59.7086 77.0466 60.3194V60.3194Z" stroke="#4F5794" stroke-width="2" stroke-miterlimit="10"/>
<path d="M91.595 60.3194C91.595 60.9301 91.353 61.5159 90.9222 61.9478C90.4914 62.3797 89.9071 62.6223 89.2978 62.6223H79.3435C78.7343 62.6223 78.15 62.3797 77.7192 61.9478C77.2884 61.5159 77.0464 60.9301 77.0464 60.3194C77.0464 59.7086 77.2884 59.1229 77.7192 58.691C78.15 58.2591 78.7343 58.0165 79.3435 58.0165H89.2978C89.9071 58.0165 90.4914 58.2591 90.9222 58.691C91.353 59.1229 91.595 59.7086 91.595 60.3194Z" stroke="#4F5794" stroke-width="2" stroke-miterlimit="10"/>
<path d="M106.131 60.3194C106.131 60.9301 105.889 61.5159 105.458 61.9478C105.028 62.3797 104.443 62.6223 103.834 62.6223H93.9539C93.3446 62.6223 92.7604 62.3797 92.3296 61.9478C91.8988 61.5159 91.6567 60.9301 91.6567 60.3194C91.6567 59.7086 91.8988 59.1229 92.3296 58.691C92.7604 58.2591 93.3446 58.0165 93.9539 58.0165H103.834C104.443 58.0165 105.028 58.2591 105.458 58.691C105.889 59.1229 106.131 59.7086 106.131 60.3194Z" stroke="#4F5794" stroke-width="2" stroke-miterlimit="10"/>
<path d="M77.7879 58.0165C77.1786 58.0165 76.5943 57.7738 76.1635 57.3419C75.7327 56.9101 75.4907 56.3243 75.4907 55.7135C75.4907 55.1028 75.7327 54.517 76.1635 54.0851C76.5943 53.6533 77.1786 53.4106 77.7879 53.4106H87.7422C88.3514 53.4106 88.9357 53.6533 89.3665 54.0851C89.7973 54.517 90.0393 55.1028 90.0393 55.7135C90.0393 56.3243 89.7973 56.9101 89.3665 57.3419C88.9357 57.7738 88.3514 58.0165 87.7422 58.0165H77.7879Z" stroke="#4F5794" stroke-width="2" stroke-miterlimit="10"/>
<path d="M85.6424 53.4106C85.0331 53.4106 84.4488 53.168 84.018 52.7361C83.5872 52.3042 83.3452 51.7185 83.3452 51.1077C83.3452 50.4969 83.5872 49.9112 84.018 49.4793C84.4488 49.0474 85.0331 48.8048 85.6424 48.8048H95.5966C96.2059 48.8048 96.7902 49.0474 97.221 49.4793C97.6518 49.9112 97.8938 50.4969 97.8938 51.1077C97.8938 51.7185 97.6518 52.3042 97.221 52.7361C96.7902 53.168 96.2059 53.4106 95.5966 53.4106H85.6424Z" stroke="#4F5794" stroke-width="2" stroke-miterlimit="10"/>
<path d="M51.6795 58.0165C51.0702 58.0165 50.4859 57.7738 50.0551 57.3419C49.6243 56.9101 49.3823 56.3243 49.3823 55.7135C49.3823 55.1028 49.6243 54.517 50.0551 54.0851C50.4859 53.6533 51.0702 53.4106 51.6795 53.4106H61.6338C62.243 53.4106 62.8273 53.6533 63.2581 54.0851C63.6889 54.517 63.9309 55.1028 63.9309 55.7135C63.9309 56.3243 63.6889 56.9101 63.2581 57.3419C62.8273 57.7738 62.243 58.0165 61.6338 58.0165H51.6795Z" stroke="#4F5794" stroke-width="2" stroke-miterlimit="10"/>
<path d="M71.1185 57.5959C70.8799 57.8218 70.5958 57.9938 70.2852 58.1004C69.9747 58.2069 69.645 58.2455 69.3184 58.2136C68.9917 58.1817 68.6757 58.0799 68.3916 57.9153C68.1074 57.7506 67.8618 57.5268 67.6712 57.2589C67.4806 56.9911 67.3495 56.6854 67.2866 56.3624C67.2238 56.0395 67.2307 55.7068 67.3069 55.3868C67.3832 55.0667 67.5269 54.7668 67.7285 54.5071C67.9301 54.2475 68.1848 54.0341 68.4756 53.8815L76.6144 48.1366C77.1059 47.8786 77.6739 47.8076 78.2136 47.9367C78.7532 48.0659 79.228 48.3865 79.5502 48.8393C79.8724 49.2921 80.0202 49.8466 79.9664 50.4002C79.9126 50.9537 79.6607 51.4691 79.2573 51.851L71.1185 57.5959Z" stroke="#4F5794" stroke-width="2" stroke-miterlimit="10"/>
<path d="M92.3362 58.0165C91.727 58.0165 91.1427 57.7738 90.7119 57.3419C90.2811 56.9101 90.0391 56.3243 90.0391 55.7135C90.0391 55.1028 90.2811 54.517 90.7119 54.0851C91.1427 53.6533 91.727 53.4106 92.3362 53.4106H102.29C102.9 53.4106 103.484 53.6533 103.915 54.0851C104.346 54.517 104.588 55.1028 104.588 55.7135C104.588 56.3243 104.346 56.9101 103.915 57.3419C103.484 57.7738 102.9 58.0165 102.29 58.0165H92.3362Z" stroke="#4F5794" stroke-width="2" stroke-miterlimit="10"/>
<path d="M52.5409 14.6002C52.6869 13.9807 53.002 13.4141 53.451 12.964C53.9 12.5139 54.4651 12.198 55.0831 12.0516L60.1903 10.9088C60.2804 10.8826 60.3597 10.8277 60.4161 10.7525C60.4725 10.6773 60.503 10.5857 60.503 10.4916C60.503 10.3975 60.4725 10.3059 60.4161 10.2307C60.3597 10.1555 60.2804 10.1007 60.1903 10.0745L55.0831 8.93162C54.4651 8.78528 53.9 8.46936 53.451 8.01923C53.002 7.56911 52.6869 7.00256 52.5409 6.38304L51.4009 1.27447C51.3845 1.17569 51.3337 1.08593 51.2575 1.02118C51.1813 0.956435 51.0847 0.920898 50.9848 0.920898C50.8849 0.920898 50.7882 0.956435 50.712 1.02118C50.6358 1.08593 50.585 1.17569 50.5687 1.27447L49.4287 6.38304C49.2827 7.00256 48.9676 7.56911 48.5186 8.01923C48.0696 8.46936 47.5045 8.78528 46.8865 8.93162L41.7907 10.0745C41.6921 10.0909 41.6026 10.1418 41.538 10.2182C41.4734 10.2946 41.438 10.3915 41.438 10.4916C41.438 10.5918 41.4734 10.6886 41.538 10.765C41.6026 10.8414 41.6921 10.8923 41.7907 10.9088L46.8865 12.0516C47.5045 12.198 48.0696 12.5139 48.5186 12.964C48.9676 13.4141 49.2827 13.9807 49.4287 14.6002L50.5687 19.7088C50.585 19.8075 50.6358 19.8973 50.712 19.962C50.7882 20.0268 50.8849 20.0623 50.9848 20.0623C51.0847 20.0623 51.1813 20.0268 51.2575 19.962C51.3337 19.8973 51.3845 19.8075 51.4009 19.7088L52.5409 14.6002Z" stroke="#A6ACDC" stroke-width="1.2" stroke-linecap="round" stroke-linejoin="round"/>
<path d="M32.3264 58.8231L36.3164 57.4859C36.3905 57.4615 36.4548 57.4139 36.4999 57.3502C36.5451 57.2864 36.5686 57.2098 36.5672 57.1316C36.5669 57.0539 36.5427 56.9781 36.4978 56.9147C36.4529 56.8512 36.3895 56.8033 36.3164 56.7774L33.0332 55.6345C32.8132 55.5603 32.6133 55.436 32.4491 55.2714C32.285 55.1069 32.161 54.9065 32.087 54.6859L30.947 51.3945C30.9211 51.3212 30.8733 51.2577 30.81 51.2126C30.7467 51.1676 30.6711 51.1433 30.5936 51.1431C30.5192 51.1532 30.4497 51.186 30.3946 51.2371C30.3395 51.2883 30.3015 51.3552 30.2858 51.4288L29.1458 54.7202C29.0714 54.9424 28.946 55.144 28.7796 55.3088C28.6133 55.4736 28.4107 55.5969 28.1882 55.6688L24.905 56.8116C24.8439 56.8429 24.7925 56.8903 24.7563 56.9487C24.7201 57.0071 24.7006 57.0743 24.6998 57.1431C24.6983 57.2212 24.7219 57.2978 24.767 57.3616C24.8121 57.4254 24.8765 57.4729 24.9506 57.4974L28.2338 58.6402C28.4567 58.7149 28.6592 58.8405 28.8254 59.0071C28.9916 59.1737 29.1169 59.3767 29.1914 59.6002L30.2858 62.8574C30.3101 62.9316 30.3576 62.9961 30.4212 63.0414C30.4848 63.0866 30.5612 63.1102 30.6392 63.1088C30.7167 63.1085 30.7923 63.0842 30.8556 63.0392C30.9189 62.9942 30.9667 62.9307 30.9926 62.8574L32.3264 58.8231Z" stroke="#A6ACDC" stroke-width="1.2" stroke-linecap="round" stroke-linejoin="round"/>
<path d="M123.048 67.4287L127.049 66.0916C127.121 66.0651 127.184 66.0168 127.228 65.9535C127.272 65.8901 127.296 65.8146 127.296 65.7373C127.296 65.6599 127.272 65.5845 127.228 65.5211C127.184 65.4577 127.121 65.4095 127.049 65.383L123.766 64.2401C123.545 64.1675 123.344 64.0438 123.18 63.879C123.015 63.7142 122.892 63.513 122.82 63.2916L121.68 60.0001C121.651 59.9285 121.601 59.8672 121.537 59.824C121.473 59.7809 121.398 59.7578 121.32 59.7578C121.243 59.7578 121.168 59.7809 121.104 59.824C121.04 59.8672 120.99 59.9285 120.961 60.0001L119.821 63.2916C119.747 63.5121 119.623 63.7125 119.459 63.8771C119.295 64.0417 119.095 64.1659 118.875 64.2401L115.592 65.383C115.519 65.4095 115.457 65.4577 115.413 65.5211C115.368 65.5845 115.345 65.6599 115.345 65.7373C115.345 65.8146 115.368 65.8901 115.413 65.9535C115.457 66.0168 115.519 66.0651 115.592 66.0916L118.875 67.2344C119.097 67.309 119.298 67.4347 119.462 67.6015C119.627 67.7682 119.75 67.9713 119.821 68.1944L120.961 71.4859C120.99 71.5575 121.04 71.6188 121.104 71.6619C121.168 71.7051 121.243 71.7282 121.32 71.7282C121.398 71.7282 121.473 71.7051 121.537 71.6619C121.601 71.6188 121.651 71.5575 121.68 71.4859L123.048 67.4287Z" stroke="#A6ACDC" stroke-width="1.2" stroke-linecap="round" stroke-linejoin="round"/>
<defs>
<clipPath id="clip0">
<rect width="146" height="98" fill="white"/>
</clipPath>
</defs>
</svg>
