<svg width="146" height="98" viewBox="0 0 146 98" fill="none" xmlns="http://www.w3.org/2000/svg">
<g clip-path="url(#clip0)">
<path d="M74.8555 0C41.7184 0 14.8555 26.8629 14.8555 60C14.8555 74.3021 19.8596 87.4355 28.2125 97.7447H121.499C129.852 87.4355 134.856 74.3021 134.856 60C134.856 26.8629 107.993 0 74.8555 0Z" fill="white"/>
<path d="M132 96H34C33.4477 96 33 96.4477 33 97C33 97.5523 33.4477 98 34 98H132C132.552 98 133 97.5523 133 97C133 96.4477 132.552 96 132 96Z" fill="#4F5794"/>
<path d="M29 96H1C0.447715 96 0 96.4477 0 97C0 97.5523 0.447715 98 1 98H29C29.5523 98 30 97.5523 30 97C30 96.4477 29.5523 96 29 96Z" fill="#4F5794"/>
<path d="M144 96.4287H138C137.448 96.4287 137 96.8764 137 97.4287C137 97.981 137.448 98.4287 138 98.4287H144C144.552 98.4287 145 97.981 145 97.4287C145 96.8764 144.552 96.4287 144 96.4287Z" fill="#4F5794"/>
<path d="M86.4968 92.0898H68.4531" stroke="#4F5794" stroke-width="2" stroke-linecap="round" stroke-linejoin="round"/>
<path d="M65.4375 88.4124H69.6983H77.0467H84.3951H85.8031" stroke="#4F5794" stroke-width="2" stroke-linecap="round" stroke-linejoin="round"/>
<path d="M89.7187 88.4124C89.6176 88.6684 89.5672 88.9418 89.5705 89.2171C89.5705 89.8279 89.8125 90.4137 90.2433 90.8455C90.6741 91.2774 91.2584 91.52 91.8676 91.52H93.2015C92.6528 91.5121 92.1222 91.716 91.7194 92.0896" stroke="#4F5794" stroke-width="2" stroke-linecap="round" stroke-linejoin="round"/>
<path d="M48.5787 88.2886C48.7273 88.5753 48.8036 88.8941 48.801 89.2172C48.801 89.8279 48.559 90.4137 48.1282 90.8456C47.6974 91.2774 47.1131 91.5201 46.5039 91.5201H48.0353C48.5839 91.5121 49.1146 91.716 49.5173 92.0896" stroke="#4F5794" stroke-width="2" stroke-linecap="round" stroke-linejoin="round"/>
<path d="M51.1367 92.0899C51.5358 91.7264 52.0549 91.5235 52.5941 91.5204H62.4743C63.0263 91.5143 63.5601 91.7177 63.9686 92.0899" stroke="#4F5794" stroke-width="2" stroke-linecap="round" stroke-linejoin="round"/>
<path d="M47.653 73.1094H43.9727" stroke="#4F5794" stroke-width="2" stroke-linecap="round" stroke-linejoin="round"/>
<path d="M47.6523 69.2711V67.8349C47.6556 67.4299 47.8184 67.0425 48.1052 66.7573C48.3921 66.472 48.7797 66.312 49.1838 66.312H68.7712V70.9054C68.7282 72.0209 68.9102 73.1337 69.3064 74.177C69.7026 75.2203 70.3047 76.1727 71.0767 76.9772C71.8488 77.7817 72.7748 78.4216 73.7995 78.8588C74.8241 79.2959 75.9262 79.5213 77.0397 79.5213C78.1533 79.5213 79.2554 79.2959 80.28 78.8588C81.3046 78.4216 82.2307 77.7817 83.0027 76.9772C83.7748 76.1727 84.3769 75.2203 84.7731 74.177C85.1692 73.1337 85.3512 72.0209 85.3082 70.9054V66.312H104.908C105.312 66.312 105.7 66.472 105.987 66.7573C106.273 67.0425 106.436 67.4299 106.439 67.8349V85.1686" stroke="#4F5794" stroke-width="2" stroke-linecap="round" stroke-linejoin="round"/>
<path d="M106.254 92.0897C106.658 91.7183 107.188 91.5147 107.736 91.5201H109.762" stroke="#4F5794" stroke-width="2" stroke-linecap="round" stroke-linejoin="round"/>
<path d="M110.122 87.6819V62.6223H81.6422V70.9053C81.6422 71.5102 81.5234 72.1091 81.2925 72.6679C81.0616 73.2267 80.7232 73.7344 80.2966 74.1621C79.8699 74.5898 79.3635 74.9291 78.8061 75.1606C78.2487 75.392 77.6512 75.5111 77.0479 75.5111C76.4446 75.5111 75.8472 75.392 75.2897 75.1606C74.7323 74.9291 74.2259 74.5898 73.7992 74.1621C73.3726 73.7344 73.0342 73.2267 72.8033 72.6679C72.5724 72.1091 72.4536 71.5102 72.4536 70.9053V62.6223H43.9492V69.271" stroke="#4F5794" stroke-width="2" stroke-linecap="round" stroke-linejoin="round"/>
<path d="M104.636 92.0898C104.232 91.7184 103.702 91.5148 103.154 91.5203H101.82C102.125 91.5203 102.427 91.4596 102.708 91.3415C102.989 91.2235 103.244 91.0505 103.458 90.8327C103.672 90.6149 103.84 90.3566 103.953 90.0729C104.067 89.7892 104.122 89.4858 104.117 89.1802C104.123 88.9035 104.068 88.6289 103.957 88.3755" stroke="#4F5794" stroke-width="2" stroke-linecap="round" stroke-linejoin="round"/>
<path d="M72.4531 70.9053V62.6223H81.6417V70.9053C81.6417 71.5102 81.5229 72.1091 81.292 72.6679C81.0611 73.2267 80.7227 73.7345 80.2961 74.1621C79.8695 74.5898 79.363 74.9291 78.8056 75.1606C78.2482 75.392 77.6508 75.5111 77.0474 75.5111C76.4441 75.5111 75.8467 75.392 75.2893 75.1606C74.7319 74.9291 74.2254 74.5898 73.7988 74.1621C73.3722 73.7345 73.0337 73.2267 72.8029 72.6679C72.572 72.1091 72.4531 71.5102 72.4531 70.9053Z" stroke="#4F5794" stroke-width="2" stroke-linecap="round" stroke-linejoin="round"/>
<path d="M47.6511 77.7523C47.5073 77.7398 47.3626 77.7398 47.2188 77.7523H47.6511Z" stroke="#4F5794" stroke-width="2" stroke-linecap="round" stroke-linejoin="round"/>
<path d="M47.6511 82.3086H47.2188C47.3626 82.3211 47.5073 82.3211 47.6511 82.3086Z" stroke="#4F5794" stroke-width="2" stroke-linecap="round" stroke-linejoin="round"/>
<path d="M47.7155 87.2732C47.3494 87.0314 46.9189 86.9062 46.4805 86.9142H47.6538C47.6491 87.0368 47.6701 87.1592 47.7155 87.2732Z" stroke="#4F5794" stroke-width="2" stroke-linecap="round" stroke-linejoin="round"/>
<path d="M81.6417 62.6223V70.9053C81.6417 71.5102 81.5229 72.1091 81.292 72.6679C81.0611 73.2267 80.7227 73.7345 80.2961 74.1621C79.8695 74.5898 79.363 74.9291 78.8056 75.1606C78.2482 75.392 77.6508 75.5111 77.0474 75.5111C76.4441 75.5111 75.8467 75.392 75.2893 75.1606C74.7319 74.9291 74.2254 74.5898 73.7988 74.1621C73.3722 73.7345 73.0337 73.2267 72.8029 72.6679C72.572 72.1091 72.4531 71.5102 72.4531 70.9053V62.6223H81.6417Z" stroke="#4F5794" stroke-width="2" stroke-linecap="round" stroke-linejoin="round"/>
<path d="M110.122 38.0705V62.6224H43.9492V38.0705C43.9492 37.2562 44.2719 36.4752 44.8463 35.8993C45.4207 35.3235 46.1998 35 47.0121 35H107.059C107.87 35.0033 108.647 35.3278 109.221 35.9029C109.795 36.4781 110.119 37.2572 110.122 38.0705Z" stroke="#4F5794" stroke-width="2" stroke-linecap="round" stroke-linejoin="round"/>
<path d="M99.0938 86.9143H101.823C102.29 86.914 102.745 87.0576 103.127 87.3256C103.509 87.5936 103.8 87.9731 103.96 88.4124" stroke="#4F5794" stroke-width="2" stroke-linecap="round" stroke-linejoin="round"/>
<path d="M106.442 85.2184V67.8847C106.439 67.4797 106.276 67.0923 105.989 66.8071C105.702 66.5218 105.315 66.3618 104.911 66.3618H99.0938V83.0764" stroke="#4F5794" stroke-width="2" stroke-linecap="round" stroke-linejoin="round"/>
<path d="M91.7422 83.0887V66.2998H99.0905V83.0887" stroke="#4F5794" stroke-width="2" stroke-linecap="round" stroke-linejoin="round"/>
<path d="M91.7422 86.9392C91.7821 86.9252 91.8257 86.9252 91.8657 86.9392H99.0905" stroke="#4F5794" stroke-width="2" stroke-linecap="round" stroke-linejoin="round"/>
<path d="M85.8024 88.4125H84.3945V74.7188C84.9961 73.5382 85.3094 72.2312 85.3084 70.9054V66.312H91.7429V83.0762" stroke="#4F5794" stroke-width="2" stroke-linecap="round" stroke-linejoin="round"/>
<path d="M91.744 86.9392C91.2983 86.9542 90.8674 87.1025 90.5065 87.3651C90.1455 87.6277 89.8713 87.9924 89.7188 88.4125" stroke="#4F5794" stroke-width="2" stroke-linecap="round" stroke-linejoin="round"/>
<path d="M84.3945 74.7185V88.4121H76.9844V79.2005C78.5112 79.2091 80.0109 78.7952 81.3183 78.0045C82.6257 77.2137 83.6901 76.0767 84.3945 74.7185Z" stroke="#4F5794" stroke-width="2" stroke-linecap="round" stroke-linejoin="round"/>
<path d="M77.0476 79.2005V88.4121H69.6992V74.7185C70.3977 76.0682 71.4522 77.1999 72.748 77.9902C74.0437 78.7805 75.5309 79.1991 77.0476 79.2005Z" stroke="#4F5794" stroke-width="2" stroke-linecap="round" stroke-linejoin="round"/>
<path d="M62.3477 87.682V66.312H68.7698V70.9054C68.7732 72.2321 69.0907 73.5391 69.6961 74.7188V88.4125H65.4353" stroke="#4F5794" stroke-width="2" stroke-linecap="round" stroke-linejoin="round"/>
<path d="M55.0039 87.6821V85.503V83.7077V77.1333" stroke="#4F5794" stroke-width="2" stroke-linecap="round" stroke-linejoin="round"/>
<path d="M55.0039 76.7124V66.2998H62.3523V87.6821" stroke="#4F5794" stroke-width="2" stroke-linecap="round" stroke-linejoin="round"/>
<path d="M55.0039 87.6821V85.503V83.7077V77.1333" stroke="#4F5794" stroke-width="2" stroke-linecap="round" stroke-linejoin="round"/>
<path d="M48.5792 88.2886C48.4197 87.8585 48.1134 87.4989 47.7147 87.2734C47.6694 87.1593 47.6483 87.037 47.653 86.9143H48.9498C49.3113 86.9184 49.6684 86.835 49.9909 86.6712C50.3134 86.5074 50.5917 86.268 50.8023 85.9734C51.0882 85.5768 51.2436 85.1007 51.2469 84.6114C51.2469 84.0006 51.0049 83.4149 50.5741 82.983C50.1433 82.5511 49.559 82.3085 48.9498 82.3085H47.653C48.1752 82.2055 48.6456 81.9238 48.9837 81.5117C49.3218 81.0996 49.5066 80.5825 49.5066 80.0489C49.5066 79.5153 49.3218 78.9983 48.9837 78.5862C48.6456 78.174 48.1752 77.8924 47.653 77.7894H49.135C49.7442 77.7894 50.3285 77.5467 50.7593 77.1149C51.1901 76.683 51.4322 76.0972 51.4322 75.4865C51.4322 74.8757 51.1901 74.2899 50.7593 73.8581C50.3285 73.4262 49.7442 73.1836 49.135 73.1836H47.653" stroke="#4F5794" stroke-width="2" stroke-linecap="round" stroke-linejoin="round"/>
<path d="M47.6523 69.2711V67.8349C47.6556 67.4299 47.8184 67.0425 48.1052 66.7573C48.3921 66.4721 48.7797 66.312 49.1838 66.312H55.0625V76.7122" stroke="#4F5794" stroke-width="2" stroke-linecap="round" stroke-linejoin="round"/>
<path d="M77.0471 71.6729C77.47 71.6729 77.8129 71.3293 77.8129 70.9053C77.8129 70.4813 77.47 70.1377 77.0471 70.1377C76.6242 70.1377 76.2812 70.4813 76.2812 70.9053C76.2812 71.3293 76.6242 71.6729 77.0471 71.6729Z" stroke="#4F5794" stroke-width="2" stroke-linecap="round" stroke-linejoin="round"/>
<path d="M50.3338 93.8234C50.3338 94.4341 50.0918 95.0199 49.661 95.4518C49.2302 95.8836 48.6459 96.1263 48.0366 96.1263H38.0823C37.4731 96.1263 36.8888 95.8836 36.458 95.4518C36.0272 95.0199 35.7852 94.4341 35.7852 93.8234C35.7852 93.2126 36.0272 92.6269 36.458 92.195C36.8888 91.7631 37.4731 91.5205 38.0823 91.5205H48.0366C48.5853 91.5125 49.1159 91.7164 49.5187 92.09C49.7773 92.2975 49.9852 92.5616 50.1265 92.862C50.2678 93.1625 50.3387 93.4913 50.3338 93.8234Z" stroke="#4F5794" stroke-width="2" stroke-miterlimit="10"/>
<path d="M48.7993 89.18C48.7993 89.7907 48.5572 90.3765 48.1264 90.8084C47.6956 91.2402 47.1114 91.4829 46.5021 91.4829H36.5355C35.9262 91.4829 35.3419 91.2402 34.9111 90.8084C34.4803 90.3765 34.2383 89.7907 34.2383 89.18C34.2383 88.5692 34.4803 87.9834 34.9111 87.5516C35.3419 87.1197 35.9262 86.8771 36.5355 86.8771H46.4898C46.9281 86.8691 47.3587 86.9943 47.7248 87.2361C48.1235 87.4616 48.4297 87.8213 48.5893 88.2514C48.7336 88.5392 48.8056 88.8579 48.7993 89.18Z" stroke="#4F5794" stroke-width="2" stroke-miterlimit="10"/>
<path d="M51.2472 84.6115C51.2439 85.1008 51.0885 85.5768 50.8026 85.9734C50.592 86.2681 50.3137 86.5074 49.9912 86.6712C49.6687 86.835 49.3116 86.9185 48.95 86.9144H39.0081C38.6468 86.9174 38.29 86.8336 37.9676 86.6698C37.6453 86.5061 37.3668 86.2673 37.1556 85.9734C36.8697 85.5768 36.7143 85.1008 36.7109 84.6115C36.7109 84.0007 36.953 83.415 37.3838 82.9831C37.8146 82.5512 38.3989 82.3086 39.0081 82.3086H48.9624C49.5695 82.3118 50.1506 82.5559 50.5787 82.9874C51.0069 83.419 51.2472 84.0028 51.2472 84.6115Z" stroke="#4F5794" stroke-width="2" stroke-miterlimit="10"/>
<path d="M49.5177 80.0178C49.5181 80.5525 49.3319 81.0706 48.9913 81.4822C48.6507 81.8937 48.1772 82.1728 47.6528 82.2711C47.509 82.2838 47.3644 82.2838 47.2205 82.2711H37.2662C36.9512 82.2943 36.6349 82.2522 36.3369 82.1473C36.0388 82.0423 35.7656 81.877 35.5342 81.6614C35.3029 81.4459 35.1183 81.1848 34.9921 80.8946C34.8659 80.6043 34.8008 80.2911 34.8008 79.9744C34.8008 79.6578 34.8659 79.3445 34.9921 79.0543C35.1183 78.764 35.3029 78.503 35.5342 78.2874C35.7656 78.0719 36.0388 77.9065 36.3369 77.8016C36.6349 77.6967 36.9512 77.6545 37.2662 77.6777H47.2205C47.3644 77.665 47.509 77.665 47.6528 77.6777C48.1921 77.7784 48.6772 78.0702 49.0196 78.4998C49.362 78.9295 49.5388 79.4682 49.5177 80.0178Z" stroke="#4F5794" stroke-width="2" stroke-miterlimit="10"/>
<path d="M51.4314 75.4123C51.4314 76.0231 51.1894 76.6088 50.7586 77.0407C50.3278 77.4726 49.7435 77.7152 49.1342 77.7152H39.1799C38.5707 77.7152 37.9864 77.4726 37.5556 77.0407C37.1248 76.6088 36.8828 76.0231 36.8828 75.4123C36.8828 74.8015 37.1248 74.2158 37.5556 73.7839C37.9864 73.352 38.5707 73.1094 39.1799 73.1094H49.1342C49.7435 73.1094 50.3278 73.352 50.7586 73.7839C51.1894 74.2158 51.4314 74.8015 51.4314 75.4123Z" stroke="#4F5794" stroke-width="2" stroke-miterlimit="10"/>
<path d="M64.8669 93.8233C64.8669 94.434 64.6249 95.0198 64.1941 95.4517C63.7633 95.8835 63.179 96.1262 62.5698 96.1262H52.5908C51.9815 96.1262 51.3973 95.8835 50.9665 95.4517C50.5357 95.0198 50.2935 94.434 50.2935 93.8233C50.2862 93.4921 50.3548 93.1636 50.494 92.8631C50.6332 92.5626 50.8393 92.2981 51.0964 92.0899C51.5049 91.7177 52.0388 91.5143 52.5908 91.5204H62.471C63.023 91.5143 63.5568 91.7177 63.9654 92.0899C64.2406 92.2878 64.4655 92.5478 64.6221 92.8489C64.7787 93.15 64.8627 93.4837 64.8669 93.8233Z" stroke="#4F5794" stroke-width="2" stroke-miterlimit="10"/>
<path d="M105.44 93.8234C105.442 94.1252 105.384 94.4244 105.27 94.7037C105.156 94.983 104.988 95.237 104.775 95.451C104.563 95.665 104.311 95.8348 104.033 95.9507C103.754 96.0666 103.456 96.1263 103.155 96.1263H93.201C92.8972 96.1295 92.5959 96.0724 92.3143 95.9581C92.0328 95.8439 91.7766 95.6748 91.5607 95.4606C91.3447 95.2464 91.1733 94.9914 91.0563 94.7104C90.9393 94.4294 90.8791 94.1279 90.8791 93.8234C90.8743 93.4913 90.9452 93.1625 91.0864 92.862C91.2277 92.5616 91.4356 92.2975 91.6943 92.09C92.097 91.7164 92.6277 91.5125 93.1763 91.5205H103.131C103.736 91.5301 104.313 91.7762 104.74 92.2064C105.167 92.6365 105.409 93.2167 105.415 93.8234H105.44Z" stroke="#4F5794" stroke-width="2" stroke-miterlimit="10"/>
<path d="M104.119 89.1801C104.119 89.7909 103.877 90.3767 103.446 90.8085C103.015 91.2404 102.431 91.483 101.822 91.483H91.8676C91.2584 91.483 90.6741 91.2404 90.2433 90.8085C89.8125 90.3767 89.5705 89.7909 89.5705 89.1801C89.5672 88.9048 89.6176 88.6314 89.7187 88.3754C89.8712 87.9552 90.1455 87.5905 90.5065 87.3279C90.8674 87.0654 91.2984 86.917 91.7441 86.902C91.7841 86.8878 91.8277 86.8878 91.8676 86.902H101.822C102.288 86.9017 102.744 87.0453 103.126 87.3133C103.508 87.5813 103.799 87.9608 103.959 88.4001C104.066 88.6459 104.121 88.9117 104.119 89.1801Z" stroke="#4F5794" stroke-width="2" stroke-miterlimit="10"/>
<path d="M119.99 93.8229C119.99 94.4337 119.748 95.0195 119.317 95.4513C118.886 95.8832 118.302 96.1258 117.692 96.1258H107.738C107.129 96.1258 106.545 95.8832 106.114 95.4513C105.683 95.0195 105.441 94.4337 105.441 93.8229C105.454 93.2161 105.7 92.6377 106.128 92.2085C106.556 91.7794 107.133 91.5327 107.738 91.52H117.692C118.302 91.52 118.886 91.7627 119.317 92.1945C119.748 92.6264 119.99 93.2122 119.99 93.8229Z" stroke="#4F5794" stroke-width="2" stroke-miterlimit="10"/>
<path d="M62.4731 60.3195C62.4731 60.9302 62.2311 61.516 61.8003 61.9479C61.3695 62.3798 60.7852 62.6224 60.176 62.6224H50.2464C49.6371 62.6224 49.0528 62.3798 48.622 61.9479C48.1912 61.516 47.9492 60.9302 47.9492 60.3195C47.9492 59.7087 48.1912 59.123 48.622 58.6911C49.0528 58.2592 49.6371 58.0166 50.2464 58.0166H60.2007C60.8056 58.0231 61.3836 58.2686 61.809 58.6998C62.2345 59.1309 62.4731 59.713 62.4731 60.3195Z" stroke="#4F5794" stroke-width="2" stroke-miterlimit="10"/>
<path d="M77.0447 60.3195C77.0447 60.9302 76.8027 61.516 76.3719 61.9479C75.9411 62.3798 75.3568 62.6224 74.7476 62.6224H64.7933C64.4916 62.6224 64.1929 62.5628 63.9142 62.4471C63.6355 62.3314 63.3823 62.1617 63.169 61.9479C62.9557 61.734 62.7864 61.4802 62.671 61.2008C62.5556 60.9214 62.4961 60.6219 62.4961 60.3195C62.4961 60.0171 62.5556 59.7176 62.671 59.4382C62.7864 59.1588 62.9557 58.9049 63.169 58.6911C63.3823 58.4772 63.6355 58.3076 63.9142 58.1919C64.1929 58.0761 64.4916 58.0166 64.7933 58.0166H74.7476C75.3568 58.0166 75.9411 58.2592 76.3719 58.6911C76.8027 59.123 77.0447 59.7087 77.0447 60.3195Z" stroke="#4F5794" stroke-width="2" stroke-miterlimit="10"/>
<path d="M91.5955 60.3195C91.5955 60.9302 91.3535 61.516 90.9227 61.9479C90.4919 62.3798 89.9076 62.6224 89.2983 62.6224H79.344C78.7348 62.6224 78.1505 62.3798 77.7197 61.9479C77.2889 61.516 77.0469 60.9302 77.0469 60.3195C77.0469 59.7087 77.2889 59.123 77.7197 58.6911C78.1505 58.2592 78.7348 58.0166 79.344 58.0166H89.2983C89.9076 58.0166 90.4919 58.2592 90.9227 58.6911C91.3535 59.123 91.5955 59.7087 91.5955 60.3195Z" stroke="#4F5794" stroke-width="2" stroke-miterlimit="10"/>
<path d="M106.131 60.3195C106.131 60.9302 105.889 61.516 105.458 61.9479C105.028 62.3798 104.443 62.6224 103.834 62.6224H93.9536C93.3443 62.6224 92.76 62.3798 92.3292 61.9479C91.8984 61.516 91.6562 60.9302 91.6562 60.3195C91.6562 59.7087 91.8984 59.123 92.3292 58.6911C92.76 58.2592 93.3443 58.0166 93.9536 58.0166H103.834C104.443 58.0166 105.028 58.2592 105.458 58.6911C105.889 59.123 106.131 59.7087 106.131 60.3195Z" stroke="#4F5794" stroke-width="2" stroke-miterlimit="10"/>
<path d="M77.7855 58.0165C77.1762 58.0165 76.5919 57.7738 76.1611 57.3419C75.7303 56.9101 75.4883 56.3243 75.4883 55.7135C75.4883 55.1028 75.7303 54.517 76.1611 54.0851C76.5919 53.6533 77.1762 53.4106 77.7855 53.4106H87.7398C88.349 53.4106 88.9333 53.6533 89.3641 54.0851C89.7949 54.517 90.0369 55.1028 90.0369 55.7135C90.0369 56.3243 89.7949 56.9101 89.3641 57.3419C88.9333 57.7738 88.349 58.0165 87.7398 58.0165H77.7855Z" stroke="#4F5794" stroke-width="2" stroke-miterlimit="10"/>
<path d="M85.6409 53.4105C85.0316 53.4105 84.4473 53.1679 84.0165 52.736C83.5857 52.3041 83.3438 51.7184 83.3438 51.1076C83.3438 50.4968 83.5857 49.9111 84.0165 49.4792C84.4473 49.0473 85.0316 48.8047 85.6409 48.8047H95.5951C96.2044 48.8047 96.7887 49.0473 97.2195 49.4792C97.6503 49.9111 97.8923 50.4968 97.8923 51.1076C97.8923 51.7184 97.6503 52.3041 97.2195 52.736C96.7887 53.1679 96.2044 53.4105 95.5951 53.4105H85.6409Z" stroke="#4F5794" stroke-width="2" stroke-miterlimit="10"/>
<path d="M51.68 58.0165C51.0707 58.0165 50.4864 57.7738 50.0556 57.3419C49.6248 56.9101 49.3828 56.3243 49.3828 55.7135C49.3828 55.1028 49.6248 54.517 50.0556 54.0851C50.4864 53.6533 51.0707 53.4106 51.68 53.4106H61.6343C62.2435 53.4106 62.8278 53.6533 63.2586 54.0851C63.6894 54.517 63.9314 55.1028 63.9314 55.7135C63.9314 56.3243 63.6894 56.9101 63.2586 57.3419C62.8278 57.7738 62.2435 58.0165 61.6343 58.0165H51.68Z" stroke="#4F5794" stroke-width="2" stroke-miterlimit="10"/>
<path d="M71.1166 57.5959C70.878 57.8218 70.5939 57.9938 70.2833 58.1004C69.9728 58.2069 69.6431 58.2455 69.3165 58.2136C68.9898 58.1817 68.6738 58.0799 68.3897 57.9153C68.1055 57.7506 67.8599 57.5268 67.6693 57.2589C67.4787 56.9911 67.3476 56.6854 67.2847 56.3624C67.2219 56.0395 67.2288 55.7068 67.305 55.3868C67.3813 55.0667 67.525 54.7668 67.7266 54.5071C67.9282 54.2475 68.1829 54.0341 68.4737 53.8815L76.6125 48.1366C77.104 47.8786 77.672 47.8076 78.2117 47.9367C78.7513 48.0659 79.2261 48.3865 79.5483 48.8393C79.8705 49.2921 80.0183 49.8466 79.9645 50.4002C79.9107 50.9537 79.6588 51.4691 79.2554 51.851L71.1166 57.5959Z" stroke="#4F5794" stroke-width="2" stroke-miterlimit="10"/>
<path d="M92.3362 58.0165C91.727 58.0165 91.1427 57.7738 90.7119 57.3419C90.2811 56.9101 90.0391 56.3243 90.0391 55.7135C90.0391 55.1028 90.2811 54.517 90.7119 54.0851C91.1427 53.6533 91.727 53.4106 92.3362 53.4106H102.29C102.9 53.4106 103.484 53.6533 103.915 54.0851C104.346 54.517 104.588 55.1028 104.588 55.7135C104.588 56.3243 104.346 56.9101 103.915 57.3419C103.484 57.7738 102.9 58.0165 102.29 58.0165H92.3362Z" stroke="#4F5794" stroke-width="2" stroke-miterlimit="10"/>
<path d="M52.5404 14.6002C52.6864 13.9807 53.0015 13.4141 53.4505 12.964C53.8995 12.5139 54.4646 12.198 55.0826 12.0516L60.1898 10.9088C60.2799 10.8826 60.3592 10.8277 60.4156 10.7525C60.472 10.6773 60.5025 10.5857 60.5025 10.4916C60.5025 10.3975 60.472 10.3059 60.4156 10.2307C60.3592 10.1555 60.2799 10.1007 60.1898 10.0745L55.0826 8.93162C54.4646 8.78528 53.8995 8.46936 53.4505 8.01923C53.0015 7.56911 52.6864 7.00256 52.5404 6.38304L51.4004 1.27447C51.384 1.17569 51.3332 1.08593 51.257 1.02118C51.1808 0.956435 51.0842 0.920898 50.9843 0.920898C50.8844 0.920898 50.7877 0.956435 50.7115 1.02118C50.6353 1.08593 50.5845 1.17569 50.5682 1.27447L49.4282 6.38304C49.2822 7.00256 48.9671 7.56911 48.5181 8.01923C48.0691 8.46936 47.504 8.78528 46.886 8.93162L41.7902 10.0745C41.6916 10.0909 41.6021 10.1418 41.5375 10.2182C41.4729 10.2946 41.4375 10.3915 41.4375 10.4916C41.4375 10.5918 41.4729 10.6886 41.5375 10.765C41.6021 10.8414 41.6916 10.8923 41.7902 10.9088L46.886 12.0516C47.504 12.198 48.0691 12.5139 48.5181 12.964C48.9671 13.4141 49.2822 13.9807 49.4282 14.6002L50.5682 19.7088C50.5845 19.8075 50.6353 19.8973 50.7115 19.962C50.7877 20.0268 50.8844 20.0623 50.9843 20.0623C51.0842 20.0623 51.1808 20.0268 51.257 19.962C51.3332 19.8973 51.384 19.8075 51.4004 19.7088L52.5404 14.6002Z" stroke="#6A73B5" stroke-width="1.2" stroke-linecap="round" stroke-linejoin="round"/>
<path d="M32.3259 58.8231L36.3159 57.4859C36.39 57.4615 36.4543 57.4139 36.4994 57.3502C36.5446 57.2864 36.5681 57.2098 36.5667 57.1316C36.5664 57.0539 36.5422 56.9781 36.4973 56.9147C36.4524 56.8512 36.389 56.8033 36.3159 56.7774L33.0327 55.6345C32.8127 55.5603 32.6128 55.436 32.4486 55.2714C32.2845 55.1069 32.1605 54.9065 32.0865 54.6859L30.9465 51.3945C30.9206 51.3212 30.8728 51.2577 30.8095 51.2126C30.7462 51.1676 30.6706 51.1433 30.5931 51.1431C30.5187 51.1532 30.4492 51.186 30.3941 51.2371C30.339 51.2883 30.301 51.3552 30.2853 51.4288L29.1453 54.7202C29.0709 54.9424 28.9455 55.144 28.7791 55.3088C28.6128 55.4736 28.4102 55.5969 28.1877 55.6688L24.9045 56.8116C24.8434 56.8429 24.792 56.8903 24.7558 56.9487C24.7196 57.0071 24.7001 57.0743 24.6993 57.1431C24.6978 57.2212 24.7214 57.2978 24.7665 57.3616C24.8116 57.4254 24.876 57.4729 24.9501 57.4974L28.2333 58.6402C28.4562 58.7149 28.6587 58.8405 28.8249 59.0071C28.9911 59.1737 29.1164 59.3767 29.1909 59.6002L30.2853 62.8574C30.3096 62.9316 30.3571 62.9961 30.4207 63.0414C30.4843 63.0866 30.5607 63.1102 30.6387 63.1088C30.7162 63.1085 30.7918 63.0842 30.8551 63.0392C30.9184 62.9942 30.9662 62.9307 30.9921 62.8574L32.3259 58.8231Z" stroke="#6A73B5" stroke-width="1.2" stroke-linecap="round" stroke-linejoin="round"/>
<path d="M123.047 67.4287L127.048 66.0916C127.12 66.0651 127.183 66.0168 127.227 65.9535C127.271 65.8901 127.295 65.8146 127.295 65.7373C127.295 65.6599 127.271 65.5845 127.227 65.5211C127.183 65.4577 127.12 65.4095 127.048 65.383L123.765 64.2401C123.544 64.1675 123.343 64.0438 123.179 63.879C123.014 63.7142 122.891 63.513 122.819 63.2916L121.679 60.0001C121.65 59.9285 121.6 59.8672 121.536 59.824C121.472 59.7809 121.397 59.7578 121.319 59.7578C121.242 59.7578 121.167 59.7809 121.103 59.824C121.039 59.8672 120.989 59.9285 120.96 60.0001L119.82 63.2916C119.746 63.5121 119.622 63.7125 119.458 63.8771C119.294 64.0417 119.094 64.1659 118.874 64.2401L115.591 65.383C115.518 65.4095 115.456 65.4577 115.412 65.5211C115.367 65.5845 115.344 65.6599 115.344 65.7373C115.344 65.8146 115.367 65.8901 115.412 65.9535C115.456 66.0168 115.518 66.0651 115.591 66.0916L118.874 67.2344C119.096 67.309 119.297 67.4347 119.461 67.6015C119.626 67.7682 119.749 67.9713 119.82 68.1944L120.96 71.4859C120.989 71.5575 121.039 71.6188 121.103 71.6619C121.167 71.7051 121.242 71.7282 121.319 71.7282C121.397 71.7282 121.472 71.7051 121.536 71.6619C121.6 71.6188 121.65 71.5575 121.679 71.4859L123.047 67.4287Z" stroke="#6A73B5" stroke-width="1.2" stroke-linecap="round" stroke-linejoin="round"/>
</g>
<defs>
<clipPath id="clip0">
<rect width="146" height="98" fill="white"/>
</clipPath>
</defs>
</svg>
