<svg width="50" height="50" viewBox="0 0 50 50" fill="none" xmlns="http://www.w3.org/2000/svg">
<circle cx="25" cy="25" r="25" fill="#F5EFE2"/>
<g clip-path="url(#clip0)">
<path d="M25 41C33.8366 41 41 33.8366 41 25C41 16.1634 33.8366 9 25 9C16.1634 9 9 16.1634 9 25C9 33.8366 16.1634 41 25 41Z" fill="#FFD93B"/>
<path d="M40.9999 24.9999C40.9999 33.8399 33.8349 40.9999 24.9999 40.9999C19.9699 40.9999 15.4799 38.6799 12.5449 35.0449C15.2899 37.2649 18.7849 38.5899 22.5899 38.5899C31.4249 38.5899 38.5899 31.4299 38.5899 22.5899C38.5899 18.7849 37.2649 15.2899 35.0449 12.5449C38.6749 15.4799 40.9999 19.9699 40.9999 24.9999Z" fill="#F4C534"/>
<path d="M31.1618 34.4488C30.3658 34.9288 28.2238 32.7928 25.2718 32.7668C22.3628 32.7408 20.1778 34.9298 19.3818 34.4488C18.4288 34.0608 20.0588 29.4108 25.2718 29.3828C30.4848 29.4108 32.1148 34.0618 31.1618 34.4488Z" fill="#3E4347"/>
<path d="M33.3958 22.8449C33.3958 24.2539 32.2428 25.4069 30.8278 25.4069C29.4118 25.4069 28.2598 24.2539 28.2598 22.8449C28.2598 21.4229 29.4128 20.2769 30.8278 20.2769C32.2438 20.2769 33.3958 21.4229 33.3958 22.8449Z" fill="#3E4347"/>
<path d="M32.0037 21.3964C31.6881 21.1223 31.2907 21.0631 31.1161 21.2641C30.9416 21.4651 31.0561 21.8502 31.3717 22.1243C31.6874 22.3984 32.0848 22.4577 32.2594 22.2566C32.4339 22.0556 32.3194 21.6705 32.0037 21.3964Z" fill="#5A5F63"/>
<path d="M21.7395 22.8449C21.7395 24.2539 20.5865 25.4069 19.1715 25.4069C17.7565 25.4069 16.6035 24.2539 16.6035 22.8449C16.6035 21.4229 17.7565 20.2769 19.1715 20.2769C20.5865 20.2769 21.7395 21.4229 21.7395 22.8449Z" fill="#3E4347"/>
<path d="M20.3465 21.3971C20.0308 21.123 19.6334 21.0638 19.4589 21.2648C19.2844 21.4658 19.3988 21.851 19.7145 22.125C20.0302 22.3991 20.4276 22.4584 20.6021 22.2574C20.7767 22.0564 20.6622 21.6712 20.3465 21.3971Z" fill="#5A5F63"/>
</g>
<defs>
<clipPath id="clip0">
<rect width="32" height="32" fill="white" transform="translate(9 9)"/>
</clipPath>
</defs>
</svg>
