<svg width="32" height="32" viewBox="0 0 32 32" fill="none" xmlns="http://www.w3.org/2000/svg">
<rect width="32" height="32" rx="4" fill="#4BBEFF"/>
<path d="M25.8097 10.2272C25.8677 10.1465 25.7821 10.0422 25.6894 10.0781C25.0307 10.3334 24.3422 10.5057 23.64 10.5906C24.4219 10.1235 25.0253 9.4124 25.3599 8.57053C25.3939 8.48477 25.3003 8.40819 25.2195 8.4528C24.4928 8.85414 23.709 9.14313 22.8949 9.30957C22.8608 9.31654 22.8257 9.30494 22.8018 9.27969C22.1908 8.63502 21.3865 8.20578 20.5098 8.05745C19.6146 7.90601 18.6945 8.05596 17.8938 8.48379C17.093 8.91162 16.4569 9.59313 16.0852 10.4214C15.7318 11.209 15.6365 12.0869 15.8108 12.93C15.8243 12.9954 15.7731 13.0572 15.7064 13.0531C14.1224 12.9547 12.5747 12.5334 11.1587 11.8145C9.74627 11.0974 8.49554 10.0998 7.48267 8.8833C7.43772 8.82931 7.35252 8.83629 7.31976 8.89845C7.0046 9.49651 6.83958 10.1631 6.84003 10.8406C6.83875 11.515 7.00424 12.1792 7.32178 12.7742C7.63932 13.3691 8.09905 13.8763 8.66003 14.2506C8.0651 14.2344 7.48178 14.0873 6.95128 13.8207C6.88291 13.7863 6.8009 13.8352 6.80446 13.9117C6.84583 14.8009 7.17228 15.6936 7.73734 16.3786C8.33866 17.1074 9.17328 17.6062 10.1 17.7906C9.74328 17.8992 9.3729 17.9564 9.00003 17.9606C8.79709 17.9582 8.59454 17.9433 8.39356 17.9158C8.31904 17.9056 8.2582 17.9764 8.28428 18.0469C8.5607 18.7944 9.04902 19.4467 9.6911 19.9228C10.3775 20.4318 11.2056 20.7142 12.06 20.7306C10.6172 21.8659 8.83591 22.4855 7.00003 22.4906C6.81138 22.4912 6.62282 22.4851 6.43471 22.4723C6.3287 22.4651 6.27995 22.6063 6.37132 22.6605C8.16009 23.7221 10.2046 24.2831 12.29 24.2806C13.8297 24.2966 15.3571 24.0056 16.7831 23.4247C18.2091 22.8437 19.505 21.9845 20.5952 20.8971C21.6854 19.8097 22.548 18.516 23.1326 17.0915C23.7171 15.667 24.012 14.1403 24 12.6006V12.1208C24 12.0892 24.0149 12.0595 24.0401 12.0405C24.7184 11.5283 25.3149 10.9169 25.8097 10.2272Z" fill="white"/>
</svg>
