<svg viewBox="0 0 24 20" fill="none" xmlns="http://www.w3.org/2000/svg">
<path fill-rule="evenodd" clip-rule="evenodd" d="M0.8 0C0.358203 0 0 0.358203 0 0.8V7.2C0 7.6418 0.358203 8 0.8 8H9.6C10.0418 8 10.4 7.6418 10.4 7.2V4.8H14.4V9.6V14.4H10.4V12C10.4 11.5582 10.0418 11.2 9.6 11.2H0.8C0.358203 11.2 0 11.5582 0 12V18.4C0 18.8418 0.358203 19.2 0.8 19.2H9.6C10.0418 19.2 10.4 18.8418 10.4 18.4V16H16V15.2V14.4V10.4H23.2C23.6418 10.4 24 10.0418 24 9.6C24 9.1582 23.6418 8.8 23.2 8.8H16V4.8V3.2H14.4H10.4V0.8C10.4 0.358203 10.0418 0 9.6 0H0.8Z" fill="white"/>
</svg>
