<svg width="16" height="16" viewBox="0 0 16 16" fill="none" xmlns="http://www.w3.org/2000/svg">
<path d="M14.2185 15.2802L7.68898 8.74998H4.24947V7.24998H6.18897L4.68897 5.74998H4.24947C3.00682 5.74998 1.99947 6.7573 1.99947 7.99998C1.99947 9.24265 3.00682 10.25 4.24947 10.25H6.49947V11.75H4.24947C2.36063 11.7516 0.765449 10.348 0.5265 8.47435C0.287557 6.6007 1.47944 4.84176 3.30822 4.36923L0.718469 1.78023L1.77972 0.719727L15.2797 14.2197L14.2192 15.2795L14.2185 15.2802ZM14.1015 10.9197L13.0305 9.84948C13.8393 9.28908 14.1902 8.2681 13.8967 7.32888C13.6033 6.38968 12.7335 5.75013 11.7495 5.74998H9.49948V4.24998H11.7495C13.3395 4.25016 14.7565 5.25306 15.2854 6.7525C15.8143 8.25198 15.3402 9.922 14.1022 10.9197H14.1015Z" fill="white"/>
</svg>
