<svg width="24" height="22" viewBox="0 0 24 22" fill="none" xmlns="http://www.w3.org/2000/svg">
<g clip-path="url(#clip0)">
<path d="M0 20.1631C2.04456 18.2337 6.93536 16.686 12.081 16.0381C13.0362 15.9179 13.9882 15.8253 14.9188 15.7559C14.9535 15.7533 15.235 15.7415 15.235 15.7415L15.6618 16.7007L16.1808 15.6802C16.1808 15.6802 16.5792 15.6546 16.5931 15.6539C19.2187 15.5291 21.5674 15.5791 23.1881 15.6917C22.7694 16.5718 21.8489 18.483 21.8489 18.483C20.327 17.9969 15.6 17.4641 11.019 17.8302C5.44152 18.2759 0.570342 19.9521 0 20.1631Z" fill="#EE3026"/>
<path d="M15.6707 16.5871L12.1964 8.28031L8.72234 16.5871L0.393066 0L3.6212 8.7429L8.61808 21.3333L12.1964 13.4412L15.775 21.3333L20.7718 8.7429L24 0L15.6707 16.5871Z" fill="#343961"/>
<path d="M22.2564 0.0249023L15.8231 8.25633L12.2078 0.251529L8.59278 8.25633L2.15955 0.0249023L8.64092 12.4791L12.2078 3.56339L15.775 12.4791L22.2564 0.0249023Z" fill="#343961"/>
</g>
<defs>
<clipPath id="clip0">
<rect width="24" height="21.3333" fill="white"/>
</clipPath>
</defs>
</svg>
