<svg width="26" height="23" viewBox="0 0 26 23" fill="none" xmlns="http://www.w3.org/2000/svg">
<mask id="mask0_23708_28" style="mask-type:alpha" maskUnits="userSpaceOnUse" x="1" y="1" width="24" height="22">
<path d="M25 1H1V22.3333H25V1Z" fill="white"/>
</mask>
<g mask="url(#mask0_23708_28)">
<path d="M1 21.1633C3.04456 19.2339 7.93536 17.6862 13.081 17.0383C14.0362 16.9181 14.9882 16.8255 15.9188 16.7561C15.9535 16.7535 16.235 16.7417 16.235 16.7417L16.6618 17.7009L17.1808 16.6804C17.1808 16.6804 17.5792 16.6548 17.5931 16.6541C20.2187 16.5293 22.5674 16.5793 24.1881 16.6919C23.7694 17.572 22.8489 19.4832 22.8489 19.4832C21.327 18.9971 16.6 18.4643 12.019 18.8304C6.44152 19.2761 1.57034 20.9523 1 21.1633Z" fill="#D51A3D"/>
<path d="M16.6702 17.5871L13.1959 9.28031L9.72185 17.5871L1.39258 1L4.62071 9.7429L9.61759 22.3333L13.1959 14.4412L16.7745 22.3333L21.7713 9.7429L24.9995 1L16.6702 17.5871Z" fill="#F0FEFE"/>
<path d="M23.256 1.02539L16.8227 9.25682L13.2074 1.25202L9.59241 9.25682L3.15918 1.02539L9.64055 13.4796L13.2074 4.56388L16.7746 13.4796L23.256 1.02539Z" fill="#F0FEFE"/>
</g>
</svg>
